<svg xmlns="http://www.w3.org/2000/svg" xmlns:xlink="http://www.w3.org/1999/xlink" width="1123" zoomAndPan="magnify" viewBox="0 0 841.92 595.499987" height="794" preserveAspectRatio="xMidYMid meet" version="1.0"><defs><clipPath id="0b684800b2"><path d="M 161 28 L 681 28 L 681 548 L 161 548 Z M 161 28 " clip-rule="nonzero"/></clipPath><clipPath id="97f4ebc694"><path d="M 235.847656 -29.0625 L 738.101562 102.949219 L 606.089844 605.203125 L 103.832031 473.191406 Z M 235.847656 -29.0625 " clip-rule="nonzero"/></clipPath><clipPath id="d4dfb1b3fd"><path d="M 235.847656 -29.0625 L 738.101562 102.949219 L 606.089844 605.203125 L 103.832031 473.191406 Z M 235.847656 -29.0625 " clip-rule="nonzero"/></clipPath><clipPath id="6f8a5d4238"><path d="M 235.847656 -29.0625 L 738.101562 102.949219 L 606.089844 605.203125 L 103.832031 473.191406 Z M 235.847656 -29.0625 " clip-rule="nonzero"/></clipPath><clipPath id="feaa5e41f8"><path d="M 280 129 L 417 129 L 417 270 L 280 270 Z M 280 129 " clip-rule="nonzero"/></clipPath><clipPath id="46f89a94db"><path d="M 235.847656 -29.0625 L 738.101562 102.949219 L 606.089844 605.203125 L 103.832031 473.191406 Z M 235.847656 -29.0625 " clip-rule="nonzero"/></clipPath><clipPath id="593deaf8ff"><path d="M 235.847656 -29.0625 L 738.101562 102.949219 L 606.089844 605.203125 L 103.832031 473.191406 Z M 235.847656 -29.0625 " clip-rule="nonzero"/></clipPath><clipPath id="8968b3f94c"><path d="M 235.847656 -29.0625 L 738.101562 102.949219 L 606.089844 605.203125 L 103.832031 473.191406 Z M 235.847656 -29.0625 " clip-rule="nonzero"/></clipPath><clipPath id="3933c2c117"><path d="M 468 179 L 605 179 L 605 319 L 468 319 Z M 468 179 " clip-rule="nonzero"/></clipPath><clipPath id="f5047dd393"><path d="M 235.847656 -29.0625 L 738.101562 102.949219 L 606.089844 605.203125 L 103.832031 473.191406 Z M 235.847656 -29.0625 " clip-rule="nonzero"/></clipPath><clipPath id="4333bb9b0f"><path d="M 235.847656 -29.0625 L 738.101562 102.949219 L 606.089844 605.203125 L 103.832031 473.191406 Z M 235.847656 -29.0625 " clip-rule="nonzero"/></clipPath><clipPath id="34430b4be5"><path d="M 235.847656 -29.0625 L 738.101562 102.949219 L 606.089844 605.203125 L 103.832031 473.191406 Z M 235.847656 -29.0625 " clip-rule="nonzero"/></clipPath></defs><g clip-path="url(#0b684800b2)"><g clip-path="url(#97f4ebc694)"><g clip-path="url(#d4dfb1b3fd)"><g clip-path="url(#6f8a5d4238)"><path fill="#e6b451" d="M 169.839844 222.0625 C 206.296875 83.355469 348.265625 0.484375 486.972656 36.941406 C 625.683594 73.398438 708.550781 215.367188 672.09375 354.074219 C 635.636719 492.785156 493.667969 575.65625 354.960938 539.195312 C 216.253906 502.738281 133.382812 360.769531 169.839844 222.0625 Z M 550.019531 401.167969 C 557.964844 390.882812 548.953125 377.292969 535.90625 377.847656 C 493.816406 379.578125 448.117188 374.699219 401.71875 362.503906 C 355.316406 350.308594 313.125 332.085938 277.324219 309.882812 C 266.238281 302.984375 251.707031 310.386719 253.570312 323.25 C 262.855469 387.671875 309.273438 443.289062 375.882812 460.796875 C 442.488281 478.304688 510.355469 452.722656 550.019531 401.167969 Z M 361.859375 129.90625 C 358.820312 129.105469 355.609375 130.148438 353.609375 132.5625 L 328.378906 162.320312 L 289.714844 157.402344 C 286.570312 156.996094 283.578125 158.410156 281.824219 161.09375 C 280.070312 163.78125 280.226562 167.175781 281.742188 169.777344 L 302.28125 202.96875 L 285.667969 238.242188 C 284.304688 241.03125 284.78125 244.410156 286.769531 246.820312 C 288.757812 249.230469 291.941406 250.277344 294.953125 249.597656 L 332.855469 240.265625 L 361.292969 266.929688 C 363.554688 269.097656 366.84375 269.753906 369.785156 268.535156 C 372.726562 267.3125 374.679688 264.679688 374.960938 261.609375 L 377.839844 222.722656 L 412.042969 203.921875 C 414.742188 202.429688 416.449219 199.523438 416.242188 196.320312 C 416.035156 193.121094 414.125 190.414062 411.1875 189.222656 L 375.101562 174.496094 L 367.761719 136.175781 C 367.210938 133.09375 364.925781 130.605469 361.886719 129.808594 Z M 550.207031 179.410156 C 547.164062 178.609375 543.953125 179.65625 541.957031 182.066406 L 516.726562 211.824219 L 478.0625 206.90625 C 474.917969 206.5 471.921875 207.914062 470.167969 210.601562 C 468.414062 213.285156 468.472656 216.65625 470.089844 219.285156 L 490.625 252.472656 L 474.011719 287.75 C 472.652344 290.535156 473.125 293.914062 475.113281 296.324219 C 477.101562 298.734375 480.289062 299.78125 483.296875 299.105469 L 521.199219 289.769531 L 549.636719 316.433594 C 551.898438 318.601562 555.1875 319.257812 558.128906 318.039062 C 561.074219 316.820312 563.023438 314.1875 563.304688 311.113281 L 566.1875 272.226562 L 600.386719 253.425781 C 603.085938 251.933594 604.792969 249.027344 604.585938 245.824219 C 604.378906 242.625 602.46875 239.921875 599.53125 238.730469 L 563.445312 224 L 556.109375 185.679688 C 555.554688 182.597656 553.273438 180.109375 550.230469 179.3125 Z M 550.207031 179.410156 " fill-opacity="1" fill-rule="nonzero"/></g></g></g></g><g clip-path="url(#feaa5e41f8)"><g clip-path="url(#46f89a94db)"><g clip-path="url(#593deaf8ff)"><g clip-path="url(#8968b3f94c)"><path fill="#2da4bc" d="M 361.859375 129.90625 C 358.820312 129.105469 355.609375 130.148438 353.609375 132.5625 L 328.378906 162.320312 L 289.714844 157.402344 C 286.570312 156.996094 283.578125 158.410156 281.824219 161.09375 C 280.070312 163.78125 280.226562 167.175781 281.742188 169.777344 L 302.28125 202.96875 L 285.667969 238.242188 C 284.304688 241.03125 284.78125 244.410156 286.769531 246.820312 C 288.757812 249.230469 291.941406 250.277344 294.953125 249.597656 L 332.855469 240.265625 L 361.292969 266.929688 C 363.554688 269.097656 366.84375 269.753906 369.785156 268.535156 C 372.726562 267.3125 374.679688 264.679688 374.960938 261.609375 L 377.839844 222.722656 L 412.042969 203.921875 C 414.742188 202.429688 416.449219 199.523438 416.242188 196.320312 C 416.035156 193.121094 414.125 190.414062 411.1875 189.222656 L 375.101562 174.496094 L 367.761719 136.175781 C 367.210938 133.09375 364.925781 130.605469 361.886719 129.808594 Z M 361.859375 129.90625 " fill-opacity="1" fill-rule="nonzero"/></g></g></g></g><g clip-path="url(#3933c2c117)"><g clip-path="url(#f5047dd393)"><g clip-path="url(#4333bb9b0f)"><g clip-path="url(#34430b4be5)"><path fill="#2da4bc" d="M 550.207031 179.410156 C 547.164062 178.609375 543.953125 179.65625 541.957031 182.066406 L 516.726562 211.824219 L 478.0625 206.90625 C 474.917969 206.5 471.921875 207.914062 470.167969 210.601562 C 468.414062 213.285156 468.570312 216.683594 470.089844 219.285156 L 490.625 252.472656 L 474.011719 287.75 C 472.652344 290.535156 473.125 293.914062 475.113281 296.324219 C 477.101562 298.734375 480.289062 299.78125 483.296875 299.105469 L 521.199219 289.769531 L 549.636719 316.433594 C 551.898438 318.601562 555.1875 319.257812 558.128906 318.039062 C 561.074219 316.820312 563.023438 314.1875 563.304688 311.113281 L 566.1875 272.226562 L 600.386719 253.425781 C 603.085938 251.933594 604.792969 249.027344 604.585938 245.824219 C 604.378906 242.625 602.46875 239.921875 599.53125 238.730469 L 563.445312 224 L 556.109375 185.679688 C 555.554688 182.597656 553.273438 180.109375 550.230469 179.3125 Z M 550.207031 179.410156 " fill-opacity="1" fill-rule="nonzero"/></g></g></g></g></svg>