<?xml version="1.0" encoding="UTF-8"?>
<svg id="Layer_1" xmlns="http://www.w3.org/2000/svg" viewBox="0 0 486.01 472.33">
  <defs>
    <style>
      .cls-1 {
        fill-rule: evenodd;
      }
    </style>
  </defs>
  <path class="cls-1" d="M79.79,356.84c-.16.16-.31.35-.43.56-33.42,58.11,13.5,93.75,13.5,93.75,1.17.89,2.84.67,3.73-.5.89-1.17.67-2.84-.5-3.73,0,0-15.65-12.02-21.3-33.35,2.19-9.5,18.18-13.93,18.18-13.93l-4.41-2.49c30.59-10.56,33.21-31.47,31.57-46.51-1.63-15.03,6.34-16.63,6.34-16.63,0,0-33.9-15.17-61.53,12.82-27.63,27.99-.44,61.12-.44,61.12-10.33-26.18,13.25-49.19,15.28-51.11h0ZM79.93,356.71h0s0,0,0,0h0Z"/>
  <path class="cls-1" d="M107.28,472.33s-16.36-43.71,28.53-62.37l-2.66-3.07s12.72-7.23,34.91,9.62c0,0-24.37-2.93-42.07,14.62,0,0,24.79-14.84,48.01-7.75,0,0-13.89,7.41-10.76,18.25l-4.43-3.25s-2.69,14.6-12.82,23.64c-10.14,9.04-29.42-.48-38.72,10.31h0Z"/>
  <path class="cls-1" d="M156.65,355.43s4.97,4.56,11.75,3.77c6.78-.79,18.76,1.91,24.08,18.04,3.67,11.14,12.06,16.76,12.06,16.76,0,0-24.61.46-40.29-17.19,0,0,6,19.05,33.77,22.83,0,0-18.87,13.57-35.75-5.76-16.88-19.33-5.62-38.46-5.62-38.46h0Z"/>
  <path class="cls-1" d="M67.63,297.44s-1.55,4.74,1.06,9.06c2.61,4.32,4.46,13.21-4.76,21.73-6.37,5.89-7.58,13.25-7.58,13.25,0,0-7.85-16.42-.79-32.38,0,0-10.98,9.87-5.01,29.72,0,0-14.92-8.54-7.08-25.82,7.83-17.28,24.16-15.57,24.16-15.57h0Z"/>
  <path class="cls-1" d="M8.33,250.91s1.6,3.99,5.72,5.4c4.11,1.41,10.26,6.26,8.88,16.99-.95,7.41,2.32,12.95,2.32,12.95,0,0-14.27-6.5-18.43-20.96,0,0-1.79,12.6,13.13,22.41,0,0-14.58,2.61-18.96-13.14-4.39-15.75,7.34-23.65,7.34-23.65h0Z"/>
  <path class="cls-1" d="M17.12,369.7s4.04,5.17,10.67,5.5c6.63.32,17.7,4.84,20.22,21.16,1.74,11.28,8.89,18.01,8.89,18.01,0,0-23.69-3.49-35.91-22.93,0,0,2.71,19.24,28.75,27.31,0,0-20.27,10-33.38-11.24-13.1-21.24.76-37.8.76-37.8h0Z"/>
  <path class="cls-1" d="M132.06,280.54c-33.24,0-56.47-24.77-56.47-57.09V57.09C75.58,23.85,98.82,0,132.06,0h173.81c93.52,0,143.65,64.02,143.65,136.87,0,25.17-5.66,49.85-22.04,72.15,40.36,24.37,58.53,63.02,58.53,108.45,0,40.82-14.14,77.77-41.27,104.63-26.66,26.4-66.18,43.37-118.45,43.37h-88.58c-.93-5-3.99-8.71-8.14-9.7-27.03,24.3-61.32,5.12-61.32,5.12,13.42-8.49,5.94-31.31,17.16-41.46,18.25-16.51,37.12-18.14,47.02-17.57-38.88-28.65-16.74-72.25-16.74-72.25,9.61,14.06,33.78,5.33,44.61,17.42,10.84,12.09,12.08,29.79,12.08,29.79l5.69-3.27c-4.27,10.29,5.56,19.35,9.12,22.19l1.22.92c1.72,1.37,4.82,3.91,8.61,4.11.62.03-17.89-15.59-11.04-36.24l-6.01,2.03s-.32-6.32-3.12-14.03h49.42c47.12,0,47.12-71.99,0-71.99h-194.23ZM257.37,461.5s3.31-7.77,8.54-10.89c5.2-3.09,12.55-6.79,10.41-21.69-1.47-10.3,3.89-16.93,3.89-16.93,0,0-19.73,9.33-25.23,29.53,0,0-2.75-17.5,17.83-31.44,0,0-20.34-3.34-26.13,18.66-5.79,22,10.69,32.77,10.69,32.77h0ZM246.02,413.28s-1.98,3.38-6.18,8.08c-3.05,3.4-7.17,7.46-12.39,11.41-7.17,5.42-16.13,10.56-26.9,13.17,8-2.88,14.38-6.85,19.57-11.06,5.27-4.28,9-8.75,11.8-12.49,3.57-4.79,5.27-8.29,5.27-8.29.98-1.78,3.75-3.4,6.19-3.63,2.44-.22,3.62,1.03,2.64,2.81h0ZM273.08,402.11s-3.85-.99-9.21-3.79c-3.89-2.03-8.54-4.92-13.08-8.91-6.24-5.49-12.2-12.79-15.34-22.54,3.4,6.99,7.98,12.1,12.83,15.99,4.92,3.95,10.02,6.35,14.29,8.04,5.46,2.16,9.43,2.85,9.43,2.85,2.02.47,3.9,2.72,4.2,5.02.3,2.31-1.1,3.8-3.11,3.34h0ZM194.09,167.61h111.78c7.36,0,13.57-1.71,17.72-6.29,4.9-5.41,6.82-13.74,6.82-24.45,0-11.51-9.54-23.93-24.53-23.93h-111.78v54.67h0Z"/>
</svg>