<?xml version="1.0" encoding="UTF-8"?>
<svg id="Layer_1" xmlns="http://www.w3.org/2000/svg" viewBox="0 0 518.51 281.64">
  <defs>
    <style>
      .cls-1 {
        fill: #1e1316;
      }

      .cls-2 {
        fill: #025246;
      }

      .cls-3 {
        fill: #fff;
      }

      .cls-4 {
        fill: #599133;
      }

      .cls-5 {
        fill: #8a48a1;
      }
    </style>
  </defs>
  <path class="cls-3" d="M517.3,158.75c-3.55-10.06-14.01-15.82-24.88-13.72-1.84.36-3.64.84-5.42,1.43,4.09-4.93,7.06-10.14,9.01-15.85,3-8.78,1.72-18.84-3.43-26.91-5.3-8.3-14.09-13.67-24.12-14.73-1.63-.17-3.26-.23-4.9-.19,2.95-1.56,6.42-3.47,9.81-5.91,10.87-7.81,16.05-19.53,14.2-32.17-1.86-12.7-10.08-22.65-22.57-27.28-6.35-2.35-13.1-3.22-21.23-2.71-11.27.69-22.12,4.4-33.18,11.33-7.56,4.73-14.2,10.09-20.91,15.62-3.96,3.27-7.69,5.8-11.39,7.72-2.06-8.43-7.18-15.12-14.4-18.66-8.27-4.05-18.13-3.41-27.05,1.77-4.64,2.69-8.79,6.37-12.67,11.27-.57.72-1.13,1.46-1.68,2.21-1.51,2.06-4.04,3.06-6.56,2.65-7.48-1.23-15.14,1.81-20.5,8.44-.87,1.08-1.66,2.2-2.39,3.36-1.54,2.47-4.52,3.57-7.34,2.84-4.49-1.16-9.14-2-13.92-2.53-1.57-.17-2.63-1.7-2.29-3.24v-.03c1.86-8.37.12-16.53-4.9-22.96-2.73-3.51-6.24-6.38-10.42-8.56-6.57-3.41-13.77-4.82-21.44-4.2.31-1.82.38-3.7.18-5.59-.75-7.05-5.02-13.18-11.43-16.4-4.87-2.44-10.56-2.92-15.9-1.75-4.05-2.86-9.14-4.27-14.77-3.93-14,.84-26.14,7.39-35.1,18.96-.3.38-.57.78-.84,1.17-1.39-1.17-2.95-2.18-4.68-3-11.7-5.55-24.2-2.35-31.85,8.15l-.06.08c-1.96,2.68-6.09,2.15-7.32-.93-2.37-5.94-7.45-10.57-14.64-12.86-4.45-1.42-9.21-1.79-14.54-1.14-8.36,1.02-15.04,7.4-16.63,15.86-1.37,7.32.81,14.02,5.8,18.63.9,5.67,2.73,10.72,5.47,15.12.16,1.47.36,3.31.52,4.78-1.15,3.14-2.32,6.35-3.48,9.58-5.83-.08-11.74.52-17.65,1.89-22.43,5.21-42.09,21.01-50.36,42.73-8.89,23.34-5.99,68.36,2.27,91.41,8.52,23.76,26.37,42.4,48.88,53.45,34.15,16.76,79.03,16.54,116.36,17.19,30.72.53,61.44.52,92.16.54,178.74.13,187.03-34.23,189.79-67.54.72-8.67,6.73-15.99,15.07-18.46,2.45-.73,4.42-1.3,5.02-1.46,10.91-2.83,23.02-4.03,32.78-10.07,9.07-5.61,12.9-15.81,9.52-25.37ZM486.03,162.4s.02-.08.03-.12l.07.34c-.03-.07-.07-.14-.1-.22Z"/>
  <g>
    <path class="cls-4" d="M343.81,102.68c2.65-1.72,3.43-3.42,4.53-4.84,3.56-4.61,7.35-9.01,11.61-12.98,5.23-4.88,10.99-8.99,17.79-11.36,8.36-2.91,15.65-7.56,22.43-13.15,6.16-5.09,12.38-10.12,19.17-14.37,7.81-4.89,16.14-8.27,25.46-8.85,4.94-.3,9.82-.02,14.5,1.72,6.66,2.47,10.98,7.13,12.01,14.23,1.02,6.96-1.93,12.42-7.52,16.43-2.5,1.79-5.21,3.31-7.94,4.75-2.73,1.44-5.53,2.77-8.4,3.88-10.4,4.03-18.35,10.81-23.8,20.59-2.21,3.97-4.86,7.67-7.92,11.05-6.06,6.69-13.34,11.14-22.42,12.32-1.8.23-3.6.5-5.4.73-7.02.91-12.71,4.15-17.04,9.74-2,2.58-3.91,5.24-5.78,7.92-3.73,5.36-8.47,9.54-14.65,11.74-6.36,2.26-10.75,6.56-14.02,12.26-1.45,2.52-2.94,5.02-4.5,7.46-2.1,3.28-4.81,5.46-9.05,4.48-.93-.21-1.73-.09-2.58.41q-6.33,3.72-12.42,2.02c-1.25.68-.57,1.92-.78,2.89-.39,1.81-1.4,2.95-3.24,3.18-2.03.26-3.59-.59-4.42-2.44-.51-1.14-.87-2.4-1.06-3.64-3.82-24.17-.17-47.14,12.16-68.33,6.23-10.71,11.93-21.59,16.6-33.05,2.54-6.24,5.7-12.17,9.92-17.48,2.28-2.87,4.85-5.41,8.04-7.26,8.5-4.93,16.27-1.27,17.58,8.43,1.06,7.85-.58,15.2-5.01,21.81-1.72,2.56-3.7,4.94-5.63,7.35-2.83,3.54-5.67,7.08-8.22,12.37Z"/>
    <path class="cls-4" d="M458.96,149.21c7.07,6.8,6.54,14.22,3.12,21.92-.95,2.15-2.12,4.22-3.31,6.24-4.4,7.46-10.77,11.59-19.64,11.49-6.57-.08-13.01.93-19.39,2.45-8.23,1.96-16.61,1.6-24.94.96-9.77-.75-19.51-1.87-29.26-2.91-5.53-.59-7.18-3.41-5.23-8.64.44-1.17,1.35-2.19,1.21-3.55-.02-.17-.11-.32-.24-.73-1.88-.44-3.83.18-5.79.28-1.46.07-2.89.2-4.29-.38-3.12-1.29-4.12-4.9-1.47-6.97,6.45-5.05,11.16-11.95,18.03-16.52,1.19-.79,2.11-1.98,3.18-2.96,3.22-2.93,6.41-5.9,9.69-8.76,9.37-8.18,20.22-12.65,32.72-12.96,6.74-.17,12.75-2.35,18.11-6.53,4.14-3.24,8.45-6.29,12.85-9.17,4.42-2.89,9.17-5.13,14.33-6.49,2.68-.71,5.39-.93,8.1-.64,11.15,1.18,16.49,11.83,13.71,19.96-1.69,4.94-4.46,9.07-7.99,12.81-3.87,4.11-8.52,7.29-13.5,11.1Z"/>
    <path class="cls-1" d="M314.61,123.58c.77-7.65,2.65-15,5.89-21.99,1.84-3.96,3.96-7.77,6.34-11.42,4.97-7.61,9.63-15.4,13.54-23.61.62-1.31,1.14-2.71,2.4-3.57.61-.42,1.36-.51,2.05-.08.65.41,1.15,1.05.94,1.79-.35,1.21-.86,2.37-1.38,3.53-3.43,7.64-7.58,14.88-12.05,21.95-2.72,4.3-5.36,8.65-7.44,13.3-2.45,5.5-4.43,11.13-5.01,17.18-.14,1.44-.47,2.87-.74,4.3-.29,1.55-.95,3-2.77,2.66-1.76-.33-1.88-1.97-1.82-3.49,0-.18.02-.36.04-.54Z"/>
    <path class="cls-4" d="M134.22,182.8c.88.19,1.98.29,2.98.67,4.46,1.67,5.37,6.36,1.82,9.46-.94.82-2.08,1.51-3.25,1.92-4.61,1.62-9.25,3.21-13.93,4.61-2.59.78-4.6-.06-5.68-1.89-1.11-1.89-.75-3.88,1.49-5.73,2.78-2.3,5.38-4.88,8.64-6.58,2.44-1.27,5.02-2.06,7.94-2.47Z"/>
    <path class="cls-4" d="M303.94,84.47c.5-4.19,1.73-7.92,4.29-11.09,1.94-2.41,4.06-3.12,6.08-2.25,2.35,1.01,3.35,3.2,2.4,6.39-1.02,3.44-2.3,6.82-3.7,10.13-1,2.34-3.24,3.5-5.17,3.03-2.2-.53-3.21-2.18-3.66-4.23-.15-.7-.17-1.42-.23-1.97Z"/>
    <path class="cls-4" d="M147.13,197.85c-2.39-.02-3.93-.81-4.56-2.78-.55-1.74.05-3.28,1.5-4.29,2.38-1.66,4.99-2.98,7.91-3.3,1.94-.21,3.58.68,4.3,2.59.71,1.9.15,3.62-1.51,4.77-2.41,1.67-5.2,2.4-7.64,3Z"/>
    <path class="cls-2" d="M326.17,158.55c2.32-1.9,4.11-3.42,5.95-4.87,5.92-4.63,12.3-8.38,19.79-9.86,4.51-.89,9.02-.95,13.43.59,6.91,2.42,9.89,7.82,8.33,14.96-.55,2.52-1.66,4.78-2.85,7.03-.75,1.42-2.06,2.54-2.33,4.65,1.19.71,2.64.44,3.98.57,3.87.38,7.49,1.49,10.52,4.01,4.61,3.84,4.38,9.32-.47,12.88-1.78,1.3-3.79,2.14-5.89,2.74-4.55,1.31-9.19,2.22-13.93,2.19-4.53-.03-9.08-.11-13.59-.53-7.23-.67-14.35-.98-21.64.15-8.61,1.34-17.39.68-26.09.35-5.23-.2-7.24-3.9-5.22-8.74.71-1.7,1.75-3.18,3.16-4.37,2.17-1.84,2.67-4.02,2.01-6.81-3.03-12.8-.88-24.93,5.5-36.25,5.62-9.98,10.56-20.26,15.07-30.77,2.29-5.35,5.04-10.46,8.7-15.03,2.41-3.01,5.17-5.6,8.71-7.24,7.63-3.55,14.4,0,15.75,8.32.97,5.94-.4,11.54-2.77,16.95-1.84,4.19-4.4,7.96-7.41,11.36-6.11,6.92-10.6,14.66-13,23.62-.89,3.33-2.52,6.4-4.15,9.45-.65,1.22-1.77,2.3-1.52,4.65Z"/>
    <path class="cls-2" d="M420.05,193.55c-3.48.39-6.79-1.57-9.92-3.78-2.64-1.85-2.78-4.55-.58-7.02.72-.81,1.58-1.51,2.46-2.14,4.57-3.29,9.14-6.57,13.76-9.78,2.69-1.87,5.58-3.42,8.68-4.5,3.15-1.09,6.35-1.65,9.58-.35,2.89,1.16,5.65.68,8.48-.3,2.39-.83,4.85-1.6,7.34-2.01,4.5-.74,8.35.61,10.75,4.68,2.37,4,1.9,8.04-.63,11.81-2.45,3.64-6.01,5.8-10.22,6.74-2.64.59-5.38.99-8.09,1.03-6.05.1-11.9,1.23-17.68,2.91-4.36,1.26-8.71,2.61-13.94,2.71Z"/>
    <path class="cls-2" d="M173.28,37.24c-2.15.17-4.13-.05-5.3-2.06-1.25-2.15-.68-4.26.74-6.09,5.85-7.55,13.43-12.04,23.09-12.62,2.47-.15,4.76.48,5.92,2.98,1.03,2.23.47,4.37-1.17,6.02-6.45,6.49-14.19,10.5-23.27,11.77Z"/>
    <path class="cls-2" d="M488.38,173.89c-2.94,0-4.89-1.27-5.52-3.3-.56-1.78.14-3.58,2.28-5.03,3.17-2.13,6.65-3.66,10.41-4.38,2.9-.56,5.44.79,6.24,3.04.74,2.11-.16,4.36-2.67,5.91-3.42,2.12-7.28,3.07-10.73,3.76Z"/>
    <path class="cls-2" d="M208.3,29.97c-2.12.03-3.58-.58-4.46-2.12-1-1.76-.64-3.45.51-5.03,1.96-2.68,6.8-3.87,9.75-2.39,2.87,1.44,3.36,5.13.85,7.15-2.02,1.62-4.5,2.14-6.66,2.39Z"/>
    <path class="cls-1" d="M432.91,146.58c7.1.44,14.17.72,20.81-2.59.91-.45,1.84-.17,2.36.69.65,1.07.38,2.22-.61,2.88-1.19.8-2.5,1.47-3.85,1.96-4.5,1.64-9.21,1.92-13.95,1.79-3.26-.09-6.53-.14-9.79-.36-6.95-.47-13.29,1.39-19.25,4.8-3.15,1.8-6.23,3.73-9.38,5.53-8.71,4.98-17.76,9.07-27.71,10.92-1.8.33-4.12.15-4.56,2.97-.18,1.17-1.55,1.42-2.59,1.71-7.65,2.16-14.2,6.35-20.5,11.01-1.31.97-2.65,1.9-4.03,2.77-1.07.68-2.14.46-2.89-.53-.8-1.05-.37-2.11.45-2.93.9-.89,1.9-1.68,2.92-2.43,4.97-3.67,10.09-7.1,15.8-9.56,1.7-.73,3.34-1.24,2.81-3.81-.31-1.48,1.17-2.09,2.5-2.32,2.14-.38,4.3-.7,6.44-1.04,10.18-1.61,19.52-5.47,28.4-10.58,2.99-1.72,5.94-3.5,8.89-5.28,7.2-4.34,14.94-6.46,23.38-5.82,1.45.11,2.9.15,4.35.22Z"/>
    <path class="cls-1" d="M342.42,138.04c-.93-.34-1.56-.95-1.49-2,.11-1.5.86-2.77,1.64-3.99,9.69-14.9,21.35-27.6,38.53-33.96,8.57-3.17,15.62-8.46,21.76-15.04,9.24-9.91,19.92-18,31.28-25.26,1.37-.87,2.79-1.71,4.29-2.3.87-.35,1.76.19,2.25,1.08.39.7.36,1.5-.15,2.03-.86.91-1.81,1.77-2.84,2.5-2.97,2.09-5.99,4.11-9,6.13-6.8,4.58-13.14,9.71-18.83,15.63-2.52,2.62-5.18,5.1-7.79,7.62-5.16,4.97-11.01,8.94-17.76,11.39-16.66,6.05-28.33,17.92-37.9,32.27-.7,1.05-1.3,2.18-2.03,3.21-.45.64-1.22.71-1.97.69Z"/>
    <path class="cls-1" d="M302.72,177.49c.24-4.78,1.83-10.56,4.72-15.87,3.84-7.06,6.96-14.3,8.17-22.33.63-4.19,2.8-7.85,5.45-11.13,6.65-8.25,12.37-17.02,15.58-27.23.16-.51.41-1.01.7-1.47.51-.84,1.28-1.27,2.28-1.06,1.09.23,1.36,1.08,1.38,2.04.02,1.48-.52,2.83-.99,4.21-2.86,8.32-7.05,15.95-12.55,22.77-4.57,5.66-7.67,11.8-8.53,19.08-.48,4-2.17,7.66-4.1,11.18-3.95,7.21-7.47,14.55-7.47,23.03,0,.36-.08.73-.19,1.07-.36,1.1-.95,1.98-2.28,1.87-1.28-.11-1.91-1.02-2.12-2.13-.16-.87-.03-1.8-.03-4.01Z"/>
    <path class="cls-1" d="M441.65,132.23c-.15,1.18-1.23,1.86-2.35,2.48-4.8,2.64-9.84,4.62-15.29,5.48-4.32.68-8.67,1-13.03.77-8.59-.45-15.99,2.38-22.69,7.62-5.58,4.36-11.34,8.47-17.04,12.67-1.17.86-2.36,1.71-3.61,2.43-1.41.82-3.04,1.82-4.29-.09-1.06-1.63.35-2.65,1.42-3.62.4-.36.88-.64,1.32-.96,6.58-4.84,13.24-9.58,19.71-14.56,7.34-5.64,15.46-8.65,24.78-8.18,9.41.47,18.48-.72,26.84-5.45.75-.42,1.7-.58,2.58-.66.85-.08,1.75,1,1.65,2.05Z"/>
    <path class="cls-1" d="M360.09,156.02c.04,1.02-.46,1.76-1.33,2.17-12.5,5.94-21.5,15.86-30.01,26.35-.79.98-1.71,1.87-2.66,2.69-.76.66-1.73.68-2.48,0-.71-.63-.97-1.55-.6-2.48.26-.67.59-1.34,1.03-1.9,8.16-10.31,17.13-19.75,28.59-26.5,1.56-.92,3.13-1.9,5-2.03,1.2-.08,2.08.5,2.48,1.69Z"/>
    <path class="cls-1" d="M421.26,187.03c-1.11-.05-2.93-.07-4.72-.24-.75-.07-1.27-.74-1.38-1.48-.11-.76.3-1.37.94-1.82,1.27-.89,2.76-.95,4.19-.89,7.63.31,14.68-1.91,21.61-4.75,4.19-1.72,8.45-3.29,12.69-4.88,1.18-.44,2.41-.82,3.64-1.07.95-.2,1.8.2,2.27,1.09.6,1.14.25,2.19-.73,2.85-.89.6-1.93,1-2.94,1.37-6.12,2.28-12.26,4.49-18.37,6.8-5.33,2.02-10.85,2.89-17.21,3.02Z"/>
    <path class="cls-1" d="M311.61,184.11c.89-7.46,3.49-14.13,8.2-19.91.45-.55,1.04-1.03,1.66-1.36.82-.45,1.75-.58,2.52.14.77.72.76,1.63.3,2.47-.34.63-.88,1.15-1.32,1.72-3.33,4.42-5.53,9.34-6.43,14.82-.15.89-.35,1.78-.57,2.66-.33,1.3-.86,2.51-2.5,2.26-1.6-.24-1.79-1.56-1.86-2.8Z"/>
    <path class="cls-1" d="M175.42,32.51c-1.54-.2-2.13-1.08-1.78-2.28.23-.8.82-1.63,1.48-2.15,2.54-1.99,5.15-3.89,7.77-5.78,1.03-.74,2.2-1.27,3.52-1.09.72.1,1.35.42,1.65,1.18.29.74.21,1.57-.35,1.98-3.61,2.65-7.27,5.23-10.94,7.78-.41.28-1.01.27-1.35.36Z"/>
    <path class="cls-1" d="M17.78,144.61c-.38-23.1,14.94-46.04,41.74-52.27,30.36-7.05,61.43,12.02,68.91,42.14,7.48,30.1-11.49,59.6-42.05,65.4-29.56,5.61-58.64-12.36-66.72-41.21-1.33-4.76-2.02-9.59-1.89-14.05ZM120.44,152.1c.1-3.66-.28-4.21-2.88-4.32-9.95-.43-19.9-.77-29.84-1.19-1.99-.08-3.27.47-4.32,2.4-1.19,2.19-1.21,3.88.11,5.99,5.38,8.59,10.62,17.27,15.91,25.92.19.31.36.63.57.92,1.08,1.53,1.71,1.75,3.06.67,1.97-1.58,3.96-3.19,5.68-5.03,6.88-7.4,10.82-16.16,11.71-25.36ZM99.62,109.58c-.36-.45-.61-.97-1.02-1.24-10.43-6.93-21.89-9.11-34.18-7.27-1.47.22-1.86,1.13-1.28,2.9,2.92,8.93,5.85,17.87,8.86,26.77,1.21,3.56,5.03,4.41,7.61,1.65,5.17-5.56,10.22-11.24,15.31-16.87,1.33-1.48,2.67-2.95,3.95-4.47.33-.38.48-.92.75-1.46ZM63.33,137.61c2.43.15,5.05-2.9,4.35-5.07-2.19-6.73-4.49-13.42-6.77-20.12-.82-2.4-1.66-4.8-2.59-7.16-.88-2.21-1.42-2.42-3.75-1.47-9.97,4.06-17.52,10.82-22.49,20.4-1.13,2.18-.91,2.82,1.43,3.61,9.46,3.18,18.94,6.29,28.41,9.42.51.17,1.04.29,1.41.39ZM27.02,144.8c.22,6.31,1.59,12.84,4.56,18.99.81,1.67,1.54,1.98,2.97,1.12,9.02-5.44,18.03-10.9,27-16.42,1.89-1.16,1.95-1.96,1.47-4.14-.4-1.78-1.76-2.17-3.12-2.63-9.3-3.1-18.61-6.17-27.92-9.25-.34-.11-.71-.18-1.05-.3-1.34-.47-2.12.18-2.44,1.37-.92,3.52-1.44,7.11-1.47,11.25ZM75.85,191.38c6.44.13,12.58-1.23,18.45-3.79,2.18-.95,2.4-1.63,1.12-3.73-5.44-8.97-10.93-17.89-16.37-26.86-1-1.64-2.02-2.89-4.27-2.5-2.18.38-2.27,2.12-2.65,3.62-2.42,9.45-4.79,18.92-7.17,28.39-.13.53-.21,1.06-.34,1.59-.32,1.34.34,1.99,1.55,2.34,3.17.91,6.44.86,9.68.94ZM103.46,141.8c0,.11,0,.22,0,.33,4.7.24,9.4.52,14.1.71,2.1.09,2.82-.65,2.5-2.48-1.81-10.32-6.47-19.12-14.09-26.32-1.26-1.19-1.96-1.18-3.19.18-6.47,7.08-12.93,14.18-19.31,21.34-1.82,2.04-.62,5.24,2.11,5.82,1.41.3,2.87.4,4.32.41,4.52.05,9.05.02,13.57.02ZM57.61,187.79c1.24.19,1.62-.25,1.86-.71.33-.63.6-1.32.77-2.02,2.48-9.82,4.94-19.64,7.4-29.47.09-.35.17-.7.22-1.06.11-.75,0-1.46-.59-1.98-.79-.69-1.66-.5-2.52-.1-.16.08-.32.17-.48.26-8.97,5.44-17.95,10.87-26.9,16.35-1.63,1-1.77,1.68-.7,3.04,5.33,6.83,11.87,12.13,19.95,15.41.49.2,1.03.28.98.27Z"/>
    <path class="cls-1" d="M258.83,95.2c13.53.22,25.68,4.45,36.16,13,12.96,10.57,20.08,24.36,20.36,41.06.32,18.76-7.79,33.71-22.99,44.54-24.19,17.22-58.13,12.83-77.2-9.94-24.7-29.5-12.24-72,23.4-85.11,6.52-2.4,13.28-3.63,20.27-3.54ZM303.04,164.78c-.4-.28-.79-.73-1.27-.87-9.9-3.01-19.8-5.99-29.71-8.97-.34-.1-.72-.24-1.06-.2-.52.07-1.1.17-1.51.45-2.95,2.06-3.68,3.98-2.64,7.4,2.57,8.51,5.21,17,7.83,25.5.16.52.34,1.04.54,1.54.67,1.61,1.4,2,2.91,1.51.69-.22,1.36-.52,2.01-.83,9.67-4.63,16.99-11.66,21.67-21.36.62-1.29,1.41-2.55,1.23-4.18ZM260.08,112.27s.04,0,.06,0c.5,7.95.9,15.9,1.53,23.84.3,3.8,3.84,5.51,7.06,3.44,8.22-5.29,16.33-10.73,24.49-16.12.3-.2.58-.43.86-.66.85-.69.93-1.56.29-2.36-.79-.99-1.67-1.91-2.59-2.77-6.93-6.47-15.08-10.67-24.42-12.18-9.02-1.45-7.81-1.84-7.3,6.28.01.18.02.36.03.54ZM211.52,149.24c.31,2.88.5,5.77.98,8.62.43,2.56,1.23,3,3.78,2.24,10.06-3.02,20.1-6.11,30.15-9.13,1.68-.5,2.87-1.23,3.24-3.16.44-2.28-.87-3.29-2.47-4.31-8.54-5.47-17.05-10.98-25.6-16.43-2.52-1.61-3.07-1.42-4.6,1.33-3.6,6.47-5.26,13.45-5.47,20.85ZM256.83,131.52s.03,0,.04,0c-.49-6.34-.95-12.67-1.49-19-.17-1.99-.49-3.96-.81-5.93-.17-1.05-.96-1.48-1.95-1.51-.72-.02-1.46.02-2.17.14-10.55,1.75-19.59,6.4-26.95,14.21-1.44,1.53-1.37,2.25.46,3.43,8.83,5.73,17.67,11.46,26.58,17.08,3.02,1.91,6.43-.01,6.5-3.51.03-1.63-.13-3.26-.21-4.9ZM306.14,149.91c-.06-8.01-2.2-15.41-6.32-22.23-.92-1.52-1.65-1.71-3.12-.75-8.35,5.45-16.67,10.92-24.97,16.45-1.9,1.27-2.08,2.58-1.2,4.68.56,1.35,1.64,1.85,2.88,2.22,9.72,2.92,19.43,5.85,29.16,8.72,1.83.54,2.62-.03,2.9-2.07.32-2.33.45-4.68.66-7.03ZM258.92,195.01c3.06-.28,6.14-.43,9.18-.88,2.57-.38,3.02-1.2,2.25-3.75-2.71-9.02-5.49-18.02-8.25-27.03-.16-.52-.35-1.03-.54-1.54-.5-1.36-1.54-1.9-2.91-2.05-1.45-.16-2.43.42-3.11,1.67-4.85,8.91-9.73,17.81-14.54,26.74-1.11,2.07-.75,2.92,1.41,3.73,5.31,1.99,10.79,3.09,16.5,3.12ZM249.94,155.16c-.34.06-1.06.13-1.75.33-1.92.55-3.82,1.15-5.74,1.73-7.82,2.37-15.65,4.7-23.45,7.12-4.17,1.29-4.29,1.68-2.15,5.69,1.98,3.71,4.43,7.07,7.36,10.09,2.66,2.75,5.56,5.23,8.85,7.2,1.55.93,2.26.76,3.21-.59.31-.45.58-.92.84-1.4,4.68-8.62,9.36-17.23,14.03-25.85.34-.63.65-1.3.87-1.99.34-1.05-.58-2.27-2.06-2.32Z"/>
    <path class="cls-1" d="M261.92,82.51c14.92.38,30.21,4.18,43.73,13.75,2.07,1.47,4.16,2.96,5.71,5.02,1.49,1.98,1.6,4.07-.17,5.92-1.59,1.67-3.55,1.7-5.47.59-.94-.54-1.74-1.31-2.61-1.96-20.25-15.1-42.43-17.5-66.06-9.9-4.17,1.34-7.9,3.64-11.33,6.39-.85.68-1.7,1.37-2.62,1.94-1.94,1.2-3.86,1.05-5.45-.6-1.8-1.86-1.64-3.95-.17-5.92,1.54-2.07,3.68-3.49,5.78-4.92,9.73-6.59,23.26-10.33,38.66-10.33Z"/>
    <path class="cls-5" d="M168.11,74.82c-20.17,0-40.34,0-60.5,0-1.63,0-3.27,0-4.9-.07-1.12-.04-1.79-.82-1.49-1.73,1.14-3.44,2.33-6.87,3.5-10.3.07-.21.16-.41.25-.59-2.94-.73-6-1.27-8.67-2.58-.02.07-.03.13-.05.2-.4,1.2-.82,2.4-1.25,3.59-2.72,7.49-5.49,14.97-8.14,22.49-2.05,5.81-3.86,11.71-5.9,17.52-4.15,11.8-8.38,23.56-12.57,35.35-.42,1.19-.83,2.4-1.11,3.64-.46,2.07.58,4.02,2.51,4.93,1.78.84,4,.22,5.21-1.69.77-1.21,1.32-2.58,1.81-3.93,2.21-6.14,4.36-12.3,6.53-18.45,4.17-11.79,8.34-23.58,12.52-35.36,1.48-4.17,2.34-4.39,5.42-1.46.13.13.26.26.39.38,17.12,16.78,33.63,34.18,51.25,50.46,4,3.7,7.75,7.67,11.59,11.53,1.28,1.29,2.74,2.48,3.69,3.99.81,1.28,1.77,2.13,2.86,2.7,0-.82.04-1.63.14-2.45.34-2.78,1.3-5.31,2.66-7.67-.33-.05-.67-.2-.98-.47-.83-.69-1.59-1.48-2.36-2.25-18.24-18.19-36.47-36.37-54.7-54.56-.77-.77-1.51-1.56-2.2-2.4-.15-.18-.04-.62.03-.92.03-.12.29-.26.45-.27,1.08-.06,2.17-.13,3.26-.13,30,0,60.01,0,90.01,0,1.01-2.24,2.36-4.35,3.79-6.32.79-1.09,1.64-2.15,2.51-3.19-15.18,0-30.36,0-45.55,0Z"/>
    <path class="cls-5" d="M159.78,149.23c-.04-9.17,6.62-16.03,15.52-15.97,9.17.06,16.24,7.32,16.32,16.75.07,9.03-6.77,16.16-15.46,16.12-8.81-.05-16.33-7.81-16.38-16.9Z"/>
    <path class="cls-5" d="M269.91,149.06c.08,5.57-4.34,10.26-9.74,10.33-5.18.07-9.67-4.35-9.8-9.65-.15-5.61,4.16-10.43,9.46-10.6,5.43-.17,10,4.33,10.08,9.91Z"/>
    <path class="cls-5" d="M218.81,54.44c-14.79,29.73-29.71,59.4-44.77,89-2.43,4.77,4.58,9.38,7.03,4.58,15.05-29.6,29.98-59.27,44.77-89,2.38-4.79-4.63-9.4-7.03-4.57Z"/>
    <path class="cls-5" d="M73.13,133.41c5.54-.06,10.02,4.39,10.04,9.96.02,5.34-4.3,9.75-9.64,9.82-5.62.08-10.41-4.8-10.31-10.48.1-5.47,4.11-9.25,9.91-9.31Z"/>
    <path class="cls-5" d="M262.88,144.86h-88.3c-5.39,0-5.4,8.38,0,8.38h88.3c5.39,0,5.4-8.38,0-8.38Z"/>
    <path class="cls-1" d="M238.35,61.16c-2.36-.03-4.68-.27-7.02-.7-5.39-.98-10.85-.59-16.29-.5-4.9.09-9.79.15-14.69.19-2.86.02-4.76-1.4-5.91-3.98-.63-1.42-.64-2.75-.07-4.2.83-2.14,2.33-3.69,4.25-4.79,1.72-.99,3.54-1.86,5.41-2.53,6.48-2.33,13.34-3.27,20.17-3.78,6.32-.48,12.29-1.13,18.11,1.9,1.96,1.02,3.67,2.33,5.03,4.07,2.18,2.79,2.56,5.96,1.82,9.28-.59,2.64-3.31,4.71-6.46,5.01-1.44.14-2.9.02-4.35.02Z"/>
    <path class="cls-1" d="M194.23,174.33c-1.58-.45-3.49-1.05-4.24-2.55-1.52-3.06-.77-4.16-1.31-4.95-.96-1.41-11.72-11.91-15.13-15.66-.85-.93-1.84-1.78-2.11-3.1-.19-.96.05-1.79.84-2.41.83-.65,1.77-.63,2.46.06,2.03,2,12.11,12.23,15.53,15.69.7.71,1.64,1.11,2.63,1.12,2.34.02,4.72-.02,7.05.24,2.01.22,4.15.17,5.96,1.23,2.88,1.68,3.75,5.7,2.3,8.6-.5,1.01-1.33,1.68-2.31,2.22-1.5.84-9.42.17-11.67-.48Z"/>
    <path class="cls-5" d="M263.38,146.64c-16.37-22.62-32.75-45.23-49.12-67.85-3.13-4.33-10.41-.15-7.24,4.23,16.37,22.62,32.75,45.23,49.12,67.85,3.13,4.33,10.41.15,7.24-4.23Z"/>
    <path class="cls-5" d="M141.84,31.5c-3.66.26-7.33.51-10.99.77-1.02.07-1.97.43-2.76.98-.64.24-1.26.69-1.83,1.38-4.91,6.1-10.38,11.71-16.56,16.52-3.12,2.43-8.16,6.42-8.34-.71-.09-3.4,1.09-7.14,2.48-10.38,1.69-.15,3.38-.29,5.07-.44,2.45-.21,4.84-2.02,4.72-4.72-.11-2.37-2.08-4.95-4.72-4.72l-7.22.63c-.54.05-1.07.18-1.58.38-1.43-.04-2.83.66-3.66,2.42-4.11,8.73-9.32,28.71,5.49,30.73,5.99.82,11.1-3.82,15.42-7.31,5.68-4.6,10.77-9.81,15.36-15.49,3.04-.21,6.08-.43,9.12-.64,2.54-.18,4.72-2.04,4.72-4.72,0-2.41-2.16-4.89-4.72-4.72Z"/>
    <path class="cls-1" d="M103.45,63.08c-.01-.28-.1-.54-.25-.78-.29-.45-.72-.84-1.25-.96-.19-.02-.37-.05-.56-.07-.28,0-.54.07-.79.17.06-.03.13-.05.19-.08-.11.05-.23.07-.35.1-.04,0-.09,0-.13,0-.07-.02-.13-.03-.19-.05-.04-.02-.07-.04-.11-.06-.06-.06-.13-.12-.19-.18-.28-.36-.65-.64-1.1-.77-.28-.09-.56-.1-.84-.04-.28.01-.54.1-.78.25-.45.29-.84.72-.96,1.25-.12.53-.1,1.14.21,1.62.64.98,1.57,1.68,2.7,2.02.47.14.98.21,1.47.19.33-.02.67-.06.99-.14.32-.07.64-.23.94-.36.24-.13.44-.31.59-.54.19-.2.31-.44.38-.71.09-.28.1-.56.04-.84Z"/>
    <path class="cls-1" d="M165.15,139.22c-.06-.27-.19-.51-.38-.71-.15-.23-.34-.41-.59-.54-.17-.07-.33-.14-.5-.21-.37-.1-.74-.1-1.11,0l-.5.21c-.32.19-.57.44-.75.75-.36.71-.72,1.43-1.08,2.14-.15.24-.24.5-.25.78-.06.28-.05.56.04.84.06.27.19.51.38.71.15.23.34.41.59.54.17.07.33.14.5.21.37.1.74.1,1.11,0,.17-.07.33-.14.5-.21.32-.19.57-.44.75-.75.36-.71.72-1.43,1.08-2.14.15-.24.24-.5.25-.78.06-.28.05-.56-.04-.84Z"/>
    <path class="cls-1" d="M185.87,133.87c-.1-.36-.28-.66-.54-.92-.11-.14-.24-.27-.37-.39-.2-.17-.41-.33-.62-.49-.07-.05-.15-.1-.23-.15-.3-.18-.64-.31-.96-.43-.17-.07-.35-.11-.53-.15-.28-.09-.56-.1-.84-.04-.28.01-.54.1-.78.25-.24.13-.44.31-.59.54-.19.2-.31.44-.38.71-.02.19-.05.37-.07.56,0,.38.1.73.29,1.06.11.14.22.28.33.42.26.26.57.44.92.54.12.02.23.07.35.1.08.04.16.09.24.14.1.09.2.17.28.28.19.2.41.35.67.43.25.13.52.19.81.18.29.01.56-.05.81-.18.26-.08.48-.23.67-.43.11-.14.22-.28.33-.42.19-.33.28-.68.29-1.06-.02-.19-.05-.37-.07-.56Z"/>
    <path class="cls-1" d="M105.22,34.89c-.2-.88-.66-1.66-1.24-2.34-.58-.68-1.37-1.11-2.19-1.43-.67-.26-1.44-.37-2.15-.29-.29-.01-.56.05-.81.18-.26.08-.48.23-.67.43-.36.36-.64.96-.61,1.48.02.54.2,1.1.61,1.48.38.35.94.67,1.48.61.17-.02.34,0,.51,0,.11.02.21.05.32.09.1.05.19.11.29.17.05.05.1.1.15.15.06.09.11.19.17.28.03.11.06.22.09.33,0,.12,0,.25,0,.37,0,.02,0,.04-.01.06-.14.53-.07,1.14.21,1.62.25.43.75.85,1.25.96.54.12,1.14.1,1.62-.21.46-.29.82-.72.96-1.25.24-.89.23-1.8.03-2.69Z"/>
    <path class="cls-1" d="M133.37,36.61c-.19-.49-.39-.94-.71-1.36-.21-.27-.41-.56-.66-.79-.25-.24-.53-.45-.81-.65-.24-.15-.5-.24-.78-.25-.28-.06-.56-.05-.84.04-.49.13-1.01.51-1.25.96-.26.49-.39,1.08-.21,1.61.07.17.14.33.21.5.11.19.26.35.43.5.16.12.29.27.42.42.09.13.17.27.24.42.03.09.05.17.07.26.01.19.02.38,0,.58-.03.2-.04.4,0,.6.01.28.1.54.25.78.25.43.75.85,1.25.96.54.12,1.14.1,1.61-.21.44-.28.86-.72.96-1.25.1-.52.17-1.05.12-1.57-.06-.53-.13-1.05-.32-1.54Z"/>
  </g>
  <g>
    <g>
      <path class="cls-1" d="M96.56,222.24c.07,1.06-.93,1.84-2.24,1.73-2.24-.18-4.64-.23-5.77-.13-.36,1.24-1.06,4-1.77,7.15l3.66.46c1.31.16,2.37,1.15,2.37,2.2,0,1.05-1.06,1.78-2.37,1.61l-4.46-.56c-.82,4-1.46,7.93-1.32,9.71.41.25,1.77.77,4.7,1.05,1.29.13,2.41,1.09,2.45,2.15.05,1.06-.98,1.81-2.29,1.69-.34-.03-.68-.07-1-.11-6.67-.83-8.35-3.05-8.57-4.81-.57-4.72,3.82-21.83,4.28-22.89.36-.82.91-2.07,9.83-1.35,1.29.11,2.42,1.05,2.49,2.11Z"/>
      <path class="cls-1" d="M89.8,250.35c-.13,0-.25,0-.38-.02-.35-.03-.7-.07-1.03-.11-7.37-.92-9.22-3.62-9.48-5.73-.61-5.06,3.93-22.44,4.36-23.44.66-1.51,1.93-2.7,10.88-1.97,1.83.15,3.35,1.51,3.45,3.09.05.75-.22,1.45-.76,1.98-.64.63-1.6.94-2.61.86-1.71-.14-3.64-.2-4.88-.17-.32,1.19-.79,3.07-1.3,5.24l2.51.31c1.84.23,3.29,1.65,3.29,3.24,0,.73-.31,1.41-.87,1.91-.68.6-1.65.87-2.68.74l-3.49-.44c-.71,3.61-1.1,6.34-1.12,7.86.58.2,1.73.5,3.77.7,1.84.18,3.33,1.56,3.4,3.14.03.74-.25,1.44-.8,1.96-.57.54-1.38.84-2.26.84ZM89.44,220.95c-3.83,0-4.13.68-4.25.94-.41,1-4.75,17.84-4.2,22.35.23,1.93,2.95,3.31,7.66,3.9.31.04.64.07.97.11.41.04.78-.06.99-.25.14-.13.15-.26.15-.35-.02-.46-.68-1.07-1.51-1.15-3.4-.33-4.73-.95-5.14-1.2-.29-.17-.47-.48-.5-.81-.14-1.66.31-5.03,1.33-10.01.11-.54.62-.9,1.16-.83l4.46.56c.42.05.81-.03,1.03-.23.15-.13.16-.26.16-.34,0-.46-.62-1.06-1.45-1.16l-3.66-.46c-.29-.04-.56-.2-.73-.44-.17-.24-.23-.55-.16-.83.73-3.22,1.44-5.99,1.79-7.2.12-.42.49-.72.92-.75,1.22-.1,3.72-.05,5.95.13.41.03.77-.07.97-.26.1-.1.15-.21.14-.35,0,0,0,0,0,0-.03-.47-.71-1.07-1.53-1.14-1.9-.15-3.38-.22-4.54-.22Z"/>
    </g>
    <g>
      <path class="cls-1" d="M110.08,251.65c-.9-.1-1.81-.33-2.72-.76-2.69-1.27-4.67-3.4-5.71-6.15-2.32-6.15.32-14.91,3.23-18.48,2.55-3.12,5.53-3.66,7.58-3.57,2.41.11,4.83,1.2,6.48,2.92.86.89.76,2.09-.23,2.66-.99.58-2.49.32-3.35-.58-.65-.68-1.59-1.11-2.48-1.15-1.35-.06-2.75.7-3.93,2.16-2.34,2.87-4.64,10.47-2.78,15.41.63,1.68,1.65,2.83,3.1,3.51,2.05.97,5.93-1.43,7.91-3.36.78-.76,2.26-.76,3.31-.02,1.05.75,1.28,1.97.51,2.73-.63.61-5.55,5.25-10.93,4.68Z"/>
      <path class="cls-1" d="M111.01,252.74c-.34,0-.69-.02-1.04-.05h0c-1.06-.11-2.09-.4-3.05-.86-2.95-1.39-5.1-3.72-6.24-6.73-2.55-6.76.39-15.83,3.4-19.51,2.82-3.46,6.14-4.06,8.44-3.95,2.67.12,5.35,1.33,7.18,3.24.66.68.97,1.56.85,2.4-.11.78-.58,1.47-1.31,1.9-1.4.82-3.44.49-4.63-.75-.47-.49-1.15-.8-1.77-.83-1.01-.04-2.1.58-3.08,1.77-2.21,2.71-4.29,9.94-2.61,14.38.54,1.43,1.35,2.36,2.56,2.93,1.32.63,4.71-1.18,6.73-3.16,1.14-1.11,3.18-1.16,4.65-.12.82.58,1.33,1.42,1.4,2.3.06.76-.21,1.48-.76,2.03-.9.88-5.42,5.03-10.73,5.03ZM110.19,250.61c4.92.52,9.57-3.88,10.08-4.39.11-.11.15-.22.14-.36-.02-.26-.22-.54-.52-.76-.68-.48-1.61-.44-1.98-.09-2.1,2.04-6.42,4.81-9.09,3.55-1.71-.8-2.9-2.14-3.63-4.09-2.02-5.36.39-13.32,2.95-16.44,1.4-1.72,3.1-2.62,4.79-2.54,1.16.05,2.35.6,3.19,1.47.53.55,1.49.73,2.06.4.17-.1.27-.23.29-.37.03-.2-.08-.44-.29-.66-1.47-1.53-3.63-2.5-5.77-2.6-1.82-.09-4.45.4-6.72,3.19-2.69,3.29-5.22,11.73-3.06,17.44.94,2.49,2.73,4.42,5.17,5.58.75.36,1.56.58,2.38.67h0Z"/>
    </g>
    <g>
      <path class="cls-1" d="M150.25,242.48c-1.11,5.45-4.21,9.63-8.27,11.19-1.46.56-3.02.77-4.61.63-1.03-.09-2.08-.33-3.12-.72-7.59-2.82-8.77-12.36-7.19-18.23,1.97-7.32,6.19-10.5,12.94-9.72,2.4.28,4.89,1.62,6.84,3.68,1.87,1.99,4.81,6.34,3.41,13.17ZM143.22,231.37c-1.22-1.29-2.48-1.85-3.25-1.94-.16-.02-.34-.04-.54-.06-2.04-.18-5.79.04-7.73,7.27-1.36,5.03.1,12.01,4,13.46,1.32.49,2.56.5,3.79.03,2.81-1.07,5.2-4.52,6.07-8.78.8-3.91-.06-7.55-2.35-9.98Z"/>
      <path class="cls-1" d="M138.33,255.38c-.35,0-.69-.02-1.04-.05-1.14-.1-2.28-.36-3.4-.78-8.2-3.05-9.52-13.23-7.83-19.49,2.1-7.8,6.84-11.33,14.07-10.49,2.64.3,5.37,1.76,7.48,4.01,2.01,2.13,5.17,6.8,3.68,14.1h0c-1.19,5.81-4.52,10.27-8.92,11.96-1.29.49-2.64.74-4.03.74ZM138.08,226.55c-5.15,0-8.35,2.92-10.01,9.06-1.48,5.49-.43,14.39,6.54,16.98.94.35,1.9.57,2.85.65,1.44.12,2.83-.06,4.14-.56,3.73-1.42,6.58-5.32,7.62-10.42,1.3-6.37-1.41-10.4-3.15-12.24-1.78-1.89-4.04-3.11-6.2-3.36-.62-.07-1.22-.11-1.8-.11ZM150.25,242.48h.01-.01ZM137.67,251.53c-.76,0-1.53-.15-2.32-.44-4.48-1.67-6.15-9.14-4.65-14.72,1.54-5.71,4.52-8.43,8.84-8.04.21.02.4.04.56.06,1.23.14,2.69.99,3.89,2.26h0c2.53,2.68,3.48,6.66,2.61,10.91-.94,4.6-3.58,8.35-6.72,9.55-.73.28-1.47.42-2.21.42ZM138.62,230.38c-1.59,0-4.32.67-5.9,6.53-1.22,4.51,0,10.96,3.36,12.21,1.08.4,2.05.41,3.06.03,2.45-.94,4.63-4.16,5.41-8.01.73-3.57-.03-6.87-2.08-9.05h0c-1.1-1.17-2.15-1.56-2.6-1.61-.15-.02-.32-.04-.51-.05-.2-.02-.45-.04-.73-.04Z"/>
    </g>
    <g>
      <path class="cls-1" d="M166.79,244.5l-8.14-.62c-1.31-.1-2.41-1.04-2.46-2.1-.05-1.06.97-1.84,2.28-1.74l8.14.62c1.31.1,2.41,1.04,2.46,2.1.05,1.06-.97,1.84-2.28,1.74Z"/>
      <path class="cls-1" d="M167.02,245.56c-.1,0-.2,0-.3-.01l-8.14-.62c-1.85-.14-3.35-1.5-3.43-3.09-.03-.74.24-1.44.78-1.97.65-.63,1.6-.94,2.62-.87l8.14.62c1.85.14,3.35,1.5,3.43,3.09.04.74-.24,1.44-.78,1.97-.58.57-1.41.88-2.32.88ZM158.24,241.09c-.36,0-.67.1-.86.29-.14.14-.16.27-.15.36.02.47.67,1.04,1.49,1.1l8.14.62h0c.42.03.79-.07,1-.28.14-.14.16-.27.15-.36-.02-.47-.67-1.04-1.49-1.1l-8.14-.62s-.1,0-.14,0Z"/>
    </g>
    <g>
      <path class="cls-1" d="M195.33,230.27c.06,1.06-.95,1.85-2.26,1.76-.78-.05-3.08-.12-5.74-.17l-2.38,24.45c-.09.96-1.08,1.61-2.26,1.52-.1,0-.19-.02-.29-.03-1.3-.22-2.28-1.24-2.18-2.28l2.31-23.76c-1.98-.04-3.79-.06-4.96-.08-.05,0-.11,0-.16,0-1.24-.08-2.32-.93-2.46-1.95-.15-1.06.79-1.91,2.09-1.89.55,0,13.48.2,15.8.36,1.31.09,2.42,1.02,2.47,2.08Z"/>
      <path class="cls-1" d="M182.9,258.89c-.09,0-.18,0-.27,0-.12,0-.26-.02-.39-.05-1.87-.31-3.21-1.81-3.05-3.41l2.2-22.63c-1.52-.03-2.88-.05-3.82-.06-.05,0-.13,0-.2,0-1.76-.12-3.23-1.35-3.44-2.86-.1-.75.12-1.48.62-2.05.59-.67,1.52-1.02,2.52-1.03.13,0,13.44.2,15.86.36,1.85.13,3.36,1.47,3.45,3.07h0c.04.74-.23,1.44-.77,1.97-.64.63-1.59.95-2.61.89-.6-.04-2.26-.09-4.72-.15l-2.28,23.49c-.14,1.45-1.45,2.48-3.1,2.48ZM177.01,228.87c-.38,0-.72.12-.9.32-.1.11-.14.23-.12.38.06.45.69,1,1.49,1.05,1.28.02,3.09.05,5.07.09.29,0,.57.13.76.35.19.22.29.51.26.8l-2.31,23.76c-.04.43.51,1.01,1.31,1.14.06.01.12.02.19.02.6.05,1.11-.22,1.15-.58l2.38-24.45c.05-.54.5-.95,1.04-.95h.02c2.14.05,4.88.11,5.79.17.41.03.78-.08.99-.29.11-.11.16-.23.15-.37h0c-.03-.47-.67-1.04-1.5-1.09-2.16-.15-14.2-.34-15.75-.36,0,0-.02,0-.03,0Z"/>
    </g>
    <g>
      <path class="cls-1" d="M200.91,258.9c-.09,0-.18,0-.28-.02-1.31-.15-2.33-1.13-2.28-2.18.28-6.59,1.1-22.16,2.7-24.42,1.52-2.14,4.8-3.41,8.32-3.25,3.14.14,5.94,1.41,7.49,3.37,1.32,1.68,1.52,3.83.56,6.04-1.58,3.63-5.79,6.74-11.15,8.41,2.51,1.93,6.59,4.39,12.48,5.96,1.28.34,2.08,1.43,1.8,2.44-.28,1.01-1.55,1.54-2.82,1.2-6.58-1.76-11.26-4.52-14.24-6.75-.16,2.48-.29,5.05-.4,7.54-.04.98-.99,1.67-2.17,1.65ZM205.24,234.44c-.42.82-.88,4.3-1.28,8.87,4.86-1.45,7.96-4.16,8.97-6.49.47-1.07.47-2.02.01-2.6-.61-.77-1.85-1.28-3.33-1.34-1.87-.09-3.63.54-4.38,1.57Z"/>
      <path class="cls-1" d="M200.98,259.95s-.06.03-.09,0c-.12,0-.24-.01-.37-.02-1.88-.22-3.29-1.65-3.22-3.26.43-10.14,1.28-22.71,2.89-24.98,1.72-2.42,5.33-3.86,9.22-3.69,3.44.16,6.53,1.57,8.26,3.77,1.57,2,1.82,4.52.7,7.1-1.48,3.41-5.1,6.43-9.86,8.31,2.39,1.59,5.87,3.4,10.5,4.63.98.26,1.8.87,2.26,1.67.37.65.47,1.38.28,2.06-.44,1.55-2.27,2.42-4.1,1.93-5.77-1.54-10.1-3.85-13.04-5.82-.11,1.88-.21,3.77-.28,5.64-.06,1.52-1.41,2.65-3.15,2.65ZM200.94,257.86c.59.02,1.08-.27,1.1-.64.11-2.51.24-5.05.4-7.56.02-.38.26-.72.61-.89.35-.16.76-.12,1.07.11,2.7,2.03,7.31,4.82,13.88,6.58.75.2,1.43-.09,1.54-.48.04-.14.01-.29-.08-.46-.18-.31-.54-.57-.98-.68-6.15-1.64-10.38-4.25-12.85-6.15-.31-.24-.46-.63-.39-1.02.07-.39.35-.7.72-.82,5.14-1.6,9.06-4.53,10.5-7.83.81-1.86.67-3.58-.42-4.97-1.36-1.73-3.87-2.84-6.71-2.97-3.14-.15-6.12.98-7.41,2.81-.73,1.04-1.83,7.91-2.51,23.86-.02.44.56,1,1.36,1.09.06,0,.12.01.18.01h0ZM203.96,244.36c-.24,0-.47-.08-.66-.24-.27-.22-.41-.56-.38-.9.69-7.91,1.22-8.93,1.39-9.26.02-.05.05-.09.08-.14.97-1.33,3.04-2.11,5.28-2,1.8.08,3.29.72,4.1,1.74.7.9.75,2.23.12,3.67-1.01,2.33-4.08,5.41-9.63,7.07-.1.03-.2.04-.3.04ZM206.14,234.99c-.11.29-.49,1.59-.99,6.81,3.93-1.51,6.11-3.78,6.82-5.4.34-.77.32-1.33.15-1.54-.41-.52-1.41-.89-2.55-.94-1.62-.08-2.92.46-3.43,1.07Z"/>
    </g>
    <g>
      <path class="cls-1" d="M249.43,250.95c.07,1.74.14,3.6.23,5.58.05,1.06-.97,1.87-2.28,1.82-1.3-.06-2.4-.97-2.45-2.03-.09-1.99-.16-3.86-.23-5.6-.06-1.47-.11-2.87-.17-4.2-3.38.05-7.98.07-10.39.07-1.4,5.8-2.2,11.17-2.21,11.22-.13.89-1.01,1.5-2.07,1.52-.18,0-.37,0-.55-.04-1.3-.22-2.22-1.24-2.07-2.28.04-.27,1-6.68,2.71-13.26,3.29-12.69,6.4-14.6,9.01-14.79,2.41-.18,4.41.3,5.95,1.43,3.85,2.81,4.07,8.74,4.53,20.56ZM244.33,242.67c-.34-5.01-.93-8.45-2.4-9.52-.17-.13-.63-.46-2.05-.36-.28.13-2.25,1.32-4.73,9.95,2.62,0,6.39-.03,9.18-.07Z"/>
      <path class="cls-1" d="M229.79,260.39c-.22,0-.45-.02-.67-.06-1.84-.31-3.15-1.87-2.92-3.46.11-.71,1.07-6.98,2.73-13.37,3.45-13.29,6.82-15.34,9.95-15.57,2.66-.19,4.9.35,6.65,1.63,4.26,3.1,4.49,9.21,4.96,21.36l-1.05.04,1.05-.04c.07,1.74.14,3.59.23,5.58.03.74-.24,1.44-.78,1.97-.64.64-1.59.98-2.59.94-1.86-.08-3.38-1.41-3.45-3.03-.09-1.99-.16-3.86-.23-5.61v-.26c-.05-1-.09-1.98-.12-2.92-3.05.04-6.69.05-8.56.06-1.28,5.47-2,10.27-2,10.32-.21,1.4-1.48,2.39-3.09,2.42-.03,0-.06,0-.08,0ZM239.91,229.98c-.28,0-.58.01-.88.03-2.11.16-4.92,1.89-8.07,14.01-1.63,6.29-2.58,12.46-2.69,13.15-.06.42.42.97,1.21,1.1.12.02.23.03.35.03.55-.01,1.01-.28,1.06-.63,0-.03.82-5.47,2.23-11.31.11-.47.53-.8,1.02-.8,1.5,0,6.66-.02,10.38-.07.54,0,1.04.43,1.06,1,.06,1.25.11,2.57.16,3.95v.26c.08,1.74.15,3.61.24,5.6.02.46.64.99,1.45,1.03.42.02.79-.1,1.01-.32.12-.12.18-.25.17-.4-.09-1.99-.16-3.85-.23-5.59h0c-.44-11.48-.66-17.24-4.1-19.75-1.15-.84-2.62-1.26-4.38-1.26ZM235.16,243.79c-.33,0-.64-.15-.84-.42-.2-.26-.26-.6-.17-.92,2.44-8.5,4.51-10.25,5.29-10.61.12-.05.24-.09.37-.09,1.62-.1,2.34.27,2.74.56,1.61,1.17,2.4,4.06,2.82,10.29.02.29-.08.57-.27.78-.19.21-.47.33-.75.34-2.79.05-6.57.07-9.19.07h0ZM240.22,233.83c-.39.35-1.83,1.95-3.66,7.87,2.07,0,4.53-.02,6.64-.05-.19-2.52-.65-6.73-1.89-7.64-.22-.16-.74-.19-1.1-.18Z"/>
    </g>
    <g>
      <path class="cls-1" d="M261.22,258.56c-.06,0-.12,0-.18,0-1.3-.01-2.42-.88-2.51-1.94l-1.8-21.64s0-.03,0-.05c-.06-1.12.73-2.06,2.01-2.4,1.27-.34,2.69.02,3.6.91.02.02.05.05.07.07l14.72,15.69-.86-19.29c-.05-1.06.97-1.89,2.27-1.85,1.3.04,2.4.94,2.44,2l1.03,22.97c.05,1.12-.74,2.06-2.01,2.39-1.28.33-2.68-.02-3.59-.92-.02-.02-.05-.05-.07-.07l-14.57-15.52,1.47,17.73c.08,1.01-.8,1.84-2.01,1.9Z"/>
      <path class="cls-1" d="M261.08,259.62s-.03,0-.05,0c-1.85-.01-3.41-1.29-3.54-2.9l-1.8-21.64c-.09-1.7,1.03-3.09,2.78-3.55,1.62-.43,3.43.03,4.6,1.18.01.01.09.09.1.1l12.78,13.62-.74-16.46c-.03-.74.24-1.44.78-1.98.63-.64,1.58-1,2.57-.96,1.87.06,3.39,1.38,3.46,3l1.03,22.97c.07,1.61-1.05,2.99-2.79,3.45-1.62.43-3.43-.04-4.59-1.18-.01-.01-.09-.09-.1-.1l-12.51-13.33,1.22,14.73c.06.71-.17,1.4-.65,1.95-.56.64-1.41,1.04-2.35,1.09h0c-.07,0-.13,0-.2,0ZM261.22,258.56h.01-.01ZM259.69,233.46c-.23,0-.46.03-.69.09-.62.16-1.27.6-1.23,1.33l1.8,21.66c.04.46.65.97,1.48.98h.12c.37-.02.7-.16.88-.37.11-.12.15-.25.14-.4l-1.47-17.73c-.04-.44.21-.86.62-1.04.41-.18.89-.09,1.19.24l14.57,15.52c.69.67,1.7.93,2.63.69.62-.16,1.26-.6,1.23-1.33l-1.03-22.97c-.02-.45-.61-.97-1.43-1-.42-.02-.79.11-1.02.34-.12.13-.18.26-.17.41l.86,19.29c.02.44-.24.84-.64,1.01-.4.17-.87.07-1.17-.25l-14.72-15.69c-.51-.5-1.23-.77-1.94-.77Z"/>
    </g>
    <g>
      <path class="cls-1" d="M298.09,257.12c-5.48.47-8.96-5.14-9.34-5.79-.58-.98-.1-2.11,1.06-2.52,1.16-.41,2.58.05,3.16,1.03.69,1.16,2.75,3.65,4.43,3.44,1.35-.17,2.25-.64,2.7-1.4.54-.92.96-3.24-2.3-8.42-.32-.51-.64-1.01-.96-1.51-3.63-5.69-7.06-11.07-2.42-14.55,3.81-2.87,8.53-1.27,10.5-.03,1.06.67,1.31,1.88.55,2.71-.75.82-2.21.95-3.27.29-.43-.26-2.62-1.46-4.48-.06-1.98,1.49-.09,4.78,3.26,10.03.32.5.64,1.01.97,1.52,3.21,5.11,4.03,9.09,2.42,11.85-1.07,1.82-3.18,3.02-5.97,3.37-.1.01-.21.02-.31.03Z"/>
      <path class="cls-1" d="M297.45,258.2c-5.68,0-9.2-5.66-9.6-6.33-.43-.72-.51-1.54-.23-2.29.29-.8.96-1.44,1.85-1.75,1.64-.58,3.57.07,4.41,1.49.84,1.41,2.55,3.04,3.39,2.93.69-.09,1.59-.31,1.93-.89.26-.45.88-2.31-2.29-7.33l-.95-1.5c-3.73-5.85-7.58-11.89-2.17-15.95,4.27-3.21,9.51-1.45,11.69-.07.81.51,1.34,1.3,1.45,2.15.1.78-.14,1.55-.69,2.15-1.09,1.19-3.1,1.4-4.59.47-.31-.19-1.97-1.11-3.3-.11-1.24.94.76,4.31,3.52,8.63l.97,1.53c3.44,5.46,4.26,9.82,2.44,12.94-1.23,2.11-3.63,3.49-6.74,3.88-.11.01-.23.03-.35.04,0,0,0,0,0,0-.25.02-.49.03-.73.03ZM298.09,257.12h.01-.01ZM290.71,249.71c-.19,0-.37.03-.55.09-.29.1-.5.28-.58.49-.06.16-.04.33.07.51.34.58,3.51,5.69,8.34,5.28l.27-.03c2.45-.31,4.3-1.32,5.2-2.86,1.4-2.39.59-6.01-2.4-10.76l-.97-1.52c-3.17-4.97-5.9-9.26-3.01-11.43,2.41-1.81,5.13-.31,5.66,0,.63.4,1.54.34,1.95-.1.13-.14.18-.29.16-.46-.03-.24-.21-.48-.5-.66-1.75-1.11-5.95-2.54-9.31-.02-3.6,2.7-1.39,6.77,2.67,13.14l.97,1.52c3.38,5.36,3.13,8.13,2.32,9.51-.62,1.05-1.78,1.7-3.47,1.91-2.36.3-4.74-2.74-5.46-3.94-.24-.42-.8-.67-1.36-.67Z"/>
    </g>
    <g>
      <path class="cls-1" d="M318.57,244.8l.65,7.68c.08.99-.75,1.81-1.9,1.94-.09.01-.18.02-.28.02-1.29.02-2.42-.83-2.51-1.9l-2.04-24.03s0-.07,0-.11c-.4-.92.06-1.93,1.13-2.33,1.4-.52,8.61-3.03,13.25-1.16,1.69.68,2.87,1.85,3.39,3.39,2.29,6.68-5.12,13.66-11.7,16.49ZM325.75,229.17c-.16-.47-.42-.66-.75-.79-1.63-.65-5.11-.04-7.76.75l.96,11.25c4.51-2.6,8.89-7.31,7.56-11.2Z"/>
      <path class="cls-1" d="M317.01,255.49c-1.85,0-3.39-1.25-3.52-2.86l-2.04-24.03c-.21-.63-.19-1.29.06-1.89.31-.73.93-1.3,1.75-1.61,1.46-.55,9-3.16,14.01-1.15,1.99.8,3.37,2.19,3.99,4.02,2.49,7.26-5.07,14.42-11.59,17.48l.59,6.94c.13,1.56-1.09,2.88-2.83,3.07-.12.01-.24.02-.37.02h-.05ZM313.54,228.49l2.04,23.97c.04.45.67.92,1.45.94.05,0,.11,0,.17-.01.58-.06,1.01-.42.98-.81l-.65-7.68c-.04-.45.22-.87.63-1.05,5.74-2.47,13.24-9,11.12-15.19-.42-1.24-1.39-2.19-2.79-2.75-4.38-1.76-11.68.86-12.5,1.17-.27.1-.47.26-.55.46-.06.15-.06.3.01.46.06.13.09.27.09.41,0,.02,0,.06,0,.09ZM318.19,241.42c-.17,0-.33-.04-.49-.12-.32-.17-.53-.48-.56-.84l-.96-11.25c-.04-.49.27-.95.75-1.09,1.38-.41,6.06-1.68,8.45-.72.43.17,1.04.51,1.35,1.43,0,0,0,0,0,0,1.54,4.5-3.08,9.6-8.03,12.45-.16.09-.34.14-.52.14ZM318.35,229.9l.74,8.67c3.65-2.51,6.64-6.23,5.67-9.06-.03-.08-.05-.11-.05-.11h0s-.02-.02-.1-.05c-1.01-.41-3.52-.18-6.25.55Z"/>
    </g>
    <g>
      <path class="cls-1" d="M359.65,235.7c.15,5.72-1.85,10.6-5.36,13.07-1.26.89-2.69,1.45-4.23,1.67-1,.14-2.04.14-3.12-.02-7.81-1.12-11.04-10.42-10.85-16.67.25-7.78,3.54-11.92,10.1-12.65,2.34-.26,4.99.52,7.3,2.16,2.21,1.57,5.96,5.28,6.15,12.44ZM350.53,226.14c-1.44-1.02-2.75-1.29-3.5-1.21-.16.02-.33.04-.52.06-1.97.28-5.48,1.34-5.72,9.02-.17,5.35,2.75,12.02,6.77,12.6,1.36.19,2.53-.07,3.6-.82,2.43-1.71,3.92-5.7,3.8-10.17-.11-4.1-1.73-7.56-4.43-9.48Z"/>
      <path class="cls-1" d="M348.59,251.59c-.59,0-1.19-.04-1.79-.13-8.45-1.21-11.96-11.1-11.74-17.74.26-8.28,3.97-12.87,11.03-13.66,2.59-.29,5.51.57,8.02,2.34,2.37,1.69,6.39,5.65,6.59,13.27h0c.16,6.07-2.01,11.29-5.8,13.96-1.39.98-2.97,1.61-4.68,1.85-.53.07-1.07.11-1.62.11ZM347.11,222.1c-.27,0-.53.01-.79.04-6.03.67-8.94,4.37-9.17,11.65-.19,5.86,2.78,14.57,9.95,15.6.97.14,1.92.15,2.82.02,1.38-.19,2.65-.69,3.77-1.49,3.22-2.27,5.06-6.82,4.92-12.19h0c-.18-6.7-3.65-10.15-5.71-11.61-1.83-1.3-3.9-2.01-5.78-2.01ZM348.37,247.72c-.31,0-.64-.02-.96-.07-4.62-.66-7.86-7.76-7.67-13.67.19-6.06,2.42-9.43,6.62-10.03.15-.02.29-.04.43-.05h.12c1.23-.15,2.81.37,4.23,1.38h0c2.98,2.11,4.76,5.87,4.88,10.3.13,4.81-1.54,9.14-4.25,11.05-1.02.72-2.15,1.08-3.39,1.08ZM347.29,225.96c-.06,0-.11,0-.15,0l-.49.06c-1.25.18-4.59.65-4.82,8.02-.15,4.82,2.43,11.03,5.88,11.52,1.1.16,2-.05,2.85-.64,2.12-1.49,3.47-5.22,3.36-9.28-.1-3.77-1.56-6.92-3.99-8.65h0c-1.15-.82-2.14-1.03-2.63-1.03Z"/>
    </g>
    <g>
      <path class="cls-1" d="M371.64,247.21c-.09.02-.18.03-.27.03-1.28.1-2.45-.69-2.6-1.76-.97-6.68-3.1-22.5-1.98-25.07,1.05-2.44,3.96-4.34,7.37-4.85,3.04-.45,5.96.29,7.81,1.97,1.59,1.44,2.18,3.56,1.67,5.97-.84,3.95-4.29,7.88-9.12,10.58,2.77,1.46,7.15,3.16,13.09,3.63,1.29.1,2.27,1.05,2.18,2.11-.08,1.07-1.19,1.85-2.48,1.75-6.64-.52-11.65-2.4-14.92-4.09.31,2.52.66,5.13,1.03,7.66.14.99-.63,1.87-1.77,2.07ZM371.21,221.79c-.25.9-.04,4.49.43,9.16,4.39-2.38,6.85-5.7,7.39-8.23.25-1.17.07-2.12-.48-2.62-.73-.66-2.02-.93-3.44-.72-1.81.26-3.38,1.24-3.91,2.41Z"/>
      <path class="cls-1" d="M371.16,248.3c-1.73,0-3.2-1.12-3.42-2.66-1.49-10.27-3.02-23.06-1.91-25.64,1.19-2.76,4.4-4.91,8.17-5.47,3.35-.5,6.59.34,8.67,2.23,1.87,1.7,2.58,4.18,1.99,6.96-.79,3.72-3.71,7.45-7.96,10.26,2.59,1.15,6.28,2.32,10.99,2.69,1.86.15,3.27,1.6,3.15,3.24-.06.82-.51,1.58-1.23,2.09-.67.47-1.51.69-2.38.62-5.8-.45-10.38-1.94-13.56-3.36.25,1.93.51,3.86.78,5.74.23,1.55-.9,2.95-2.63,3.25t0,0c-.12.02-.24.04-.37.05-.1,0-.2.01-.3.01ZM371.64,247.21h.01-.01ZM375.91,216.49c-.52,0-1.06.04-1.6.12-3.03.45-5.66,2.15-6.56,4.23-.51,1.19-.28,8.32,2.06,24.51.07.45.69.93,1.48.86.05,0,.11-.01.17-.02.58-.1.97-.48.91-.89-.36-2.51-.71-5.09-1.03-7.68-.05-.39.12-.77.44-.99.32-.22.73-.25,1.08-.07,2.97,1.53,7.9,3.46,14.52,3.97.38.03.74-.06,1.01-.25.12-.08.33-.27.35-.53.04-.47-.53-.93-1.22-.99-6.22-.48-10.77-2.3-13.5-3.75-.34-.18-.55-.53-.56-.91,0-.38.2-.74.54-.93,4.63-2.58,7.84-6.28,8.61-9.88.43-2.02-.05-3.79-1.35-4.97-1.3-1.18-3.23-1.83-5.35-1.83ZM371.64,232c-.17,0-.34-.04-.49-.12-.31-.16-.52-.47-.55-.82-.82-8.07-.5-9.18-.4-9.55.01-.05.03-.1.05-.14.68-1.52,2.53-2.7,4.71-3.02,1.76-.26,3.32.1,4.3.98.83.76,1.12,2.07.8,3.61-.54,2.53-2.9,6.21-7.91,8.93-.16.08-.33.13-.5.13ZM372.2,222.14c-.06.33-.17,1.71.32,7.07,3.45-2.25,5.11-4.94,5.48-6.7.18-.86.05-1.44-.16-1.63-.48-.44-1.5-.62-2.58-.46-1.56.22-2.7,1.02-3.07,1.72Z"/>
    </g>
    <g>
      <path class="cls-1" d="M406.95,210.79c.33,1.04-.42,2.09-1.66,2.34-.74.15-2.9.69-5.4,1.33l4.09,25.03c.16.99-.59,1.88-1.71,2.11-.09.02-.19.03-.28.04-1.27.12-2.45-.64-2.62-1.71l-3.97-24.32c-1.86.48-3.55.92-4.66,1.21-.05.01-.1.02-.15.03-1.18.24-2.41-.33-2.8-1.31-.41-1.02.25-2.11,1.47-2.43.52-.14,12.65-3.32,14.86-3.77,1.24-.25,2.52.39,2.85,1.43Z"/>
      <path class="cls-1" d="M401.69,242.7c-1.68,0-3.13-1.09-3.38-2.6l-3.78-23.18c-1.41.37-2.66.69-3.54.92-.07.02-.14.03-.21.05-1.69.34-3.4-.49-3.98-1.95-.29-.73-.26-1.52.09-2.22.39-.78,1.15-1.37,2.08-1.61.12-.03,12.64-3.32,14.92-3.78,1.78-.37,3.56.58,4.05,2.14.23.74.14,1.52-.25,2.19-.45.76-1.25,1.31-2.2,1.5-.56.11-2.08.49-4.42,1.08l3.93,24.08c.25,1.54-.84,2.96-2.54,3.31-.12.03-.25.05-.39.06-.13.01-.26.02-.38.02ZM395.38,214.57c.2,0,.4.06.57.17.25.16.41.42.46.71l3.97,24.32c.07.45.7.91,1.49.83.06,0,.11-.01.16-.03.58-.12.96-.51.9-.92l-4.09-25.03c-.09-.54.25-1.05.77-1.18,2.94-.75,4.78-1.2,5.45-1.34.37-.07.66-.26.81-.51.09-.16.11-.32.06-.49h0c-.15-.47-.85-.88-1.64-.72-2.22.45-14.68,3.72-14.8,3.76-.35.09-.62.28-.74.53-.08.16-.09.33-.02.5.2.5.94.81,1.62.67,1.19-.31,2.89-.75,4.75-1.24.09-.02.18-.03.26-.03Z"/>
    </g>
  </g>
</svg>