<?xml version="1.0" encoding="UTF-8"?>
<svg id="Layer_1" xmlns="http://www.w3.org/2000/svg" viewBox="0 0 306.1 367.2">
  <defs>
    <style>
      .cls-1 {
        fill: #1e1316;
      }

      .cls-2 {
        fill: #fff;
      }

      .cls-3 {
        fill: #5575cf;
      }

      .cls-4 {
        fill: #a84c54;
      }

      .cls-5 {
        fill: #8aaceb;
      }
    </style>
  </defs>
  <g>
    <path class="cls-2" d="M305.92,307.58c-.05-.45-.08-1.14-.12-1.87-.05-1.06-.11-2.26-.25-3.6-.26-2.42-.53-4.84-.81-7.26-.37-3.2-.71-6.22-1.02-9.27-.59-6.03-1.17-12.07-1.74-18.1-.66-6.94-1.31-13.89-2.01-20.83-.82-8.21-1.66-16.41-2.51-24.62-.91-8.83-1.82-17.65-2.7-26.48-.93-9.36-1.82-18.73-2.72-28.1-.07-.71-.14-1.41-.2-2.12-.13-1.37.18-2.75.93-3.9,6.28-9.5,8.63-19.35,7.02-29.49-1.16-7.25-3.61-14.06-7.31-20.23-1.08-1.81-3.78-6.31-8.74-9.31-1.09-.66-1.96-1.61-2.46-2.78-.26-.6-.5-1.13-.71-1.58-.11-.24-.23-.48-.33-.71-4.77-11.13-13.91-18.63-25.73-21.1-7.38-1.54-14.83-2.29-22.18-2.23-.2,0-.39,0-.59-.03-4.58-.52-9.42-.73-14.61-.62-19.51.31-39.44,3.62-59.42,9.84-3.41,1.06-6.99-1.08-7.6-4.6,0-.02,0-.04-.01-.07-1.66-9.53-2.77-17.26-3.5-24.33,0-.02,0-.04,0-.07.71-.69,1.3-1.34,1.79-1.87.23-.25.45-.5.67-.71,4.18-3.82,7.67-6.95,11-9.88,6.91-6.08,8.12-12.53,7.74-17.24-.51-13.45-8.68-19.57-13.57-22.04-5.87-2.96-15.04-4.63-25.39,4.27-3.69,3.16-7.19,6.41-10.44,9.45-3.76,3.52-8.02,7.51-11.81,12.57-7.59,10.13-10.22,21.08-7.83,32.55.06.31.15,1.08.22,1.7.12,1.13.28,2.54.57,4.09,1.9,10.05,3.81,20.1,5.73,30.15.44,2.31.88,4.61,1.31,6.92.43,2.27-.52,4.56-2.38,5.91-4.55,3.32-8.58,7.24-12.02,11.72-5.18,6.75-7.53,15.86-6.67,25.47.13,1.48-.33,2.94-1.23,4.12-4.5,5.91-6.24,13.38-4.91,21.48.77,4.68,1.67,9.52,2.68,14.37,2.24,10.77,9.19,18.72,19.56,22.39l1.2.43c.11.04.22.08.33.12,1.7.6,3.04,1.95,3.62,3.66,5.01,14.54,10.65,28.82,16.13,42.68,5.06,12.8,10.3,26.03,14.87,39.1,2.96,8.46,6.55,16.45,10.03,24.18,2.63,5.85,5.11,11.37,7.29,16.99,3.37,8.66,9.22,15.37,17.9,20.49,4.28,2.53,8.97,4.44,14.34,5.84,10.78,2.83,19.91,4.18,28.38,4.18,1.13,0,2.24-.02,3.34-.07,6.06.09,13.22-.04,20.76-1.56,26.3-5.29,45.81-17.12,59.65-36.16,1.9-2.62,7.69-10.58,6.43-21.82Z"/>
    <g>
      <path class="cls-5" d="M214.38,334.17c-4.1,0-8.23.35-12.28-.07-12.23-1.27-21.78-5.7-26.15-18.84-7.93-23.85-16.75-47.4-25.39-71.01-2.71-7.41-.27-12.66,5.77-16.83,1.36-.94,2.91-2.04,4.47-2.22,21.55-2.5,38.71-14.11,56.1-25.83,11.54-7.78,25.2-9.75,39.1-9.18,6.79.28,9.99,3.2,10.77,10.55,3.46,32.76,7.41,65.46,11.52,98.15.68,5.41-.87,9.12-4.3,13.05-13.6,15.6-31.38,21.25-51.21,22.32-2.79.15-5.59.02-8.38.02,0-.04,0-.08,0-.12Z"/>
      <path class="cls-1" d="M218.85,351.4c-8.94.45-18.27-1.17-27.5-3.59-3.62-.95-7.1-2.27-10.33-4.18-5.09-3.01-9-6.88-11.24-12.65-5.33-13.71-12.27-26.77-17.14-40.68-10.34-29.54-23.27-58.11-33.07-87.85-.64-1.95-1.45-3.84-1.98-5.82-.73-2.74-.16-4.4,1.48-4.7,2.15-.4,2.93,1.13,3.57,2.77.27.69.53,1.39.79,2.09,4.54,12.23,9.02,24.47,13.62,36.67,2.17,5.75,4.39,11.49,6.86,17.12,7.43,16.9,12.49,34.71,19.84,51.64,4.08,9.4,8.17,18.79,12.35,28.14,2.46,5.49,7.22,8.38,12.58,10.36,5.97,2.21,12.2,3.53,18.49,4.19,18.95,2.01,37.15-.27,54.09-9.76,8.29-4.65,15.08-10.82,20.63-18.49,1.85-2.56,2.65-5.26,2.35-8.38-.51-5.37-.92-10.76-1.45-16.13-1.81-18.34-3.64-36.68-5.5-55.01-2.07-20.37-4.21-40.74-6.28-61.11-1.07-10.56-2.04-21.13-3.04-31.69-.07-.74-.18-1.5-.08-2.22.23-1.6.99-2.88,2.79-2.94,1.53-.05,2.39.97,2.68,2.36.39,1.82.75,3.66.93,5.51,1.63,16.68,3.18,33.36,4.83,50.03,1.69,17.04,3.51,34.07,5.21,51.11,1.29,12.97,2.46,25.95,3.74,38.92.55,5.56,1.25,11.1,1.84,16.65.2,1.85.17,3.72.38,5.57.47,4.16-1.11,7.51-3.52,10.83-12.44,17.12-29.8,25.92-50.03,29.99-5.7,1.15-11.46,1.36-17.9,1.24Z"/>
      <path class="cls-1" d="M149.73,189.99c6.29-.11,8.45,1.5,10.34,7.84,5.7,19.07,11.08,38.23,17.14,57.18,5.78,18.07,12.25,35.91,18.4,53.86.84,2.46,1.77,4.88,1.63,7.58-.15,2.89-1.56,4.92-3.96,6.31-3.31,1.92-6.1,1.37-8.16-1.89-1.38-2.18-2.42-4.61-3.38-7.02-10.36-25.95-18.93-52.52-26.88-79.29-3.5-11.77-6.93-23.57-10.39-35.35-.16-.54-.34-1.06-.48-1.6-1.9-7.29-1.74-7.49,5.75-7.62Z"/>
      <path class="cls-4" d="M122.12,128.17c1.61.53,2.84-.57,4.15-1.12,17.19-7.21,34.71-13.49,52.5-19.02,12.27-3.82,24.58-7.46,37.2-9.97.91-.18,1.8-.47,2.69-.75.77-.25,1.24-.74,1.1-1.63-.08-.55-.23-1.12-.17-1.66.21-2.26,1.24-3.47,3.41-3.73,2.4-.29,4.82-.45,7.24-.53,7.1-.24,14.14.42,21.08,1.87,6.86,1.43,11.72,5.43,14.5,11.9.59,1.37,1.33,2.71,1.67,4.14.91,3.78,2.27,6.84,6.74,7.67,2.21.41,3.62,2.51,4.79,4.46,2.71,4.53,4.44,9.43,5.27,14.63,2.67,16.78-14.34,30.52-26.64,38.65-14.84,9.8-31.45,16.42-48.26,22-11.52,3.83-23.31,6.3-35.42,7.56-18.18,1.89-36.05.43-53.78-3.69-4.54-1.05-8.91-2.66-13.3-4.21-5.23-1.85-8.28-5.33-9.41-10.77-.95-4.56-1.8-9.12-2.56-13.72-.69-4.2.14-7.95,3.16-10.79,3.31-3.12,4.34-6.38,3.5-10.93-1.05-5.69-.52-12.51,3.11-17.24,2.63-3.43,6.51-7.4,11.98-10.72,3.69-2.23,4.31,1.28,5.18,5.51.07.35-.1.75-.05,1.11.04.33.21.64.34.99Z"/>
      <path class="cls-4" d="M217.44,89.05c7.49-.16,14.9.37,22.16,2.3,3.43.92,6.76,2.11,9.76,4.06,7.71,5.02,9.66,12.82,5.18,20.85-2.5,4.48-6.16,7.92-10.16,11.01-7.56,5.86-15.99,10.25-24.78,13.9-20.96,8.71-42.71,14.01-65.4,15.72-9.57.72-18.96.36-28.32-1.45-4.4-.85-8.64-2.29-12.44-4.79-7.49-4.95-9.38-12.5-5.06-20.39,2.08-3.8,4.92-6.97,8.28-9.71,9.8-7.98,20.99-13.45,32.7-17.88,21.93-8.31,44.56-13.25,68.08-13.62Z"/>
      <path class="cls-3" d="M161.49,245.03c-2.33.08-5.43-.8-8.28-2.41-2.59-1.47-3.45-3.73-2.75-6.71.12-.5.54-.97.9-1.38.55-.63,2.14-.46,2.51.26.25.49.47,1,.62,1.53.87,3.13,1.77,4.02,4.91,4.32,5,.47,9.9-.07,14.66-1.66,1.62-.54,3.24-1.1,4.85-1.69,5.9-2.18,11.96-3.62,18.2-4.61,4.36-.69,8.72-.75,13.08-1.08,5.88-.45,11.79-1.02,17.45-2.6,7.41-2.07,14.17-5.52,19.76-10.83,3.28-3.11,6.69-6.1,9.11-9.99,2.05-3.3,3.35-6.67,2.26-10.57-.1-.35-.28-.78-.16-1.07.2-.49.54-.98.96-1.3.66-.5,1.52-.46,2.14,0,1.1.83,1.61,2.07,1.8,3.38.55,3.64-.2,7.06-2.17,10.17-8.57,13.5-20.64,22.16-36.74,25.23-6.36,1.21-12.78,1.86-19.26,2.14-7.07.31-13.98,1.61-20.69,3.82-5.6,1.84-11.19,3.63-17.05,4.58-1.71.28-3.39.42-6.11.49Z"/>
      <path class="cls-2" d="M248.64,271.74c.04,2.21-.6,3.9-2.02,5.25-1.67,1.6-4,1.21-5.15-.84-1.57-2.8-.52-6.57,2.29-8.23,1.09-.64,2.14-.55,3.09.2,1.26.99,1.89,2.26,1.78,3.62Z"/>
      <path class="cls-2" d="M198.36,275.8c-.04.81-.04,1.18-.08,1.55-.28,2.46-2.62,3.84-4.92,2.92-2.79-1.12-3.96-5.07-2.18-7.53.87-1.2,2.18-1.28,3.52-1.18,1.39.1,2.57.64,3.12,1.97.35.84.43,1.78.54,2.27Z"/>
      <path class="cls-2" d="M204.55,286.58c-.16.54-.8.74-1.55.6-.83-.15-1.2-.7-.96-1.52.22-.74.77-1.23,1.57-1,.72.21,1.18.76.94,1.91Z"/>
      <path class="cls-1" d="M211.58,140.19c-.63-2.19-2.01-3.73-3.12-5.41-6.81-10.23-13.67-20.42-20.5-30.65-1.24-1.86-2.41-3.76-3.53-5.69-.36-.62-.57-1.38-.61-2.1-.06-1.02.57-1.74,1.47-2.17.74-.35,1.53-.22,2.04.37.85.97,1.63,2.02,2.36,3.08,7.81,11.35,15.61,22.71,23.41,34.06.32.46.64.92.92,1.4,3.81,6.49,2.74,5.45,9.26,2.42,8.81-4.1,17.09-9.06,24.54-15.38,3.04-2.58,5.43-5.57,7.33-9.03,1.28-2.32,2.17-4.61,1.34-7.41-.52-1.74.25-2.81,1.44-3.21,1.5-.5,2.78.17,3.51,1.88,1.16,2.71,1.12,5.45.05,8.15-1.53,3.85-3.8,7.23-6.6,10.28-5.1,5.56-11.35,9.64-17.74,13.47-14.81,8.87-30.76,14.99-47.61,18.59-5.98,1.28-12.11,1.84-18.19,2.64-5.34.7-10.67,1.61-16.04,1.84-7.98.33-15.96.66-23.96-.42-5.21-.7-10.27-1.58-15.09-3.7-3.47-1.53-6.44-3.68-8.95-6.52-1.95-2.21-2.63-4.86-2.86-7.69-.03-.37.01-.75.06-1.11.26-2.05,1.48-3.67,2.78-3.74,1.43-.07,2.75,1.34,2.55,3.65-.41,4.97,2.44,7.44,6.3,9.51,5.19,2.78,10.77,4.09,16.57,4.46,8.19.52,16.43.63,24.58-.11,7.75-.71,15.51-1.47,23.22-2.75,7.36-1.23,14.58-2.86,21.72-4.96,2.14-.63,4.23-1.41,6.32-2.21,1.02-.39,1.96-.99,3.05-1.56Z"/>
      <path class="cls-1" d="M144.06,186.84c-2.42,0-4.84.04-7.26,0-11.85-.21-22.65-3.76-32.53-10.24-2.51-1.65-4.72-3.66-6.39-6.16-1.15-1.73-1.95-3.61-1.39-5.79.2-.79.71-1.3,1.48-1.49.77-.19,1.49.03,2.01.62.36.41.75.89.88,1.4.79,3.14,3.08,5.05,5.56,6.73,7.69,5.2,16.15,8.29,25.43,9.17,4.07.39,8.11,1.19,12.22.9,6.48-.47,12.95-.87,19.4-1.76,5.15-.71,10.27-1.6,15.41-2.35,9.98-1.45,19.61-4.18,29.22-7.05,5.34-1.59,10.69-3.2,15.95-5.03,10.29-3.6,19.5-9.18,28.09-15.82,2.06-1.59,4.05-3.29,6.18-4.77,5.68-3.96,9.29-9.57,12.53-15.47,1.54-2.81,2.3-5.85,2.19-9.11-.05-1.59.94-2.71,2.08-2.91,1.28-.22,2.5,1.09,2.72,2.92.55,4.6-.4,8.88-2.72,12.87-4.07,7.01-9.24,13.01-15.82,17.82-5.71,4.17-11.3,8.47-17.4,12.1-6.12,3.65-12.56,6.54-19.32,8.62-9.94,3.06-19.82,6.35-29.99,8.65-7.25,1.64-14.52,3.09-21.91,3.97-3.87.46-7.68,1.39-11.56,1.72-5,.43-10.04.46-15.06.66,0-.06,0-.12,0-.18Z"/>
      <path class="cls-1" d="M144.86,175.65c-10.22.27-20.73-1.77-30.91-5.66-3.32-1.27-6.49-2.8-8.97-5.47-1.42-1.53-2.5-3.23-2.92-5.3-.23-1.16.37-2.36,1.36-2.75,1.08-.42,2.5-.12,2.88.95,1.63,4.58,5.54,6.32,9.59,7.82,8.07,2.99,16.37,4.84,25.05,4.71,2.98-.04,5.96-.03,8.93,0,7.09.07,14.04-1.08,21.02-2.13,8.09-1.21,16.09-2.79,24.01-4.79,10.82-2.73,21.48-6.04,31.59-10.8,12.93-6.09,24.37-14.27,33.83-25.07,2.08-2.38,4-4.91,4.89-8.04.15-.53.36-1.06.61-1.55.64-1.23,2.14-1.78,3.31-1.25,1.01.46,1.69,1.65,1.46,2.74-.61,2.95-1.71,5.73-3.51,8.14-1.78,2.38-3.66,4.7-5.72,6.84-10.99,11.46-24.14,19.76-38.75,25.75-13.8,5.65-28.19,9.39-42.81,12.14-6.36,1.2-12.81,2.08-19.28,2.78-5,.54-9.98.95-15.7.95Z"/>
      <path class="cls-1" d="M137.76,123.66c1.09.09,2.6.07,4.05.38,2.03.43,3.92,1.25,5.07,3.16,1.02,1.69,1.27,3.36.38,5.29-2.52,5.47-10.84,10.41-18.54,7.12-2.96-1.26-4.56-4.68-3.71-7.81,1.22-4.51,4.41-7.33,9-7.92,1.11-.14,2.23-.13,3.75-.21ZM133.59,135.27c.81-.04,1.37-.04,1.92-.1,3.07-.34,6.2-2.43,6.47-4.38.04-.29-.17-.76-.42-.92-2.56-1.68-5.23-1.56-7.89-.31-.82.38-1.63.9-2.26,1.54-.49.49-.77,1.22-1.02,1.9-.33.9.34,1.92,1.26,2.06.73.11,1.46.17,1.94.22Z"/>
      <path class="cls-1" d="M152.12,25.43c.27,1.83-.97,3.14-2.43,4.42-3.77,3.32-7.51,6.68-11.22,10.07-1.1,1-2.03,2.19-3.11,3.21-3.67,3.47-4.89,7.69-4.38,12.66.88,8.53,2.18,16.99,3.65,25.42,2.62,15.04,5.87,29.94,9.41,44.79.17.72.33,1.45.45,2.19.93,5.72-1.63,8.9-7.37,9.28-2.13.14-4.02-.53-5.93-1.29-1.9-.75-2.89-2.1-3.27-4.12-4.28-22.66-8.61-45.32-12.9-67.98-.38-2.01-.43-4.08-.85-6.08-1.56-7.47.57-13.97,5.02-19.91,2.92-3.9,6.45-7.22,9.98-10.53,3.26-3.05,6.55-6.09,9.93-9,2.29-1.97,4.79-3.81,8.06-2.16,3.54,1.79,4.9,4.91,4.96,9.03Z"/>
      <path class="cls-4" d="M122.93,39.12c3.18.38,5.62,2.19,7.31,5.09.65,1.11.53,2.17-.52,2.94-.89.66-1.89.34-2.51-.38-2.09-2.41-4.22-3.83-7.72-2.55-1.39.51-2.12-1.28-1.44-2.71.91-1.9,2.69-2.4,4.88-2.4Z"/>
    </g>
  </g>
  <path class="cls-4" d="M7.73,185.21c-10.3,0-10.31,16,0,16s10.31-16,0-16Z"/>
  <path class="cls-2" d="M37.45,209.6c-6.43,0-6.45,10,0,10s6.45-10,0-10Z"/>
</svg>