<?xml version="1.0" encoding="UTF-8"?>
<svg id="Layer_1" xmlns="http://www.w3.org/2000/svg" viewBox="0 0 419.19 568.53">
  <defs>
    <style>
      .cls-1 {
        fill: #fff;
        fill-rule: evenodd;
      }
    </style>
  </defs>
  <path class="cls-1" d="M339.39,105.93c.16.16.31.35.43.56,33.42,58.11-13.5,93.75-13.5,93.75-1.17.89-2.84.67-3.73-.5-.89-1.17-.67-2.84.5-3.73,0,0,15.65-12.02,21.3-33.35-2.19-9.5-18.18-13.93-18.18-13.93l4.41-2.49c-30.59-10.56-33.21-31.47-31.57-46.51,1.64-15.03-6.34-16.63-6.34-16.63,0,0,33.9-15.17,61.53,12.82,27.63,27.99.44,61.12.44,61.12,10.33-26.18-13.24-49.19-15.28-51.1h0ZM339.26,105.8h0,0s0,0,0,0h0Z"/>
  <path class="cls-1" d="M311.91,221.42s16.36-43.71-28.53-62.37l2.66-3.07s-12.72-7.22-34.91,9.62c0,0,24.37-2.93,42.06,14.62,0,0-24.79-14.84-48.01-7.75,0,0,13.89,7.4,10.76,18.25l4.43-3.25s2.69,14.6,12.82,23.64c10.14,9.04,29.42-.48,38.72,10.31h0Z"/>
  <path class="cls-1" d="M131.99,144.82c3.56-2.84,13.39-11.9,9.12-22.19l5.69,3.27s1.24-17.7,12.08-29.79c10.84-12.09,35.01-3.36,44.61-17.42,0,0,22.15,43.6-16.74,72.25,9.9-.57,28.78,1.06,47.02,17.57,11.22,10.15,3.74,32.97,17.16,41.46,0,0-34.29,19.18-61.32-5.12-5.77,1.38-9.44,8.04-8.2,16.09h-62.92v60.86h138.93c15.86,0,31.93,7.48,43.82,19.26,12,11.87,19.49,27.86,19.49,43.39,0,29.71-30.87,55.85-63.31,55.85H118.5v111.1c0,32.42-23.46,57.12-55.85,57.12-39.56,0-62.65-25.63-62.65-57.12V160.15c0-32.37,23.08-57.09,62.65-57.09h79.18c-2.33,7.03-2.62,12.58-2.62,12.58l-6.01-2.03c6.85,20.65-11.66,36.27-11.04,36.24,3.79-.2,6.89-2.73,8.61-4.11.41-.32.81-.63,1.22-.92h0Z"/>
  <path class="cls-1" d="M262.54,104.52s-4.97,4.56-11.75,3.77c-6.78-.79-18.76,1.91-24.08,18.04-3.67,11.14-12.06,16.76-12.06,16.76,0,0,24.61.46,40.29-17.19,0,0-6,19.05-33.77,22.83,0,0,18.87,13.57,35.75-5.76s5.62-38.46,5.62-38.46h0Z"/>
  <path class="cls-1" d="M161.82,210.58s-3.31-7.77-8.54-10.89c-5.2-3.09-12.55-6.79-10.41-21.69,1.47-10.3-3.88-16.93-3.88-16.93,0,0,19.73,9.33,25.23,29.53,0,0,2.74-17.5-17.83-31.45,0,0,20.34-3.34,26.13,18.66,5.79,22-10.69,32.77-10.69,32.77h0Z"/>
  <path class="cls-1" d="M146.11,151.2s3.85-.99,9.21-3.79c3.89-2.03,8.54-4.92,13.08-8.91,6.24-5.48,12.2-12.79,15.34-22.54-3.4,6.99-7.98,12.1-12.83,15.99-4.92,3.95-10.02,6.35-14.29,8.04-5.46,2.16-9.43,2.85-9.43,2.85-2.02.47-3.9,2.72-4.2,5.02-.3,2.31,1.1,3.8,3.11,3.34h0Z"/>
  <path class="cls-1" d="M173.17,162.36s1.98,3.38,6.18,8.08c3.05,3.4,7.17,7.46,12.38,11.41,7.17,5.42,16.13,10.56,26.9,13.17-8-2.88-14.38-6.85-19.57-11.06-5.27-4.28-9-8.74-11.8-12.49-3.58-4.79-5.27-8.29-5.27-8.29-.98-1.77-3.75-3.4-6.19-3.62-2.43-.23-3.62,1.03-2.64,2.81h0Z"/>
  <path class="cls-1" d="M351.56,46.53s1.55,4.74-1.06,9.06c-2.61,4.32-4.46,13.21,4.76,21.73,6.37,5.89,7.58,13.25,7.58,13.25,0,0,7.85-16.42.79-32.38,0,0,10.98,9.88,5.01,29.72,0,0,14.92-8.54,7.08-25.82-7.83-17.28-24.16-15.57-24.16-15.57h0Z"/>
  <path class="cls-1" d="M410.86,0s-1.6,3.99-5.71,5.4c-4.11,1.41-10.26,6.26-8.88,16.99.95,7.41-2.32,12.95-2.32,12.95,0,0,14.27-6.5,18.43-20.96,0,0,1.79,12.6-13.13,22.41,0,0,14.58,2.61,18.96-13.14,4.39-15.75-7.35-23.65-7.35-23.65h0Z"/>
  <path class="cls-1" d="M402.07,118.78s-4.04,5.17-10.67,5.5c-6.63.32-17.7,4.84-20.22,21.16-1.74,11.28-8.89,18.01-8.89,18.01,0,0,23.69-3.49,35.91-22.93,0,0-2.71,19.24-28.75,27.31,0,0,20.27,10,33.38-11.24,13.1-21.24-.76-37.8-.76-37.8h0Z"/>
</svg>