<?xml version="1.0" encoding="UTF-8"?>
<svg id="Layer_1" xmlns="http://www.w3.org/2000/svg" viewBox="0 0 504.68 537.2">
  <defs>
    <style>
      .cls-1 {
        fill: #1e1316;
      }

      .cls-2 {
        fill: #fff;
      }

      .cls-3 {
        fill: #599133;
      }

      .cls-4 {
        fill: #a13e35;
      }

      .cls-5 {
        fill: #ff896b;
      }

      .cls-6 {
        fill: #b34529;
      }
    </style>
  </defs>
  <path class="cls-2" d="M504.47,341.41c-.7-13.57-2.82-27.15-4.24-39.46-3.84-33.35-17.42-62.55-49.86-76.81-10.64-4.67-22.55-7.94-30.19-17.3-9.56-11.71-9.96-28.22-16.21-41.58-6.2-13.26-15.64-24.65-28.75-31.46-11.34-5.89-25.34-6.63-35.47-14.83-8.37-6.78-12.18-17.6-14.91-28.02-7.91-30.21-23.67-55.09-53.66-67.39-13.33-5.47-26.19-8.89-39.3-10.46-1.86-.22-3.72-.42-5.58-.61-5.65-.56-11.12-2.27-16.05-5.09-5.16-2.95-11.21-5.37-18.31-6.3-32.92-4.32-94.36-4.46-118.03,23.95-10.19,12.23-12.61,20.98-28.19,27.15-16.17,6.4-26.5,19.22-29.9,37.07-1.73,9.12-.59,18.67,3.68,26.95,2.83,5.5,10.44,8.58,12.66,14.08,3.31,8.22-1.67,10.2-6.23,17.11-3.89,5.88-5.24,12.71-3.79,19.24.98,4.42,3.25,8.61,6.47,11.81,3.1,3.08,7.63,4.73,9.34,9.1,3.1,7.95-2.81,16.61-7.16,22.83-7.04,10.07-14.42,20.18-20.05,31.12-6.12,11.9-9.46,22.44-10.49,33.16-2.07,21.51,9.04,38.04,27.19,49.04,0,0,1.38.84,1.4.85,8.92,5.45,13.54,11.23,15.16,22.14,1.8,12.11.76,22.42,3.38,34,.83,3.65.23,7.5-1.61,10.76-.04.07-.07.12-.1.17-7.73,13.23-19.96,38.14-10.02,52.9,9.28,13.77,28.1,16.32,43.31,17.72,11.2,1.03,38.46-2.9,38.22,14.33-.27,19.53-12.14,41.59,11.74,50.38,19.37,7.13,59.49,7.27,79.65,8.16,115.4,5.11,163.44-8.54,166.72-25.79,2.34-12.3-4.73-23.49-1.79-35.49,2.01-8.2,12.79-9.81,19.67-11.06,8.6-1.56,17.13-3.38,25.45-6.07,25.41-8.23,47.29-24,64.41-44.4,17.83-21.24,22.81-45.35,21.45-71.9ZM77.1,431.65s.04.03.06.05c-.03,0-.05,0-.08,0,0-.02.01-.03.02-.05Z"/>
  <g>
    <path class="cls-4" d="M308.17,352.61c-.08,10.25-.74,18.65-2.9,26.87-3.57,13.65-11.44,24.08-23.58,31.27-7.31,4.33-15.14,7.54-23.26,9.87-27.21,7.81-54.5,15.35-82.32,20.71-11.72,2.26-23.58,3.3-35.57,1.77-14.69-1.88-25.74-9.01-32.86-22.02-2.06-3.77-3.91-7.67-5.68-11.59-2.85-6.35-7.64-9.78-14.59-10.27-1.81-.13-3.6-.51-5.39-.84-7.88-1.47-13.47-6.04-17.29-12.92-3.11-5.59-4.71-11.69-5.16-18.01-.53-7.43-.79-14.88-.95-22.33-.23-10.8-4.45-19.53-12.95-26.21-2.87-2.26-5.91-4.25-9.02-6.15-2.68-1.64-5.4-3.24-7.98-5.03-10.7-7.45-14.7-17.89-13.47-30.61.95-9.89,4.39-18.98,8.9-27.73,3.88-7.53,8.69-14.48,13.36-21.51,9.87-14.86,17.74-30.65,22.52-47.89.53-1.91.93-3.87,1.53-5.76,1.18-3.73,2.62-4.95,6.49-4.54,2.31.24,3.8-.89,5.44-1.9,8.8-5.42,18-9.76,28.23-11.86,16.09-3.29,32.23-3.57,48.42-1.34,18.97,2.61,37.27,7.64,54.72,15.64,37.09,17,63.02,44.9,79.62,81.78,13.03,28.95,20.57,59.36,23.15,91,.31,3.8.7,7.59.61,9.63Z"/>
    <path class="cls-4" d="M107.54,164.64c-7.7-.04-14.46-3.12-20.26-8.53-3.41-3.18-6.32-6.8-8.91-10.64-5.93-8.8-13.79-15.03-23.71-18.82-3.85-1.47-7.62-3.27-11.18-5.35-10.37-6.06-15.17-16.4-12.93-28.23,2.31-12.18,8.84-21.24,20.68-25.93,2.61-1.03,5.24-2.05,7.89-2.99,7.34-2.59,12.85-7.33,16.79-14,2.95-4.98,5.78-10.02,9.52-14.51,2.16-2.59,4.59-4.67,7.42-6.45,7.71-4.85,16.03-7.81,25.12-8.54,3.86-.31,11.26.28,14.6,2.47,1.6,1.05-.31,1.09,1.54,1.2,4.13.25,8.25.6,12.37.94,5.69.47,7.15,2.65,5.21,8.07-.4,1.14-.35,1.82.49,2.57,10.28,9.09,12.29,21.18,11.92,33.92-.71,24.45-7.16,47.33-19.55,68.46-4.47,7.63-9.98,14.43-17.33,19.54-5.82,4.05-12.15,6.71-19.7,6.79Z"/>
    <path class="cls-1" d="M154.98,384.13c-8.04-.03-14.22-1.92-19.6-6.3-5.09-4.14-9.09-9.13-12.22-14.86-2.47-4.52-4.35-9.28-6-14.15-1.33-3.92-2.67-7.83-4.05-11.73-3.56-10.08-10.08-17.33-20.17-21.24-3.24-1.25-6.38-2.75-9.54-4.2-9.49-4.38-15.92-11.6-19.87-21.2-4.91-11.94-5.99-24.37-4.69-37.05.88-8.59,2.86-16.98,5.97-25.04.69-1.78.91-5.16,3.85-3.98,2.45.98.6,3.45.01,5.21-4.8,14.29-7.41,28.83-5.12,43.95.67,4.44,1.79,8.75,3.26,12.97,3.57,10.23,10.15,17.68,20.23,21.94,3.35,1.42,6.68,2.9,10.01,4.38,8.73,3.86,14.88,10.26,18.72,18.98,2.14,4.86,3.71,9.91,5.43,14.92,1.45,4.23,3,8.42,5.03,12.41,2.27,4.45,5.05,8.53,8.54,12.13,6.17,6.35,13.52,9.13,22.43,8.14,6.59-.73,13.13-1.69,19.65-2.79,1.8-.3,3.59-.64,5.39-.91,1.75-.26,4.09-1.05,4.43,1.52.33,2.46-2.21,2.55-3.89,2.85-6.52,1.13-13.06,2.16-19.6,3.13-3.11.46-6.25.71-8.19.93Z"/>
    <path class="cls-1" d="M182.45,338.04c-7.82.12-13.85-4.07-18.57-10.58-2.96-4.09-4.5-8.82-5.83-13.62-1.02-3.67-1.93-7.36-3.41-10.89-1.97-4.69-5.2-7.57-10.56-7.55-1.98,0-3.97-.23-5.95-.29-9.53-.26-16.7-4.7-22.01-12.42-4.39-6.38-6.98-13.49-8.29-21.09-1.73-10.05-1.81-20.08.38-30.09.35-1.62.74-3.24,1.66-4.64.49-.74,1.26-1.07,2.15-.8.93.28,1.3,1.06,1.2,1.92-.14,1.14-.51,2.24-.76,3.37-2.88,13.09-2.07,25.98,2.21,38.65,1.33,3.93,3.25,7.61,5.73,10.96,4.62,6.26,10.72,9.69,18.62,9.68,1.82,0,3.64.14,5.46.2,7.12.25,11.79,3.96,14.31,10.42,1.32,3.38,2.26,6.91,3.29,10.4,1.13,3.81,2.15,7.68,4.19,11.12,4.93,8.32,11.48,12.23,21.59,10.25,5.03-.98,9.98-2.38,14.99-3.44,1.8-.38,4.46-1.6,5.13,1.01.67,2.65-2.24,2.83-4.03,3.28-6.89,1.76-13.73,3.77-21.5,4.12Z"/>
    <path class="cls-1" d="M156.43,420.81c-3.8.03-7.6.21-11.41-.22-7.45-.83-13.44-4.36-18.64-9.52-3.67-3.64-6.69-7.8-9.43-12.14-4.12-6.52-9.54-10.13-17.6-9.93-9.78.24-16.55-4.83-20.91-13.41-2.27-4.46-3.94-9.16-4.86-14.04-2.17-11.47-6.52-21.85-14.29-30.68-.33-.37-.62-.78-.91-1.18-.7-1-1.27-2.11-.21-3.12,1.32-1.26,2.5-.38,3.39.66,5.75,6.71,10.89,13.81,13.43,22.42,1.31,4.44,2.39,8.95,3.57,13.43,1.23,4.67,2.88,9.16,5.53,13.23,3.08,4.72,7.24,7.65,13.01,7.99,1.82.11,3.63.34,5.45.41,6.58.24,11.75,3.12,15.63,8.36,1.87,2.53,3.65,5.12,5.48,7.69,2.12,2.98,4.47,5.74,7.1,8.29,5.44,5.27,12.06,7.38,19.45,7.42,5.3.03,10.6-.11,15.9-.11,1.89,0,4.61-.56,4.63,2.21.01,2.3-2.6,2.15-4.34,2.21-3.31.12-6.62.04-9.93.04Z"/>
    <path class="cls-1" d="M45.59,93.64c.02-5.73,2.14-10.62,5.98-14.82,2.49-2.72,5.34-5.08,8.64-6.6,10.79-4.96,18.26-12.83,22.4-24,.96-2.59,2.65-4.97,4.31-7.22,5.8-7.86,13.52-11.37,23.34-10.02,3.46.48,6.84,1.22,10.09,2.49,1.23.48,2.43,1.08,3.32,2.12.83.97,1.17,2.18.4,3.19-.88,1.15-1.99.66-3.04-.08-4.11-2.87-8.9-3.4-13.7-3.69-5.82-.35-10.64,1.82-14.64,6.03-3.01,3.18-5.34,6.83-6.9,10.83-4.18,10.74-11.45,18.41-21.82,23.32-2.22,1.05-4.3,2.52-6.23,4.06-9.83,7.85-10.46,20.16-1.4,28.92,2.61,2.52,5.63,4.61,8.44,6.93.88.73,1.76,1.52,2.46,2.41.53.68.47,1.59-.1,2.3-.57.71-1.36.88-2.23.62-.16-.05-.34-.07-.46-.17-7.31-5.39-15.22-10.22-17.99-19.76-.66-2.26-.95-4.53-.87-6.87Z"/>
    <path class="cls-1" d="M82.56,74.12c.19.02.87,0,1.5.17,1.18.31,2.25.91,2.07,2.32-.15,1.17-1.17,1.55-2.22,1.53-1.85-.04-3.62.36-5.36.85-8.83,2.47-12.89,10.2-9.87,18.86.76,2.18,1.81,4.25,2.62,6.41.47,1.24.89,2.69-.69,3.46-1.49.72-2.54-.18-3.19-1.47-2.14-4.3-4.12-8.68-4.21-13.6-.19-9.79,8.52-18.29,19.35-18.53Z"/>
    <path class="cls-5" d="M271.91,293.52c-4.5,6.34-10.55,10.96-16.97,15.11-13.28,8.58-27.55,15.14-42.52,20.19-3.64,1.23-7.36,1.93-10.24,1.71-2.97-.07-4.94-.16-6.93.16-4.07.65-6.62-.75-8.24-4.56-.9-2.13-1.44-4.41-2.25-6.58-4.17-11.17-8.71-22.19-13.38-33.16-2.78-6.53-5.37-13.14-8.32-19.58-1.39-3.04-2.85-6.04-4.45-8.98-1.82-3.36-3.75-6.62-6.49-9.34-3.8-3.78-8.18-5.74-13.23-5.59-.99.03-5.57.39-10.17,1.22-2.12.38-4.07-.47-4.85-2.63-.75-2.06.36-4.36,2.94-5.59,3.64-1.74,7.63-2.37,11.58-2.47,3.37-.1,4.9-1.46,6.12-4.51,7.74-19.19,15.94-38.21,22.66-57.8,4.09-11.9,7.65-23.97,10.76-36.17.86-3.36,1.8-6.74,3.13-9.93,3-7.14,8.85-8.29,14.58-3.01,1.71,1.56,3.35,3.23,4.81,5.02,7.46,9.08,14.89,18.19,22.27,27.34,8.31,10.31,13.95,22.11,18.59,34.38,8.09,21.4,16.89,42.46,27.78,62.61,1.57,2.91,3.05,5.88,4.38,8.92,1.19,2.72,2.24,5.52,3.12,8.36,2.81,9.09.69,17.3-4.68,24.88Z"/>
    <path class="cls-5" d="M198.87,170.21c-.62,2.74-1.39,5.45-2.11,8.17-.72,2.75-1.65,5.29-4.15,7.11-2.07,1.52-2.6,4.18-3.59,6.43-4.09,9.43-8.6,18.65-13.92,27.45-1.37,2.26-2.84,4.48-4.36,6.64-3.84,5.45-8.86,9.26-15.28,11.31-7.9,2.52-15.99,4.3-24.05,6.16-9.51,2.19-19.05,4.32-28.72,5.76-5.39.8-10.79,1.55-16.29,1.52-6.6-.03-12.77-1.68-18.71-4.35-6.32-2.84-10.21-7.73-11.98-14.36-1.89-7.11-2.31-14.36-2.1-21.68.06-2.39.08-4.79.17-7.18.09-2.56.25-5.13.6-7.69.38-2.77.2-5.62.31-8.43,0-.07.01-.15,0-.22.15-5.57-2.26-9.7-7.07-12.51-2.01-1.17-4.01-2.33-5.99-3.55-5.24-3.21-6.59-8.95-3.19-14.09,1.82-2.76,3.93-5.32,6.25-7.71,2.18-2.26,4.19-4.68,6.36-6.97,5.38-5.67,8.59-12.44,10.56-19.96,2.78-10.57-.65-24.13,9.61-43.01,11.23-20.67,22.53-22.93,35.57-26.16,3.59-.89,8.88-1.24,12.65-1.12,3.64.1,5.11-1.7,8.75-1.66,15.02.18,28.58,5.06,41.09,13.09,7.87,5.05,14.61,11.4,20.11,18.99,7.13,9.84,11.45,20.84,13.2,32.86,2.72,18.65.38,36.97-3.72,55.16Z"/>
    <path class="cls-4" d="M96.22,96.31c4.99.21,10.15,1.29,15.01,3.59,3.4,1.61,6.06,4.02,7.46,7.61,2.42,6.2-1.27,11.16-7.85,10.51-.98-.1-2.01-.23-2.91-.59-5.8-2.38-11.82-3.08-18.02-2.67-.82.05-1.66.03-2.48-.08-6.54-.87-9.39-7.12-5.61-12.56,3.39-4.88,8.5-5.94,14.39-5.82Z"/>
    <path class="cls-6" d="M87.83,189.23c-.74,1.07-1.63,2.13-2.67,2.9-9.27,6.94-19.66,10.84-31.29,11.06h-.09c-.26-2.07.2-14.22.91-16.12,0-.07.01-.15,0-.22.36.04.74.1,1.14.19.95.21,1.98.03,3.44.03,6.49-.33,13.39-.98,20.1-3.02,1.57-.48,3.2-.84,4.83-1.06,1.53-.19,3.02.12,3.92,1.58.98,1.59.7,3.22-.29,4.66Z"/>
    <path class="cls-1" d="M89.57,141.12c-4.45-.01-7.64.12-10.61-.96-2.34-.85-5.54-1.31-4.99-4.97.34-2.26,5.65-4.7,8.19-3.86,3.45,1.14,6.9,2.11,10.58,2.27,5.57.24,10.76-1.17,15.91-3.04,1.6-.58,3.59-2,4.72.4,1.06,2.25-.93,3.18-2.53,4.05-7.04,3.83-14.32,6.78-21.27,6.1Z"/>
    <path class="cls-6" d="M191.11,213.23c.28,7.58-1.39,14.97-4.6,21.98-4.86,10.63-11.36,20.17-19.74,28.36-1.17,1.14-2.42,2.22-3.71,3.24-1.39-3.04-2.85-6.04-4.45-8.98-1.82-3.36-3.75-6.62-6.49-9.34-3.8-3.78-8.18-5.74-13.23-5.59,6.93-2.93,14.2-5.21,19.79-10.71,7.43-7.32,13.09-15.75,16.55-25.62.66-1.87,1.28-3.76,1.95-5.63.34-.93.65-1.89,1.14-2.74,1.33-2.27,3.2-3.95,5.97-3.72,2.6.21,4.06,2.1,4.88,4.4,1.64,4.58,2.1,9.34,1.94,14.35Z"/>
    <path class="cls-6" d="M64.8,170.87c-.28.88-.95,1.67-1.77,1.31-2.81-1.21-5.67-1.53-8.68-1.27-.78.07-1.5-.61-1.6-1.59-.08-.76.3-1.39.89-1.63,3.22-1.26,6.45-1.43,9.56.32,1.06.6,1.72,1.54,1.6,2.85Z"/>
    <path class="cls-6" d="M89.12,119.48c-.09.45-.07.83-.24,1.08-1.64,2.48-3.27,4.97-5.02,7.37-.63.86-1.69,1.08-2.64.37-.75-.56-.83-1.44-.48-2.24,1.27-2.9,2.86-5.6,5.38-7.61.7-.56,1.54-.66,2.27-.08.35.28.52.79.72,1.11Z"/>
    <path class="cls-1" d="M241.33,447.07c-13.51-.52-29.06.44-44.61,1.02-7.78.29-15.55.48-23.33.51-10.46.05-20.82-.95-31.05-3.21-3.38-.75-6.87-1.05-10.31-1.5-2.49-.33-4.85-1.1-7.09-2.17-3.98-1.9-5.34-4.41-4.75-8.81.17-1.3.57-2.58.97-3.84,5.83-18.15,12.59-35.93,20.95-53.09,3.26-6.69,6.26-13.52,9.18-20.37,12.52-29.32,31.99-52.39,60.31-67.6,5.69-3.06,11.35-6.18,17.32-8.67,5.23-2.18,10.62-3.62,16.35-3.83,2.97-.11,5.93-.57,8.87-1.03,9-1.41,17.85-.84,26.46,2.17,30.11,10.56,52.81,29.74,67.46,58.21,5.32,10.34,9.06,21.32,12.64,32.35,3.63,11.18,7.29,22.35,10.94,33.52.62,1.89,1.22,3.76,2.53,5.35,1.08,1.3,1.49,2.92,1.73,4.59.49,3.44,1.13,6.86,1.5,10.32.55,5.02-1.48,8.62-6.04,10.92-1.32.67-2.73,1.21-4.16,1.62-15.58,4.54-31.14,9.15-47.39,10.73-4.61.45-9.21,1.03-13.83,1.35-20.83,1.44-41.7,1.36-64.63,1.46Z"/>
    <path class="cls-4" d="M485.25,315.63c-.44,7.05.64,17.73,2.44,28.38.94,5.55,1.48,11.15,1.4,16.81-.17,11.43-4.11,21.34-11.73,29.82-3.45,3.84-7.35,7.18-11.66,10.01-19.93,13.1-41.42,22.34-65.28,24.91-16.2,1.75-32.42,1.08-48.4-2.67-2.75-.65-5.42-1.55-7.9-2.92-4.37-2.42-6.96-6.14-7.22-11.14-.13-2.41-.92-4.47-1.84-6.61-4.9-11.36-13.21-19.21-24.4-24.29-6.06-2.75-12.32-4.82-18.69-6.65-4.29-1.23-8.6-2.44-12.83-3.86-12.23-4.09-21.13-12.05-27.02-23.49-2.82-5.48-4.83-11.25-6.62-17.11-1.2-3.96-2.41-7.91-4.04-11.73-2.18-5.12-5.63-8.92-10.92-10.91-.62-.23-1.21-.53-1.83-.76-11.09-4.11-19.01-11.78-24.74-21.93-2.36-4.19-4.4-8.53-6.2-12.99-6.42-15.86-11.36-32.14-13.87-49.11-.31-2.13-.88-4.23-1.06-6.37-.58-6.81-4.07-12.13-8.51-16.98-3.28-3.58-7.15-6.43-11.43-8.66-4.11-2.14-8.32-4.08-12.48-6.13-3.41-1.68-6.86-3.31-10.21-5.12-12.23-6.65-19.1-17.01-21.04-30.72-.62-4.42-1.28-8.85-1.86-13.28-.8-6.01-3.38-11-8.11-14.88-2.04-1.68-4-3.48-5.83-5.39-8.31-8.67-11.54-19.12-10.51-30.95,1.27-14.62,7.43-27.35,15.45-39.32,1.64-2.44,3.64-4.35,6.97-3.7,1.13.22,1.88-.45,2.57-1.18,1.03-1.08,2.04-2.17,3.06-3.26,2.62-2.78,5.5-5.26,8.56-7.55,1.69-1.26,3.41-1.96,5.53-1.38,3.1.86,6.24.58,9.38.25,3.96-.41,7.91-.61,11.87.18,1.6.32,3.3.25,4.95.25,8.28.02,16.54.6,24.83.25,2.79-.12,5.6.42,8.41.65,11.88.96,23.79,1.47,35.63,2.89,12.26,1.47,24,4.78,35.39,9.45,20.96,8.6,34.36,24.17,41.58,45.33,1.6,4.69,2.65,9.57,4.07,14.33,1.23,4.12,2.46,8.25,3.96,12.28,5.3,14.18,15.1,23.9,29.34,29.08,3.73,1.36,7.52,2.57,11.27,3.89,3.12,1.1,6.26,2.17,9.33,3.39,9.61,3.83,16.81,10.38,21.81,19.42,3.22,5.83,5.63,11.98,7.69,18.29,1.39,4.25,2.6,8.55,4,12.8,1.14,3.45,2.34,6.9,3.72,10.26,3.43,8.41,9.17,14.87,16.92,19.58,3.83,2.33,7.84,4.28,11.95,6.05,4.41,1.9,8.82,3.8,13.21,5.74,20.78,9.13,32.88,25.44,38.84,46.87,2.39,8.58,2.42,17.34,2.07,29.89ZM212.47,272.42c-.08.13-.26.3-.23.37,3.82,8.38,9.27,15.23,17.93,19.04,2.12.93,4.25,1.84,6.37,2.78,6.13,2.74,10.66,7.16,13.75,13.1,1.76,3.39,3.13,6.93,4.28,10.57,1.29,4.1,2.54,8.22,3.95,12.28,1.68,4.87,3.88,9.49,6.88,13.71,6.25,8.76,15.24,12.71,25.46,14.88-.04-1.48-.9-2.09-1.57-2.79-6.27-6.57-10.64-14.31-13.92-22.71-2.71-6.96-4.5-14.18-6.06-21.47-.97-4.53-1.97-9.06-3.81-13.34-3.62-8.43-9.71-14.08-18.64-16.47-2.55-.68-5.15-1.24-7.76-1.65-9.2-1.41-18.27-3.16-26.23-8.41-.08-.05-.28.07-.42.12ZM169.72,178.18c.18-.26.36-.53.53-.79-2.32-1.57-4.64-3.13-6.95-4.72-3.14-2.16-6.36-4.2-9.37-6.53-9.19-7.09-14.74-16.46-16.83-27.83-.81-4.39-1.39-8.83-1.87-13.27-.86-8.07-4.6-14.4-11.12-19.15-2.41-1.76-4.84-3.48-7.2-5.3-4.79-3.7-8.74-8.09-11.18-13.72-.24-.56-.17-1.73-1.65-1.35-.13,6.94,2.1,12.98,6.82,18.04,1.8,1.93,3.79,3.71,5.81,5.42,6.49,5.48,10.3,12.44,11.56,20.8.69,4.58,1.32,9.18,1.93,13.77,1.36,10.22,6.26,18.09,15.53,22.85,7.92,4.07,15.98,7.87,23.98,11.78Z"/>
    <path class="cls-1" d="M434.6,366.61c.28,10.88-3.15,21.45-6.54,32.02-.25.78-.64,1.54-1.12,2.2-.5.69-1.29,1.1-2.16.83-.85-.26-1.32-.94-1.44-1.83-.21-1.54.38-2.93.81-4.35,1.74-5.7,3.53-11.39,4.64-17.26,1.65-8.74,1.69-17.45-.5-26.11-1.87-7.39-5.35-13.9-10.78-19.27-2.83-2.79-5.73-5.53-8.82-8.02-12.68-10.21-18.07-23.72-18.19-39.66-.05-6.79-.22-13.58-.96-20.34-.27-2.46-.66-4.94-1.29-7.33-2.46-9.25-8.15-15.72-16.99-19.46-5.85-2.47-12.03-3.62-18.2-4.84-4.88-.97-9.71-2.07-14.39-3.78-9.35-3.41-16.72-9.29-22.23-17.54-4.08-6.11-6.94-12.8-9.32-19.71-1.72-5.01-3.27-10.08-4.99-15.09-1.07-3.13-2.24-6.23-3.49-9.3-3.62-8.88-9.76-15.25-18.77-18.77-2.16-.84-4.27-1.81-6.42-2.67-11.24-4.49-19.47-12.3-25.33-22.8-4.88-8.75-8.12-18.12-10.71-27.73-2.72-10.07-5.15-20.22-8.01-30.24-2.84-9.95-7.12-19.25-14.01-27.16-.43-.5-.85-1.03-1.16-1.6-.43-.78-.43-1.58.26-2.26.67-.66,1.51-.75,2.29-.39,1.7.8,2.8,2.31,3.92,3.73,5.35,6.86,9.2,14.53,12.06,22.72,2.9,8.3,4.76,16.89,6.95,25.38,2.23,8.66,4.53,17.3,7.94,25.6,1.7,4.14,3.68,8.15,6.03,11.97,5,8.15,11.75,14.27,20.64,17.95,2.91,1.2,5.77,2.5,8.67,3.72,8.99,3.79,15.28,10.28,19.32,19.09,2.36,5.13,4.14,10.47,5.86,15.83,1.82,5.68,3.51,11.4,5.9,16.87,1.39,3.18,2.85,6.35,4.56,9.37,5.54,9.84,13.78,16.35,24.62,19.61,5.72,1.72,11.62,2.65,17.44,3.92,4.7,1.02,9.33,2.3,13.71,4.33,9.44,4.37,15.58,11.58,18.33,21.61,1.32,4.81,1.96,9.72,2.08,14.72.21,8.6.14,17.23,1.68,25.75,1.52,8.44,5.42,15.59,11.64,21.45,2.53,2.39,5.17,4.66,7.78,6.96,13.41,11.82,18.77,23.66,18.74,41.9Z"/>
    <path class="cls-1" d="M395.22,378.44c-.13,14.25-2.16,27.93-7.75,40.92-.59,1.36-1.21,2.72-2,3.96-.46.72-1.4.92-2.24.64-1.06-.35-1.65-1.23-1.45-2.3.24-1.29.65-2.57,1.17-3.77,6.33-14.6,8.03-29.98,7.47-45.69-.24-6.79-1.38-13.47-3.62-19.96-3.03-8.76-8.26-15.79-15.96-20.94-2.47-1.66-5.04-3.18-7.56-4.76-2.8-1.76-5.66-3.45-8.4-5.3-11.54-7.76-18.08-18.68-19.99-32.35-.89-6.39-1.32-12.84-2.05-19.25-.32-2.79-.67-5.6-1.31-8.33-2.16-9.33-7.46-16.47-15.44-21.69-5.16-3.37-10.74-5.87-16.41-8.22-3.67-1.52-7.37-2.97-11.05-4.47-11.32-4.62-19.77-12.46-25.88-22.98-4.01-6.9-7.1-14.21-9.95-21.63-4.82-12.51-9.13-25.22-15.17-37.22-.07-.15-.14-.3-.2-.45-.55-1.27-.99-2.63.45-3.53,1.55-.97,2.55.21,3.2,1.36,1.3,2.3,2.51,4.67,3.59,7.08,4.35,9.66,8.18,19.54,11.95,29.44,2.89,7.58,5.95,15.08,9.99,22.16,5.79,10.15,13.93,17.56,24.87,21.84,4.93,1.93,9.83,3.95,14.7,6.03,4.27,1.82,8.38,3.96,12.29,6.48,10.85,6.99,16.85,16.98,18.64,29.69,1.16,8.2,1.26,16.49,2.74,24.67,2.15,11.91,8.13,21.2,18.25,27.8,3.6,2.35,7.24,4.67,10.99,6.78,16.15,9.08,23.63,23.51,25.56,41.33.46,4.27.87,8.57.59,12.67Z"/>
    <path class="cls-1" d="M128.04,46.47c-.43-4.87,1.42-10.02,1.34-15.34-.01-.74.53-1.56,1-2.2.51-.69,1.36-.97,2.22-.77.88.2,1.4.85,1.56,1.72.28,1.5-.08,2.96-.35,4.42-1.26,6.88-1.78,13.77-.57,20.73,1.69,9.77,6.22,17.74,14.5,23.37,2.73,1.86,5.64,3.46,8.51,5.11,2.87,1.66,5.77,3.24,8.66,4.85,10.99,6.13,16.7,15.63,18.08,28.01.85,7.56,1.49,15.16,2.98,22.64,1.26,6.37,3.11,12.53,6.33,18.21,3.84,6.77,9.08,12.21,15.67,16.3,4.36,2.7,8.78,5.33,13.25,7.84,15.24,8.57,23.6,21.77,26.37,38.8,1.22,7.51,2.55,15.01,3.77,22.52,2.15,13.21,7.47,24.98,15.95,35.33,1.78,2.17,3.45,4.45,5.05,6.75.7,1,.81,2.23-.23,3.17-1.11,1.01-2.16.42-3.1-.35-.51-.42-.93-.94-1.37-1.44-11.08-12.77-18.82-27.14-21.33-44.08-1.14-7.69-2.5-15.35-3.86-23.01-2.57-14.55-10.03-25.73-22.95-33.13-2.87-1.65-5.64-3.48-8.58-5-17.93-9.3-27.36-24.4-30.19-44.01-1.07-7.37-1.95-14.76-2.9-22.15-1.23-9.51-6.01-16.68-14.21-21.59-2.56-1.53-5.16-2.97-7.75-4.44-2.73-1.55-5.51-3.04-8.21-4.66-12.93-7.71-18.89-19.45-19.65-34.17-.05-.99,0-1.99,0-3.45Z"/>
    <path class="cls-1" d="M146.73,31.37c-.64.04-2.13.18-3.61.2-1.05,0-1.95-.38-2.12-1.61-.17-1.2.57-1.91,1.55-2.22,1.09-.35,2.25-.52,3.39-.62,18.51-1.51,46.9,11.29,53.95,38.58,2.51,9.69,3.4,19.55,3.91,29.47.2,3.98.6,7.93,1.23,11.84,1.02,6.32,3.43,12.08,7.61,17.02,1.6,1.9,3.13,3.86,4.81,5.69,8.29,9.07,13.06,19.83,15.18,31.83.95,5.38,1.78,10.78,2.66,16.17.08.49.17.98.21,1.47.13,1.58,0,3.16-1.96,3.4-2,.25-2.48-1.41-2.73-2.87-.85-4.89-1.6-9.8-2.37-14.7-1.86-11.85-5.69-22.97-14.25-31.64-10.55-10.68-14.85-23.52-15.2-38.17-.22-9.1-1.06-18.17-3.37-27.04-5.53-21.18-26.31-37.11-48.88-36.8Z"/>
    <path class="cls-1" d="M478.34,364.56c.2,7.49-1.6,14.65-4.73,21.52-2.62,5.76-6.09,10.99-9.82,16.06-.85,1.15-2.08,1.82-3.45.97-1.46-.91-1.16-2.25-.38-3.47,1.51-2.37,3.12-4.68,4.65-7.04,4.93-7.61,8.3-15.78,9-24.94.66-8.71-1.01-16.81-6.19-23.97-2.13-2.95-4.44-5.77-6.83-8.52-6.86-7.9-10.34-17.15-11.52-27.47-.87-7.56-1.39-15.15-2.62-22.67-2.01-12.35-6.85-23.43-14.18-33.49-3.12-4.29-6.55-8.32-10.1-12.25-.88-.98-1.73-2.01-2.43-3.12-.45-.72-.35-1.6.3-2.28.84-.86,1.79-.78,2.67-.13.66.48,1.25,1.08,1.82,1.68,4.66,4.94,9.03,10.12,13.02,15.63,9.2,12.72,13.43,27.14,14.87,42.57.54,5.76,1.18,11.52,1.97,17.25,1.02,7.38,3.93,13.97,8.67,19.74,2.1,2.56,4.21,5.11,6.3,7.67,6.21,7.61,9.3,16.3,8.99,26.26Z"/>
    <path class="cls-1" d="M327.95,132.55c1.27.09,1.89.63,2.32,1.35.68,1.13,1.3,2.3,1.93,3.47,6.01,11.22,12.05,22.44,18.56,33.38.34.57.71,1.12,1.03,1.69,8.23,15.04,20.31,25.45,36.74,30.68,1.89.6,3.74,1.35,5.54,2.17,2.38,1.09,3.13,2.33,2.33,3.64-1.02,1.66-2.5,1.23-3.95.7-6.99-2.56-13.89-5.31-20.47-8.83-6.4-3.43-11.52-8.26-15.97-13.91-4.21-5.34-7.94-11.01-11.21-16.95-5.73-10.43-11.31-20.95-16.92-31.45-.62-1.16-1.23-2.38-1.51-3.65-.3-1.36.62-2.08,1.57-2.31Z"/>
    <path class="cls-1" d="M179.16,183.57c1.46.21,2.54,1.27,3.6,2.3,3.82,3.75,6.74,8.14,9.16,12.88,3.64,7.15,5.51,14.85,6.95,22.68,1.52,8.29,2.62,16.66,4.63,24.86,1.35,5.48,3.15,10.79,5.66,15.84.37.74.73,1.48,1.07,2.24.64,1.43,1.12,3-.51,3.96-1.73,1.01-2.73-.36-3.52-1.68-.59-.99-1.08-2.05-1.6-3.08-4.25-8.53-6.29-17.72-7.97-27.01-1.32-7.32-2.46-14.68-4.05-21.94-2.23-10.19-6.35-19.48-14.11-26.8-.47-.45-.94-.95-1.24-1.52-.67-1.27.4-2.82,1.92-2.72Z"/>
    <path class="cls-1" d="M128.12,28.42c-.04.81-.35,1.38-.97,1.72-.73.39-1.49.71-2.25,1.05-9.16,4.17-15.48,11.15-19.87,20.04-.58,1.18-1.09,2.42-1.82,3.51-.58.86-1.53,1.26-2.6.73-1.03-.51-1.38-1.42-1.19-2.48.15-.8.42-1.6.76-2.35,4.59-10.17,11.71-17.96,21.78-22.93,1.33-.66,2.72-1.32,4.26-1.12,1.06.14,1.83.74,1.9,1.84Z"/>
    <path class="cls-1" d="M102.08,72.81c.12-3.83.72-7.57,1.45-11.29.22-1.11.68-2.21,1.18-3.23.38-.77,1.17-1.24,2.05-1.08,1.11.21,1.63,1.08,1.58,2.17-.04.81-.24,1.62-.4,2.42-1.06,5.2-1.55,10.42-.82,15.71.11.82.21,1.64.22,2.46.02,1.36-.08,2.79-1.78,3.04-1.69.26-2.36-.97-2.56-2.37-.37-2.61-.62-5.23-.92-7.84Z"/>
    <path class="cls-1" d="M94.05,98.11c1.09-.04,1.95.54,2.25,1.54,1.56,5.18,5.28,8.19,9.97,10.36,1.33.61,2.59,1.49,3.43,2.78.48.74.58,1.56.02,2.3-.54.72-1.42,1.15-2.17.76-6.33-3.26-12.85-6.38-15.02-14.07-.54-1.91.16-3.46,1.52-3.68Z"/>
    <path class="cls-2" d="M190.34,18.84c8.83,1.16,15.4,3.87,21.88,9.43,8.83,7.57,13.97,17.61,18.15,28.12,3.49,8.77,6.37,17.79,7.55,27.23.99,7.88,1.89,15.78,1.49,23.75-.18,3.66.81,6.55,3.38,9.41,7.46,8.3,12.49,18.05,14.07,29.13,2.42,17.02-.22,33.19-11.02,47.06-10.96,14.08-25.34,22.34-43.56,22-13.21-.25-24.76-5.12-34.49-14.34-9.26-8.77-15.07-19.38-17.03-31.82-3.98-25.3,4.89-47.81,26.56-61.9,5.61-3.65,11.94-5.65,18.49-6.96,3.51-.7,3.93-1.04,3.91-4.54-.07-14.82-2.47-29.07-11.33-41.46-5.07-7.09-11.59-12.72-19.13-17.08-10.29-5.94-21.39-9.68-33.1-11.66-1.92-.32-2.75-.46-3-2.79-.23-2.19.39-2.9,2.21-3.61,6.09-2.37,12.52-3.06,18.98-3.43,3.63-.21,27.78,2.39,36,3.46Z"/>
    <path class="cls-1" d="M239.51,113.86c-.8-.81-2.09-1.3-2.28-2.52-.32-2.08-1.86-3.01-3.34-4.08-6.66-4.84-13.96-8.22-22.05-9.85-2.93-.59-3.2-1.01-3.14-3.95.01-.66.13-1.32.26-1.96.07-.36.38-.63.74-.65.83-.05,1.65.18,2.46.39,7.12,1.78,13.84,4.53,20.13,8.31.99.6,1.95,1.25,2.99,1.76.8.39,1.63.22,2.23-.5.6-.72.56-1.57.12-2.32-.78-1.34-2.13-2.06-3.4-2.83-7.46-4.51-15.5-7.66-24.07-9.7-.6-.14-1.17-.45-1.54-.96-1.38-1.92-.87-4.71-1.41-7.08-.07-.32-.06-.66-.11-.99-1.26-9.1-3.93-17.73-8.11-25.95-3.3-6.5-7.84-11.78-13.63-16.18-10.66-8.09-22.61-13-35.78-15.09-2.5-.4-4.99-.83-7.51-.88,1.4-.45,2.89-.7,4.27-.82,5.26-.44,10.6-.02,15.86.27,10.9.62,21.77,1.66,32.58,3.17,2.82.39,5.78.63,8.51,1.5,2.31.74,4.14,2.32,5.32,4.42,1.27,2.24,4.72.23,3.45-2.02-1.21-2.14-2.97-3.96-5.13-5.15-2.45-1.35-5.19-1.75-7.92-2.15-5.95-.88-11.92-1.63-17.9-2.25-5.97-.62-11.95-1.11-17.93-1.46-5.78-.34-11.71-.86-17.49-.27-5.57.57-11.74,3-13.13,9.06-.58,2.51,3.28,3.58,3.86,1.06.08-.36.2-.69.33-1.02.74.11,1.5.08,2.25.09,1.65.01,3.33-.19,4.96.02,14.23,1.83,27.28,6.58,38.77,15.41,5.24,4.03,9.23,8.9,12.26,14.75,6.26,12.07,8.09,25.11,8.88,38.42.08,1.3.32,3.62-.05,4.29-.26.47-2.46.19-3.49.67-.96.44-1.77,1.06-1.69,2.2.08,1.18.96,1.66,2.06,1.71.83.04,1.66-.06,2.48.03,3.91.42,7.87.58,11.77,2.2-1.37,1.12-2.7.6-3.93.62-13.22.2-24.56,4.95-33.95,14.21-10.66,10.5-16.11,23.45-16.54,38.26-.51,17.32,5.28,32.34,18.81,43.58,13.4,11.14,28.66,13.73,45.23,8.22,1.41-.47,2.76-1.11,4.08-1.8,1.12-.58,1.71-1.55,1.3-2.88-.34-1.08-1.51-1.62-2.86-1.23-1.11.32-2.17.79-3.26,1.2-3.27,1.23-6.63,2.2-10.1,2.5-15.56,1.34-28.28-4.18-37.97-16.35-7.75-9.73-10.97-21.02-10.48-33.39.5-12.75,4.96-23.94,13.65-33.28,15.15-16.3,38.7-19.01,56.31-6.16.4.29.78.62,1.19.89,1.93,1.27,3.11,1.38,4,.37.91-1.02.62-2.31-.91-3.85Z"/>
    <path class="cls-3" d="M293.68,207.55c-3.27-.46-6.55-.89-9.82-1.39-7.73-1.17-15.51-1-23.29-1.08-9.63-.1-19.12-1.28-28.49-3.58-14.88-3.64-28.23-10.35-40.24-19.78-3.9-3.07-7.76-6.21-11.53-9.43-2.74-2.35-2.95-3.72-1.4-6.94.65-1.34,1.41-2.63,2.22-3.88,11.88-18.31,26.63-33.77,45.29-45.26,14.37-8.85,29.81-15.11,46.49-17.99,5.35-.93,10.78-1.94,16.26-.5,1.46.38,2.88.77,4.13,1.61,2.54,1.7,3.2,4.03,2.02,6.9-.7,1.71-1.72,3.23-2.96,4.56-7.04,7.57-12.4,16.33-18.01,24.93-1.27,1.94-2.6,3.84-3.92,5.74-5.31,7.59-12.03,13.61-20.13,18.11-.58.32-1.18.62-1.7,1.02-.2.15-.36.56-.3.8.06.27.34.62.6.71,1.4.5,2.84.91,4.24,1.39,10.41,3.54,20.16,8.37,29.1,14.81,5.96,4.29,11.24,9.26,15.46,15.3,1.61,2.31,3.14,4.68,3.81,7.48.84,3.49-.79,5.9-4.34,6.27-1.15.12-2.31.02-3.47.02,0,.07-.01.14-.02.2Z"/>
    <path class="cls-3" d="M335.28,166.3c-7.63.87-13.57.62-19.53.35-6.82-.31-13.49-1.33-20.01-3.32-4.14-1.26-8.05-3.05-11.39-5.89-.75-.64-1.51-1.3-2.16-2.04-1.05-1.2-.86-2.56.42-3.38.41-.26.89-.43,1.33-.66,17.48-9.03,35.2-9.19,53.1-1.35,3.95,1.73,7.69,3.87,11.13,6.49,1.45,1.1,2.86,2.27,3.84,3.84,1.07,1.7.58,3.77-1.23,4.63-1.81.86-3.77,1.27-5.77,1.3-3.8.05-7.61.01-9.73.01Z"/>
    <path class="cls-1" d="M221.62,171.8c.62,1.64,1.97,1.37,3.02,1.61,17.5,3.92,34.34,9.81,50.75,16.96,2.41,1.05,4.93,1.97,6.92,3.79.5.45.71,1.11.38,1.8-.4.86-1.13,1.17-2.02,1.11-.32-.02-.64-.15-.95-.28-.61-.26-1.2-.56-1.8-.83-21.38-9.57-43.48-16.82-66.64-20.66-6.33-2.64-13.08-.98-19.57-1.89-2.29-.32-4.58-.65-6.86-1.05-.63-.11-1.28-.38-1.81-.73-.72-.48-1.11-1.2-.83-2.13.21-.72.79-1.13,1.45-1.18.98-.08,1.99-.08,2.95.08,15.84,2.66,31.33.09,46.74-3.28,2.72-.59,5.28-1.88,7.9-2.91.92-.36,1.75-.9,2.8-.85.95.05,1.73,1.3,1.37,2.19-.41.99-1.21,1.54-2.09,2.02-2.34,1.27-4.81,2.18-7.34,2.99-4.68,1.5-9.54,2.2-14.38,3.26Z"/>
    <path class="cls-1" d="M196.75,164.63c-1.23.03-2.13-1.31-1.66-2.43.47-1.11,1.38-1.84,2.25-2.6,22.1-19.4,45.85-36.42,72.23-49.6,3.85-1.92,7.72-3.79,11.59-5.67,1.04-.5,2.09-1.01,3.18-1.39.99-.35,2.04-.31,2.6.74.57,1.06.03,1.95-.87,2.52-.97.62-2.02,1.12-3.06,1.62-29.11,13.98-55.91,31.45-80.17,52.8-1.24,1.09-2.54,2.12-3.81,3.18-.66.55-1.42.82-2.27.83Z"/>
    <path class="cls-1" d="M310.83,153.19c7.41.67,14.82,1.33,22.23,2.03,1.13.11,2.33.12,3.31.86.57.43.86,1.04.75,1.72-.1.68-.53,1.27-1.24,1.37-.8.11-1.65.12-2.45.02-8.22-.94-16.47-1.41-24.74-1.8-.99-.05-1.99-.1-2.97-.24-2.74-.39-3.82-1.19-3.55-2.54.25-1.24,1.21-1.7,3.69-1.63,1.65.05,3.3.23,4.95.35,0-.05,0-.1.01-.15Z"/>
    <path class="cls-1" d="M334.98,389.01c-2.51-7.37-5.35-15.21-11.72-20.16-3.46-2.68-7.61-4.51-11.54-6.39-4.18-2-8.47-3.8-12.99-4.86-3.13-.73-4.47,4.09-1.33,4.82,4.11.96,8,2.54,11.8,4.35,3.62,1.73,7.53,3.4,10.76,5.81,5.63,4.2,8.03,11.39,10.2,17.76.44,1.28,1.72,2.12,3.08,1.75,1.24-.34,2.18-1.79,1.75-3.08Z"/>
  </g>
  <g>
    <path class="cls-2" d="M273.31,458.66c.14.01.27.02.41.01,1.64-.03,2.91-1.04,2.93-2.39l.37-32.44c.02-1.46-1.45-2.77-3.28-2.92-1.83-.15-3.32.92-3.34,2.38l-.37,32.44c-.02,1.46,1.45,2.76,3.28,2.91ZM76.38,428.41l-10.72-3.16,12.12-27.25c.57-1.28-.37-2.98-2.09-3.79-1.72-.81-3.58-.43-4.15.84l-13.4,30.11c-.31.7-.18,1.56.35,2.35.49.71,1.26,1.29,2.13,1.61.09.03.18.06.27.09l14.75,4.34c1.8.53,3.43-.19,3.63-1.61.2-1.42-1.11-3.01-2.9-3.54ZM253.42,418.24c-1.83-.19-3.34.84-3.38,2.29l-.73,26.45-19.15-22.93s-.06-.07-.09-.1c-1.19-1.31-3.15-1.95-4.97-1.61-1.83.33-3.03,1.54-3.07,3.08,0,.02,0,.05,0,.07l.35,29.77c.02,1.46,1.51,2.76,3.34,2.91.09,0,.17,0,.25.01,1.71.03,3.05-1,3.03-2.4l-.29-24.39,18.95,22.69s.06.07.09.1c1.19,1.31,3.14,1.94,4.96,1.62,1.83-.33,3.03-1.53,3.08-3.07l.87-31.51c.04-1.46-1.41-2.79-3.24-2.98ZM203.28,456.84c.45.03.91.06,1.39.08,1.83.08,3.19-1.05,3.05-2.52-.14-1.47-1.76-2.72-3.56-2.8-4.09-.17-6.01-.79-6.61-1.1-.34-2.47.26-7.98,1.1-13.6l6.23.44c1.83.13,3.25-.96,3.17-2.42-.08-1.46-1.63-2.76-3.46-2.88l-5.11-.36c.75-4.42,1.52-8.31,1.92-10.07,1.56-.22,4.9-.33,8.02-.25,1.82.05,3.16-1.1,2.98-2.58-.18-1.47-1.82-2.7-3.62-2.75-12.44-.33-13.11,1.44-13.55,2.62-.57,1.52-5.37,25.64-4.23,32.15.43,2.43,2.93,5.39,12.26,6.05ZM105.01,405.03c-1.78-.64-3.56-.06-3.98,1.29l-9.32,30.01c-.42,1.35.68,2.96,2.46,3.6.13.05.27.09.4.12,1.64.42,3.19-.17,3.58-1.42l9.32-30.01c.42-1.35-.68-2.96-2.46-3.6ZM144.89,411.44c.11-1.44-1.29-2.9-3.12-3.25-3.25-.63-21.45-3.19-22.23-3.3-1.83-.26-3.3.72-3.29,2.18.01,1.4,1.39,2.74,3.12,3.07.07.01.15.03.22.04,1.65.23,4.2.59,6.98.99l-7.47,31.67c-.33,1.39.87,2.94,2.67,3.46.14.04.27.07.41.1,1.65.32,3.15-.37,3.45-1.66l7.68-32.6c3.74.55,6.97,1.04,8.06,1.25,1.83.35,3.4-.53,3.5-1.97ZM178.56,415.98c-1.82-.43-3.5.37-3.75,1.78l-2.9,15.89-14.93-1.53,2.57-18.23c.2-1.42-1.12-2.89-2.94-3.27-1.82-.38-3.46.46-3.66,1.88l-5.03,35.67c-.2,1.42,1.12,2.89,2.94,3.27.12.03.24.05.36.06,1.67.21,3.11-.62,3.3-1.95l1.72-12.23,14.72,1.51-1.73,9.47c-.26,1.41,1.01,2.9,2.82,3.33.16.04.31.07.47.08,1.63.2,3.05-.57,3.29-1.86l5.57-30.54c.26-1.41-1-2.9-2.82-3.33ZM300.42,455.42l-2.71-24.54,20.89,20.99s.06.06.09.09c1.3,1.2,3.28,1.65,5.04,1.14,1.76-.51,2.83-1.84,2.72-3.39l-2.29-31.83c-.11-1.47-1.66-2.67-3.48-2.68-1.82,0-3.2,1.17-3.1,2.64l1.92,26.72-21.11-21.21s-.06-.06-.1-.09c-1.3-1.2-3.29-1.65-5.05-1.13-1.76.52-2.83,1.85-2.71,3.4,0,.02,0,.05,0,.07l3.31,29.95c.16,1.47,1.76,2.63,3.58,2.6.09,0,.17,0,.25-.01,1.68-.14,2.89-1.31,2.74-2.71ZM364.49,428.46c-3.95-.33-8.34.68-8.83.8-1.72.41-2.67,1.9-2.12,3.32.55,1.42,2.39,2.25,4.1,1.83.62-.15,2.06-.43,3.61-.57-.07,3.16-1.16,8.4-4.06,10.98-1.22,1.09-2.51,1.47-4.17,1.24-2.04-.28-3.73-1.34-5.15-3.23-4.35-5.78-4.52-17.55-2.5-22.66.97-2.47,2.48-4.07,4.25-4.51,1.18-.29,2.55-.06,3.67.62,1.46.89,3.51.66,4.56-.52,1.05-1.18.72-2.86-.74-3.76-2.8-1.71-6.36-2.27-9.53-1.48-2.69.67-6.34,2.58-8.43,7.88-2.47,6.28-2.46,19.66,3.19,27.17,2.44,3.25,5.83,5.25,9.78,5.79,1.49.2,2.93.18,4.29-.07,2.11-.39,4.02-1.32,5.65-2.77,5.62-5,6.31-14.86,5.36-17.97-.34-1.13-1.52-1.97-2.92-2.09ZM408.48,397.02c3.23-1.48,6.02-2.74,6.98-3.12,1.62-.65,2.38-2.28,1.69-3.66-.69-1.37-2.56-1.96-4.18-1.32-2.88,1.15-18.51,8.44-19.18,8.75-1.57.73-2.2,2.41-1.41,3.73.76,1.27,2.56,1.77,4.09,1.16.07-.02.13-.05.19-.08,1.42-.66,3.61-1.68,6-2.79l11.09,32.92c.49,1.44,2.25,2.23,3.95,1.76.13-.04.25-.08.37-.13,1.46-.58,2.27-2.01,1.82-3.34l-11.42-33.89ZM455.76,394.4c-3.68-9.63-10.16-12.87-13.69-13.93-3.67-1.11-7.39-.9-10.2.58-7.89,4.15-10.04,11.35-6.61,22.04,2.75,8.58,11.27,19.65,21.62,17.42,1.42-.31,2.73-.8,3.92-1.48,1.82-1.03,3.35-2.48,4.5-4.29,3.22-5.04,3.39-12.64.45-20.33ZM449.95,412.18c-.98,1.53-2.33,2.46-4.12,2.85-5.33,1.15-12.2-6.5-14.55-13.85-3.38-10.55.51-13.68,2.85-15,.22-.13.43-.24.62-.34.9-.47,2.68-.74,4.98-.04,4.32,1.31,8.01,5.22,10.12,10.74,2.29,6.01,2.33,12.15.11,15.64ZM355.65,502.82c-3.84.93-5.79.84-6.43.68-.98-2.38-1.92-8.03-2.67-13.87l5.91-1.24c1.73-.37,2.76-1.83,2.29-3.27-.47-1.44-2.26-2.31-3.99-1.95l-4.84,1.02c-.5-4.62-.84-8.71-.94-10.57,1.39-.64,4.46-1.65,7.38-2.41,1.71-.44,2.63-1.95,2.07-3.37-.56-1.42-2.42-2.2-4.11-1.77-11.64,3.02-11.78,4.97-11.87,6.26-.11,1.66,1.97,27.04,4.8,33.23,1.06,2.31,4.19,4.59,13.02,2.73.42-.09.86-.19,1.32-.3,1.72-.41,2.68-1.91,2.15-3.34-.53-1.43-2.38-2.24-4.07-1.83ZM328.25,504.17c-8.32-1.09-14.35-3.76-18.12-5.98,6.99-3.34,12.14-8.48,13.61-13.84.9-3.27.22-6.22-1.9-8.32-2.48-2.46-6.52-3.69-10.83-3.3-4.82.43-9.05,2.83-10.71,6.1-1.76,3.45.04,25.34.9,34.6.14,1.48,1.71,2.64,3.52,2.61.13,0,.26,0,.38-.02,1.61-.19,2.77-1.34,2.64-2.71-.32-3.5-.62-7.11-.87-10.6,4.47,2.56,11.37,5.53,20.66,6.75,1.8.24,3.42-.75,3.62-2.21.2-1.46-1.11-2.83-2.91-3.07ZM306.34,493.67c-.31-6.45-.35-11.4.08-12.62.83-1.57,3.11-2.79,5.67-3.01,2.02-.18,3.81.28,4.78,1.25.73.73.91,2.05.47,3.64-.94,3.43-4.66,7.8-11,10.74ZM212.09,477.44c-2.05-1.71-4.82-2.58-8.22-2.59-3.69-.02-8.26,2.26-14.24,19.27-3.1,8.82-5.13,17.49-5.22,17.86-.33,1.4.87,2.9,2.67,3.34.26.06.52.1.77.12,1.5.09,2.8-.66,3.08-1.86.02-.08,1.72-7.33,4.3-15.12,3.4.25,9.88.72,14.63,1.01-.06,1.82-.13,3.75-.21,5.76-.09,2.4-.19,4.96-.28,7.69-.05,1.46,1.4,2.81,3.23,3.03,1.82.22,3.35-.78,3.39-2.24.09-2.72.18-5.28.27-7.66.62-16.22.93-24.36-4.18-28.61ZM209.98,494.17c-3.93-.23-9.23-.61-12.91-.88,4.4-11.54,7.29-12.96,7.7-13.11,2.01.03,2.62.53,2.85.72,1.95,1.62,2.42,6.39,2.36,13.28ZM287.81,481.66c0-1.46-1.47-2.76-3.29-2.89-1.82-.13-3.31.95-3.31,2.42,0,.96,0,2.03.02,3.19.09,9.25.25,28.48-9.26,27.88-1.4-.09-2.52-.54-3.53-1.42-5.37-4.7-5.23-18.66-5.16-25.37.01-1.02.02-1.94.02-2.73,0-1.47-1.5-2.75-3.32-2.87-1.82-.11-3.29.97-3.28,2.44,0,.77,0,1.67-.01,2.66-.09,8.56-.24,22.89,7.09,29.3,2.27,1.99,5.05,3.1,8.25,3.3.56.03,1.09.04,1.61.03,14.5-.46,14.31-20.6,14.2-32.8-.01-1.14-.02-2.19-.02-3.13ZM173.52,473.9c-1.83-.38-3.45.48-3.64,1.9l-3.49,25.93-16.88-24.53s-.05-.07-.08-.11c-1.06-1.42-2.97-2.24-4.84-2.1-1.87.14-3.21,1.2-3.41,2.71,0,.02,0,.05,0,.07l-2.75,29.3c-.14,1.44,1.23,2.88,3.06,3.21.09.02.17.03.25.04,1.72.21,3.17-.67,3.3-2.04l2.25-24.01,16.7,24.27s.05.07.08.11c1.06,1.41,2.95,2.24,4.83,2.1,1.87-.13,3.21-1.19,3.41-2.69l4.16-30.89c.19-1.43-1.13-2.89-2.95-3.27ZM248.46,475.66c-3.24-.07-21.19.51-21.96.53-1.81.06-3.05,1.3-2.78,2.77.26,1.41,1.82,2.52,3.54,2.56.07,0,.15,0,.22,0,1.63-.05,4.14-.13,6.89-.21l-1.65,33.21c-.07,1.45,1.35,2.81,3.17,3.03.14.02.27.03.41.03,1.64.04,2.96-.92,3.03-2.27l1.7-34.18c3.7-.09,6.89-.16,7.97-.14,1.82.04,3.17-1.12,3.02-2.59-.15-1.47-1.75-2.69-3.57-2.73Z"/>
    <path class="cls-2" d="M485.66,388.72c-4.27-12.27-12.34-19.41-24.85-23.15-23.38-6.99-46.12,3.96-67.21,13.02-49.01,21.06-101.44,22.43-153.83,22.21-51.03-.22-102.05-7.98-151.32-21.2-11.16-2.99-30.25,1.84-36.15,15.07l-7.86,21.85c-2.43,5.47-1.8,11.78,1.66,16.86,2.24,3.3,5.59,5.89,9.4,7.27.41.15.82.29,1.17.38l14.74,4.34c3.13.92,6.36,1.03,9.4.35,2.11,2.53,4.95,4.56,8.34,5.78.56.2,1.14.37,1.68.51,5.58,1.44,11.21.23,15.43-2.84,2.3,4.16,6.26,7.49,11.29,8.96.6.18,1.21.33,1.8.44,5.93,1.15,11.72-.6,15.77-4.27.86,1.55,1.95,2.98,3.24,4.23-6.46,2.27-11.16,7.8-12.05,14.69,0,.06-.02.13-.02.19-.02.14-.03.29-.05.44l-2.75,29.25c-.86,9.12,5.82,17.6,15.22,19.35.44.08.86.15,1.22.19,4.96.6,9.97-.79,13.73-3.83.35-.29.69-.58,1.02-.89,4.09,3.66,9.66,5.63,15.27,5.21,1.61-.11,3.16-.41,4.62-.88,2.35,2.38,5.38,4.17,8.88,5.03,1.15.29,2.34.47,3.54.54,5.02.28,9.71-1.42,13.18-4.48,2.84,2.63,6.53,4.43,10.65,4.92,4.59.55,9.17-.59,12.82-3.15,2.79,2.52,6.39,4.24,10.41,4.74.65.08,1.31.13,1.97.14,6.86.13,12.87-3.4,16-8.79.59.61,1.21,1.21,1.86,1.78,4.75,4.16,10.69,6.57,17.2,6.98.68.04,1.36.06,2.02.06.33,0,.66,0,.98-.02,3.87-.12,11.16-1.19,17.4-6.89,3.44,3.38,8.23,5.45,13.45,5.33.64,0,1.28-.05,1.88-.12,5.46-.63,10.05-3.52,12.88-7.6,1.94.41,3.91.75,5.89,1.01,4.75.62,9.31-.59,12.93-3.07,4.61,2.43,11.28,3.72,20.83,1.71.55-.12,1.12-.25,1.72-.39,5.07-1.22,9.35-4.5,11.75-9,2.32-4.36,2.67-9.52.95-14.14-1.08-2.91-2.87-5.39-5.12-7.31,1.45-3.71,1.59-7.84.34-11.67-.4-1.23-.93-2.39-1.56-3.46.09-.16.18-.33.26-.5,2.22-4.38,2.47-9.5.7-14.06,1.28-.8,2.49-1.7,3.62-2.71,7.94-7.07,27.03-8.97,35.37-12.71,2.77,1.62,5.97,2.51,9.3,2.51,1.68,0,3.38-.23,5.08-.7.64-.18,1.28-.4,1.86-.63,6.18-2.46,10.29-7.93,11.2-14.01,4.7,1.67,9.84,2.15,15.23.99,2.9-.63,5.64-1.67,8.15-3.09,3.98-2.26,7.26-5.38,9.75-9.27,5.85-9.16,22.03-19.11,17.71-31.53ZM158.77,462.66s-.02-.02-.04-.03c.03-.01.07-.03.1-.04-.02.03-.04.05-.06.08Z"/>
  </g>
  <g>
    <g>
      <path class="cls-1" d="M64.14,430.49c-.88-.3-1.66-.88-2.16-1.58-.55-.78-.69-1.64-.39-2.35l12.89-30.38c.55-1.29,2.4-1.7,4.13-.91,1.73.79,2.69,2.48,2.14,3.77l-11.66,27.49,10.75,2.99c1.79.5,3.13,2.07,2.95,3.5-.18,1.43-1.79,2.18-3.6,1.67l-14.79-4.12c-.09-.03-.18-.05-.27-.08Z"/>
      <path class="cls-1" d="M80.3,435.85c-.45,0-.91-.06-1.38-.19l-14.79-4.12c-.11-.03-.22-.07-.33-.1-1.09-.38-2.02-1.07-2.64-1.95-.75-1.07-.93-2.28-.49-3.31l12.89-30.38c.32-.75.94-1.33,1.76-1.65,1.1-.43,2.46-.35,3.71.22,2.26,1.03,3.42,3.25,2.65,5.07l-11.22,26.44,9.65,2.69c2.3.64,3.92,2.66,3.68,4.58-.11.86-.57,1.6-1.31,2.09-.61.41-1.36.62-2.17.62ZM76.83,395.87c-.29,0-.55.05-.79.14-.32.12-.53.31-.64.57l-12.89,30.38c-.16.38-.05.9.29,1.38.37.53.98.97,1.66,1.21,0,0,0,0,0,0,.07.02.14.05.21.06l14.79,4.12c.74.2,1.45.15,1.9-.16.25-.17.4-.39.43-.67.1-.82-.79-2.01-2.23-2.41l-10.75-2.99c-.28-.08-.51-.27-.63-.53-.12-.26-.13-.56-.02-.82l11.66-27.49c.29-.68-.31-1.86-1.64-2.47-.45-.21-.93-.31-1.36-.31Z"/>
    </g>
    <g>
      <path class="cls-1" d="M97.96,440.94c-.13-.03-.27-.07-.4-.12-1.78-.62-2.9-2.23-2.49-3.58l9.03-30.13c.41-1.36,2.18-1.95,3.96-1.33,1.78.62,2.9,2.23,2.49,3.58l-9.04,30.13c-.38,1.25-1.92,1.86-3.56,1.45Z"/>
      <path class="cls-1" d="M98.96,442.07c-.4,0-.82-.05-1.24-.15,0,0,0,0,0,0-.16-.04-.32-.09-.48-.15-2.32-.81-3.69-2.92-3.12-4.82l9.03-30.13c.24-.79.8-1.45,1.59-1.85,1.05-.53,2.38-.58,3.66-.14,2.32.81,3.69,2.92,3.12,4.82l-9.04,30.13c-.43,1.42-1.84,2.29-3.52,2.29ZM98.2,439.97c1.11.27,2.14-.07,2.36-.77l9.04-30.13c.25-.82-.62-1.92-1.86-2.35-.76-.26-1.54-.25-2.09.03-.3.16-.5.37-.58.65l-9.03,30.13c-.25.82.62,1.92,1.86,2.35.11.04.21.07.32.1Z"/>
    </g>
    <g>
      <path class="cls-1" d="M127.59,448.73c-7.82-1.41-10.62-9.92-10.92-10.9-.45-1.48.63-2.76,2.4-2.86,1.77-.1,3.58,1.01,4.03,2.49.54,1.75,2.5,5.72,4.93,6.06,1.94.28,3.38,0,4.28-.81,1.09-.99,2.52-3.83-.13-11.71-.26-.77-.52-1.54-.78-2.3-2.98-8.68-5.8-16.87,1.95-19.66,6.37-2.3,12.38,1.49,14.67,3.82,1.23,1.25,1.14,2.91-.22,3.7-1.35.78-3.43.41-4.67-.83-.5-.49-3.12-2.85-6.23-1.72-3.3,1.19-1.87,6.14.88,14.14.26.76.53,1.54.79,2.33,2.62,7.77,2.29,13.21-.96,16.17-2.15,1.96-5.55,2.72-9.56,2.15-.15-.02-.3-.04-.44-.07Z"/>
      <path class="cls-1" d="M130.53,449.98c-.85,0-1.73-.06-2.64-.19-.16-.02-.32-.05-.48-.08h0c-8.4-1.51-11.39-10.56-11.7-11.59-.29-.95-.15-1.89.39-2.66.61-.88,1.67-1.42,2.91-1.49,2.24-.13,4.46,1.27,5.04,3.2.63,2.04,2.46,5.13,4.11,5.36,1.12.16,2.63.19,3.46-.56.57-.52,2.23-2.82-.41-10.65-.26-.77-.52-1.53-.78-2.28-3.01-8.77-6.12-17.81,2.55-20.94,6.85-2.47,13.28,1.58,15.72,4.06.85.87,1.26,1.96,1.12,3.01-.13.95-.68,1.75-1.56,2.26-1.74,1.01-4.32.58-5.88-.98-.41-.4-2.64-2.41-5.19-1.49-2.24.81-1.35,4.63,1.49,12.88l.03.1c.25.73.51,1.48.76,2.23,2.76,8.18,2.34,13.97-1.24,17.23-1.88,1.71-4.56,2.6-7.73,2.6ZM119.29,435.96c-.06,0-.11,0-.16,0-.62.04-1.13.27-1.39.64-.19.27-.23.58-.12.94.28.91,2.91,8.9,10.14,10.21,0,0,0,0,0,0,.13.02.27.05.41.06,3.71.53,6.82-.15,8.75-1.9,2.94-2.67,3.17-7.75.69-15.11-.25-.75-.51-1.49-.76-2.22l-.03-.1c-2.55-7.4-4.74-13.79-.27-15.41,3.67-1.32,6.7,1.39,7.27,1.95.92.93,2.51,1.23,3.46.68.34-.2.54-.47.58-.79.06-.43-.15-.91-.57-1.34-2.13-2.17-7.72-5.71-13.61-3.58-6.36,2.29-4.75,8.48-1.34,18.39.27.77.53,1.54.79,2.31,2.7,7.99,1.41,11.35-.14,12.77-1.13,1.03-2.84,1.38-5.09,1.06-3.11-.44-5.24-5.14-5.74-6.76-.3-.99-1.6-1.79-2.85-1.79Z"/>
    </g>
    <g>
      <path class="cls-1" d="M183.98,416.24c0,1.46-1.48,2.46-3.31,2.24-1.09-.13-4.32-.39-8.06-.66l-5.15,33.38c-.2,1.31-1.63,2.12-3.28,1.92-.13-.02-.27-.04-.41-.07-1.82-.39-3.12-1.87-2.9-3.29l5.01-32.43c-2.78-.2-5.32-.37-6.97-.48-.07,0-.15-.01-.22-.02-1.73-.21-3.2-1.45-3.31-2.86-.12-1.47,1.26-2.56,3.08-2.44.77.05,18.95,1.28,22.2,1.67,1.83.22,3.32,1.58,3.33,3.04Z"/>
      <path class="cls-1" d="M164.67,454.14c-.2,0-.41-.01-.62-.04-.17-.02-.34-.05-.51-.09-2.35-.51-3.97-2.45-3.67-4.42l4.84-31.35c-2.35-.16-4.45-.31-5.88-.4-.09,0-.18-.01-.27-.03-2.23-.27-4.03-1.89-4.19-3.77-.08-.9.23-1.75.87-2.4.78-.8,1.97-1.2,3.28-1.12.19.01,18.9,1.27,22.26,1.68,2.35.28,4.2,2.05,4.21,4.03h0c0,.88-.37,1.7-1.04,2.3-.85.75-2.08,1.09-3.39.94-.87-.1-3.32-.31-7.09-.59l-5.01,32.46c-.26,1.67-1.83,2.8-3.77,2.8ZM158.17,412.52c-.62,0-1.17.19-1.51.53-.23.23-.33.51-.3.83.08.93,1.17,1.8,2.44,1.96l.17.02c1.65.11,4.19.29,6.98.48.28.02.54.15.71.37.17.22.25.5.21.78l-5.01,32.43c-.14.88.86,1.88,2.12,2.16.11.03.22.04.32.05,1.11.13,2.06-.34,2.17-1.08l5.15-33.38c.08-.52.54-.89,1.06-.84,4.39.33,7.11.55,8.1.67.73.09,1.41-.08,1.82-.45.25-.22.37-.49.37-.8h0c0-.94-1.15-1.89-2.45-2.05-3.26-.39-21.96-1.65-22.15-1.67-.07,0-.14,0-.21,0Z"/>
    </g>
    <g>
      <path class="cls-1" d="M209.32,418.61c.17,1.47-1.17,2.62-2.99,2.56-3.12-.1-6.46,0-8.03.21-.41,1.75-1.2,5.64-1.97,10.05l5.11.38c1.83.14,3.37,1.43,3.44,2.9.07,1.46-1.35,2.54-3.18,2.4l-6.23-.46c-.86,5.62-1.49,11.12-1.16,13.59.59.32,2.52.94,6.6,1.13,1.8.09,3.42,1.34,3.55,2.81.14,1.47-1.24,2.59-3.07,2.5-.48-.02-.95-.05-1.39-.08-9.32-.7-11.82-3.67-12.23-6.1-1.12-6.52,3.8-30.6,4.37-32.11.44-1.17,1.12-2.94,13.57-2.55,1.8.06,3.44,1.29,3.61,2.76Z"/>
      <path class="cls-1" d="M201.59,457.7c-.08,0-.16,0-.24,0-.49-.02-.96-.05-1.42-.09-10.01-.75-12.68-4.18-13.15-6.92-1.19-6.91,3.89-31.23,4.42-32.64.75-1.98,2.37-3.58,14.53-3.2,2.34.08,4.35,1.68,4.57,3.65h0c.1.9-.18,1.77-.8,2.44-.75.82-1.93,1.25-3.22,1.23-2.61-.08-5.46-.03-7.18.13-.38,1.72-.98,4.72-1.61,8.22l4.01.3c2.35.18,4.27,1.87,4.37,3.85.04.89-.29,1.73-.94,2.36-.81.79-2.02,1.18-3.32,1.09l-5.31-.4c-.84,5.63-1.21,9.69-1.07,11.83.73.25,2.43.67,5.71.83,2.34.12,4.32,1.75,4.5,3.72.08.9-.22,1.76-.85,2.42-.73.76-1.81,1.18-3.01,1.18ZM202.44,416.79c-8.62,0-9.14,1.35-9.37,1.96-.57,1.5-5.38,25.43-4.32,31.59.5,2.89,4.52,4.76,11.32,5.27.44.03.9.06,1.37.08.71.04,1.35-.18,1.72-.56.23-.24.33-.53.31-.85-.09-.95-1.31-1.84-2.61-1.91-4.79-.23-6.59-1.02-7.03-1.25-.28-.15-.47-.43-.52-.75-.3-2.25.09-6.92,1.16-13.87.08-.52.55-.88,1.06-.84l6.23.46c.72.06,1.38-.14,1.77-.52.24-.24.36-.52.34-.83-.05-.96-1.2-1.85-2.52-1.95l-5.11-.38c-.28-.02-.54-.16-.71-.38-.17-.22-.24-.51-.2-.79.79-4.54,1.58-8.43,1.98-10.11.09-.4.43-.71.84-.76,1.66-.22,5.1-.32,8.19-.22.7.02,1.33-.2,1.69-.58.23-.25.32-.54.28-.86h0c-.11-.96-1.35-1.84-2.65-1.88-1.19-.04-2.26-.05-3.23-.05Z"/>
    </g>
    <g>
      <path class="cls-1" d="M222.85,458.05c-.08,0-.17,0-.25-.01-1.83-.15-3.32-1.46-3.33-2.92l-.23-29.75s0-.05,0-.07c.04-1.54,1.25-2.74,3.08-3.06,1.83-.33,3.78.31,4.97,1.63.03.03.06.07.09.1l19.07,22.99.84-26.44c.05-1.45,1.56-2.47,3.4-2.28,1.83.2,3.27,1.54,3.23,2.99l-1,31.49c-.05,1.53-1.26,2.73-3.09,3.05-1.83.32-3.78-.32-4.96-1.63-.03-.03-.06-.07-.09-.1l-18.86-22.75.19,24.37c.01,1.39-1.33,2.42-3.04,2.39Z"/>
      <path class="cls-1" d="M222.95,459.05s-.07,0-.11,0c-.1,0-.2,0-.3-.01-2.38-.2-4.25-1.92-4.26-3.91l-.23-29.75s0-.09,0-.11c.05-2.03,1.59-3.61,3.91-4.02,2.16-.39,4.47.38,5.89,1.95l.12.14,17.38,20.96.75-23.8c.03-.87.42-1.68,1.11-2.28.86-.75,2.1-1.1,3.39-.96,2.38.26,4.19,2.02,4.12,4.02l-1,31.49c-.07,2.03-1.6,3.6-3.92,4-2.16.38-4.47-.39-5.88-1.95l-.1-.11-17.09-20.6.17,21.57c0,.84-.33,1.64-.95,2.26-.74.73-1.82,1.14-3,1.14ZM223.08,423.15c-.26,0-.52.02-.78.07-1.36.24-2.23,1.05-2.26,2.11l.23,29.79c0,.94,1.11,1.82,2.42,1.93.05,0,.12.01.19,0,.69.03,1.29-.19,1.66-.56.24-.23.36-.51.35-.82l-.19-24.37c0-.42.26-.8.66-.95.4-.14.84-.02,1.11.3l18.93,22.82c.96,1.06,2.54,1.58,4.04,1.32,1.36-.24,2.23-1.04,2.26-2.1l1-31.49c.03-.93-1.04-1.83-2.34-1.97-.73-.08-1.43.1-1.87.48-.27.23-.41.51-.42.83l-.84,26.43c-.01.42-.28.78-.68.92-.39.13-.83.01-1.09-.31l-19.07-22.99c-.84-.94-2.08-1.45-3.33-1.45Z"/>
    </g>
    <g>
      <path class="cls-1" d="M270.47,458.71c-.13,0-.27,0-.41-.02-1.83-.16-3.29-1.47-3.27-2.93l.53-32.42c.02-1.46,1.52-2.52,3.35-2.36,1.83.16,3.29,1.47,3.27,2.93l-.53,32.42c-.02,1.35-1.3,2.35-2.94,2.38Z"/>
      <path class="cls-1" d="M270.43,459.71c-.15,0-.31,0-.47-.02-2.37-.2-4.21-1.93-4.17-3.94l.53-32.42c.01-.88.4-1.7,1.07-2.31.85-.76,2.07-1.14,3.36-1.03,2.38.2,4.21,1.93,4.18,3.94l-.53,32.42c-.03,1.89-1.72,3.33-3.93,3.36-.02,0-.03,0-.05,0ZM270.47,458.71h0,0ZM270.31,421.98c-.63,0-1.21.19-1.58.53-.19.17-.41.45-.42.86l-.53,32.42c-.02.93,1.06,1.81,2.35,1.92.11,0,.21,0,.31.01,1.1-.01,1.94-.61,1.95-1.39l.53-32.42c.02-.93-1.06-1.8-2.35-1.92-.09,0-.18-.01-.27-.01Z"/>
    </g>
    <g>
      <path class="cls-1" d="M294.4,458.28c-.08,0-.16.01-.25.01-1.82.02-3.41-1.15-3.56-2.62l-3.12-29.95s0-.05,0-.07c-.11-1.55.96-2.88,2.73-3.38,1.77-.5,3.75-.05,5.05,1.16.03.03.06.06.09.09l20.99,21.32-1.75-26.71c-.1-1.47,1.29-2.64,3.12-2.62,1.82.02,3.37,1.23,3.47,2.7l2.09,31.81c.1,1.55-.97,2.87-2.74,3.37-1.77.5-3.74.04-5.04-1.17-.03-.03-.06-.06-.09-.09l-20.77-21.09,2.56,24.53c.15,1.4-1.07,2.57-2.76,2.69Z"/>
      <path class="cls-1" d="M294.11,459.3c-2.34,0-4.31-1.53-4.51-3.52l-3.12-29.95s0-.09,0-.1c-.15-2.04,1.21-3.78,3.45-4.42,2.1-.6,4.45-.05,6,1.4,0,0,.07.07.08.08l19.15,19.45-1.58-24.02c-.06-.89.26-1.75.9-2.42.78-.82,1.95-1.26,3.23-1.27,2.37.03,4.32,1.63,4.45,3.64l2.09,31.81c.13,2.04-1.23,3.77-3.47,4.4-2.1.6-4.45.04-5.99-1.4,0,0-.08-.08-.09-.09l-18.8-19.09,2.26,21.69c.09.86-.17,1.7-.74,2.38-.68.81-1.75,1.33-2.93,1.42-.1,0-.2.01-.31.02h-.07ZM291.65,423.07c-.4,0-.8.05-1.18.17-1.32.37-2.08,1.28-2.01,2.35l3.13,29.99c.1.94,1.25,1.72,2.52,1.72.06,0,.14,0,.22,0,0,0,0,0,0,0,.65-.05,1.22-.31,1.55-.71.22-.27.32-.56.28-.89l-2.56-24.53c-.04-.42.18-.83.57-1.01.39-.18.84-.1,1.14.2l20.77,21.09c1.11,1.04,2.71,1.4,4.15,1,1.31-.37,2.09-1.27,2.02-2.34l-2.09-31.81c-.06-.94-1.2-1.75-2.48-1.77-.73,0-1.36.23-1.76.64-.17.18-.38.49-.35.91l1.75,26.71c.03.42-.21.81-.59.98-.38.17-.83.09-1.12-.21l-20.99-21.32c-.81-.76-1.89-1.16-2.97-1.16Z"/>
    </g>
    <g>
      <path class="cls-1" d="M353.16,451.86c-1.36.24-2.8.25-4.29.04-3.95-.57-7.32-2.6-9.74-5.86-5.59-7.54-5.5-20.9-2.97-27.16,2.13-5.27,5.8-7.15,8.5-7.8,3.18-.76,6.73-.18,9.53,1.55,1.46.91,1.78,2.59.71,3.76-1.06,1.17-3.11,1.38-4.57.48-1.11-.69-2.48-.93-3.67-.64-1.78.43-3.3,2.02-4.29,4.47-2.06,5.09-1.99,16.85,2.32,22.66,1.41,1.91,3.09,2.97,5.13,3.27,1.66.24,2.95-.13,4.19-1.21,2.92-2.56,4.06-7.79,4.16-10.94-1.56.13-3,.4-3.62.54-1.72.4-3.56-.43-4.09-1.86-.54-1.43.43-2.91,2.15-3.3.49-.11,4.89-1.09,8.85-.73,1.4.13,2.57.98,2.91,2.1.92,3.11.15,12.95-5.52,17.91-1.64,1.44-3.57,2.36-5.68,2.73Z"/>
      <path class="cls-1" d="M350.95,453.05c-.73,0-1.47-.05-2.22-.16-4.22-.61-7.82-2.77-10.4-6.25-5.8-7.82-5.71-21.66-3.1-28.13,2.29-5.66,6.26-7.7,9.19-8.4,3.43-.83,7.27-.2,10.29,1.67.99.62,1.64,1.56,1.79,2.6.13.97-.17,1.92-.86,2.68-1.39,1.53-3.96,1.82-5.83.66-.88-.54-1.99-.75-2.91-.52-1.45.35-2.73,1.73-3.6,3.88-1.93,4.77-1.85,16.23,2.2,21.69,1.24,1.68,2.71,2.62,4.47,2.88,1.37.2,2.38-.09,3.38-.97,2.2-1.92,3.42-5.83,3.74-9.07-1.03.13-1.89.3-2.32.4-2.23.52-4.54-.57-5.25-2.48-.33-.89-.27-1.85.18-2.68.52-.96,1.5-1.67,2.69-1.95.5-.12,5.05-1.13,9.16-.75,1.81.16,3.32,1.3,3.77,2.82,1.1,3.74.05,13.81-5.82,18.94-1.78,1.56-3.85,2.55-6.17,2.96h0c-.78.14-1.57.21-2.39.21ZM347.5,411.74c-.88,0-1.76.1-2.6.3-2.47.6-5.84,2.33-7.81,7.21-2.44,6.04-2.54,18.93,2.85,26.19,2.26,3.04,5.4,4.93,9.08,5.46,1.38.2,2.72.19,3.97-.03h0c1.95-.34,3.7-1.18,5.2-2.5,5.26-4.6,6.05-14.03,5.22-16.87-.22-.73-1.05-1.3-2.04-1.39-3.81-.35-8.06.6-8.53.71-.63.14-1.13.49-1.37.94-.12.23-.23.59-.07,1.03.36.96,1.7,1.53,2.93,1.24.64-.15,2.14-.43,3.77-.56.29-.02.56.08.77.27.21.2.32.47.31.76-.09,2.95-1.15,8.72-4.5,11.66-1.45,1.27-3.04,1.73-4.99,1.45-2.32-.34-4.22-1.53-5.79-3.66-4.67-6.29-4.56-18.39-2.45-23.63,1.12-2.76,2.89-4.57,4.99-5.07,1.44-.35,3.1-.06,4.43.77,1.05.65,2.56.51,3.3-.3.29-.32.41-.68.36-1.06-.06-.45-.38-.88-.86-1.18-1.83-1.13-4.01-1.73-6.16-1.73Z"/>
    </g>
    <g>
      <path class="cls-1" d="M414.55,391.46c.67,1.38-.1,3.01-1.73,3.63-.97.37-3.78,1.6-7.03,3.04l11.07,33.96c.44,1.34-.38,2.75-1.85,3.32-.12.04-.24.09-.37.12-1.7.45-3.46-.35-3.93-1.79l-10.76-33c-2.41,1.08-4.61,2.08-6.04,2.72-.06.03-.13.06-.2.08-1.54.59-3.34.08-4.08-1.2-.78-1.33-.13-3,1.45-3.71.67-.3,16.4-7.43,19.29-8.54,1.63-.63,3.5-.02,4.17,1.36Z"/>
      <path class="cls-1" d="M413.69,436.66c-1.78,0-3.42-1.02-3.93-2.61l-10.41-31.94c-2,.9-3.8,1.71-5.02,2.27-.08.04-.16.07-.25.1-2.03.78-4.31.08-5.31-1.63-.49-.84-.6-1.82-.31-2.74.33-1.03,1.13-1.9,2.21-2.39.15-.07,16.37-7.42,19.35-8.56,2.13-.82,4.52,0,5.43,1.86.42.86.46,1.83.1,2.74-.4,1.02-1.26,1.84-2.37,2.27-.77.3-2.89,1.21-6.15,2.66l10.79,33.1c.6,1.83-.45,3.8-2.45,4.56-.16.06-.32.11-.48.16-.4.11-.8.16-1.2.16ZM399.95,399.75c.14,0,.28.03.4.09.26.11.46.33.55.6l10.76,33c.3.93,1.55,1.45,2.72,1.14.1-.03.19-.06.28-.09.98-.38,1.52-1.27,1.26-2.08l-11.07-33.96c-.16-.49.08-1.02.54-1.22,3.82-1.7,6.2-2.73,7.07-3.06.59-.23,1.04-.64,1.23-1.13.1-.26.18-.67-.04-1.12-.44-.91-1.78-1.31-2.92-.87-2.93,1.12-19.08,8.45-19.24,8.52-.56.25-.97.68-1.13,1.17-.09.27-.13.68.13,1.13.49.84,1.77,1.19,2.86.77l.14-.06c1.43-.65,3.63-1.64,6.04-2.72.13-.06.27-.09.41-.09Z"/>
    </g>
    <g>
      <path class="cls-1" d="M453.17,396.07c2.85,7.71,2.59,15.3-.7,20.3-1.18,1.8-2.73,3.23-4.56,4.23-1.2.66-2.52,1.14-3.95,1.43-10.39,2.11-18.79-9.05-21.44-17.65-3.3-10.71-1.06-17.88,6.89-21.93,2.83-1.44,6.55-1.61,10.22-.45,3.53,1.11,9.98,4.42,13.55,14.08ZM437.21,387.3c-2.29-.72-4.08-.48-4.99-.02-.19.1-.4.2-.63.33-2.36,1.3-6.29,4.37-3.03,14.95,2.27,7.37,9.06,15.09,14.41,14,1.81-.37,3.17-1.28,4.16-2.8,2.27-3.46,2.31-9.59.08-15.61-2.04-5.53-5.69-9.49-10-10.84Z"/>
      <path class="cls-1" d="M441.41,423.28c-9.7,0-17.32-10.42-19.84-18.62-3.47-11.26-1.05-18.82,7.39-23.12,3.06-1.56,7.06-1.75,10.97-.52,3.7,1.16,10.47,4.62,14.18,14.69h0c2.96,8.01,2.66,15.93-.8,21.19-1.27,1.93-2.92,3.47-4.92,4.56-1.29.71-2.71,1.22-4.23,1.53-.93.19-1.85.28-2.75.28ZM434.83,382.23c-1.82,0-3.52.37-4.97,1.11-7.54,3.84-9.56,10.43-6.38,20.75,2.54,8.24,10.51,18.95,20.29,16.97,1.32-.27,2.55-.71,3.66-1.32,1.7-.94,3.12-2.25,4.21-3.91,3.11-4.73,3.33-11.98.6-19.4-3.42-9.27-9.56-12.42-12.91-13.47-1.52-.48-3.04-.72-4.5-.72ZM441.94,417.66c-5.67,0-12.06-7.42-14.33-14.81-2.52-8.17-1.37-13.44,3.51-16.12.24-.13.46-.24.66-.34,1.4-.71,3.55-.73,5.74-.04h0c4.61,1.45,8.49,5.62,10.64,11.45,2.33,6.31,2.26,12.79-.18,16.51-1.15,1.75-2.72,2.81-4.8,3.23-.4.08-.81.12-1.23.12ZM434.43,387.84c-.78,0-1.38.14-1.75.33-.18.09-.39.2-.6.31-1.59.87-5.82,3.2-2.56,13.77,2.1,6.82,8.48,14.29,13.25,13.32,1.55-.31,2.67-1.07,3.53-2.37,2.11-3.2,2.1-8.98-.02-14.72-1.94-5.24-5.35-8.97-9.36-10.24h0c-.95-.3-1.79-.41-2.49-.41Z"/>
    </g>
  </g>
  <g>
    <g>
      <path class="cls-1" d="M141.74,510.32c-.08,0-.17-.02-.25-.04-1.83-.33-3.2-1.77-3.06-3.21l2.75-29.3s0-.05,0-.07c.19-1.51,1.53-2.57,3.41-2.71,1.87-.14,3.77.68,4.84,2.1.03.04.05.07.08.11l16.88,24.53,3.49-25.93c.19-1.43,1.82-2.28,3.64-1.9,1.82.38,3.14,1.84,2.95,3.27l-4.16,30.89c-.2,1.5-1.54,2.56-3.41,2.69-1.87.13-3.77-.69-4.83-2.1-.03-.04-.05-.07-.08-.11l-16.7-24.27-2.25,24.01c-.13,1.37-1.58,2.25-3.3,2.04Z"/>
      <path class="cls-1" d="M168.5,511.76c-2.05,0-4.06-.96-5.23-2.51,0,0-.06-.08-.06-.09l-15.18-22.05-2,21.26c-.08.82-.49,1.57-1.16,2.11-.84.68-2.02.98-3.26.83-.1-.01-.21-.03-.31-.05-2.36-.43-4.06-2.31-3.88-4.28l2.75-29.3s0-.09.01-.11c.26-2,1.95-3.4,4.32-3.58,2.2-.16,4.45.82,5.71,2.5l.1.14,15.41,22.4,3.15-23.37c.11-.85.58-1.6,1.31-2.12.94-.67,2.23-.9,3.52-.63,2.36.49,4,2.41,3.74,4.38l-4.16,30.89c-.27,1.99-1.97,3.39-4.33,3.56-.15.01-.31.02-.46.02ZM147.29,483.27c.32,0,.63.16.82.43l16.7,24.27c.91,1.22,2.47,1.89,4.01,1.78,1.38-.1,2.36-.82,2.49-1.83l4.16-30.89c.12-.88-.89-1.89-2.16-2.15-.75-.15-1.48-.04-1.96.3-.28.2-.45.46-.49.76l-3.49,25.93c-.06.41-.36.74-.76.84-.4.1-.82-.07-1.06-.41l-16.94-24.61c-.86-1.14-2.41-1.8-3.96-1.7-1.4.1-2.36.81-2.49,1.84l-2.75,29.34c-.09.92.94,1.89,2.24,2.13.06.01.13.02.19.03h0c.69.09,1.35-.07,1.76-.4.25-.2.39-.45.42-.74l2.25-24.01c.04-.42.34-.77.74-.87.08-.02.17-.03.25-.03Z"/>
    </g>
    <g>
      <path class="cls-1" d="M216.28,506.05c-.09,2.39-.19,4.94-.27,7.66-.05,1.45-1.57,2.46-3.39,2.24-1.83-.22-3.27-1.58-3.23-3.03.09-2.73.18-5.29.28-7.69.08-2.01.15-3.94.21-5.76-4.75-.29-11.23-.76-14.63-1.01-2.59,7.79-4.29,15.04-4.3,15.12-.28,1.2-1.58,1.95-3.08,1.86-.25-.01-.51-.05-.77-.12-1.8-.44-2.99-1.94-2.67-3.34.09-.37,2.12-9.03,5.22-17.86,5.98-17.01,10.55-19.28,14.24-19.27,3.4.01,6.17.89,8.22,2.59,5.11,4.25,4.8,12.39,4.18,28.61ZM209.98,494.17c.06-6.89-.41-11.66-2.36-13.28-.23-.19-.84-.69-2.85-.72-.41.15-3.3,1.57-7.7,13.11,3.69.27,8.99.65,12.91.88Z"/>
      <path class="cls-1" d="M213.11,516.98c-.2,0-.41-.01-.62-.04-2.37-.28-4.17-2.07-4.11-4.06.09-2.73.18-5.29.28-7.69l.02-.41c.06-1.52.11-2.98.16-4.39-4.51-.28-10.02-.68-12.89-.9-2.45,7.49-4.02,14.22-4.03,14.29-.39,1.67-2.08,2.75-4.11,2.64-.32-.02-.64-.07-.96-.14-2.32-.57-3.85-2.61-3.4-4.54.22-.93,2.21-9.32,5.25-17.96,6.16-17.53,11.11-19.93,15.14-19.93h.05c3.64.02,6.62.97,8.85,2.82,5.49,4.56,5.18,12.87,4.54,29.41h0s0,.03,0,.03c-.09,2.38-.19,4.92-.27,7.63-.03.87-.42,1.68-1.11,2.27-.73.62-1.72.96-2.78.96ZM195.24,497.45s.05,0,.07,0c2.7.2,9.54.7,14.62,1.01.54.03.96.49.94,1.03-.05,1.71-.12,3.5-.19,5.37l-.02.4c-.09,2.4-.19,4.95-.28,7.68-.03.93,1.05,1.85,2.35,2.01.73.09,1.42-.08,1.86-.46.27-.23.41-.5.42-.82.09-2.71.18-5.26.27-7.64h1s-1-.03-1-.03h0c.61-15.89.91-23.87-3.82-27.8-1.87-1.55-4.42-2.35-7.59-2.36h-.03c-3.14,0-7.47,2.14-13.26,18.6-3,8.54-4.97,16.83-5.19,17.75-.2.86.69,1.84,1.93,2.14.2.05.39.08.59.09,1.02.06,1.89-.4,2.05-1.09.01-.06,1.74-7.4,4.33-15.21.14-.41.52-.68.95-.68ZM209.98,495.17s-.04,0-.06,0c-3.94-.24-9.21-.61-12.93-.88-.31-.02-.6-.19-.77-.46-.17-.27-.2-.6-.09-.89,4.39-11.52,7.46-13.4,8.3-13.7.11-.04.22-.06.35-.06,2.13.03,3.01.55,3.48.95,2.33,1.94,2.77,7.02,2.72,14.05,0,.27-.12.54-.32.72-.19.17-.43.27-.68.27ZM198.49,492.39c3.21.23,7.2.51,10.5.72,0-4.76-.28-10.02-2-11.45-.34-.29-1.01-.45-1.99-.48-.54.34-2.95,2.27-6.5,11.21Z"/>
    </g>
    <g>
      <path class="cls-1" d="M252.03,478.39c.15,1.47-1.2,2.63-3.02,2.59-1.08-.02-4.28.04-7.97.13l-1.7,34.18c-.07,1.35-1.39,2.3-3.03,2.27-.13,0-.27-.01-.41-.03-1.83-.22-3.25-1.57-3.17-3.03l1.65-33.21c-2.75.08-5.26.16-6.89.21-.07,0-.15,0-.22,0-1.72-.04-3.28-1.15-3.54-2.56-.27-1.47.98-2.71,2.78-2.77.76-.02,18.72-.6,21.96-.53,1.82.04,3.42,1.26,3.57,2.73Z"/>
      <path class="cls-1" d="M236.39,518.57s-.07,0-.11,0c-.17,0-.34-.02-.51-.04-2.37-.28-4.15-2.07-4.05-4.07l1.6-32.13c-2.32.07-4.39.13-5.81.18-.08,0-.17,0-.27,0-2.23-.05-4.17-1.5-4.51-3.38-.17-.91.06-1.81.64-2.53.69-.86,1.82-1.38,3.09-1.42,1.94-.06,18.86-.6,22.01-.53,2.34.05,4.34,1.65,4.54,3.63h0c.09.9-.2,1.77-.83,2.44-.76.82-1.95,1.27-3.22,1.25-.88-.02-3.29.02-7,.11l-1.66,33.26c-.09,1.85-1.78,3.22-3.94,3.22ZM234.38,480.3c.27,0,.53.11.71.3.2.2.3.47.28.75l-1.65,33.21c-.05.92,1,1.83,2.29,1.99.11.01.21.02.31.02,1.11.03,1.97-.54,2.01-1.32l1.7-34.18c.03-.52.45-.94.97-.95,2.98-.08,6.79-.16,8.02-.13.68.03,1.34-.21,1.7-.61.24-.25.34-.55.31-.88-.1-.97-1.29-1.81-2.6-1.84-3.1-.07-19.97.47-21.88.53-.71.02-1.29.27-1.62.68-.22.27-.29.57-.23.91.17.93,1.33,1.71,2.58,1.74h.16c1.64-.05,4.15-.13,6.9-.21h.03Z"/>
    </g>
    <g>
      <path class="cls-1" d="M273.63,517.6c-.52.02-1.05,0-1.61-.03-3.2-.2-5.97-1.31-8.25-3.3-7.33-6.41-7.18-20.74-7.09-29.3.01-.99.02-1.89.02-2.66,0-1.47,1.46-2.55,3.28-2.44,1.82.12,3.31,1.41,3.32,2.87,0,.79,0,1.71-.02,2.73-.07,6.71-.22,20.67,5.16,25.37,1,.88,2.12,1.33,3.53,1.42,9.51.6,9.35-18.64,9.26-27.88-.01-1.16-.02-2.23-.02-3.19,0-1.46,1.49-2.55,3.31-2.41,1.82.13,3.3,1.43,3.29,2.89,0,.94,0,2,.02,3.13.12,12.2.31,32.35-14.2,32.8Z"/>
      <path class="cls-1" d="M273.12,518.61c-.39,0-.78-.01-1.17-.04-3.42-.22-6.4-1.41-8.84-3.55-7.68-6.71-7.52-21.33-7.43-30.06.01-1,.02-1.88.02-2.64,0-.88.36-1.71,1.02-2.34.83-.78,2.04-1.19,3.32-1.11,2.38.16,4.24,1.85,4.26,3.86,0,.8,0,1.72-.02,2.75-.07,6.57-.21,20.21,4.81,24.6.84.74,1.75,1.1,2.93,1.17,1.44.09,2.65-.34,3.69-1.33,4.71-4.46,4.57-18.7,4.5-25.54v-.18c-.01-1.09-.02-2.11-.02-3.02,0-.88.38-1.71,1.05-2.33.84-.78,2.05-1.17,3.33-1.07,2.37.17,4.23,1.88,4.22,3.89,0,.94,0,1.99.02,3.12.12,12.47.32,33.33-15.17,33.81,0,0,0,0,0,0-.18,0-.36,0-.54,0ZM273.63,517.6h0,0ZM259.73,480.87c-.65,0-1.25.21-1.63.57-.27.25-.4.54-.4.87,0,.77,0,1.67-.02,2.66-.09,8.4-.24,22.44,6.75,28.55,2.1,1.84,4.68,2.87,7.65,3.06.51.03,1.02.04,1.52.03,13.53-.43,13.34-20.06,13.23-31.79-.01-1.14-.02-2.2-.02-3.15,0-.93-1.08-1.8-2.36-1.89-.72-.05-1.4.15-1.83.54-.19.17-.41.46-.41.88,0,.91,0,1.91.01,3v.18c.08,7.67.21,21.95-5.12,27.01-1.45,1.37-3.2,2-5.19,1.88-1.61-.1-2.96-.65-4.12-1.66-5.72-5-5.57-19.27-5.5-26.12.01-1.02.02-1.94.02-2.72,0-.94-1.1-1.8-2.38-1.88-.06,0-.13,0-.19,0Z"/>
    </g>
    <g>
      <path class="cls-1" d="M305.11,516.01c-.12.01-.25.02-.38.03-1.81.04-3.38-1.13-3.52-2.61-.85-9.25-2.65-31.15-.9-34.6,1.66-3.27,5.9-5.67,10.71-6.1,4.3-.39,8.35.84,10.83,3.3,2.12,2.1,2.79,5.06,1.9,8.32-1.47,5.36-6.62,10.5-13.61,13.84,3.77,2.22,9.8,4.89,18.12,5.98,1.8.24,3.1,1.61,2.91,3.07-.2,1.46-1.82,2.45-3.62,2.21-9.29-1.21-16.18-4.18-20.66-6.75.25,3.49.55,7.1.87,10.6.13,1.37-1.03,2.52-2.64,2.71ZM306.41,481.05c-.43,1.22-.39,6.17-.08,12.62,6.34-2.94,10.06-7.31,11-10.75.44-1.58.26-2.91-.47-3.64-.97-.97-2.76-1.43-4.78-1.25-2.56.22-4.84,1.44-5.67,3.01Z"/>
      <path class="cls-1" d="M304.65,517.04c-2.31,0-4.25-1.53-4.44-3.52-1.31-14.17-2.51-31.77-.79-35.14,1.82-3.57,6.34-6.18,11.52-6.65,4.59-.41,8.94.92,11.62,3.58,2.39,2.37,3.15,5.67,2.16,9.3-1.41,5.13-6.01,10.12-12.45,13.61,3.61,1.89,9,4.02,16.12,4.95,1.25.17,2.37.78,3.07,1.7.57.74.81,1.63.7,2.49-.27,2-2.39,3.39-4.74,3.07-8.52-1.12-15.05-3.71-19.4-5.98.22,2.94.47,5.87.73,8.75.18,1.91-1.34,3.54-3.52,3.79-.15.02-.31.03-.47.03-.03,0-.07,0-.1,0ZM312.59,473.66c-.49,0-.98.02-1.48.07-4.44.4-8.43,2.63-9.91,5.56-1.12,2.2-.73,15.24,1,34.05.09.95,1.23,1.74,2.51,1.7.09,0,.19,0,.29-.02h0c1.08-.12,1.84-.82,1.76-1.62-.32-3.49-.62-7.07-.87-10.62-.03-.37.15-.72.47-.92.31-.2.71-.2,1.03-.02,4.1,2.35,10.95,5.4,20.29,6.62,1.23.16,2.38-.46,2.5-1.35.06-.43-.13-.79-.3-1.01-.37-.49-1.02-.84-1.74-.93-8.61-1.13-14.81-3.94-18.5-6.11-.32-.19-.51-.54-.49-.91.02-.37.23-.7.57-.86,6.81-3.25,11.7-8.19,13.08-13.2.8-2.9.22-5.51-1.64-7.35-1.99-1.97-5.11-3.08-8.56-3.08ZM306.34,494.67c-.18,0-.36-.05-.52-.14-.28-.17-.47-.47-.48-.81-.36-7.34-.31-11.72.13-13,.02-.05.04-.09.06-.14.98-1.87,3.58-3.3,6.47-3.54,2.34-.22,4.38.35,5.57,1.54,1,.99,1.26,2.67.73,4.61-.92,3.34-4.43,8.09-11.55,11.39-.13.06-.28.09-.42.09ZM307.34,481.45c-.13.48-.43,2.5-.07,10.65,5.6-2.96,8.4-6.86,9.11-9.43.33-1.19.25-2.21-.21-2.66-.75-.75-2.28-1.12-3.99-.96-2.16.19-4.13,1.17-4.83,2.41Z"/>
    </g>
    <g>
      <path class="cls-1" d="M354.41,467.83c.56,1.42-.36,2.93-2.07,3.37-2.92.75-5.99,1.77-7.38,2.41.1,1.86.44,5.95.94,10.57l4.84-1.02c1.73-.37,3.52.51,3.99,1.95.47,1.44-.56,2.91-2.29,3.27l-5.91,1.24c.75,5.84,1.69,11.5,2.67,13.87.64.16,2.59.25,6.43-.68,1.69-.41,3.54.41,4.07,1.83.53,1.43-.43,2.92-2.15,3.34-.45.11-.89.21-1.32.3-8.83,1.86-11.96-.42-13.02-2.73-2.83-6.19-4.91-31.56-4.8-33.23.09-1.29.22-3.24,11.87-6.26,1.69-.43,3.55.35,4.11,1.77Z"/>
      <path class="cls-1" d="M350.53,509.96c-5.13,0-7.3-2.02-8.21-3.99-3-6.56-4.99-32.17-4.89-33.71.15-2.17,1.2-4.2,12.62-7.16,2.18-.56,4.55.5,5.29,2.37h0c.35.89.31,1.85-.12,2.7-.49.97-1.45,1.71-2.62,2.01-2.39.62-5.04,1.46-6.59,2.08.12,1.83.39,5.02.78,8.72l3.76-.79c2.25-.48,4.51.67,5.15,2.62.29.9.19,1.84-.29,2.66-.55.95-1.55,1.64-2.75,1.9l-5,1.05c.78,5.9,1.56,10.07,2.28,12.17.75.04,2.42,0,5.47-.74,2.19-.53,4.54.58,5.24,2.46.33.89.27,1.84-.18,2.69-.51.97-1.49,1.68-2.67,1.97-.46.11-.91.21-1.34.3-2.32.49-4.28.7-5.93.7ZM351.24,466.95c-.23,0-.46.03-.69.09-10.95,2.84-11.06,4.54-11.12,5.36-.11,1.65,2.03,26.88,4.71,32.75,1.28,2.79,5.39,3.54,11.9,2.17.42-.09.85-.19,1.29-.29.62-.15,1.13-.5,1.37-.96.12-.23.24-.61.07-1.05-.35-.93-1.7-1.5-2.9-1.21-4.52,1.09-6.43.79-6.91.68-.31-.08-.56-.29-.68-.59-.89-2.16-1.81-6.91-2.74-14.13-.07-.52.28-1,.79-1.11l5.91-1.24c.64-.13,1.16-.48,1.43-.94.13-.23.26-.6.12-1.04-.31-.95-1.61-1.53-2.84-1.28l-4.84,1.02c-.27.06-.56,0-.79-.17-.23-.17-.38-.42-.41-.7-.51-4.73-.85-8.82-.95-10.62-.02-.41.21-.79.58-.96,1.48-.68,4.66-1.72,7.55-2.47.62-.16,1.11-.52,1.34-.98.12-.24.22-.61.05-1.06h0c-.3-.75-1.25-1.26-2.24-1.26Z"/>
    </g>
  </g>
</svg>