<?xml version="1.0" encoding="UTF-8"?>
<svg xmlns="http://www.w3.org/2000/svg" version="1.1" viewBox="0 0 999.5 1212.6">
  <defs>
    <style>
      .cls-1 {
        fill: #736e77;
      }

      .cls-2 {
        fill: #025246;
      }

      .cls-3 {
        fill: #fff;
      }

      .cls-4, .cls-5 {
        isolation: isolate;
      }

      .cls-6 {
        fill: #332d3f;
      }

      .cls-7 {
        fill: #8aaceb;
      }

      .cls-5 {
        fill: #b5c6ea;
        mix-blend-mode: multiply;
      }

      .cls-8 {
        fill: #727275;
      }
    </style>
  </defs>
  <!-- Generator: Adobe Illustrator 28.7.3, SVG Export Plug-In . SVG Version: 1.2.0 Build 164)  -->
  <g>
    <g id="Layer_1">
      <g class="cls-4">
        <g id="Layer_1-2" data-name="Layer_1">
          <g>
            <path class="cls-5" d="M411.4,67.5c.2,13.8,6.3,26.1,15.8,34.7h-1c0,0-.8.2-.8.2-1.8.2-3.6.3-5.4.5l-1.7.2c-1.5.2-3.1.3-4.6.5l-1.9.2c-1.5.2-3.1.4-4.6.6l-1.6.2c-1.7.2-3.5.5-5.1.7h-1c-4.2.8-8.5,1.4-12.8,2.2h-.2c-2,.4-4,.7-5.9,1.1l-.9.2c-1.8.3-3.6.7-5.5,1.1l-.9.2c-1.9.4-3.8.8-5.7,1.2,0,0,0,0-.1,0h-.3c-88.7,19.4-168.4,63.8-230.3,128.4-62.6,65.3-102.2,146.1-114.6,233.7v.5c-.8,5.2-1.4,10.5-2,15.7v1.1c-.6,5.1-1,10.2-1.3,15.3v1.5c-.2,2.7-.4,5.1-.5,7.3,0,0,0,.2,0,.3,0,2.3-.2,4.7-.2,7.5v1.8c0,2.9-.1,5.3-.1,7.5s0,4.6,0,7.4v1.8c0,2.4.2,4.8.2,7.1v.2c.1,2.3.2,4.7.4,7.4v1.5c.4,5,.8,10.1,1.3,15v.9c.6,5.2,1.2,10.4,1.9,15.4v.3c10.9,78.6,44.2,152.8,96.3,214.6,24.6,29.1,52.8,54.8,83.9,76.7-13.1,2.4-25,10.2-32.3,22.5-13.5,22.6-6,52,16.6,65.5,36.6,21.8,76,39.3,117,52,.6.2,1.5.5,2.5.8.5.1,1,.3,1.5.4,17.9,5.4,36,9.8,54.4,13.4-23.9,8.7-44.1,19.4-60.3,32.2-27.9,21.8-44.9,50.2-49.4,82.1-1.6,11.5,2.9,27.8,20.8,36,2,.9,4.3,1.8,7.3,2.9,3.9,1.3,9.1,3,15.5,4.9,7.6,2.2,21.2,6.1,24.5,6.8,38,7.8,75.6,11.7,125.6,12.8,9.4.2,18.5.3,27.3.3,36.8,0,69.3-1.9,102.7-5.9,26.8-3.2,51.3-8.9,72.9-16.9.1,0,3.6-1.3,7.1-2.8,2.4-1,4.3-1.9,6-2.7,19.9-10.2,20-28.2,19.6-33.5-.8-9.2-2.6-18.3-5.6-27.2-.4-2.1-1.1-4.1-1.8-6-.7-1.8-1.5-3.4-2.5-5-10.8-23.9-29.4-44.2-55.5-60.4-11.4-7.1-24.2-13.3-38.4-18.7,36.6-7.4,72.1-18.5,106.4-33.2,59-25.4,112.4-60.8,158.8-105.2,49.1-47,87.7-101.9,114.6-163,28-63.5,42.2-130.8,42.2-200.3s-14.2-136.9-42.2-200.3c-27-61.1-65.5-116-114.6-163C742.1,72.1,608.5,19,466.5,19s-5.4,0-8.1,0c-26.3.4-47.4,22.1-47,48.4Z"/>
            <path class="cls-3" d="M393.3,48.5c.2,13.8,6.3,26.1,15.8,34.7h-1c0,0-.8.2-.8.2-1.8.2-3.6.3-5.4.5l-1.7.2c-1.5.2-3.1.3-4.6.5l-1.9.2c-1.5.2-3.1.4-4.6.6l-1.6.2c-1.7.2-3.5.5-5.1.7h-1c-4.2.8-8.5,1.4-12.8,2.2h-.2c-2,.4-4,.7-5.9,1.1l-.9.2c-1.8.3-3.6.7-5.5,1.1l-.9.2c-1.9.4-3.8.8-5.7,1.2,0,0,0,0-.1,0h-.3c-88.7,19.4-168.4,63.8-230.3,128.4C56.1,285.8,16.5,366.6,4.1,454.3v.5c-.8,5.2-1.4,10.5-2,15.7v1.1c-.6,5.1-1,10.2-1.3,15.3v1.5c-.2,2.7-.4,5.1-.5,7.3,0,.1,0,.2,0,.3,0,2.3-.2,4.7-.2,7.5v1.8c0,2.9-.1,5.3-.1,7.5s0,4.6,0,7.4v1.8c0,2.4.2,4.8.2,7.1v.2c0,2.3.2,4.7.4,7.4v1.5c.4,5,.8,10.1,1.3,15v.9c.6,5.2,1.2,10.4,1.9,15.4v.3c10.9,78.6,44.2,152.8,96.3,214.6,24.6,29.1,52.8,54.8,83.9,76.7-13.1,2.4-25,10.2-32.3,22.5-13.5,22.6-6,52,16.6,65.5,36.6,21.8,76,39.3,117,52,.6.2,1.5.5,2.5.8.5.1,1,.3,1.5.4,17.9,5.4,36,9.8,54.4,13.4-23.9,8.7-44.1,19.4-60.3,32.2-27.9,21.8-44.9,50.2-49.4,82.1-1.6,11.5,2.9,27.8,20.8,36,2,.9,4.3,1.8,7.3,2.9,3.9,1.3,9.1,3,15.5,4.9,7.6,2.2,21.2,6.1,24.5,6.8,38,7.8,75.6,11.7,125.6,12.8,9.4.2,18.5.3,27.3.3,36.8,0,69.3-1.9,102.7-5.9,26.8-3.2,51.3-8.9,72.9-16.9.1,0,3.6-1.3,7.1-2.8,2.4-1,4.3-1.9,6-2.7,19.9-10.2,20-28.2,19.6-33.5-.8-9.2-2.6-18.3-5.6-27.2-.4-2.1-1.1-4.1-1.8-6-.7-1.8-1.5-3.4-2.5-5-10.8-23.9-29.4-44.2-55.5-60.4-11.4-7.1-24.2-13.3-38.4-18.7,36.6-7.4,72.1-18.5,106.4-33.2,59-25.4,112.4-60.8,158.8-105.2,49.1-47,87.7-101.9,114.6-163,28-63.5,42.2-130.8,42.2-200.3s-14.2-136.9-42.2-200.3c-27-61.1-65.5-116-114.6-163C724,53.1,590.5,0,448.5,0s-5.4,0-8.1,0c-26.3.4-47.4,22.1-47,48.4h0Z"/>
            <g>
              <path class="cls-8" d="M301,970.5c-1.3,0-2.7-.2-4-.6-7.7-2.2-12.1-10.2-9.9-18L545.7,56c2.2-7.7,10.2-12.1,18-9.9,7.7,2.2,12.1,10.2,9.9,17.9l-258.6,896c-1.8,6.3-7.6,10.5-13.9,10.5h0Z"/>
              <path class="cls-1" d="M477.6,1028.4v-64.6h-58.2v66.7c-110.5,18.6-146.7,62.6-152.5,103.9-.3,2,39.9,12.9,41.9,13.4,40.7,8.4,78.2,11.2,119.7,12.2,43.2,1,82.4-.2,125.4-5.3,21.9-2.6,44.5-7.3,65.2-15.1.6-.2,11.1-4.2,11.1-5.1-3.3-40.2-36.9-89.3-152.5-106.1h0Z"/>
              <ellipse class="cls-7" cx="448.5" cy="512.8" rx="415.2" ry="398"/>
              <path class="cls-1" d="M448.5,992.4c-93.3,0-184.3-24.8-263.1-71.8-6.9-4.1-9.1-13-5-19.9,4.1-6.9,13-9.1,19.9-5,74.4,44.3,160.2,67.7,248.3,67.7,259.6,0,470.7-202.1,470.7-450.6S708,62.2,448.5,62.2s-4.8,0-7.2,0c-8,0-14.6-6.3-14.7-14.3s6.3-14.6,14.3-14.7c2.5,0,5.1,0,7.6,0,133.4,0,258.8,49.8,353.1,140.3,45.9,44,82,95.3,107.2,152.4,26.1,59.2,39.4,122.1,39.4,186.9s-13.2,127.7-39.4,186.9c-25.2,57.1-61.3,108.4-107.2,152.4-94.4,90.4-219.8,140.2-353.1,140.2h0Z"/>
              <path class="cls-2" d="M260.5,157.8c-1,12.8-.2,31.4,1.8,41.3,2.4,11.8,10.1,23.4,21.6,26.8,16.5,4.9,33.7-7.7,50.7-5.5,24.5,3.2,29.6,29.2,35.5,48.6,10.5,34.4,54,25.4,72.4,3.1,13-15.8,20.2-36.4,36.9-49.1,26.2-19.8,62.4-3.3,91.5-2.5,27.8.8,76.3-21.3,63.6-56.9,0,0-1.6-3.7-4.8-9-54.8-25.6-116.4-39.9-181.4-39.9s-131.5,15.5-187.9,43h0Z"/>
              <path class="cls-2" d="M186.6,617.6c5.4-15.1-4.9-35.1,10.9-45.9,5.6-3.8,12.6-4.8,19.4-5.1,14.8-.7,31.9-2,36.9-18.7,2.4-8.1.9-17-2.6-24.7-6.3-13.6-17.6-25.6-31.3-31.8-13.2-6-28.6-5.7-41.2-13.4-4-2.4-7.6-5.8-9.6-10-5.2-11.4,3.4-21.8,2.3-33.2-1-9.7-7.3-18.5-15.6-23-10.6-5.6-23.5-5.4-34.9-1.7-9.8,3.2-19,8.8-29.2,9.1-14.3.4-34.1-12.2-39.4-26-12.4,37.7-19.1,77.9-19.1,119.5s6.4,79.9,18.2,116.9c3,3.1,4.8,4.8,4.8,4.8,14.5,10.2,35.7,14.6,50.1,2,3.6-3.1,6.7-6.8,10.2-9.9,2.2-2,4.7-3.8,7.6-4.3,6.5-1.1,11.8,4.5,17.4,6.8,5.5,2.3,11.4,4,17.3,4.4,12.1.9,23.5-3.7,27.8-15.8h0Z"/>
              <path class="cls-2" d="M787.7,283.3c-1-.3-2.1-.6-3.2-.8-14.6-3.1-32.3.5-43.3,8.6-20.1,14.7-22.7,43-30.8,66.6-8.6,25.1-25.4,47.4-47.2,62.7-34.5,24.2-69.1,17.2-105-2-36-19.3-65.5-56.2-109.2-57.2-21.4-.5-46.8,9.8-48.2,34.1-.9,15.7,7.5,30.5,5.6,46.2-2.2,18.8-27.3,23.1-39.7,32.9-26.3,20.7-13.2,42.4,13.8,51.5,15,5.1,32.3,11.9,35.1,29.6,2.3,14.5-6.9,27.6-19.8,33.4-7.9,3.6-16.2,6.5-23,11.8-30.4,23.8-1.6,68.1,31.3,66.4,35.7-1.8,67.6-19.4,96.4-39.5,25.8-18.1,42.4-47.1,70.3-62.5,7.3-4.1,15.5-7.1,24-6.8,13,.4,20.8,10.3,29.8,18.3,13.4,11.9,31.1,17,48.8,12.1,13.5-3.8,35.1-19.3,48-6.3,3,3,4.9,7.2,8.6,9.1,4.4,2.3,9.9.7,14.1-2.1,10.2-6.7,16.5-19.9,28.4-22.3,9.3-1.9,16.6,3.9,22,10.7,12.3,15.6,34,46.9,48,46.8,2,0,3.8-.7,5.5-2.1,10.4-34.8,16-71.6,16-109.7,0-85.5-28.1-164.7-76-229.5h0Z"/>
              <path class="cls-2" d="M626.7,872.4c-.5-13.7-9.6-30.4-20.5-35.4-10.3-4.8-21.7-4.5-32.6-2-10.5,2.4-19.9,10.9-31.3,7.7-9.1-2.6-14.7-11.8-17.4-20.9-3.3-11.5-5.7-44.4-24.9-40.2-9.9,2.1-14.4,16.2-21.8,22.2-11.4,9.2-24.8,17-40,13.3-12-2.9-21.8-11.7-34-14.1-15.4-3.1-21,7.1-34.2,12.1-7.2,2.8-15.8,2.9-22.1-1.5-5.7-4-8.5-10.8-10.3-17.5-1.7-6.7-2.5-13.7-5.5-20-3.2-6.8-9.2-12.6-17.2-12-8.2.6-14,8-15.6,15.6-1.7,8.3,1.5,15.3,2.3,23.3.5,5.5-.3,12.1-1.6,17.5-3,12.8-11.3,24.3-22.7,30.9-13,7.6-44.8-8.5-48.4-.5,63.6,38,138.8,60,219.3,60s124.2-13.8,178.3-38.5h0Z"/>
              <path class="cls-6" d="M448.1,1042.2c-11.8,0-23.4-2.7-28.1-6.9-1.5-1.3-1.6-3.6-.3-5.1s3.6-1.6,5.1-.3c6.9,6.2,38.4,7.7,47.2-1.3,1.4-1.4,3.7-1.5,5.1,0,1.4,1.4,1.5,3.7,0,5.1-5.9,6-17.6,8.5-29.1,8.5h0Z"/>
              <path class="cls-6" d="M457.4,1138.8c-8.4,0-16.9-.1-25.6-.4-67.8-1.9-132-11.3-156.1-22.8-1.8-.9-2.6-3-1.7-4.8.9-1.8,3-2.6,4.8-1.7,23.3,11.1,86.3,20.2,153.2,22.1,79.2,2.2,147.8-5.9,188.3-22.2,1.9-.8,4,.2,4.7,2s-.2,4-2,4.7c-36.9,14.9-96.3,23.1-165.6,23.1h0Z"/>
            </g>
          </g>
        </g>
      </g>
    </g>
  </g>
</svg>