<?xml version="1.0" encoding="UTF-8"?>
<svg id="Layer_1" xmlns="http://www.w3.org/2000/svg" viewBox="0 0 438.06 406.1">
  <defs>
    <style>
      .cls-1 {
        fill: #1e1316;
      }

      .cls-2 {
        fill: #fff;
      }

      .cls-3 {
        fill: #599133;
      }

      .cls-4 {
        fill: #084037;
      }

      .cls-5 {
        fill: #e8b541;
      }

      .cls-6 {
        fill: #4f1711;
      }

      .cls-7 {
        fill: #a13e35;
      }

      .cls-8 {
        fill: #522432;
      }

      .cls-9 {
        fill: #fa8ea5;
      }
    </style>
  </defs>
  <path class="cls-2" d="M425.66,134.19c-1.42-.9-2.94-1.68-4.77-2.45-6.53-2.76-13.16-4.39-19.7-4.84-7.46-.51-14.9-.34-22.27.5-3.85.44-7.22-2.65-6.98-6.52.28-4.57-.19-9.09-1.4-13.41-.09-.3-.07-.62.03-.92.42-1.18.75-2.4.97-3.65,1.52-8.63-1.89-17.43-9.15-23.55,3.16-11.52-2.35-22.86-13.77-27.63-5.65-2.36-11.93-2.66-18.15-.88-2.6.75-5.12,1.74-7.53,2.99-1.78.92-11.16-4.49-13.24-5.3-4.12-1.61-5.03-5.28-8.02-8.21-3.87-3.8-9.42-5.88-14.76-6.28-4.4-.32-8.81.33-13.49,2-3.53,1.25-8.89,4.66-13.57,7.92-3.23,2.25-7.59-.39-7.1-4.29l.02-.13c1.45-11.59-2.09-22.51-9.69-29.97-7.62-7.47-18.63-10.79-30.22-9.12-10.13,1.46-19.29,5.39-27.23,11.67-6.1,4.83-11.43,10.63-16.28,17.75-5.57,8.17-10.12,16.68-13.65,25.49-1.36,3.4-5.67,4.44-8.42,2.02l-.06-.06c-4.19-3.69-9.87-4.49-13.58-9.22-4.88-6.22-8.49-12.96-14.26-18.6-5.57-5.45-11.36-9.32-17.71-11.84-16.88-6.7-28.16-.12-33.39,4.39-5.34,4.61-13.58,15.02-8.8,32.89.14.51.28,1.03.44,1.54,1.4,4.61.06,9.56-3.49,12.81-4.7,4.3-8.5,9.71-11.29,16.15-4.83,11.13-5.57,23-2.23,34.72,1.24,4.37-.85,9.01-4.9,11.05-7.72,3.89-19.52,10.21-26.21,15.72-4.36,3.58-7.47,7.51-9.53,12-3.22,7.04-2.98,14.67.66,20.95,3.65,6.29,10.18,10.31,17.92,11.01.89.08,1.54.88,1.45,1.77-.02.18-.03.37-.05.56-1.14,15.36,9.09,27.86,24.32,29.73,7.23.89,14.12-.19,20.48-3.2l.05-.02c2.37-1.12,4.86,1.27,3.85,3.69-21.87,52.22-37.7,98.63-1.95,135.45,25.08,25.83,61.24,36.59,95.91,41.75,59.38,8.84,124.33,10.26,178.07-20.35,22.91-13.05,44.04-37.85,42.81-66.62-.79-18.51-9.99-47.47-15.44-61.18-1.1-2.77-.68-5.89,1.08-8.3,1.76-2.41,3.89-5.84,4.86-9.43.4-1.47,1.69-2.5,3.21-2.56,8.28-.34,15.52-3.52,20.69-9.15,6.16-6.7,8.6-16,6.86-26.17l-.03-.17c-.12-.72-.32-1.93-.75-3.36-.78-2.59-1.67-5.07-2.68-7.44-.73-1.72-.2-3.73,1.34-4.78.5-.35,1.02-.73,1.54-1.15.81-.66,1.84-.98,2.88-.88,1.28.13,2.62.18,4.01.14,11.22-.39,20.5-6.91,23.62-16.61,3.34-10.38-1.31-22.04-11.32-28.37Z"/>
  <g>
    <path class="cls-3" d="M398.25,159.15c-.2.59-.33.76-.31.91.4,3.38.11,6.51-3.49,8.1-3.55,1.57-6.59.15-9.36-2.03-1.83-1.44-3.22-3.3-4.47-5.26-1.14-1.8-2.2-3.66-3.43-5.4-3.25-4.58-4.46-5.01-9.89-3.63-16.41,4.19-31.01,12.25-45.19,21.18-3.16,1.99-6.22,4.12-9.34,6.17-1.04.68-2.07,1.38-3.17,1.96-1.34.71-2.79,1-3.77-.52-.94-1.48-.13-2.72.95-3.76.51-.49,1.08-.93,1.66-1.33,14.72-10.02,29.81-19.35,46.62-25.61,14.55-5.41,29.53-7.68,45.01-6.62,5.01.35,9.81,1.63,14.42,3.58.82.34,1.63.73,2.38,1.2,3.65,2.31,5.49,6.23,4.46,9.43-.99,3.07-4.26,5.06-8.54,5.21-2.91.1-5.6-.79-8.3-1.73-1.98-.69-3.77-2.04-6.24-1.85Z"/>
    <path class="cls-3" d="M45.97,151.99c-2.89,2.28-4.3,5.33-5.89,8.28-2.64,4.9-5.78,9.36-10.7,12.29-2.19,1.3-4.48,2.15-7.07,1.91-4.91-.45-7.14-4.25-5.1-8.73,1.13-2.47,2.96-4.44,5.02-6.14,8.99-7.4,18.9-13.26,29.96-16.96,7.64-2.55,15.46-2.3,23.1-.06,16.43,4.83,30.99,13.14,43.87,24.4,1.05.92,1.98,2.05,2.75,3.22.61.92.63,2.06-.26,2.93-.88.86-1.97.87-2.93.27-.89-.56-1.66-1.32-2.44-2.04-11.56-10.67-25.28-17.6-39.94-22.85-3.35-1.2-6.85-1.76-10.44-1.91-2.94-.12-4.71.91-5.4,3.86-.68,2.95-1.76,5.78-3.26,8.42-1.24,2.19-2.72,4.21-5,5.4-3.62,1.9-6.77.11-7.27-3.95-.36-2.88,1.08-5.49,1-8.36Z"/>
    <path class="cls-3" d="M172.16,222.97c.2,6.63-1.13,9.3-4.05,9.91-2.7.56-5.03-1.01-7.08-5.3-2.68-5.6-5.14-11.31-7.7-16.98-.87-1.93-1.58-3.89-3.73-4.95-2.1-1.03-2.46-3.33-3.22-5.31-7.17-18.73-14.33-37.48-21.58-56.18-6.82-17.6-15.38-34.34-25.33-50.37-4.77-7.7-9.59-15.36-14.29-23.11-2.3-3.79-4.51-7.65-6.51-11.61-1.35-2.68-2.54-5.51-3.31-8.4-1.6-5.96-1.43-11.78,3.67-16.18,5.05-4.37,10.81-3.83,16.56-1.55,4.68,1.86,8.68,4.79,12.27,8.31,5.77,5.65,10.07,12.36,14.17,19.25,14.07,23.63,23.92,49.1,32.89,74.98,7.07,20.41,11.56,41.33,13.98,62.76.99,8.82,2.32,17.6,3.27,24.75Z"/>
    <path class="cls-3" d="M190.2,203.23c.96-14.11,3.57-27.8,10.4-40.4,1.44-2.66,2.59-5.44,3.66-8.27,7.55-19.88,17.28-38.56,30.91-55.02,6.6-7.97,13.97-15.14,22.71-20.78,3.75-2.42,7.7-4.45,12.11-5.38,8.69-1.82,14.8,3.56,14.06,12.39-.29,3.39-1.36,6.59-2.69,9.71-2.45,5.74-5.66,11.06-9.05,16.28-5.71,8.78-11.55,17.49-17.24,26.28-14.25,22-25.89,45.31-34.88,69.93-1.58,4.34-3.28,8.63-4.94,12.94-.9,2.34-2.07,4.52-3.87,6.31-4.27,4.24-9.94,4.27-14.2,0-3.26-3.26-4.83-7.42-5.73-11.82-.82-4-1.39-8.05-1.25-12.19Z"/>
    <path class="cls-4" d="M168.93,205.55c-.92-6.65-1.76-12.41-2.52-18.19-4.15-31.46-5.43-63.03-2.8-94.68,1.62-19.52,8.28-37.38,19.32-53.56,3.62-5.31,7.83-10.11,12.9-14.12,5.71-4.52,12.19-7.26,19.37-8.29,13.57-1.96,22.93,7.24,21.24,20.77-.62,4.98-2.19,9.7-3.99,14.34-2.06,5.3-4.18,10.58-6.46,15.78-8.7,19.84-13.28,40.84-17.44,61.95-3.13,15.87-5.82,31.81-7.08,47.96-1.16,14.9-1.58,29.82-.76,44.75.04.68,0,1.4.93,2.15,1.44-1.35,1.82-3.3,2.58-4.98,11.45-25.58,25.16-49.8,43.23-71.36,9.83-11.73,20.19-22.98,32.14-32.61,11.64-9.38,24.49-16.4,39.25-19.52,5.42-1.15,10.88-1.55,16.41-.58,16.12,2.83,24.45,17.66,18.41,32.89-2.33,5.88-6.11,10.81-10.38,15.38-6.1,6.53-13.09,12-20.45,17.02-7.35,5.01-15.02,9.49-22.65,14.04-1.5.89-3.24,1.48-4.63,3.3,1.88.24,3.13-.71,4.44-1.24,10.9-4.44,22.09-7.92,33.79-9.42,8.67-1.11,17.39-1.39,25.98.61,16.29,3.79,26.06,14.36,30.76,30.06.15.51.23,1.04.32,1.57,1.78,10.44-4.2,16.97-14.79,16.06-4.46-.38-8.69-1.75-12.9-3.19-1.78-.61-3.48-1.69-5.54-1.56-.45,1.75.62,2.86,1.09,4.11,1.32,3.51,2.41,7.05,2.36,10.87-.17,10.95-9.34,18.51-20.12,16.52-3.72-.69-7.17-2.1-10.27-4.25-2.62-1.82-5.24-3.69-7.66-5.77-8.22-7.04-17.84-9.17-28.34-8.41-9.27.67-18.27,2.63-27.1,5.48-12.04,3.89-23.57,8.96-34.67,15.04-7.17,3.93-14.32,7.89-21.48,11.84-2.92,1.61-5.81,2.76-8.87.18-1.34-1.14-2.94-.81-4.57-.4-4.99,1.24-9.86.83-14.56-1.34-2.98-1.38-5.93-2.15-9.18-.48-1.75.9-3.56.23-4.68-1.43-1.12-1.65-2.79-2.06-4.51-2.53-1.88-.51-3.77-1.04-5.63-1.62-11.1-3.45-19.34-10.21-24.39-20.8-3.59-7.54-7.35-15-11.02-22.5-8.02-16.43-18.49-31.13-31.14-44.32-6.52-6.8-12.98-13.66-19.28-20.65-5.25-5.83-9.78-12.2-12.93-19.46-4.17-9.6-4.6-19.31-.41-28.98,4.1-9.45,11.17-15.38,21.4-17.4,6.43-1.27,12.36.22,18.02,3.13,4.94,2.54,9.14,6.12,13.14,9.94,8.97,8.54,15.97,18.59,22.07,29.28,9.46,16.59,16.18,34.37,22.43,52.35,3.5,10.07,6.53,20.29,9.4,30.56.47,1.69.79,3.42,2.25,5.74Z"/>
    <path class="cls-1" d="M145.69,199.42c.04,1.49-.22,2.72-1.66,3.14-1.39.4-2.44-.29-3.08-1.49-.58-1.09-1.07-2.24-1.49-3.4-10.4-28.26-26.81-52.74-47.06-74.79-2.52-2.74-5.14-5.39-7.72-8.09-.49-.51-1.02-.99-1.44-1.56-.8-1.09-1.13-2.27-.03-3.35,1.07-1.05,2.33-.83,3.39-.03,1.27.95,2.47,2.02,3.61,3.14,8.72,8.63,16.88,17.76,24.18,27.63,12.21,16.49,22.48,34.06,29.62,53.37.49,1.33.98,2.66,1.43,4.01.17.5.2,1.04.27,1.41Z"/>
    <path class="cls-4" d="M248.86,82.81c3.82-.33,6.63-.58,9.44-.82,3.94-.33,7.82,0,11.56,1.3,2.64.91,4.82,2.44,4.99,5.58.17,3.09-1.74,4.96-4.21,6.24-5.7,2.96-11.64,2.74-17.63,1-3.25-.95-6.32-2.39-9.24-4.08-1.49-.86-2.6-.89-3.62.59-1.27,1.85-2.58,3.68-4.07,5.79,2.43.98,4.36.27,6.23.32,4.3.11,8.53.51,12.43,2.47,2.3,1.16,4.28,2.77,4.01,5.71-.26,2.95-2.43,4.14-4.98,4.83-6.35,1.71-12.31.37-18.05-2.44-1.11-.54-2.12-1.29-3.18-1.94-.95-.59-1.73-.27-2.24.58-1.18,1.96-2.3,3.96-2.83,6.07,1.45,1.68,3.17,1.1,4.69,1.26,2.51.26,4.92.77,7.06,2.17,2.63,1.71,3.8,3.96,3.11,6.2-.78,2.51-2.76,3.59-5.22,3.89-3.05.37-6.04.09-8.83-1.33-1.42-.72-2.77-1.57-4.33-2.46-1.74,1.48-1.91,3.7-2.52,5.62-4.3,13.62-6.51,27.64-7.57,41.84-.54,7.26-.72,14.54-.95,21.82-.15,4.79-.06,9.59.64,14.36.23,1.56.16,3.19.07,4.77-.06.97-.75,1.56-1.78,1.59-.81.03-1.31-.47-1.69-1.09-.69-1.1-.58-2.38-.74-3.61-1.27-9.74-.8-19.51-.47-29.27.5-14.41,2.22-28.64,5.5-42.72,5.95-25.54,19.02-46.87,37.59-65.05,3.93-3.85,8-7.57,12.06-11.3,4.36-4,9.24-7.19,14.85-9.19,2.21-.78,4.46-1.26,6.79-1.09,5.48.4,8.37,5.25,6.2,10.35-1.09,2.55-3.04,4.36-5.25,5.89-9.05,6.24-18.87,10.51-29.89,11.89-2.65.33-5.69.32-7.92,4.25Z"/>
    <g>
      <path class="cls-1" d="M205.41,222.26c1.56-1.35,1.68-2.46,2.07-3.43,8.31-20.77,22.47-35.91,43.15-44.75,2.77-1.18,5.58-2.29,8.42-3.3,1.28-.46,2.55-.16,3,1.34.35,1.15-.19,2.16-1.23,2.67-2.07,1-4.19,1.93-6.33,2.78-16.32,6.41-28.72,17.37-37.67,32.35-3.3,5.52-5.77,11.38-7.32,17.63-1,4.01-1.58,8.01-.39,12.08.25.86.38,1.72.06,2.61-.53,1.48-2.33,1.93-3.43.8-1.04-1.07-1.27-2.49-1.65-3.86-7.92-28.48-4.47-55.89,7.67-82.5.44-.97.93-1.92,1.49-2.82.77-1.23,1.66-2.56,3.37-1.58,1.37.78,1.04,2.09.51,3.29-.29.65-.62,1.28-.92,1.92-8.11,17.53-12.08,35.93-11.54,55.26.08,3,.46,5.99.74,9.51Z"/>
      <path class="cls-1" d="M237.67,183.92c-.98-.04-1.59-.74-1.73-1.98-.14-1.32.51-2.42,1.02-3.53,5.01-10.97,10-21.95,16.07-32.4,10.03-17.24,23.51-31.03,40.81-41.02,1.84-1.06,3.65-2.22,5.78-2.64,1.25-.24,2.64-.32,3.23,1.07.64,1.5-.5,2.17-1.69,2.77-2.37,1.2-4.77,2.37-7.02,3.77-14.6,9.03-26.26,21-35.27,35.58-6.54,10.59-11.69,21.89-16.85,33.19-.59,1.29-1.2,2.57-1.9,3.8-.45.78-1.17,1.32-2.45,1.38Z"/>
      <path class="cls-1" d="M162.66,208.88c.02.35.05.71.04,1.06,0,1.46-.02,3.03-1.99,3.12-1.83.08-2.32-1.31-2.52-2.82-.86-6.5-1.78-13-2.56-19.51-2.56-21.23-8-41.74-15.17-61.83-.59-1.67-1.15-3.35-1.59-5.06-.27-1.05-.18-2.22,1.01-2.7,1.47-.6,2.36.32,2.9,1.55.58,1.29,1.06,2.63,1.55,3.96,8,21.7,14.09,43.85,16.37,66.96.5,5.11,1.39,10.18,2.1,15.27-.04,0-.09.01-.13.02Z"/>
    </g>
    <path class="cls-9" d="M159.91,116.2c1.68,1.34,2.76,2.23,3.87,3.1,4.62,3.62,6.96,8.45,7.34,14.22.15,2.3.22,4.65-.09,6.92-.64,4.61-2.37,8.78-7.3,10.19-4.97,1.43-9.12-.58-12.32-4.37-1.59-1.88-2.69-4.16-4.01-6.27-.45-.72-.69-1.64-1.66-1.9-1.28.5-1.16,1.68-1.34,2.69-.61,3.54-1.85,6.87-3.63,9.97-4.83,8.42-11.78,9.85-19.48,8.5-4.24-.74-7.24-4.74-7.74-9.76-.43-4.29.01-8.52,1.31-12.64.27-.85.64-1.66.91-2.5.96-2.95.56-3.58-2.35-3.63-1.6-.03-3.2.04-4.8.01-2.36-.04-4.57-.7-6.65-1.76-6.11-3.11-8.42-8.73-6.17-15.21,2.26-6.51,9.13-12.11,16.08-12.07,2.26.01,4.58.43,6.87-.23.29-2.23-.9-3.92-1.51-5.72-2.66-7.93-1.82-15.41,2.54-22.51,2.57-4.19,6.26-6.11,11.2-5.67,2.03.18,3.8.76,5.34,2.11,2.43,2.13,4.53,4.52,5.82,7.53,1.91,4.44,3.17,9.03,3.41,13.9.08,1.74-.32,3.54.5,5.2,1.12.48,1.65-.4,2.31-.92,1.81-1.43,3.53-3,5.43-4.3,4.2-2.89,8.82-4.18,14-4.41,7.3-.32,13.64,6.16,9.79,15.6-1.35,3.31-3.68,6.02-6.63,8.2-3.17,2.34-6.73,3.92-11.06,5.75Z"/>
    <path class="cls-9" d="M334.78,106c.14,2.49.38,4.26.32,6.01-.22,6.65-4.76,11.31-11.38,11.71-1.58.1-3.22.12-4.77-.17-4.24-.8-6.85-3.51-8.12-7.55-.79-2.49-.93-5.11-.93-7.62-1.58-.33-2.26.71-3.21,1.1-1.8.74-3.55,1.68-5.42,2.14-4.98,1.22-9.55-.75-12.38-5.16-2.66-4.13-1.87-8.12.66-11.96,1.82-2.76,4.5-4.49,7.43-5.85,1.27-.59,2.62-1.01,3.86-1.48.28-1.84-1.3-2.1-2.05-2.94-2.83-3.16-4.7-6.62-4.25-11.06.48-4.68,3.53-7.74,8.22-8.29,5.3-.62,9.23,1.6,12.53,5.53,1.56,1.86,2.05,4.56,4.53,5.67,1.96-1.49,3.97-2.93,5.87-4.49,2.78-2.29,5.86-3.97,9.33-4.97,2.46-.7,4.89-.75,7.29.25,4.09,1.71,5.51,4.92,3.94,9.03-1.11,2.89-3.05,5.17-5.36,7.18-1.18,1.03-2.71,1.68-3.52,3.04.28,1.38,1.34,1.07,2.13,1.24,2.08.46,4.18.79,6.23,1.37,2.23.63,4.31,1.67,6.09,3.18,5.78,4.87,4.53,11.92-2.58,14.53-2.88,1.05-5.82,1.51-8.87.68-1.68-.46-3.42-.7-5.56-1.13Z"/>
    <path class="cls-1" d="M150,120.04c-2.33.02-4.61-.34-6.72-1.36-1.2-.58-1.95-1.6-1.42-3.04.44-1.18,1.49-1.54,2.6-1.33,4.09.75,8.08.68,12.02-.89,1.16-.46,2.55-.2,3.05,1.31.46,1.41-.26,2.42-1.42,3.09-2.5,1.45-5.21,2.2-8.11,2.22Z"/>
    <path class="cls-1" d="M315.36,125.83c.11,1.18-.29,1.99-1.03,2.52-1.29.93-2.67,1.75-4.02,2.59-9.53,5.87-18.85,12.04-27.28,19.46-12.07,10.62-22.17,22.96-31.39,36.06-5.83,8.28-10.97,17-15.82,25.89-.85,1.55-1.56,3.22-3.11,4.25-.77.52-1.64.65-2.5.15-.84-.48-1.26-1.27-1.27-2.19-.01-1.28.6-2.38,1.19-3.48,11.37-21.25,25-40.88,41.93-58.1,11.04-11.24,24.15-19.74,37.64-27.68,1.07-.63,2.18-1.25,3.48-1.17,1.18.08,1.97.67,2.17,1.69Z"/>
    <path class="cls-1" d="M132.99,121.82c.05.95-.35,1.73-.99,2.36-2.65,2.61-5.64,4.77-9.08,6.22-.62.26-1.37.34-2.05.33-.93-.02-1.68-.45-2.02-1.39-.34-.93-.14-1.93.64-2.35,3.59-1.91,6.65-4.56,9.99-6.82,1.58-1.07,3.55.01,3.51,1.65Z"/>
    <path class="cls-1" d="M147,132.18c-.02.07-.08.78-.33,1.42-.56,1.39-2.54,1.6-3.46.39-.31-.41-.68-.88-.74-1.36-.4-2.97-1.35-5.77-2.32-8.59-.41-1.19-.39-2.54,1.06-3.13,1.62-.66,2.67.28,3.39,1.62,1.51,2.82,2.45,5.8,2.41,9.66Z"/>
    <path class="cls-1" d="M140.39,109.87c-1.28-.13-2.14-1.01-1.88-2.12.78-3.32,2.61-6.17,4.76-8.75.94-1.12,3.01-.22,3.3,1.26.43,2.27-2.89,8.39-5.15,9.42-.31.14-.68.13-1.03.19Z"/>
    <path class="cls-1" d="M122.81,101.91c3.11,1.22,5.95,3.22,7.63,6.55.43.84.16,1.74-.56,2.42-.74.69-1.74.82-2.44.26-2.34-1.87-4.62-3.84-6.81-5.89-.68-.64-.55-1.65.02-2.45.44-.61,1.08-.88,2.16-.9Z"/>
    <path class="cls-1" d="M334.06,102.77c-.18,1.07-.99,1.89-2.13,1.72-3.41-.51-6.35-2-8.33-4.95-.38-.56-.32-1.37.1-2.01.55-.83,1.43-1.2,2.28-.87,2.62,1.02,5.09,2.37,7.35,4.07.55.42.85,1.12.73,2.03Z"/>
    <path class="cls-1" d="M328.26,92.04c-.27-.04-.97-.09-1.64-.26-.73-.19-1.18-.74-1.35-1.45-.22-.93.05-1.87.87-2.27,2.21-1.08,4.66-1.35,7.07-1.5.88-.06,1.59.72,1.81,1.63.22.92-.18,1.72-.91,2.3-1.59,1.27-3.49,1.49-5.86,1.56Z"/>
    <path class="cls-1" d="M306.57,90.82c-.9-.16-2.15-.26-3.3-.64-.88-.29-1.33-1.14-1.24-2.11.08-.74.5-1.37,1.17-1.64,2.24-.9,4.51-.66,6.73.07.86.28,1.47.99,1.5,1.98.03,1.27-.81,1.93-1.89,2.18-.85.19-1.75.11-2.97.16Z"/>
    <path class="cls-1" d="M310.97,104.61c.24-1.71.93-3.29,1.96-4.71.42-.58,1.07-.85,1.82-.78.98.09,1.58.71,1.87,1.57.58,1.73-.68,4.9-2.33,5.93-.62.39-1.3.42-1.99.12-.91-.4-1.18-1.19-1.32-2.13Z"/>
    <path class="cls-1" d="M318.33,84.04c-1.26-.07-2.28-1.49-2.2-3.1.1-2.16,1.5-3.73,3.12-3.43,1.47.27,1.97,1.34,1.91,2.7-.1,2.24-1.36,3.9-2.83,3.82Z"/>
    <path class="cls-1" d="M199.21,60.27c1.23.07,2,.72,2.18,1.92.21,1.46-.4,2.77-.88,4.11-4.86,13.63-7.05,27.81-8.98,42.08-1.29,9.53-1.49,19.13-1.72,28.68-.24,10.26.76,20.55,1.24,30.83.16,3.37.41,6.73.61,10.09.02.35,0,.71-.01,1.06-.09,1.61-.11,3.48-2.15,3.74-2.44.3-2.71-1.8-3.1-3.53-.23-1.03-.36-2.1-.45-3.16-1.46-18.24-2.05-36.52-1.09-54.79.95-18.13,3.93-35.97,9.55-53.29.66-2.02,1.48-3.99,2.35-5.93.44-.99,1.27-1.7,2.45-1.82Z"/>
    <path class="cls-2" d="M146.52,115.81c-.04,6.07-3.49,9.48-9.58,9.49-6.17.01-10.59-4.19-10.62-10.07-.02-5.67,4.39-10.05,10.11-10.03,5.92.02,10.13,4.44,10.09,10.6Z"/>
    <path class="cls-2" d="M327.72,92.89c.07,5.62-3.27,9.28-8.52,9.34-5.82.07-10.46-4.47-10.58-10.34-.11-5.11,4.31-9.59,9.42-9.55,5.41.03,9.6,4.6,9.68,10.56Z"/>
    <path class="cls-5" d="M256.37,169.7c.11-7.07,6.44-13.04,13.13-12.36,6.68.67,11.84,7.81,10.55,14.72-.32,1.73-.83,3.47-1.56,5.07-1.53,3.34-4.41,4.93-7.91,5.6-5.76,1.11-15.36-7.54-14.21-13.02Z"/>
    <path class="cls-5" d="M208.19,151.29c-.05-4.24,1.96-7.55,5.03-10.17,4.69-3.99,11.03-3.11,15.07,1.87,3.96,4.89,3.64,11.54-.87,15.33-1.34,1.13-2.92,2.05-4.52,2.79-7.22,3.3-14.81-1.81-14.7-9.82Z"/>
    <path class="cls-3" d="M170.62,209.99c1.13-2.75.76-4.7.76-6.59.03-10.65-.35-21.3.67-31.94.36-3.74.98-7.39,2.29-10.91,1.12-3.02,2.67-5.83,5.1-8.01,3.4-3.05,7.29-4.23,11.82-2.94,5.21,1.49,9.13,4.61,11.97,9.16,2.97,4.76,4.34,10.06,5.19,15.54,1.43,9.27.61,18.43-1.49,27.49-3.39,14.6-8.97,28.41-15.57,41.83-.54,1.11-1.21,2.17-1.94,3.17-.77,1.06-2.01,1.87-3.21,1.5-2.56-.8-4.79-.11-7.18.64-1.95.62-3.89.01-5.5-1.29-5.61-4.53-11.8-8.31-16.5-14.02-4.62-5.61-9.84-10.72-14.81-16.04-2.92-3.12-5.57-6.44-7.77-10.12-1.65-2.77-2.88-5.7-3.52-8.87-2.1-10.32,6.01-18.45,16.28-16.3,7.54,1.58,13.21,5.87,17.31,12.3,2.02,3.16,3.4,6.63,4.48,10.21.45,1.47.92,2.94,1.62,5.18Z"/>
    <path class="cls-1" d="M169.49,224.42c0-3.15-.01-5.26,0-7.38,0-.88-.03-1.78.15-2.63.24-1.09.91-1.94,2.14-1.98,1.22-.04,2.09.71,2.27,1.81.39,2.43.79,4.9.78,7.35,0,2.99-.39,5.98-.69,8.97-.09.86-.35,1.74-.7,2.52-.47,1.02-1.29,1.68-2.52,1.46-1.2-.22-1.81-1.1-1.98-2.19-.13-.85-.02-1.75.05-2.62.18-2.11.4-4.21.5-5.3Z"/>
    <path class="cls-7" d="M331.03,256.62c-.17,9.86-.03,17.52-2.32,24.94-2.28,7.4-5.52,13.94-11.96,18.96-24.31,18.95-51.22,32.11-81.85,36.44-49.39,6.98-92.06-6.87-127.24-42.66-1.75-1.78-3.25-3.65-3.87-6.23-6.27-25.85-7.1-51.67.16-77.47,1.83-6.52,4.34-12.79,7.71-18.68,1.65-2.88,4.39-2.76,6,.18.34.61.5,1.33.67,2.02,2.04,7.91,6.82,13.97,12.92,19.12,8.01,6.76,17.3,11.14,27.17,14.36,15.53,5.07,31.53,6.94,47.81,6.81,21.73-.18,42.79-3.9,62.94-12.16,11.76-4.82,22.69-11.04,31.79-20.1,1.76-1.75,3.36-3.67,4.99-5.54,5.35-6.14,13.29-4.77,15.8,2.94,4.35,13.4,6.86,27.21,8.24,41.21.59,6.01.8,12.05,1.05,15.87Z"/>
    <path class="cls-1" d="M124.5,231.96c.25,7.1.54,14.21.75,21.31.34,11.06,2.1,21.91,4.69,32.65,2.96,12.24,9.37,22.55,17.55,31.91,1.64,1.87,3.27,3.75,4.84,5.68.28.35.45,1.09.28,1.46-.34.75-1.1.67-1.81.42-.67-.24-1.36-.42-2.03-.65-15.83-5.66-30.63-13.27-44.19-23.24-5.48-4.03-10.24-8.78-14.24-14.3-7.35-10.16-9.64-21.6-8.54-33.86.41-4.59,1.28-9.12,2.33-13.64,3.71-15.91,7.47-31.82,10.03-47.97.11-.7.17-1.44.46-2.07.59-1.31,1.76-2.1,2.96-1.13,1.28,1.04,2.24,1.11,3.76.56,11.54-4.13,20.89,1.44,22.23,13.59.72,6.51.5,13.12.65,19.69.07,3.2.01,6.4.01,9.6.09,0,.18,0,.27,0Z"/>
    <path class="cls-1" d="M306.86,238.64c.29-8.84-1.51-16.52-5.79-23.56-.73-1.2-1.42-3.08-2.78-3.02-5.44.26-3.32-4.95-5.33-7.15-.61-.66.81-2.2,1.87-1.83,2.64.91,3.92-.79,5.45-2.26,2.86-2.75,6.14-4.89,9.97-5.97,6.18-1.75,11.62-.42,16,4.41,1.19,1.31,2.29,2.73,3.22,4.24,9.45,15.34,15.45,31.91,17.85,49.78,1.01,7.49-.47,14.49-3.86,21.15-3.76,7.38-8.81,13.81-15.09,19.15-12.34,10.5-25.31,20.12-39.9,27.39-2.72,1.36-5.58,2.28-8.42,3.3-.63.23-1.38.59-1.96-.1-.71-.84-.27-1.68.19-2.43.73-1.22,1.53-2.4,2.31-3.59,15.35-23.6,23.27-49.7,26.1-77.52.09-.88.13-1.77.15-2.02Z"/>
    <path class="cls-3" d="M90.79,195c-8.09-.15-15.43,1.58-22.27,5.41-2.79,1.56-5.62,3.06-8.51,4.42-3.62,1.71-7.48,2.23-11.45,1.74-6.58-.81-10.41-5.53-9.92-12.18.32-4.25,2.31-7.8,4.77-11.12,3.09-4.16,6.82-7.72,10.79-11.03,3.96-3.31,8.12-6.33,12.74-8.7,6.51-3.36,13.2-3.86,20.14-1.59,5.3,1.73,10.08,4.41,14.55,7.7,4.31,3.18,8.37,6.68,11.8,10.76,7.01,8.34,15.23,15.42,23.15,22.82,4.42,4.12,8.96,8.12,13.41,12.21,1.17,1.08,2.38,2.18,3.28,3.48,1.49,2.14.33,4.28-2.32,4.48-2.79.21-5.27-.91-7.6-2.17-6.72-3.64-13.46-7.28-19.16-12.48-2.5-2.28-5.21-4.28-8.02-6.17-7.77-5.23-16.32-7.73-25.38-7.57Z"/>
    <path class="cls-1" d="M209.43,244.99c-21.21.81-42.69-4.76-63.42-13.88-5.55-2.44-10.78-5.43-15.73-8.91-1-.7-1.92-1.56-2.75-2.46-.5-.54-.48-1.37-.14-2.02.48-.89,1.42-1.14,2.28-.84.99.34,1.92.9,2.82,1.46,23.31,14.66,48.88,21.42,76.25,22.07,12.65.3,25.14-1.6,37.72-2.34,1.23-.07,2.48-.12,3.7,0,.93.09,1.61.7,1.79,1.7.18,1.02-.33,1.77-1.19,2.12-.97.4-2.01.73-3.04.81-12.21.95-24.36,2.72-38.28,2.29Z"/>
    <path class="cls-6" d="M204.36,319.3c-.4-12.26-.33-24.7-2.71-36.95-2.1-10.82-8.62-18.51-17.74-24.21-2.86-1.79-5.88-3.32-8.78-5.04-1.28-.75-2.46-1.83-1.47-3.43.78-1.25,2.18-1.02,3.37-.47,16.61,7.69,28.61,18.93,30.47,38.44.98,10.27,1.08,20.58,1.87,30.85.49,6.34,3.17,7.76,8.72,4.64,2.32-1.3,4.43-2.99,7-3.8,1.06-.34,2.16-.26,2.91.7.78,1.01.34,2.02-.23,2.96-.85,1.4-2.07,2.36-3.51,3.17-9.54,5.34-15.11,4.76-24.23-2.61-1.08-.88-2.64-1.73-1.88-3.39.95-2.08,2.61-1.16,4.1-.51.46.2.94.56,2.12-.35Z"/>
    <path class="cls-6" d="M240.31,279.01c.1.38.24.73.43,1.05.9,1.47,2.55.79,3.04-.55,1.56-4.25,2.88-8.85,5.75-12.44.86-1.08.99-2.4-.26-3.28-1.28-.9-2.45-.12-3.26.85-1.83,2.19-3.48,4.59-4.55,7.25-.75,1.86-1.73,4.91-1.16,7.12Z"/>
    <path class="cls-1" d="M283.53,275.32c-1.05-1.37-2.54-.98-3.88-.31-1.43.71-2.82,1.5-4.21,2.29-3.85,2.21-7.64,4.51-11.76,6.2-6.68,2.75-13.28,2.05-20.49.09-2.92.1-3.69,2.62-2.17,4.16,2.26,2.31,4.61,4.48,7.91,5.14,6.27,1.26,12.4.93,18.15-2.08,5.71-2.98,10.53-7.21,15.37-11.38,1.25-1.08,2.36-2.44,1.07-4.11Z"/>
    <path class="cls-6" d="M190.62,279.05c-.08,1.45-.1,2.58-1.42,2.91-1.22.3-2.1-.34-2.56-1.36-1.8-4.05-3.95-7.87-6.94-11.2-.75-.83-.84-2.01.07-2.87.9-.85,2.04-.68,2.89.05,4,3.43,6.47,7.84,7.96,12.47Z"/>
    <path class="cls-1" d="M333.17,195.88c8.77,1.34,16.4,3.83,22.54,9.7.25.24.53.47.76.73,1.12,1.23,2.18,2.65.83,4.17-1.4,1.57-2.96.64-4.17-.48-5.24-4.86-11.58-7.27-18.48-8.51-.69-.12-1.4-.25-2.05-.5-1.37-.51-2.64-1.19-2.5-2.95.11-1.43,1.6-2.26,3.07-2.18Z"/>
    <path class="cls-1" d="M282.32,229.43c0,.96-.41,1.77-1.22,2.21-3.72,2.05-7.64,3.66-11.73,4.83-1.22.35-2.57.21-3.01-1.33-.35-1.22.43-2.1,1.43-2.53,3.9-1.66,7.81-3.29,11.78-4.77,1.29-.48,2.45,0,2.75,1.59Z"/>
    <path class="cls-1" d="M160.19,239.66c9.55.23,17.82,2.89,25.04,8.61,3.88,3.07,6.5,7.01,7.86,11.72,1.22,4.23-.32,6.47-4.65,7.04-3.26.43-6.38-.26-9.25-1.79-6.63-3.52-13.63-4.58-21.08-3.99-4.61.36-9.22-.1-13.14-3.11-5.28-4.05-5.56-8.78-.74-13.44,2.1-2.03,4.65-3.24,7.44-3.91,2.93-.7,5.91-1.13,8.52-1.13Z"/>
    <path class="cls-1" d="M272.35,261.14c-6.22-.33-12.28.54-17.94,3.51-3.02,1.58-6.19,2.67-9.66,2.48-4.96-.28-6.74-2.57-5.48-7.33,1.12-4.2,3.38-7.82,6.72-10.61,10.04-8.37,21.51-11.17,34.28-8.47,3.91.83,7.31,2.69,9.56,6.18,2.56,3.98,2.28,6.62-1.05,9.93-2.2,2.18-4.81,3.61-7.89,4.05-2.81.39-5.63.71-8.54.26Z"/>
    <path class="cls-1" d="M178.93,294.15c-12.73.51-21.9-6.26-28.6-14.62-.62-.77-1.01-2.8-.52-3.74.96-1.82,2.81-1.13,4.2-.27,11.36,6.99,22.8,13.5,36.94,8.39,3.65-1.31,1.24,4.58.28,5.71-3.22,3.77-7.72,4.35-12.3,4.53Z"/>
    <path class="cls-1" d="M281.73,188.45c.19,1.26-.45,2.14-1.28,2.81-8.36,6.79-14.78,15.28-21.03,23.92-2.01,2.78-3.75,3.35-5.15,2.08-1.29-1.17-1.2-2.51.7-5.22,5.73-8.16,12.1-15.78,19.53-22.47,1.31-1.18,2.58-2.49,4.43-2.82,1.41-.25,2.43.26,2.8,1.69Z"/>
    <path class="cls-8" d="M122.2,216.5c-.52,2.88-1.09,6.21-1.72,9.52-2.62,13.62-4.5,27.34-5.42,41.18-.43,6.4,0,12.78,1.51,19.06,1.49,6.19,4.3,11.62,8.96,16.06,1.8,1.71,3.53,3.51,5.18,5.36.75.85.92,1.94-.05,2.85-.73.69-1.63.65-2.48.31-.48-.19-.94-.5-1.34-.84-8.2-6.82-13.88-15.14-15.51-25.91-.91-6-1.24-12.01-.85-18.07,1.09-16.71,4.12-33.12,7.42-49.5.07-.35.16-.69.26-1.03.64-2.06,1.6-2.99,2.75-2.56,1.47.55,1.36,1.87,1.29,3.56Z"/>
    <path class="cls-8" d="M325.52,262.27c.1,7.62-.74,14.59-4.09,21.1-2.12,4.12-4.67,7.95-7.33,11.72-.31.43-.64.85-1.01,1.23-.93.98-2.05,1.55-3.3.71-1.34-.9-.97-2.15-.29-3.29.72-1.22,1.46-2.45,2.34-3.56,8.86-11.1,10.3-23.72,7.99-37.27-2.04-11.96-5.74-23.41-9.74-34.8-.65-1.84-1.26-3.69-1.84-5.55-.41-1.31-.32-2.62,1.18-3.06,1.48-.43,2.24.67,2.75,1.9.14.33.3.64.42.98,4.5,12.52,9.29,24.95,11.45,38.17.66,4.02,1.02,8.09,1.47,11.71Z"/>
    <path class="cls-8" d="M333.65,247.42c.04,5.7-.82,11.32-1.56,16.95-.07.53-.13,1.07-.32,1.56-.45,1.17-.91,2.43-2.51,2.27-1.66-.17-1.87-1.55-1.81-2.78.11-2.3.44-4.59.68-6.89.31-3,.6-6,.94-9,1.07-9.45-.8-18.37-4.76-26.91-.52-1.12-1.26-2.18-1.15-3.49.06-.73.42-1.42,1.19-1.59.47-.1,1.09-.05,1.5.18,1.3.75,1.88,2.1,2.46,3.39,3.2,7,5.56,14.21,5.35,22.05-.04,1.42,0,2.84,0,4.26Z"/>
    <path class="cls-8" d="M101.34,234.85c-.28-3.01-.47-6.02.14-9.02.22-1.09.6-2.16,1.9-2.21,1.77-.06,1.85,1.4,1.92,2.61.16,2.84.03,5.7.32,8.51.63,6,1.46,11.98,2.22,17.97.22,1.76.64,3.53-.03,5.26-.26.68-.88,1.17-1.65,1.08-.48-.06-1.02-.31-1.38-.65-.99-.92-.96-2.24-1.16-3.45-1.11-6.66-2-13.35-2.28-20.11Z"/>
    <path class="cls-3" d="M301.98,206.95c.94,1.99,2.75,2.59,3.98,3.77,4.46,4.25,7.04,9.31,6.89,15.58-.18,7.41-5.96,14.17-15.28,11.06-3.19-1.06-6.25-2.52-9.35-3.84-9.38-4.01-19.08-5.38-29.17-3.65-.51.09-.99.32-1.51.49-.49,2.06,1.05,3.33,1.78,4.86,4.15,8.72,4.95,17.71,2.27,26.97-1,3.47-2.8,6.53-5.59,8.91-4.53,3.86-9.18,3.51-13.06-.99-1.99-2.31-3.39-4.99-4.65-7.74-1.41-3.07-2.73-6.17-4.14-9.24-1.94-4.23-4.45-8.08-7.71-11.43-4.49-4.61-9.54-7.97-16.34-7.62-.53.03-1.08-.02-1.58-.16-1.05-.28-1.34-1.09-1.08-2.05.33-1.26,1.33-2.07,2.22-2.93,6.06-5.84,13-9.97,21.6-10.39,3.33-.16,6.17-1.27,9.07-2.67,9.94-4.8,20.14-8.92,31.04-11.02,2.9-.56,5.26-1.86,7.49-3.73,7.97-6.65,16.68-12.06,26.5-15.6,7.09-2.55,14.33-4.07,21.92-3.65,4.33.24,8.46,1.21,12.15,3.52,4.57,2.87,7.19,6.94,6.4,12.49-.78,5.5-4.3,8.84-9.48,10.39-3.78,1.13-7.67,1.36-11.61.83-5.63-.77-11.26-1.51-16.9-2.19-1.83-.22-3.73-.79-5.85.01Z"/>
    <path class="cls-1" d="M211.42,188.56c-1.25,13.41-2.11,27.45-9.42,40.01-.89,1.53-1.83,3.04-2.89,4.46-.9,1.2-2.14,2-3.68,1.14-1.56-.88-1.43-2.29-.86-3.72.26-.65.59-1.3.99-1.88,5.46-8,7.39-17.19,8.96-26.5,2.07-12.28,1.68-24.38-2.5-36.22-.29-.83-.51-1.7-.64-2.57-.19-1.3-.02-2.59,1.37-3.13,1.41-.55,2.39.32,3.06,1.45.45.76.76,1.6,1.06,2.43,2.76,7.75,4.06,15.78,4.55,24.53Z"/>
    <path class="cls-1" d="M132.51,200c1.19-.05,2,.39,2.51,1.12,3.89,5.51,6.89,11.54,9.87,17.57.6,1.21.3,2.49-.92,3.27-1.31.84-2.39.18-3.26-.81-.58-.66-1.02-1.44-1.45-2.21-2.57-4.65-5.13-9.3-7.66-13.98-.42-.77-.87-1.61-.96-2.45-.15-1.41.61-2.33,1.87-2.51Z"/>
    <path class="cls-1" d="M298.8,206.77c-.16.81-.52,1.47-1.24,1.66-.65.18-1.46.33-2.06.11-3.96-1.47-8.02-1.14-12.1-.94-1.76.09-3.71.32-4.43-1.9-.51-1.56.89-2.81,3.95-3.32,4.42-.73,8.85-.78,13.08.98,1.51.63,2.82,1.56,2.8,3.4Z"/>
    <path class="cls-1" d="M242.7,217.88c.35.04.73.01,1.05.12,5.17,1.8,9.51,4.77,12.71,9.26.89,1.25,1.22,2.7-.19,3.8-1.18.92-2.48.48-3.34-.54-2.93-3.49-6.63-5.86-10.72-7.71-.47-.21-.91-.56-1.29-.92-.69-.65-.98-1.5-.7-2.42.36-1.21,1.34-1.56,2.48-1.6Z"/>
    <path class="cls-1" d="M392.71,153.01c2.09-.02,4.82,2.21,4.82,3.97,0,.96-.53,1.66-1.41,1.98-1.7.62-4.74-1.11-5.46-3.05-.51-1.36.57-2.89,2.05-2.9Z"/>
    <path class="cls-1" d="M113.76,186.93c-3.41-2.88-7.02-5.54-10.82-7.89-3.68-2.28-7.62-4.56-11.84-5.68-8.63-2.29-17.51,2.31-24.57,6.91-4.05,2.64-7.82,5.73-11.21,9.18-1.98,2.02,1.12,5.12,3.1,3.1,3.46-3.53,7.29-6.63,11.49-9.24,4.19-2.6,8.83-5.09,13.72-5.99,5.1-.94,9.77,1.31,14.1,3.75,4.57,2.58,8.9,5.57,12.91,8.96,2.14,1.81,5.26-1.28,3.1-3.1Z"/>
    <path class="cls-1" d="M247.42,89.34c-.31-.48-.75-.86-1.31-1.01-.19-.05-.37-.12-.55-.19-.33-.16-.64-.34-.94-.55-.03-.02-.05-.04-.08-.06-.2-.21-.43-.36-.71-.45-.26-.14-.54-.2-.85-.19-.3-.01-.58.05-.85.19-.27.09-.51.24-.71.45-.38.42-.67.97-.64,1.55.03.56.21,1.16.64,1.55.31.28.65.54.99.78.2.14.42.28.64.4.37.2.76.36,1.14.51.24.1.48.18.73.24.29.09.58.1.87.04.29-.01.56-.1.82-.26.26-.14.46-.33.62-.57.19-.21.32-.46.39-.75.13-.56.1-1.19-.22-1.69Z"/>
    <g>
      <g>
        <path class="cls-1" d="M82.76,347.24c-.99-.58-1.91-1.32-2.75-2.21-2.23-2.36-3.35-5.21-3.23-8.22.26-6.96,7.1-14.09,11.89-16.14,4.03-1.72,7.32-.83,9.38.23,2.41,1.24,4.38,3.41,5.28,5.79.47,1.25-.18,2.32-1.45,2.39-1.27.08-2.68-.87-3.15-2.12-.36-.95-1.11-1.79-2.01-2.25-1.35-.7-3.13-.63-5.01.17-3.89,1.66-9.81,8.02-10.02,13.38-.07,1.76.46,3.21,1.61,4.43.94.99,1.95,1.47,3.28,1.53,3.16.15,6.54-2.07,8.2-3.71-1.06-.74-2.11-1.35-2.58-1.59-1.3-.68-2.04-2.08-1.66-3.13.38-1.04,1.75-1.34,3.05-.65.37.19,3.67,1.96,6.01,4.21.83.8,1.14,1.86.78,2.64-.99,2.15-6.48,7.04-12.6,6.75-1.78-.08-3.47-.59-5-1.49Z"/>
        <path class="cls-1" d="M88.27,349.74c-.19,0-.37,0-.56-.01-1.94-.09-3.78-.64-5.46-1.63h0c-1.07-.63-2.07-1.43-2.97-2.39-2.42-2.56-3.63-5.66-3.5-8.94.28-7.36,7.46-14.87,12.49-17.02,4.39-1.88,7.98-.9,10.23.26,2.62,1.35,4.77,3.71,5.76,6.33.34.92.27,1.85-.19,2.57-.45.69-1.23,1.12-2.14,1.17-1.71.1-3.52-1.11-4.15-2.76-.27-.71-.86-1.37-1.53-1.72-1.08-.55-2.55-.48-4.16.2-3.57,1.53-9.22,7.58-9.41,12.5-.06,1.5.37,2.67,1.34,3.7.76.8,1.53,1.17,2.6,1.21,2.21.12,4.72-1.16,6.52-2.6-.61-.38-1.13-.68-1.41-.83-1.75-.92-2.69-2.83-2.14-4.36.25-.69.77-1.21,1.47-1.48.89-.34,1.98-.24,2.98.28.63.33,3.86,2.09,6.24,4.38,1.14,1.1,1.54,2.62,1,3.78-1.19,2.57-6.78,7.34-13,7.34ZM93.17,320.71c-1.24,0-2.62.24-4.12.88-4.44,1.9-11.04,8.78-11.28,15.26-.1,2.74.92,5.33,2.96,7.49.77.82,1.62,1.5,2.53,2.04h0c1.41.82,2.93,1.28,4.54,1.35,5.6.26,10.76-4.27,11.64-6.17.15-.32,0-.95-.57-1.5-2.23-2.15-5.42-3.86-5.78-4.05-.57-.3-1.06-.29-1.33-.19-.21.08-.28.21-.31.3-.18.5.29,1.43,1.19,1.9.6.32,1.66.94,2.69,1.66.24.17.4.44.42.74.03.3-.08.59-.29.8-1.59,1.57-5.25,4.16-8.95,4-1.59-.07-2.84-.66-3.96-1.84-1.34-1.42-1.96-3.11-1.88-5.15.23-5.94,6.54-12.52,10.62-14.26,2.16-.92,4.24-.97,5.86-.14,1.11.57,2.04,1.62,2.49,2.79.32.83,1.31,1.53,2.16,1.47.19-.01.45-.07.58-.26.12-.18.12-.46,0-.78-.82-2.16-2.61-4.12-4.8-5.25-1.1-.57-2.6-1.08-4.4-1.08Z"/>
      </g>
      <g>
        <path class="cls-1" d="M106.29,359.78c-.09-.04-.19-.08-.28-.13-1.3-.68-1.98-2.04-1.52-3.05,2.88-6.31,9.87-21.15,12.42-22.7,2.42-1.47,6.34-1.38,9.94.2,3.21,1.41,5.63,3.77,6.47,6.32.71,2.18.08,4.35-1.79,6.11-3.07,2.89-8.68,4.22-14.92,3.67,1.85,2.89,5.14,6.95,10.65,10.87,1.19.85,1.6,2.24.91,3.1-.69.87-2.22.88-3.41.03-6.16-4.38-9.95-8.96-12.17-12.35-1.14,2.35-2.29,4.8-3.38,7.19-.43.93-1.69,1.23-2.91.73ZM120.42,337.7c-.76.62-2.61,3.83-4.82,8.12,5.63.55,9.92-.83,11.89-2.69.91-.85,1.29-1.78,1.04-2.53-.33-1-1.43-1.99-2.94-2.66-1.91-.85-3.99-.94-5.17-.25Z"/>
        <path class="cls-1" d="M126.62,365.84c-.81,0-1.68-.27-2.45-.82-5.54-3.94-9.18-8.05-11.43-11.18-.89,1.87-1.78,3.75-2.63,5.62-.65,1.42-2.45,1.96-4.2,1.23,0,0,0,0,0,0-.12-.05-.25-.11-.37-.17-1.79-.93-2.65-2.84-1.96-4.35,4.43-9.7,10.26-21.59,12.81-23.14,2.69-1.63,6.95-1.58,10.86.14,3.47,1.52,6.09,4.11,7.01,6.92.83,2.53.08,5.14-2.06,7.15-2.9,2.73-7.9,4.2-13.63,4.06,1.87,2.55,4.81,5.79,9.25,8.95.91.65,1.51,1.57,1.64,2.53.11.74-.08,1.46-.52,2.01-.55.69-1.4,1.04-2.32,1.04ZM112.58,350.86c.34,0,.65.17.84.45,2.02,3.09,5.73,7.69,11.91,12.08.8.57,1.74.55,2.05.16.1-.12.13-.29.11-.49-.06-.41-.36-.85-.82-1.18-5.73-4.08-9.1-8.31-10.91-11.15-.21-.32-.21-.73-.01-1.06.2-.33.56-.52.94-.48,6.03.53,11.32-.74,14.15-3.41,1.59-1.5,2.12-3.25,1.53-5.07-.75-2.28-2.96-4.42-5.92-5.72-3.28-1.44-6.9-1.55-9.01-.26-1.24.75-5.05,6.99-12.03,22.26-.21.45.21,1.29,1.08,1.74.07.04.14.07.2.09.7.29,1.43.19,1.61-.22,1.1-2.39,2.24-4.82,3.39-7.21.16-.32.48-.54.84-.56.02,0,.04,0,.06,0ZM118.09,346.95c-.82,0-1.69-.04-2.59-.13-.33-.03-.62-.23-.78-.52-.16-.29-.16-.64-.01-.94,3.82-7.41,4.76-8.18,5.07-8.44.04-.03.08-.06.13-.09,1.48-.87,3.87-.79,6.09.2,1.79.79,3.06,1.97,3.48,3.26.37,1.14-.1,2.44-1.3,3.57-1.67,1.58-5.12,3.08-10.09,3.08ZM117.19,344.93c4.9.19,8.2-1.19,9.61-2.52.59-.55.89-1.14.77-1.49-.23-.71-1.17-1.52-2.39-2.05-1.73-.77-3.39-.75-4.19-.34-.25.24-1.16,1.37-3.81,6.41Z"/>
      </g>
      <g>
        <path class="cls-1" d="M159.58,346.99c-.1,1.14-1.31,1.79-2.7,1.46-2.37-.57-4.95-1.04-6.18-1.13-.59,1.26-1.82,4.08-3.11,7.31l3.85,1.11c1.38.4,2.35,1.63,2.17,2.75-.18,1.12-1.44,1.71-2.82,1.31l-4.7-1.35c-1.56,4.12-2.91,8.19-3.05,10.12.4.34,1.78,1.12,4.88,1.92,1.36.36,2.4,1.57,2.27,2.7-.13,1.13-1.36,1.76-2.75,1.41-.36-.09-.72-.19-1.05-.29-7.03-2.02-8.46-4.67-8.4-6.59.18-5.12,7.79-22.59,8.47-23.65.53-.82,1.33-2.05,10.8.24,1.37.33,2.43,1.53,2.32,2.68Z"/>
        <path class="cls-1" d="M148.21,375.7c-.33,0-.67-.04-1.02-.13-.37-.1-.73-.2-1.08-.29-7.68-2.21-9.2-5.34-9.12-7.58.2-5.45,7.99-23.17,8.63-24.16.94-1.45,2.48-2.47,11.87-.19,1.88.46,3.23,2.1,3.08,3.74h0c-.07.76-.45,1.43-1.08,1.88-.76.54-1.8.71-2.85.46-1.88-.45-4-.86-5.34-1.03-.56,1.23-1.42,3.24-2.38,5.59l2.79.8c1.88.54,3.15,2.24,2.89,3.87-.12.74-.54,1.38-1.19,1.79-.8.51-1.85.62-2.9.32l-3.81-1.1c-1.75,4.71-2.4,7.14-2.6,8.41.65.35,1.94.9,4.06,1.45,1.88.49,3.2,2.15,3.01,3.79-.09.76-.49,1.41-1.12,1.85-.52.36-1.17.54-1.85.54ZM149.27,344c-1.57,0-1.83.4-1.97.62-.67,1.07-8.14,18.36-8.31,23.14-.08,2.16,2.65,4.14,7.67,5.59.33.1.67.19,1.03.28.48.12.94.08,1.23-.12.16-.11.25-.25.27-.43.06-.56-.58-1.37-1.53-1.62-3.68-.95-4.96-1.86-5.27-2.12-.25-.21-.38-.52-.35-.84.13-1.77,1.18-5.27,3.12-10.4.18-.49.71-.75,1.21-.61l4.7,1.35c.49.14.96.11,1.27-.09.17-.1.26-.24.29-.42.09-.55-.49-1.35-1.46-1.63l-3.85-1.11c-.27-.08-.5-.27-.62-.52-.12-.25-.13-.55-.03-.81,1.33-3.3,2.55-6.13,3.13-7.36.18-.38.55-.6.98-.57,1.31.1,3.98.58,6.34,1.15.48.12.93.06,1.21-.14.16-.11.24-.25.26-.44h0c.05-.57-.61-1.38-1.56-1.61-4.07-.99-6.4-1.29-7.75-1.29Z"/>
      </g>
      <g>
        <path class="cls-1" d="M182.85,351.55c0,1.16-1.13,1.94-2.52,1.74-2.39-.34-4.97-.55-6.19-.52-.47,1.33-1.41,4.29-2.39,7.67l3.9.73c1.39.26,2.47,1.41,2.4,2.55-.07,1.15-1.26,1.86-2.66,1.6l-4.75-.9c-1.15,4.3-2.11,8.54-2.07,10.49.43.3,1.85.95,4.98,1.45,1.38.22,2.51,1.34,2.49,2.5-.02,1.16-1.18,1.91-2.57,1.69-.37-.06-.72-.12-1.06-.18-7.1-1.34-8.76-3.87-8.87-5.8-.29-5.17,5.58-23.52,6.16-24.65.44-.88,1.11-2.2,10.65-.83,1.38.2,2.53,1.3,2.53,2.46Z"/>
        <path class="cls-1" d="M173.93,381.59c-.21,0-.42-.02-.64-.05-.38-.06-.74-.12-1.09-.19-7.78-1.46-9.56-4.46-9.68-6.72-.31-5.52,5.73-24.1,6.26-25.16.79-1.55,2.21-2.73,11.68-1.37,1.9.28,3.39,1.79,3.39,3.45h0c0,.78-.32,1.49-.91,2.01-.7.61-1.7.87-2.75.72-1.88-.27-4-.47-5.33-.51-.44,1.3-1.11,3.43-1.83,5.88l2.81.53c1.9.36,3.31,1.94,3.21,3.6-.05.77-.42,1.45-1.03,1.93-.74.58-1.77.79-2.81.59l-3.84-.72c-1.06,4.04-1.68,7.08-1.79,8.75.67.29,1.99.71,4.12,1.05,1.9.31,3.36,1.85,3.33,3.5-.02.77-.36,1.48-.96,1.98-.57.47-1.32.73-2.13.73ZM173.75,349.5c-2.75,0-3.05.59-3.19.87-.56,1.14-6.32,19.28-6.05,24.14.12,2.19,2.98,3.92,8.06,4.87.33.06.68.12,1.04.18.47.08.91-.01,1.18-.24.16-.13.23-.29.24-.49.01-.58-.69-1.33-1.65-1.49-3.71-.59-5.07-1.39-5.39-1.62-.26-.18-.42-.48-.42-.8-.03-1.8.68-5.42,2.11-10.76.13-.5.64-.82,1.15-.72l4.75.9c.48.09.93.01,1.21-.21.16-.13.25-.28.26-.47.03-.56-.61-1.32-1.58-1.51l-3.9-.73c-.28-.05-.52-.22-.67-.46-.15-.24-.19-.53-.11-.8,1-3.44,1.95-6.41,2.41-7.72.14-.39.5-.66.92-.67,1.31-.03,3.97.19,6.35.53.47.07.9-.03,1.15-.25.15-.13.23-.29.23-.49h0c0-.58-.72-1.34-1.68-1.48-2.98-.43-5.02-.58-6.42-.58Z"/>
      </g>
      <g>
        <path class="cls-1" d="M191.24,383.44c-.06,0-.13-.01-.19-.02-1.4-.19-2.49-1.28-2.44-2.43l1.05-23.48s0-.04,0-.06c.09-1.21,1.07-2.11,2.49-2.3,1.41-.19,2.89.39,3.74,1.48.02.03.04.05.06.08l13.67,18.87,1.73-20.82c.1-1.15,1.3-1.89,2.7-1.67,1.39.23,2.45,1.34,2.35,2.49l-2.06,24.8c-.1,1.21-1.08,2.1-2.49,2.29-1.42.18-2.88-.4-3.73-1.48-.02-.03-.04-.05-.06-.08l-13.53-18.67-.86,19.23c-.05,1.1-1.12,1.86-2.43,1.76Z"/>
        <path class="cls-1" d="M191.46,384.44c-.1,0-.19,0-.29-.01,0,0-.01,0-.02,0l.09-1-.1,1c-.08,0-.16-.02-.24-.03-1.91-.26-3.36-1.78-3.29-3.46l1.05-23.48c.13-1.76,1.48-3.06,3.36-3.3,1.76-.23,3.58.49,4.66,1.85l.09.12,12.09,16.69,1.51-18.13c.06-.76.44-1.44,1.05-1.92.74-.58,1.76-.82,2.8-.65,1.93.31,3.33,1.88,3.19,3.56l-2.06,24.8c-.14,1.67-1.49,2.95-3.36,3.2-1.75.22-3.58-.5-4.65-1.85l-.08-.11-11.85-16.36-.73,16.37c-.03.73-.36,1.41-.92,1.91-.59.53-1.42.82-2.29.82ZM191.33,382.44c.44.03.84-.08,1.1-.31.16-.14.24-.31.25-.5l.86-19.23c.02-.42.3-.79.71-.91.41-.12.85.03,1.1.37l13.53,18.67c.68.86,1.79,1.3,2.86,1.16.94-.12,1.56-.65,1.63-1.38l2.06-24.8c.04-.55-.57-1.26-1.52-1.42-.48-.08-.95.02-1.25.25-.18.14-.28.31-.29.51l-1.73,20.82c-.03.42-.32.77-.73.88-.4.12-.83-.04-1.08-.38l-13.67-18.87c-.67-.85-1.8-1.29-2.86-1.16-.94.12-1.57.65-1.62,1.39l-1.05,23.5c-.02.56.61,1.27,1.57,1.4l.14.02Z"/>
      </g>
      <g>
        <path class="cls-1" d="M251.54,384.33c-.11.02-.22.03-.33.04-1.37.08-2.59-.8-2.73-1.97-.46-4.06-2.49-24.57,3.13-29.65,1.03-.94,2.31-1.43,3.72-1.45,1.49-.17,2.97.2,4.28,1.05,2.05,1.33,3.7,3.98,4.99,7.09.73-3.39,1.95-6.47,3.93-8.38,1.45-1.4,3.28-2.18,5.3-2.25,7.21-.25,9.73,10.41,12.07,23.32.28,1.56.53,2.91.76,4,.25,1.16-.64,2.25-2.01,2.42-1.36.18-2.66-.62-2.9-1.78-.24-1.14-.49-2.51-.78-4.1-.77-4.23-1.72-9.5-3.16-13.7-1.66-4.87-3.23-5.93-3.64-5.91-.43.02-1.09.12-1.86.86-3.76,3.63-4.12,16.14-3.46,23.17.11,1.16-.89,2.16-2.26,2.24-1.36.07-2.57-.8-2.71-1.96-.94-7.66-3.8-19.44-7.22-21.65-.35-.22-.5-.2-.59-.19-.17.03-.35.04-.53.03-.08,0-.21.12-.25.16-3.03,2.75-2.9,17.09-1.84,26.4.12,1.08-.72,2.02-1.92,2.23Z"/>
        <path class="cls-1" d="M251.05,385.37c-1.8,0-3.37-1.25-3.55-2.87-.66-5.82-2.38-25.23,3.46-30.51,1.21-1.1,2.73-1.69,4.38-1.71,1.63-.18,3.33.23,4.84,1.21,1.52.99,2.92,2.67,4.18,5.02.86-2.7,2.03-4.77,3.5-6.19,1.63-1.57,3.69-2.45,5.96-2.52.1,0,.2,0,.29,0,7.78,0,10.4,10.94,12.8,24.15.28,1.55.52,2.89.75,3.97.17.79,0,1.59-.47,2.25-.53.75-1.4,1.25-2.39,1.37-1.89.25-3.65-.88-4.01-2.57-.23-1.1-.47-2.41-.74-3.91l-.04-.22c-.76-4.2-1.71-9.42-3.12-13.55-1.35-3.97-2.53-5.02-2.82-5.22-.28.04-.62.16-1.04.57-3.32,3.2-3.85,15-3.16,22.36.07.78-.18,1.54-.7,2.15-.6.69-1.51,1.12-2.5,1.18-1.9.11-3.55-1.14-3.76-2.84-1.06-8.68-4.04-19.17-6.77-20.94-.01,0-.02-.01-.03-.02-.07,0-.14.01-.21.02-2.32,2.52-2.61,15.05-1.43,25.45.18,1.59-.99,3.02-2.73,3.33-.14.03-.29.04-.44.05-.08,0-.16,0-.23,0ZM256.04,352.25c-.2,0-.39.01-.59.03-1.25.02-2.31.43-3.16,1.2-4.08,3.69-4.06,17.82-2.81,28.8.07.64.82,1.12,1.67,1.09.07,0,.14-.01.2-.02,0,0,0,0,0,0,.68-.12,1.16-.61,1.1-1.13-.73-6.38-1.75-23.7,2.17-27.25.13-.12.51-.43.97-.41.1,0,.21,0,.33-.02.43-.07.82.04,1.28.34,3.9,2.53,6.78,15.06,7.67,22.37.08.63.84,1.14,1.67,1.08.45-.03.85-.2,1.1-.49.12-.14.25-.36.22-.66-.48-5.19-.75-19.62,3.76-23.98.76-.73,1.58-1.1,2.52-1.14.02,0,.03,0,.05,0,1.46,0,3.17,2.46,4.58,6.59,1.46,4.28,2.42,9.58,3.19,13.84l.04.22c.27,1.49.5,2.78.73,3.85.14.65.96,1.11,1.79,1,.44-.06.81-.26,1.02-.55.1-.14.21-.38.15-.68-.23-1.1-.48-2.45-.76-4.03-2.23-12.31-4.6-22.5-10.85-22.5-.07,0-.13,0-.2,0-1.77.06-3.37.74-4.64,1.97-1.63,1.58-2.86,4.22-3.64,7.87-.09.43-.45.75-.89.79-.44.04-.85-.21-1.01-.61-1.38-3.32-2.94-5.55-4.61-6.63-.94-.61-1.99-.93-3.04-.93ZM255.53,356.54s.04,0,.05,0c-.02,0-.03,0-.05,0Z"/>
      </g>
      <g>
        <path class="cls-1" d="M301.33,373.61c-.09.03-.19.05-.29.07-1.33.27-2.64-.45-2.92-1.61l-6.27-25.77c-.28-1.16.56-2.32,1.9-2.59,1.33-.27,2.64.46,2.92,1.62l6.27,25.77c.26,1.07-.44,2.15-1.6,2.51Z"/>
        <path class="cls-1" d="M300.48,374.74c-1.57,0-2.98-.99-3.34-2.43l-6.27-25.77c-.19-.78-.05-1.59.39-2.28.49-.77,1.32-1.33,2.28-1.52,1.84-.37,3.68.68,4.09,2.36l6.27,25.77c.38,1.58-.59,3.17-2.27,3.7-.13.04-.27.08-.41.1-.25.05-.5.08-.74.08ZM294.3,344.66c-.12,0-.24.01-.35.04-.43.09-.79.32-.99.63-.1.16-.21.42-.13.74l6.27,25.77c.15.63.96,1.03,1.75.87.07-.01.13-.03.19-.05t0,0c.67-.21,1.07-.78.93-1.32l-6.27-25.77c-.13-.54-.73-.91-1.39-.91Z"/>
      </g>
      <g>
        <path class="cls-1" d="M319.07,367.66c-.06.02-.11.05-.17.07-1.26.47-2.65-.06-3.1-1.18l-9.25-22.76s-.01-.04-.02-.05c-.44-1.19,0-2.5,1.1-3.33,1.11-.83,2.6-.96,3.8-.33.03.02.06.03.09.05l19.67,11.56-7.52-20.55c-.41-1.13.28-2.4,1.55-2.83,1.27-.43,2.64.13,3.06,1.27l8.96,24.48c.43,1.19,0,2.5-1.12,3.33-1.12.83-2.6.96-3.79.33-.03-.02-.06-.03-.09-.05l-19.46-11.44,7.57,18.64c.43,1.06-.14,2.28-1.29,2.8Z"/>
        <path class="cls-1" d="M317.97,368.9c-1.35,0-2.6-.74-3.1-1.97l-9.25-22.76c-.63-1.7-.07-3.46,1.41-4.57,1.42-1.06,3.33-1.23,4.86-.42l.13.08,17.25,10.14-6.56-17.93c-.28-.76-.23-1.59.12-2.34.39-.82,1.14-1.47,2.05-1.78,1.78-.61,3.72.23,4.32,1.87l8.96,24.48c.59,1.62.02,3.37-1.46,4.47-1.42,1.06-3.33,1.22-4.85.41-.04-.02-.09-.05-.14-.08l-16.9-9.94,6.46,15.91c.63,1.55-.16,3.35-1.8,4.09,0,0,0,0,0,0-.07.03-.14.06-.22.09-.42.16-.86.23-1.28.23ZM319.07,367.66h0,0ZM309.8,340.68c-.55,0-1.1.18-1.57.53-.76.57-1.05,1.41-.77,2.18l9.26,22.79c.25.61,1.08.89,1.83.62l.11-.05c.65-.3.99-.96.77-1.51l-7.58-18.64c-.16-.4-.05-.85.27-1.13.33-.28.79-.32,1.16-.11l19.46,11.44c.9.48,1.96.38,2.77-.22.76-.57,1.06-1.4.77-2.18l-8.96-24.48c-.23-.61-1.05-.92-1.79-.66-.4.14-.73.41-.89.75-.09.18-.17.47-.05.79l7.52,20.55c.14.4.03.84-.3,1.11-.33.27-.78.31-1.15.09l-19.67-11.56c-.38-.21-.8-.3-1.21-.3Z"/>
      </g>
      <g>
        <path class="cls-1" d="M353.27,350.69c-.68.44-1.49.66-2.31.63-1.24-.05-2.3-.69-2.84-1.71,0-.01,0-.02-.02-.03l-12.75-25.11c-.84-1.57-.14-3.6,1.68-4.68,4.5-2.7,13.14-3.84,18.25,2.08,7.82,9.06,5.09,20.59-1.09,28.01-.27.32-.58.6-.93.82ZM339.64,322.22v.03s0-.02,0-.03ZM340.1,323.13l11.54,22.72c3.36-4.87,6.32-13.53-.11-20.98-3.09-3.58-8.33-3.2-11.44-1.75Z"/>
        <path class="cls-1" d="M351.13,352.32c-.07,0-.14,0-.21,0-1.59-.07-2.97-.91-3.68-2.24l-12.78-25.16c-1.1-2.06-.22-4.65,2.07-5.99,4.79-2.88,14.03-4.07,19.51,2.29,8.2,9.5,5.37,21.56-1.08,29.3-.33.4-.72.74-1.16,1.02h0c-.81.52-1.73.79-2.68.79ZM353.27,350.69h0,0ZM349,349.12s.04.07.05.1c.33.62,1.08,1.06,1.96,1.1.6.04,1.21-.14,1.73-.47h0c.26-.17.5-.37.69-.61,5.91-7.09,8.54-18.1,1.1-26.72-4.73-5.48-12.78-4.4-16.98-1.88-1.35.8-1.91,2.24-1.32,3.35l12.76,25.12ZM351.64,346.85s-.04,0-.07,0c-.35-.02-.66-.23-.83-.54l-11.54-22.72c-.12-.24-.14-.52-.05-.78.07-.19.19-.35.34-.47l-.75.35.23-.12-.23.11c-.23-.5-.02-1.11.48-1.34.5-.23,1.08-.03,1.32.47v.03s-.24.12-.24.12c3.81-1.51,8.96-1.23,11.98,2.27,6.35,7.35,4.25,16.29.17,22.2-.19.27-.5.43-.82.43ZM341.48,323.65l10.25,20.17c2.09-3.65,5.09-11.29-.96-18.3-2.51-2.91-6.61-2.78-9.29-1.88Z"/>
      </g>
    </g>
  </g>
</svg>