<?xml version="1.0" encoding="UTF-8"?>
<svg id="Layer_1" xmlns="http://www.w3.org/2000/svg" viewBox="0 0 259.94 241.52">
  <defs>
    <style>
      .cls-1 {
        fill: #fff;
      }

      .cls-2 {
        fill: #8aaceb;
      }

      .cls-3 {
        fill: #f4f4f4;
      }

      .cls-4 {
        fill: #13554b;
      }
    </style>
  </defs>
  <path class="cls-1" d="M252.67,44.02c-6.71-13.38-16.66-23.28-29.56-29.41-5.64-2.68-11.87-4.64-18.56-5.8-12.64-2.19-25.68-1.69-38.77,1.5-12.3,3.01-22.98,7.22-32.44,12.78-3.41,2.01-7.71,1.44-10.59-1.27C111.13,10.84,96.83,3.89,80.05,1.07c-6.29-1.05-14.68-1.95-23.86.48-10.53,2.79-20.5,8.09-30.47,16.22C13.3,27.88,5.28,41,1.88,56.77c-8.22,37.9,12.66,77.6,22.03,92.92,6.14,10.02,13.15,20.16,22.75,32.85,6.33,8.37,13.27,15.84,19.99,23.07l1.83,1.97c1.47,1.59,2.94,3.19,4.43,4.82,3.72,4.03,7.09,7.66,10.69,11.27,3.84,3.83,8.09,7.56,12.66,11.09,6.51,5.01,13.89,7.25,21.22,6.68,4.91-.38,9.81-2.03,14.4-4.95l1.86-1.16c1.24-.78,2.48-1.57,3.72-2.38,13.6-8.89,25.6-18.78,35.57-27.29,3.35-2.87,6.35-5.52,9.1-8.03,10.59-9.56,20.93-19.86,30.73-30.62.67-.72,1.33-1.45,2.02-2.21,4.84-5.39,9.25-10.97,13.52-16.36l1.8-2.27c10.06-12.66,18.06-26.89,23.77-42.28,4.54-12.21,6.47-23.84,5.89-35.56-.02-.31-.04-.63-.07-.94-.82-7.78-3.21-15.64-7.09-23.35Z"/>
  <g>
    <path class="cls-2" d="M233.01,54.71c4.55,9.09,5.94,19.43,4.35,29.48-.79,4.98-2.14,9.85-3.92,14.65-4.84,13.06-11.53,25.05-20.22,35.98-4.58,5.77-9.09,11.58-14.01,17.05-.6.66-1.19,1.32-1.79,1.96-8.99,9.88-18.41,19.29-28.31,28.22-2.76,2.52-5.56,4.98-8.39,7.41-10.36,8.85-20.92,17.37-32.32,24.83-1.09.71-2.19,1.41-3.29,2.11-.61.38-1.22.75-1.83,1.14-5.36,3.44-10.64,2.96-15.52-.8-3.68-2.84-7.24-5.92-10.53-9.22-3.33-3.34-6.55-6.81-9.75-10.29-1.41-1.54-2.83-3.08-4.24-4.62-6.84-7.37-13.75-14.67-19.83-22.7-7.36-9.74-14.46-19.66-20.84-30.08-12.61-20.62-24.59-51.33-19.04-76.92,2.29-10.62,7.62-20.37,17.18-28.15,25.94-21.12,61.05-13.68,79.93,12.94.84,1.17,1.57,2.41,2.5,3.5,1.3,1.51,2.69,1.66,4.23.34,2.72-2.34,5.57-4.51,8.5-6.6,9.8-6.98,20.71-11.29,32.35-14.14,10.09-2.46,20.3-2.97,30.44-1.21,4.89.85,9.42,2.25,13.55,4.21,8.85,4.21,15.87,11.04,20.75,20.77.03.05.05.11.08.16Z"/>
    <path class="cls-4" d="M127.72,150.02c-2.31,4.3-5.71,7.33-10.2,9.15-2.32.94-4.72,1.71-7.07,2.58-1.17.43-2.33.88-3.49,1.39-2.07.92-3.6,2.44-4.2,4.64-1.6,5.94-4.9,10.61-9.69,14.49-4.69,3.78-6.23,8.98-5.59,14.95-1.41-1.54-2.83-3.08-4.24-4.62-6.84-7.37-13.75-14.67-19.83-22.7-7.36-9.74-14.46-19.66-20.84-30.08-12.61-20.62-24.59-51.33-19.04-76.92,1.32-1.07,2.67-2.1,4.06-3.1,6.3-4.53,13.09-8.13,20.57-10.36,7.53-2.24,15.1-3.01,22.82-1.14,10.16,2.46,16.9,9.73,17.75,20.4l.32,4.14c.06,2.84.24,6.05.04,9.3-.28,4.49.18,8.95,1.57,13.29,1.47,4.62,4.2,7.86,9.01,9.13,3.64.96,7.27,1.94,10.92,2.88,4.79,1.24,8.99,3.58,12.62,6.93,4.52,4.16,7.13,9.35,8.16,15.39,1.23,7.21-.22,13.9-3.65,20.27Z"/>
    <path class="cls-4" d="M233.01,54.71c4.55,9.09,5.94,19.43,4.35,29.48-.79,4.98-2.14,9.85-3.92,14.65-4.84,13.06-11.53,25.05-20.22,35.98-4.58,5.77-9.09,11.58-14.01,17.05-.6.66-1.19,1.32-1.79,1.96.41-2.22.34-4.42.21-6.65-.18-3.13-1.74-4.96-4.79-5.64-1.39-.31-2.78-.76-4.1-1.27-4.92-1.9-7.82-5.53-8.89-10.66-.52-2.46-1-4.92-1.47-7.4-.5-2.65-1.87-4.61-4.38-5.72-1.47-.65-2.91-1.39-4.4-2.02-2.02-.86-3.74-2.12-5.3-3.63-2-1.92-3.27-4.23-3.76-6.98-.91-5.21-.73-10.35.71-15.46,1.27-4.53,3.14-8.81,5.46-12.85,3.57-6.23,7.16-12.46,11.04-18.49,4.94-7.67,11.33-13.94,19.37-18.33,4.89-2.68,9.91-4.33,15.08-4.94,8.85,4.21,15.87,11.04,20.75,20.77.03.05.05.11.08.16Z"/>
    <path class="cls-4" d="M169.11,182.05c-2.76,2.52-5.56,4.98-8.39,7.41-10.36,8.85-20.92,17.37-32.32,24.83.05-1.74.11-3.49.46-5.19.83-4.05-.05-7.8-1.47-11.56-1.92-5.12-1.63-10.15.64-15.15,2.69-5.91,6.71-10.54,12.45-13.65,2.4-1.3,4.91-2.19,7.43-2.23,9.24-1.15,16.43,4.93,19.26,10.55.84,1.67,1.48,3.33,1.92,5Z"/>
    <path class="cls-4" d="M127.96,106.5c-3.02.11-7.07-1.15-10.01-4.7-2.54-3.07-5.44-5.64-8.59-8.05-5.64-4.33-6.9-12.52-3.15-18.38,1.74-2.71,4.04-3.97,7.27-3.27,1.22.26,2.46.47,3.67.77,3.57.87,6.71-.19,9.68-2.09,1.35-.87,2.64-1.87,4.08-2.57,6.89-3.39,12.44.29,12,7.95-.06,1.07-.22,2.16-.54,3.17-1.39,4.48-2.08,9.04-2.27,13.73-.11,2.67-.9,5.27-2.12,7.72-1.76,3.54-4.57,5.4-10.02,5.72Z"/>
    <path class="cls-3" d="M96.87,98.17c-.31-2.95-.04-5.86,1.14-8.47,2.62-5.82,8.27-8.31,14.24-6.09,3.07,1.14,5.63,3.09,8.03,5.31,2.49,2.31,2.71,2.33,5.4.11,4.45-3.68,9.42-5.85,15.25-5.86,7.32-.02,10.23,6.27,9.85,12.89-.26,4.45-1.51,9.51-3.91,13.31-4.71,7.45-10.09,14.42-17.31,19.71-1.45,1.06-2.93,2.07-4.46,3-2.26,1.37-4.44,1.14-6.45-.61-6.64-5.77-12.67-11.95-17.04-19.73-2.15-3.83-4.21-8.74-4.72-13.57Z"/>
  </g>
</svg>