<?xml version="1.0" encoding="UTF-8"?>
<svg id="Layer_1" xmlns="http://www.w3.org/2000/svg" viewBox="0 0 392.36 611.73">
  <defs>
    <style>
      .cls-1 {
        fill: #fff;
        fill-rule: evenodd;
      }
    </style>
  </defs>
  <path class="cls-1" d="M307.44,125.5c.23,0,.46.03.69.09,64.84,17.04,57.23,75.47,57.23,75.47-.19,1.46-1.52,2.49-2.98,2.3-1.46-.19-2.49-1.52-2.3-2.98,0,0,2.45-19.58-8.77-38.59-8.3-5.11-22.69,3.15-22.69,3.15l1.32-4.88c-29,14.35-45.73,1.52-55.28-10.21-9.55-11.72-16.29-7.17-16.29-7.17,0,0,13.02-34.78,52.35-34.78,39.33,0,43.81,42.63,43.81,42.63-11.38-25.74-44.31-25.13-47.1-25.03h0ZM307.25,125.51h0s0,0,0,0h0Z"/>
  <path class="cls-1" d="M370.32,226.2s-19.61-42.36-64.43-23.51l-.32-4.05s-14.08,3.98-17.68,31.6c0,0,15.03-19.4,39.95-19.67,0,0-27.97,7.22-39.25,28.72,0,0,15.03-4.68,20.55,5.17l.79-5.43s12.28,8.35,25.83,7.48c13.55-.87,20.33-21.27,34.54-20.31h0Z"/>
  <path class="cls-1" d="M252.44,179.21s-.25,6.74-5.57,11.01c-5.32,4.27-11.82,14.7-4.08,29.81,5.35,10.44,3.46,20.36,3.46,20.36,0,0,17.62-17.19,16.07-40.74,0,0,9.35,17.65-7.48,40.07,0,0,22.91-3.89,21.02-29.48-1.9-25.59-23.42-31.02-23.42-31.02h0Z"/>
  <path class="cls-1" d="M272.61,301.59c-3.01,4.97-1,12.07,5.3,16.85-11.32,11.44-22.68,22.98-33.85,34.83l134.22,162.33.75.96c13.39,18.53,15.41,35.98,11.67,50.53-3.82,14.87-14.1,27.25-27.56,35.17-26.25,15.46-63.18,12.98-81.41-14.91l-123.62-156.88-38.99,43.09v79.35c0,37.76-29.49,57.4-59.49,57.51-30.04.11-59.63-19.25-59.63-57.51V199.77c0-76.78,119.12-79.49,119.12,0v110.75l46.66-48.12c3.54,7.58,7.94,12.38,7.94,12.38l-5.67,2.85c19.5,9.63,17.62,33.78,18.03,33.32,2.52-2.83,2.9-6.82,3.13-9.01.05-.52.12-1.02.2-1.52.48-4.53.94-17.89-9.39-22.08l6.33-1.75s-11.73-13.32-12.71-29.52c-.99-16.2,22.2-27.27,18.95-43.98,0,0,46.58,14.87,39.66,62.67,6.55-7.45,20.97-19.73,45.54-21.12,15.1-.85,26.09,20.5,41.56,16.92,0,0-10.44,37.88-46.73,40.04h0ZM257.16,325.4s-7.85-3.11-13.75-1.57c-5.85,1.53-13.64,4.16-22.75-7.83-6.29-8.28-14.78-9.13-14.78-9.13,0,0,20.5-7.49,38.74,2.79,0,0-10.52-14.25-34.9-9.4,0,0,11.91-16.82,31.63-5.48,19.73,11.34,15.81,30.63,15.81,30.63h0ZM203.87,294.86s2-3.43,3.77-9.22c1.29-4.19,2.5-9.54,2.85-15.57.48-8.29-.53-17.67-5.26-26.76,2.59,7.33,3.01,14.18,2.37,20.37-.65,6.27-2.52,11.59-4.31,15.82-2.29,5.4-4.6,8.72-4.6,8.72-1.09,1.76-.81,4.68.62,6.52,1.43,1.83,3.48,1.89,4.56.13h0ZM230.82,283.44s3.79.97,10.09,1.28c4.56.22,10.35.14,16.82-.8,8.89-1.3,18.85-4.06,28.27-9.88-7.68,3.67-14.97,5.42-21.62,6.15-6.75.74-12.55.26-17.18-.38-5.92-.82-9.6-2.07-9.6-2.07-1.95-.55-5.05.28-6.93,1.86-1.87,1.58-1.81,3.3.15,3.85h0Z"/>
  <path class="cls-1" d="M273.72,75.12s4.46,2.23,5.7,7.12c1.24,4.89,6.26,12.46,18.81,11.88,8.66-.4,14.76,3.92,14.76,3.92,0,0-6.17-17.12-22.49-23.3,0,0,14.74-.88,24.67,17.31,0,0,4.4-16.61-13.4-23.18-17.8-6.57-28.05,6.25-28.05,6.25h0Z"/>
  <path class="cls-1" d="M282.27.22s1.71,3.94-.17,7.86c-1.89,3.92-2.75,11.7,5.85,18.25,5.94,4.53,7.58,10.75,7.58,10.75,0,0,5.4-14.72-1.96-27.84,0,0,10.23,7.58,6.72,25.09,0,0,12.1-8.54,3.97-22.72C296.13-2.57,282.27.22,282.27.22h0Z"/>
  <path class="cls-1" d="M360.62,89.93s.84,6.51-3.58,11.45c-4.43,4.94-8.99,15.99.85,29.25,6.8,9.16,6.57,18.98,6.57,18.98,0,0,14.15-19.31,8.91-41.66,0,0,11.79,15.44-.76,39.64,0,0,21.36-7.4,15.45-31.65s-27.43-26.02-27.43-26.02h0Z"/>
</svg>