<?xml version="1.0" encoding="UTF-8"?>
<svg id="Layer_1" xmlns="http://www.w3.org/2000/svg" viewBox="0 0 336.83 517.56">
  <defs>
    <style>
      .cls-1 {
        fill: #fff;
        fill-rule: evenodd;
      }
    </style>
  </defs>
  <path class="cls-1" d="M114.41,83.01c-.17-.16-.36-.29-.57-.4-59.29-31.28-93.2,16.91-93.2,16.91-.85,1.2-.56,2.86.64,3.71,1.2.85,2.86.56,3.71-.64,0,0,11.44-16.08,32.55-22.51,9.57,1.84,14.58,17.66,14.58,17.66l2.33-4.49c11.67,30.18,32.66,32.04,47.63,29.85,14.96-2.18,16.85,5.73,16.85,5.73,0,0,13.93-34.43-15.05-61.02-28.98-26.59-61.1,1.79-61.1,1.79,25.79-11.28,49.64,11.44,51.63,13.4h0ZM114.55,83.14h0s0,0,0,0h0Z"/>
  <path class="cls-1" d="M0,114.69s43.09-17.95,63.37,26.24l2.97-2.77s7.68,12.45-8.34,35.23c0,0,2.04-24.46-16.14-41.5,0,0,15.73,24.23,9.5,47.7,0,0-7.91-13.61-18.63-10.08l3.09-4.54s-14.69-2.15-24.09-11.95c-9.4-9.8-.6-29.42-11.72-38.32h0Z"/>
  <path class="cls-1" d="M118.62,159.76s-4.38,5.13-3.34,11.88c1.04,6.74-1.23,18.82-17.15,24.72-11,4.08-16.31,12.67-16.31,12.67,0,0-1.36-24.58,15.7-40.89,0,0-18.82,6.69-21.58,34.58,0,0-14.25-18.36,4.45-35.93,18.7-17.57,38.23-7.02,38.23-7.02h0Z"/>
  <path class="cls-1" d="M21.02,236.3c-25.27-26.12-7.36-61.09-7.36-61.09,8.98,13.1,31.51,4.79,42.06,15.63,17.17,17.64,19.48,36.44,19.28,46.35,27.22-39.91,71.59-19.36,71.59-19.36-13.7,10.11-4.09,33.95-15.78,45.22-11.68,11.27-29.33,13.16-29.33,13.16l3.48,5.57c-10.44-3.89-19.13,6.27-21.84,9.92-.28.42-.57.84-.88,1.26-1.31,1.77-3.73,4.96-3.79,8.75,0,.62,14.93-18.44,35.81-12.36l-2.25-5.93s4.6-.4,10.67-2.44v118.08h149.45c43.39,0,64.48,30.14,64.7,59.11.22,29.04-20.33,59.4-64.7,59.4H67.45c-32.22,0-57.7-23.33-57.7-56.47v-215.99c5.92-.66,10.33-4.11,11.28-8.8h0ZM16.31,264.29s7.89,3.02,11.19,8.14c3.28,5.08,7.24,12.29,22.06,9.61,10.24-1.85,17.07,3.27,17.07,3.27,0,0-10.05-19.38-30.43-24.14,0,0,17.39-3.38,32.08,16.67,0,0,2.6-20.45-19.6-25.43-22.2-4.98-32.36,11.88-32.36,11.88h0ZM76.22,277.81s.85-3.88,3.45-9.34c1.89-3.96,4.61-8.72,8.43-13.4,5.25-6.43,12.34-12.66,21.97-16.16-6.87,3.65-11.8,8.42-15.51,13.4-3.77,5.06-5.98,10.24-7.52,14.57-1.96,5.53-2.5,9.53-2.5,9.53-.39,2.03-2.57,4-4.87,4.38-2.29.38-3.84-.96-3.45-2.99h0ZM64.08,251.18s-3.45-1.85-8.3-5.88c-3.51-2.92-7.72-6.89-11.85-11.96-5.68-6.97-11.15-15.74-14.15-26.4,3.17,7.89,7.37,14.11,11.77,19.15,4.47,5.11,9.07,8.68,12.91,11.33,4.91,3.4,8.48,4.97,8.48,4.97,1.81.91,3.53,3.62,3.85,6.05.31,2.43-.9,3.65-2.71,2.74h0Z"/>
  <path class="cls-1" d="M173.33,68.68s-4.8-1.37-9.02,1.39c-4.22,2.77-13.04,4.94-21.89-3.96-6.11-6.15-13.52-7.09-13.52-7.09,0,0,16.12-8.45,32.32-1.97,0,0-10.27-10.61-29.88-3.92,0,0,7.99-15.22,25.54-8.02,17.55,7.2,16.44,23.57,16.44,23.57h0Z"/>
  <path class="cls-1" d="M217.66,7.72s-3.93,1.75-5.18,5.91c-1.26,4.16-5.88,10.48-16.65,9.49-7.44-.68-12.86,2.79-12.86,2.79,0,0,5.98-14.5,20.27-19.18,0,0-12.66-1.33-21.92,13.94,0,0-3.14-14.47,12.44-19.43,15.58-4.96,23.91,6.48,23.91,6.48h0Z"/>
  <path class="cls-1" d="M99.28,20.84s-5.02,4.23-5.1,10.86c-.08,6.64-4.19,17.86-20.41,20.97-11.2,2.15-17.67,9.54-17.67,9.54,0,0,2.63-23.8,21.61-36.72,0,0-19.13,3.41-26.24,29.73,0,0-10.73-19.9,10.02-33.76,20.75-13.87,37.8-.62,37.8-.62h0Z"/>
</svg>