<?xml version="1.0" encoding="UTF-8"?>
<svg id="Layer_1" xmlns="http://www.w3.org/2000/svg" viewBox="0 0 243.43 329.92">
  <defs>
    <style>
      .cls-1 {
        fill: #888380;
      }

      .cls-2 {
        fill: #1e1316;
      }

      .cls-3 {
        fill: #fff;
      }

      .cls-4 {
        fill: #599133;
      }

      .cls-5 {
        fill: #e7d5d7;
      }

      .cls-6 {
        fill: #e8b541;
      }
    </style>
  </defs>
  <g>
    <path class="cls-3" d="M239.86,33.78c-3.58-4.89-9.07-7.81-15.2-8.15-.8-.04-1.43-.7-1.48-1.5-.08-1.31-.18-3.23-.24-4.57-.31-7.23-4.08-13.58-10.08-17-5.99-3.41-13.36-3.41-19.72,0-5.32,2.86-8.58,7.09-10.57,10.03-10.61,15.67-13.42,32.84-14.68,46.04-1.04,10.9,6.52,12.3,15,15.3,8.45,2.98,14.45,10.76,24.1,5.44,1.98-1.1,3.99-2.32,6.14-3.75,2.07-1.37,4.37-2.69,6.81-4.08,3.95-2.25,8.42-4.81,12.69-8.12,2.05-1.59,5.48-4.25,8-8.69,3.99-7.02,3.7-14.85-.77-20.95Z"/>
    <path class="cls-6" d="M207.95,20.2c.1,2.25-.73,4.21-1.81,6.13-4.24,7.52-8.51,15.03-12.65,22.61-1.83,3.35-3.39,6.85-5.09,10.26-.59,1.19-1.12,2.44-1.92,3.48-1.11,1.45-2.87,1.07-3.45-.67-.2-.61-.28-1.31-.22-1.96,1.32-13.87,4.18-27.26,12.17-39.05,1.41-2.08,2.99-4.02,5.25-5.23,3.81-2.05,7.54.12,7.72,4.43Z"/>
    <path class="cls-6" d="M223.38,40.59c1.84-.01,3.32.61,4.38,2.06,1.16,1.58.69,3.15-.17,4.67-1.01,1.77-2.56,3.01-4.15,4.24-5.8,4.5-12.52,7.52-18.61,11.56-1.66,1.1-3.35,2.15-5.09,3.11-.76.42-1.66.3-2.25-.45-.44-.56-.39-1.25-.14-1.89.18-.46.4-.92.69-1.32,4.96-6.88,9.98-13.73,17.24-18.44,2.5-1.62,5.1-3.15,8.1-3.54Z"/>
  </g>
  <g>
    <path class="cls-3" d="M78.75,65.29c1.72-8.01-.4-16.73-2.93-27.68-1.08-4.69-2.96-8.85-5.59-12.38-4.14-5.55-9.15-7.68-12.61-8.48-.26-.06-.53-.11-.79-.16-9.57-1.67-18.82,3.97-22.15,13.01-.81,2.2-1.2,4.47-1.25,6.81-.06,2.9.21,5.8.64,8.67.03.23.07.46.11.7.11.66-.09.66-.13.65-.1,0-.2-.02-.3-.02-.22-.02-.44-.03-.66-.05-.08,0-.17-.01-.25-.02-1.38-.1-3.28-.24-5.52-.04-8.2.73-14.8,5.72-17.64,13.33-1.87,5.02-1.49,10.56.75,15.38.51,1.1.19,2.42-.85,3.05C2.95,82.05-.9,89.37.18,97.05c1.17,8.3,7.69,14.76,16.43,16.36.37.07.74.13,1.11.18.78.1,2.59.35,4.85.06,4.97-.64,9.93-1.27,14.89-1.96,10-1.39,15.64-10.9,20.83-18.49,2.7-3.94,5.44-7.7,9.09-10.79,6.76-5.73,10.09-11.24,11.36-17.11Z"/>
    <path class="cls-6" d="M54.23,31.37c1.71.4,2.95,1.47,3.97,2.83,1.51,2.03,2.44,4.34,3,6.79,2.02,8.75,3.22,17.64,4.36,26.54.08.66.12,1.33.08,1.99-.06,1.07-.45,2.02-1.62,2.19-.91.13-1.5-.57-1.92-1.32-2.19-3.91-4.49-7.76-6.54-11.75-2.57-5.01-5.38-9.94-6.64-15.53-.56-2.45-1.01-4.91-.45-7.39.68-3.03,3.13-4.8,5.75-4.34Z"/>
    <path class="cls-6" d="M33.08,61.39c2.85.56,5.35,1.83,7.73,3.38,4.36,2.84,7.87,6.59,11.24,10.49.66.77,1.14,1.73.51,2.72-.62.97-1.65,1.05-2.66.77-6.86-1.91-13.72-3.81-20.55-5.82-1.24-.36-2.44-1.09-3.47-1.89-2.03-1.57-2.9-4.18-2.16-6.17.84-2.25,2.61-3.42,4.92-3.63,1.47-.13,2.96.09,4.45.15Z"/>
    <path class="cls-6" d="M28.97,90.16c2.46.5,4.84,1.14,6.95,2.53.84.55,1.62,1.22,1.53,2.36-.09,1.22-1.06,1.64-2.06,1.78-4.91.68-9.82,1.31-14.74,1.94-.32.04-.66,0-.99-.05-2.63-.35-4.36-1.76-4.64-3.76-.3-2.1,1.31-4.16,4.1-4.82,1.59-.38,3.27-.47,4.92-.45,1.64.01,3.28.31,4.92.48Z"/>
  </g>
  <g>
    <path class="cls-3" d="M208.36,230.36c11.95-14.73,18.76-31.73,20.25-50.52,3.94-28.81-9.47-59.64-30.69-78.82-21.42-19.36-46.64-27.04-74.94-22.81-20.21,3.02-38.31,12.92-53.79,29.42-19.16,20.42-27.56,45.48-24.97,74.47,1.82,20.41,9.93,38.01,24.08,52.31,7.77,7.84,14.99,13.55,22.72,17.94.27.16.54.31.81.47,4.2,2.5,6.53,7.13,6.28,12.01-.09,1.74-.01,3.52.25,5.31.54,3.76,1.39,8.21,3.51,12.81.74,1.59,1.18,3.17,1.39,4.97,1.69,14.45,10.38,20.52,15.41,22.85,1.96.91,3.54,2.33,5.12,4.61,5.75,8.33,14.2,13.23,24.49,14.24.47.05.95.08,1.43.11,5.99.4,10.95.16,15.6-.76,19.41-3.83,27.29-15.93,30.49-25.4.36-1.06.85-1.83,1.71-2.64,7.31-6.96,10.86-16.41,9.97-26.6-.07-.76-.04-1.46.09-2.23.5-3.04.98-7.67-.57-12.76-.26-.84-.14-2.9-.1-3.68.21-3.82-.37-7.38-1.6-10.53-1.58-4.03-1.3-8.59,1.14-12.16.6-.88,1.25-1.75,1.95-2.61Z"/>
    <g>
      <path class="cls-5" d="M199.27,181.49c.18-1.82.27-3.66.56-5.46.47-2.94-.03-5.47-2-7.9-1.92-2.36-2.62-5.27-2.54-8.41.07-2.98-.18-5.97-.45-8.95-.41-4.53-1.92-8.67-4.29-12.62-2.86-4.78-6.41-8.89-10.56-12.51-7.12-6.21-15.18-10.79-24.31-13.28-3.09-.84-6.07-1.77-8.7-3.57-2.47-1.69-5.21-2.16-8.08-2.01-3.65.19-7.32.31-10.92.88-7.24,1.15-14.36,2.84-20.75,6.7-6.88,4.15-13.07,9.14-18.42,15.13-11.48,12.83-17.49,27.68-16.26,45.07,1.14,16.08,8.08,29.75,18.5,41.62,6.47,7.37,14.06,13.66,22.47,18.84,2.18,1.35,4.17,3.08,5.16,5.3,2.16,4.82,4.45,9.69,3.95,15.24-.16,1.82-.37,3.61.42,5.39,2.16,4.86,4.27,9.74,6.32,14.65.71,1.69,1.8,2.81,3.64,2.99,3.45.34,5.72,2.4,7.72,4.99,1.53,1.97,3.07,3.91,4.29,6.11,1.52,2.76,3.29,5.39,4.91,8.1.8,1.33,1.73,2.49,3.32,2.81,2.12.44,4.27.78,6.43.38,2.63-.49,4.55-1.83,5.51-4.48.63-1.74,1.01-3.5,1.19-5.33.26-2.65.55-5.29.83-7.94.26-2.43,1.38-4.38,3.16-6.04,2.25-2.09,4.72-3.73,7.87-3.9,2.19-.12,3.18-1.43,3.89-3.28.85-2.22.7-4.21-.87-6.05-1.83-2.14-2.57-4.74-2.32-7.43.28-3.08-.59-5.51-2.73-7.65-2.53-2.54-3.2-5.63-2.82-9.18.34-3.09,1.18-5.81,3.35-8.11,1.25-1.33,2.29-2.85,3.46-4.26.98-1.18,1.76-2.45,1.84-4.01.19-3.65,2.16-6.18,4.98-8.23,1.49-1.09,2.73-2.37,3.51-4.12,4.22-9.44,8.18-18.94,8.75-29.46Z"/>
      <path class="cls-1" d="M150.66,314.76c-5.87-.36-10.92-2.68-14.54-7.91-2.87-4.15-6.42-7.51-11.15-9.7-4.49-2.08-6.28-6.4-6.82-10.98-.4-3.38-1.26-6.48-2.67-9.53-1.26-2.73-1.85-5.69-2.28-8.66-.85-5.89,2.66-10.99,8.48-12.11,16.18-3.11,32.44-5.71,48.81-7.55,4.13-.47,8.24-1.08,12.37-1.63,5.92-.78,9.36,2.2,9.04,8.15-.16,3.02-.16,5.94.73,8.87.59,1.92.44,3.96.11,5.95-.33,1.98-.4,3.94-.23,5.96.49,5.63-1.26,10.53-5.37,14.44-2.6,2.47-4.43,5.31-5.58,8.71-3.1,9.19-10.14,13.7-19.18,15.48-3.75.74-7.61.78-11.72.5Z"/>
      <path class="cls-6" d="M213.69,178.21c-1.22,16.56-7.11,30.52-16.98,42.7-6.43,7.93-10.02,16.76-10.96,26.8-.03.33-.1.66-.1.99-.16,11.54-7.24,17.99-16.32,22.37-10.71,5.17-22.27,6.56-34.1,4.81-4.02-.59-7.67-2.12-10.79-4.83-1.15-.99-2.15-2.05-2.83-3.43-1.18-2.38-2.66-4.64-3.63-7.1-3.79-9.61-10.77-16.24-19.54-21.22-7.3-4.15-13.59-9.51-19.48-15.46-11.86-11.98-18.31-26.42-19.8-43.09-2.14-23.96,4.46-45.28,20.97-62.87,12.21-13.01,27.03-22.15,45.07-24.85,23.86-3.57,44.84,2.99,62.67,19.1,14.63,13.22,23.03,29.9,25.7,49.43.79,5.79.86,11.61.13,16.64Z"/>
      <path class="cls-4" d="M142.27,191.75c1.02-2.87,1.63-4.55,2.21-6.24,1.76-5.07,4.14-9.81,7.47-14.04,2.3-2.91,4.99-5.36,8.39-6.93,7.29-3.37,14.54-.91,18.13,6.29,2.8,5.61,2.91,11.55,1.6,17.55-1.32,6.07-3.72,11.72-6.79,17.1-4.38,7.69-9.62,14.77-15.09,21.71-.93,1.18-1.81,2.4-2.85,3.47-1.81,1.85-2.16,3.93-1.64,6.42,1.73,8.31,2.84,16.73,3.9,25.15,1.21,9.58,2.03,19.19,2.35,28.85.08,2.34.09,4.68-.51,6.95-.67,2.52-2.49,3.92-4.62,3.74-2.13-.18-3.74-1.84-3.91-4.46-.3-4.65-.28-9.32-.68-13.95-1.61-18.76-4.74-37.29-8.59-55.71-.55-2.63-1.69-4.62-3.97-6.01-3.12-1.91-6.17-3.94-9.32-5.8-6.01-3.56-12.2-6.83-17.94-10.84-6.84-4.78-13.37-9.91-18.65-16.46-4.49-5.58-7.34-11.87-8.16-19.01-.49-4.19-.04-8.31,1.52-12.26,3.88-9.83,12.93-13.77,22.75-9.92,4.89,1.92,8.99,5.02,12.71,8.65,5.52,5.39,10.03,11.54,13.73,18.31,2.16,3.95,4,8.04,5.66,12.22.54,1.37,1.18,2.7,2.3,5.23Z"/>
      <path class="cls-1" d="M144.79,301.95c-6.08-.56-11.78-2.36-17.18-5.05-5.17-2.57-8.75-6.33-9.42-12.54-.46-4.28-1.74-8.47-2.61-12.7-.51-2.48-.64-4.98.55-7.32.85-1.67,2.59-2.1,3.61-.71,5.64,7.69,14,8.54,22.37,8.62,10.96.1,21.46-2.32,31.17-7.66,4.9-2.69,9.08-6.08,11.77-11.15,1.5-2.82,3.44-2.76,5.13-.08.91,1.45,1.22,3.1,1.36,4.76.47,5.47.01,10.52.46,15.99.45,5.54-.67,10.43-4.78,14.18-12.1,11.03-26.56,14.51-42.44,13.65Z"/>
      <path class="cls-2" d="M135.5,281.05c-4.51-.52-8.85-1.58-12.97-3.45-3.09-1.41-5.64-3.49-7.29-6.53-.55-1.02-1.07-2.07-1-3.29.05-.87.3-1.63,1.25-1.9.71-.2,1.34.07,1.82.53.35.33.6.8.79,1.25,1.86,4.43,5.63,6.28,9.93,7.52,5.68,1.64,11.49,1.8,17.29,1.43,6.63-.42,13.23-1.34,19.58-3.39,8.65-2.79,16.71-6.56,21.91-14.6.35-.54.83-1.05,1.36-1.41.74-.51,1.58-.47,2.32.07.75.55,1.07,1.4.69,2.19-.73,1.48-1.54,2.95-2.52,4.27-3.17,4.21-7.5,7-12.05,9.47-9.71,5.26-20.31,7.03-31.15,7.74-3.31.21-6.63.08-9.95.1Z"/>
      <path class="cls-2" d="M134.61,294.03c-3.13-.35-6.31-.46-9.19-1.96-1.02-.53-2.04-1.14-2.86-1.92-.58-.55-.78-1.44-.31-2.29.47-.84,1.2-1.08,2.09-.99.33.03.68.07.96.23,5.98,3.36,12.49,3.02,18.95,2.59,11.34-.76,22.36-2.86,32.51-8.36,4.25-2.3,8.44-4.64,11.4-8.64.38-.51.89-.99,1.44-1.31,1.07-.6,2.45.3,2.49,1.54.04,1.07-.52,1.91-1.11,2.7-2,2.7-4.56,4.8-7.37,6.61-11.45,7.35-24.11,10.82-37.57,11.78-3.81.27-7.62.44-11.43,0Z"/>
      <path class="cls-2" d="M141.54,214.22c-.05.78-.47,1.3-1.07,1.61-.81.42-1.71.35-2.28-.34-.74-.88-1.36-1.88-1.91-2.89-8.36-15.59-17.91-30.36-29.77-43.56-1.04-1.16-2.75-2.33-1.42-4.25.84-1.22,2.33-.68,4.47,1.63,12.38,13.41,22.42,28.44,30.87,44.58.38.73.7,1.51,1,2.28.11.3.09.65.12.93Z"/>
      <path class="cls-2" d="M148.12,220.3c2.37-14.6,7.43-28.27,14.32-41.3.61-1.16,1.42-2.24,2.28-3.25.55-.65,1.41-.92,2.25-.46,1.09.6,1.07,1.57.71,2.59-.17.47-.41.91-.66,1.34-7.39,13.2-11.98,27.38-14.72,42.2-.15.82-.3,1.64-.48,2.45-.3,1.32-1.12,2.01-2.49,1.91-1.6-.12-1.75-1.31-1.66-2.53.07-.99.29-1.97.45-2.96Z"/>
      <path class="cls-2" d="M144.65,306.38c-1.4-.27-3.71-.59-5.96-1.17-1.43-.37-2.8-1.04-4.13-1.71-.94-.47-1.57-1.33-1.21-2.44.38-1.17,1.39-1.29,2.44-1.1.49.09.95.28,1.43.43,14.06,4.48,27.19,1.8,39.74-5.21,1.15-.64,2.24-1.41,3.45-1.93.79-.34,1.65-.02,2.19.73.56.78.4,1.64-.11,2.31-1.23,1.62-2.98,2.65-4.72,3.6-10.07,5.47-20.82,7.61-33.13,6.49Z"/>
    </g>
  </g>
</svg>