<?xml version="1.0" encoding="UTF-8"?>
<svg id="Layer_1" xmlns="http://www.w3.org/2000/svg" viewBox="0 0 1001.13 762.68">
  <defs>
    <style>
      .cls-1 {
        fill: #1e1316;
      }

      .cls-2 {
        fill: #025246;
      }

      .cls-3 {
        fill: #fff;
      }

      .cls-4 {
        fill: #599133;
      }

      .cls-5 {
        fill: #a84c54;
      }

      .cls-6 {
        fill: #8aaceb;
      }

      .cls-7 {
        fill: #e8b541;
      }

      .cls-8 {
        fill: #ff896b;
      }

      .cls-9 {
        fill: #8a48a1;
      }

      .cls-10 {
        fill: #b34529;
      }
    </style>
  </defs>
  <g>
    <path class="cls-3" d="M89.83,409.35c-3.38-7.5-9.63-12.67-17.22-12.73-6.68-.06-11.37,2.52-14.41,5.12-3.22,2.77-7.73,3.45-11.71,1.97-6.28-2.33-13.11-3.5-20.47-3.5h-.17c-7.22.02-13.73,2.58-18.83,7.41-5.06,4.79-7.58,11.25-6.92,17.72.66,6.48,4.44,12.31,10.37,15.99,4.06,2.52,8.26,3.65,11.06,4.29,2.38.54,4.76,1.05,7.14,1.57,4.39.95,8.53,1.85,12.67,2.88,6.44,1.61,10.45,4.2,12.98,8.4,3.07,5.1,8.04,8.06,13.43,8.06.31,0,.63-.01.94-.03,5.73-.37,10.66-4.01,13.19-9.74l.71-1.62c3.7-8.38,7.53-17.06,9.13-27.1.73-4.57,1.33-11.49-1.91-18.68Z"/>
    <g>
      <path class="cls-4" d="M59.59,426.22c1.02-1,.8-2.35,1.01-3.56.58-3.41,1.42-6.72,3.32-9.66,1.82-2.81,4.23-4.92,7.77-4.65,3.63.28,5.94,2.6,7.4,5.83,1.75,3.87,1.67,7.93,1.02,11.98-1.46,9.13-5.32,17.47-9,25.83-1.53,3.49-4.7,3.67-6.69.38-4.66-7.74-11.84-11.66-20.22-13.75-6.65-1.66-13.38-3-20.07-4.51-2.61-.59-5.16-1.38-7.45-2.81-5.86-3.63-6.58-10.39-1.56-15.14,2.99-2.83,6.69-4.17,10.76-4.18,11.93-.03,22.45,3.66,31.1,12.1.79.77,1.33,1.89,2.6,2.14Z"/>
      <path class="cls-1" d="M64.07,440.86c.09-.5.23-.78.15-.97-.55-1.42-1.11-2.84-1.74-4.22-.74-1.61-1.57-3.19-2.36-4.78-.34-.69-.07-1.24.44-1.68.39-.34.87-.48,1.4-.19.7.39,1.17.99,1.52,1.66,2.58,4.83,4.81,9.78,5.65,15.26.15,1,.5,1.97.62,2.97.07.6-.05,1.26-.22,1.85-.15.5-.61.79-1.14.87-.57.08-.96-.25-1.3-.65-.16-.19-.31-.43-.34-.67-.23-1.71-.8-3.15-2.54-3.91-.42-.18-.71-.71-1.02-1.11-5.64-7.17-12.46-13.01-20.3-17.63-4.52-2.66-9.39-4.4-14.64-5.03-1.25-.15-2.49-.47-3.71-.81-.81-.23-.94-1.73-.2-2.24.4-.28.94-.59,1.37-.54,2,.25,4,.59,5.98.96,7.67,1.44,14.22,5.23,20.41,9.77,3.6,2.64,6.79,5.74,9.87,8.95.66.69,1.34,1.35,2.11,2.13Z"/>
    </g>
  </g>
  <g>
    <path class="cls-3" d="M861.54,632.56c-.22-.21-.44-.41-.66-.61-1.65-1.48-1.91-3.93-.72-5.8,0-.01.01-.02.02-.04,2.03-3.15,4.52-7.47,5.84-12.9,1.89-7.81.5-15.37-3.93-21.28-4.44-5.93-11.32-9.41-19.39-9.8-7.54-.36-14.9,1.83-21.86,6.52-11.7,7.89-20.66,18.45-26.63,31.4-4.51,9.77-7.71,20.4-9.79,32.49-.42,2.45-.95,5.51-.91,8.97.12,10.54,8.56,18.37,19.09,17.59,11.02-.82,21.72-3.74,32.54-5.8,8.68-1.66,17.31-2.01,24.6-7.63,5.34-4.12,8.47-9.85,8.81-16.12.34-6.28-2.15-12.31-7.02-16.99Z"/>
    <g>
      <path class="cls-4" d="M827.96,640.88c5.55-1.31,11.09-2.33,16.75-.75,2.38.66,4.63,1.51,6.43,3.24,3.46,3.33,3.23,7.5-.56,10.43-1.96,1.51-4.25,2.32-6.63,2.9-4.58,1.12-9.24,1.63-13.93,1.91-5.98.36-11.96.68-17.85,1.89-3.36.69-6.48,1.96-9.59,3.37-2.76,1.25-4.03.45-4.06-2.53-.02-2.08.34-4.19.69-6.25,1.71-9.93,4.4-19.58,8.63-28.75,4.79-10.38,11.9-18.84,21.4-25.25,3.84-2.59,7.98-4.21,12.75-3.98,7.21.35,11.17,5.52,9.46,12.57-.73,3.02-2.21,5.73-3.88,8.33-4.41,6.87-9.91,12.78-15.96,18.21-1.42,1.27-2.83,2.56-4.24,3.84.2.27.39.55.59.82Z"/>
      <path class="cls-1" d="M808.59,653.78c1.69-1.7,3.31-3.22,4.82-4.85,2.11-2.27,4.62-4.05,7.02-5.96.79-.63,1.69-1.01,2.7-.83.44.08.95.33,1.22.67.41.52.45,1.23.06,1.81-.36.52-.79,1.06-1.31,1.4-3.45,2.21-6.13,5.26-8.99,8.11-.8.8-1.55,1.65-2.36,2.44-1.74,1.69-2.07,1.72-4.39-.03-.63-.48-1.1-.23-1.73-.18-1.67.15-2.85-1.28-2.29-2.73.76-1.95,1.62-3.87,2.49-5.78,5.17-11.42,11.84-21.85,20.18-31.24,2.05-2.31,4.16-4.51,6.57-6.41.5-.39,1.05-.77,1.65-.98.62-.22,1.29-.09,1.75.48.44.55.54,1.21.22,1.8-.3.56-.72,1.08-1.18,1.51-10.23,9.7-17.82,21.27-23.93,33.88-.92,1.89-1.82,3.79-2.69,5.7-.1.22.09.58.21,1.19Z"/>
    </g>
  </g>
  <g>
    <path class="cls-3" d="M291.6,27.88c-2.6-5.64-8.03-9.55-14.53-10.44-2.4-.33-4.92-.24-7.48.26l-1.19.23c-2.3.44-4.9.94-7.62,1.72l-.18.05c-2.05.59-4.09-.85-4.3-2.97,0-.09-.02-.18-.03-.27-.7-6.55-4.43-12.06-9.99-14.75-5.56-2.69-12.22-2.2-17.81,1.33-3.76,2.37-6.28,5.31-8.43,8.13-1.78,2.32-4.22,6.06-6.2,9.19-2.14,3.37-6.05,5.17-10,4.59-1.09-.16-2.17-.32-3.24-.47l-3.34-.49c-1.66-.24-3.36-.26-5.02-.04-.3.04-.59.07-.86.11-1,.12-2.04.25-3.2.46-14.08,2.52-16.77,13.2-17.25,16.41-.53,3.52-.7,11.57,7.05,17.86,1.61,1.3,1.7,3.73.18,5.13h0c-3.85,3.55-6.58,7.67-8.12,12.25-2.18,6.51-1.32,13.12,2.37,18.13,2.31,3.14,5.56,5.42,9.37,6.64,1.48.48,2.43,1.9,2.34,3.45-.1,1.74-.08,3.46.08,5.14.73,7.59,5.5,13.77,12.46,16.11,1.9.64,3.83.95,5.74.95,5,0,9.88-2.14,13.73-6.19,2.96-3.1,4.75-6.44,6.12-9.3.33-.68.65-1.37.98-2.05.93-1.94,3.38-2.48,5.1-1.2,1.15.86,2.37,1.65,3.66,2.37,6.71,3.76,13.95,4.02,19.85.71,5.88-3.3,9.41-9.55,9.7-17.15.14-3.73-.09-7.59-.7-11.46-.31-1.96-.59-3.93-.87-5.9-.21-1.49-.42-3-.65-4.54-.19-1.27.35-2.53,1.39-3.27,1.41-1.01,2.76-2.01,4.1-3,1.37-1.01,2.73-2.02,4.12-3,2.6-1.84,5.21-3.66,7.83-5.48,2.08-1.44,4.15-2.89,6.22-4.34,1.64-1.16,4.7-3.31,7.12-7.06,3.55-5.53,4.12-12.2,1.52-17.85Z"/>
    <path class="cls-7" d="M194.62,38.76c4.31.63,8.98,1.3,13.65,2.01,2.12.32,4.24.72,6.35,1.12,1.89.35,3.4-.18,4.48-1.79,1.12-1.66,2.25-3.32,3.29-5.03,3.06-5.02,6-10.11,9.57-14.78,1.31-1.71,2.68-3.39,4.52-4.55,2.5-1.57,4.57-.6,4.88,2.33.23,2.15.04,4.3-.44,6.41-.74,3.21-1.51,6.41-2.27,9.62-.2.84-.48,1.65-.65,2.5-.99,4.93-.2,5.57,4.68,4.09,7.4-2.25,14.81-4.47,22.25-6.6,2.47-.71,5.02-1.15,7.55-1.65.83-.16,1.72-.24,2.56-.12,3,.41,4.06,2.79,2.43,5.33-.8,1.24-1.96,2.08-3.13,2.91-4.69,3.3-9.41,6.54-14.09,9.85-3.74,2.65-7.35,5.5-11.16,8.04-4.47,2.99-6.03,7-5.16,12.21.78,4.66,1.35,9.35,2.08,14.02.45,2.84.64,5.71.53,8.57-.18,4.81-2.98,6.31-7.23,3.93-1.88-1.06-3.57-2.4-4.9-4.13-1.57-2.04-3.18-4.06-4.67-6.16-1.58-2.22-3.01-4.54-4.56-6.78-2.41-3.48-3.2-3.37-5.03.5-3.8,8.03-7.61,16.05-11.45,24.06-.93,1.94-1.95,3.85-3.44,5.42-1.02,1.07-2.26,1.9-3.82,1.37-1.52-.51-2.17-1.79-2.32-3.32-.18-1.86-.05-3.71.3-5.56,1.07-5.64,2.72-11.13,4.14-16.68.27-1.07,1.1-2.31.15-3.24-1.01-1-2.13.1-3.13.47-2.55.94-5.07,1.98-7.61,2.97-1.34.53-2.72.89-4.18.92-4.11.09-5.84-2.2-4.55-6.05.8-2.37,2.26-4.33,4.06-5.99,4.21-3.88,8.5-7.68,12.76-11.51,1.28-1.15,2.64-2.22,3.81-3.47,1.44-1.54,1.24-2.65-.58-3.82-.84-.54-1.76-.96-2.65-1.42-4.08-2.1-8.17-4.17-12.23-6.3-2.1-1.11-4.08-2.57-3.67-5.25.41-2.69,2.71-3.48,5.07-3.9,1.12-.2,2.27-.31,3.8-.51Z"/>
  </g>
  <g>
    <path class="cls-3" d="M121.9,145.14c1.61-1.95,3.11-4.04,4.45-6.22,4.55-7.41,4.11-15.93-1.15-22.24-5.26-6.31-13.33-8.33-21.6-5.42-1.65.58-2.98,1.24-4.03,1.76-1.76.87-3.47,1.82-5.12,2.82-1.65,1.01-3.79.69-5.02-.8-4.97-6.02-11.29-6.76-15.14-6.53-4.15.25-14.16,2.31-17.38,15.99l-.09.39c-.09.37-.17.74-.25,1.1-.35,1.71-1.74,2.99-3.48,3.15-1.88.17-3.71.46-5.49.86-8.48,1.9-14.36,7.8-15.72,15.79-1.32,7.74,2.05,15.09,9.03,19.67.92.61,1.84,1.16,2.72,1.65.63,1.88,1.02,3.03,1.65,4.9-.58,1.34-1.14,2.69-1.71,4.03-.93,2.23-1.58,4.51-1.93,6.77-1.21,7.83,1.85,14.95,8.19,19.04,3.83,2.48,8.2,3.36,12.51,2.67,1.4-.23,2.81.39,3.64,1.54.34.47.7.92,1.07,1.37,3.43,4.03,8.07,6.37,13.08,6.58.25.01.51.02.76.02,4.75,0,9.31-1.93,12.9-5.48,2.85-2.81,4.88-6.4,5.87-10.35.52-2.08,1.17-4.66,1.54-7.54.12-.94.24-1.88.35-2.82h0c1.54.22,3.08.2,4.58-.05.46-.02.95-.06,1.48-.12,11.11-1.31,15.44-8.24,17.04-12.26,2.09-5.25,2.84-13.22-5.47-21.41h0c-1.45-1.44-1.56-3.75-.25-5.32.98-1.18,1.97-2.36,2.95-3.54Z"/>
    <path class="cls-7" d="M103.72,172.99c-3.24-.47-6.48-.93-9.72-1.4-.99-.14-1.97-.38-2.96-.41-2.16-.08-2.68.4-2.95,2.69-.59,4.95-1.1,9.91-1.74,14.85-.26,1.97-.74,3.91-1.22,5.85-.31,1.25-.92,2.39-1.86,3.32-1.61,1.59-3.33,1.54-4.79-.17-.85-1-1.34-2.19-1.69-3.43-.83-3.02-1.62-6.05-2.43-9.08-.29-1.1-.54-2.21-.9-3.29-.29-.86-1.03-1.03-1.7-.57-.93.64-1.8,1.39-2.61,2.18-2.15,2.12-4.71,3.69-7.2,5.33-1.23.81-2.56,1.31-3.99.39-1.54-1-1.75-2.55-1.5-4.16.17-1.11.51-2.23.94-3.27,1.54-3.68,3.12-7.34,4.75-10.98.76-1.69,1.7-3.29,2.47-4.97,1.53-3.35,1.37-3.88-1.95-5.69-3-1.63-6.07-3.14-9.09-4.74-1.51-.8-3.02-1.6-4.45-2.54-1.62-1.06-2.83-2.5-2.47-4.61.39-2.3,2.16-3.21,4.22-3.68,2.09-.47,4.21-.68,6.36-.7,3.42-.02,6.84-.09,10.25-.24,2.79-.13,3.17-.53,3.28-3.3.1-2.56.04-5.13.14-7.69.05-1.42.13-2.86.47-4.23.54-2.18.91-4.81,3.82-4.99,2.62-.16,3.53,2.12,4.32,4.1.95,2.38,1.68,4.84,2.47,7.28.44,1.35.74,2.76,1.25,4.08.89,2.32,1.79,2.56,3.82,1.02,3.75-2.84,7.44-5.74,11.19-8.58,2.5-1.9,5.18-3.53,7.99-4.93.76-.38,1.53-.77,2.34-1.05,1.85-.65,3.7-.8,5.1.88,1.3,1.56.82,3.27-.12,4.78-.97,1.57-2.05,3.09-3.22,4.51-4.27,5.16-8.59,10.27-12.9,15.39-.55.65-1.13,1.28-1.67,1.95-.87,1.08-.78,2.14.33,2.96,1.03.76,2.14,1.4,3.23,2.08,3.27,2.02,6.58,4.01,9.34,6.73,1.44,1.41,2.97,2.9,2.06,5.18-.85,2.13-2.82,2.67-4.86,2.91-.7.08-1.42.01-2.13.01,0,.07-.01.14-.02.2Z"/>
  </g>
  <g>
    <path class="cls-3" d="M928.05,358.44c-4.11-3.23-8.93-5.75-14.73-7.73-5.66-1.92-11.5-3.16-17.5-3.72-1.1-.1-1.98-.95-2.06-2.05-.53-6.92-3.51-13.58-8.81-19.41-.63-.69-.8-1.68-.4-2.52,6.89-14.63,12.98-29.62,18.19-44.9,3.66-10.73,7.08-21.3,8.67-32.78,1.57-11.33.73-20.66-2.64-29.38-6.22-16.1-20.61-26.03-37.62-26.03-.16,0-.32,0-.49,0-15.05.17-28.4,6.45-38.6,18.18-.7.8-1.37,1.62-2.01,2.44-3.54-1.14-3.64-1.17-7.18-2.3v-.13c-.4-7.75-1.2-16.74-5.84-25.42-4.6-8.6-12.44-13.99-21.49-14.8-9.09-.8-17.8,3.15-23.88,10.86-4.54,5.75-6.3,12.04-7.22,16.28-.03.12-.05.23-.07.35-.7,3.31-5.07,4.05-6.77,1.12l-.06-.1c-15.82-27.27-36.26-51.21-60.77-71.17-24.44-19.87-52.26-35.24-82.71-45.69-1.37-.47-2.75-.93-4.12-1.38-29.2-9.54-57.96-13.88-87.87-13.28-13.03-.41-27.88.67-44.13,3.21-27.17,4.24-53.75,12.41-78.99,24.3-8.81,4.14-17.45,8.74-25.67,13.65-20.68,12.33-39.74,27.24-56.9,44.47-3.07,3.08-8.09,2.96-10.96-.3l-.04-.05c-5.42-6.13-12.72-9.36-21.13-9.36-.1,0-.18,0-.29,0-8.94,0-16.89,3.77-22.42,10.64-2.02,2.51-3.6,5.32-4.72,8.33-1.78,4.78-6.43,7.83-11.52,7.97-6.81.18-13.46,3.14-18.59,8.73-1.22,1.33-2.17,2.6-2.94,3.62-.31.41-.61.82-.94,1.21-4.59,5.51-10.06,11.65-16.43,15.1-10.61,5.75-14.99-2.1-25.58-4.36-13.23-2.81-25.93,2.96-32.38,14.71-4.29,7.82-5.64,16.46-3.9,24.99,1.98,9.72-6.11,31.93-14.1,37.49-7.99,5.56-12.85,14.52-13.69,25.23-.67,8.51.9,16.97,4.65,25.14,2.78,6.06,6.4,11.91,11.74,18.97,3.14,4.15,6.38,8.23,9.64,12.21,2.57,3.13,2.39,7.67-.33,10.67-2.18,2.4-3.74,4.97-4.87,7.38-3.64,7.78-5.58,19.96,5.86,33.84,3.66,4.44,8.45,8.17,14.65,11.41.66.35,1.32.69,1.99,1.03,3.02,1.56,4.29,5.2,2.88,8.29-4.42,9.76-5.04,19.92-1.82,29.76.52,1.6-.27,3.3-1.83,3.93,0,0-.02,0-.03.01-4.35,1.76-8.19,4.16-11.41,7.13-7.74,7.12-11.58,16.91-10.53,26.87,1.05,9.93,6.81,18.67,15.83,24,.83.49,1.67.94,2.52,1.36-6.06,7.53-10.35,15.76-12.77,24.55-2.12,7.7-2.26,14.73-.41,21.51,3.44,12.59,13.68,20.35,25.95,20.35,1.98,0,4-.2,6.07-.62,5.72-1.15,11.29-3.45,17.03-7.02,2.38-1.48,4.68-2.99,6.9-4.46,2.25-1.48,4.37-2.88,6.51-4.2,11.02-6.82,21.88-11.38,32.75-13.75,1.71-.37,3.48.11,4.76,1.31,0,0,.01.01.02.02.05.07.09.15.14.22l.3.48c6.82,10.78,16.51,19.65,29.61,27.1,2.84,1.61,5.66,3.26,8.48,4.91,2.49,1.45,4.98,2.91,7.49,4.34.69.4,1.38.8,2.07,1.2,2.63,1.54,5.61,3.29,8.96,4.78,5.77,2.57,11.62,5.03,17.27,7.41,2.6,1.09,5.2,2.19,7.79,3.29,19.04,8.11,35.24,13,50.97,15.38,3.08.47,6.05.82,8.94,1.07,2.57.22,4.8,1.88,5.71,4.3l.02.04c5.06,13.49,13.52,36.08,18.69,47.89.63,1.44,1.15,2.72,1.61,3.86,5.66,13.92,11.28,18.22,30.03,23.02,13.36,3.42,27.86,4.9,45.64,4.69,1.83.08,3.64.12,5.44.12,13.66,0,26.41-2.35,37.96-6.99,7.36-2.96,14.01-6.66,19.9-11.06,4.95-3.7,11.44-4.31,17.08-1.78.81.36,1.65.69,2.51.98,3.77,1.28,7.34,2.16,10.91,2.69,2.92.43,5.73.64,8.21.82,1.81.13,3.52.25,5.07.45,4.42.56,8.91.84,13.57.84,6.86,0,14.1-.61,22.07-1.83,16.31-2.5,33.4-7.27,52.27-14.59,17.79-6.9,31.48-16.91,41.86-30.61,6.47-8.55,7.74-17.58,3.75-26.83-1.64-3.81-3.12-7.73-4.69-11.89-1.07-2.84-2.19-5.78-3.36-8.72-1.72-4.28-4.97-8.8-2.46-13.41,2.59-4.75,6.84-8.47,9.24-13.54,1.83-3.85,2.11-9.57,6.37-11.46,4.5-1.99,5.28-2.66,9.91-.79,5.86,2.35,12.26,4.7,19.44,5.89,3.72.62,7.27.93,10.66.93,6.81,0,12.99-1.25,18.71-3.77,12.99-5.72,20.38-17.24,20.26-30.11-.06-6.44,4.96-11.81,11.36-12.53h.13c9.11-1.04,19.83-2.65,30.24-6.77,4.63-1.83,10.6-4.63,15.68-10.02,8.38-8.89,9.85-20.6,3.93-31.34-2.91-5.29-7.25-9.64-13.27-13.31l-.08-.05c-2.72-1.66-2.17-5.76.89-6.64,9.72-2.79,20.1-6.2,30.31-10.43,13.9-5.76,25.1-13.1,34.25-22.45,7.85-8.01,12.92-16.4,15.49-25.63,3.87-13.87-.42-26.93-11.77-35.85Z"/>
    <g>
      <path class="cls-4" d="M837.84,375.43c2.34-.91,4.17-1.58,5.98-2.32,10.83-4.41,21.83-8.29,33.42-10.13,10.54-1.67,20.94-1.11,31.1,2.34,3.65,1.24,7.12,2.86,10.17,5.25,6.39,5.02,8.62,11.74,6.44,19.57-2.07,7.43-6.34,13.56-11.65,18.98-8.3,8.47-18.26,14.48-29.14,18.99-16.22,6.72-33.08,11.37-50.13,15.43-21.08,5.01-42.33,9.28-63.04,15.79-12.89,4.05-25.5,8.86-38.18,13.52-5.16,1.9-10.34,3.76-15.74,4.9-4.61.97-9.23,1.65-13.75-.29-1.51-.65-2.56-.09-3.56.91-1.53,1.53-2.99,3.14-4.6,4.59-1.99,1.8-3.84,1.96-5.36.67-1.53-1.31-1.79-3.32-.24-5.38,1.6-2.12,3.5-4.02,5.37-5.91,1.22-1.23,1.57-2.4.71-4-1.65-3.04-2.47-6.47-5.29-8.94-1.91-1.67-2.05-9.36-.63-11.39.37-.52.91-1.16,1.47-1.27,2.92-.57,4.35-2.94,6.1-4.9,7.77-8.72,16.18-16.82,24.45-25.06,14.64-14.6,29.4-29.09,42.42-45.22,2.31-2.86,4.42-5.84,6.26-9.02,19.29-33.2,36.23-67.57,51.2-102.93,4.23-9.98,8.7-19.85,14.01-29.32,2.37-4.22,4.84-8.39,8.02-12.06,7.16-8.23,16.16-12.76,27.13-12.88,10.88-.12,19.58,5.93,23.54,16.17,2.72,7.05,2.77,14.35,1.75,21.7-1.43,10.29-4.64,20.12-7.99,29.91-11.86,34.75-28.01,67.38-48.36,97.94-.72,1.08-1.73,2.05-1.92,4.38ZM740.39,411.76c-.28-.24-.57-.48-.85-.72-2.29,2.26-4.6,4.5-6.87,6.78-.63.63-.91,1.4.02,2.08.76.55,1.58.71,2.18-.14,1.87-2.64,3.69-5.33,5.52-8Z"/>
      <path class="cls-2" d="M177.61,368.51c-.85-2.51-2.23-3.53-3.31-4.76-9.96-11.22-19.82-22.53-28.88-34.51-3.83-5.06-7.37-10.3-10.03-16.1-2.55-5.56-3.77-11.35-3.29-17.49.97-12.41,10.48-19.05,22.47-15.63,5.21,1.49,9.74,4.29,14.06,7.46,8.57,6.3,15.38,14.25,21.36,22.96,6.25,9.09,11.34,18.84,16.08,28.78,1.65,3.46,3.26,6.94,4.79,10.45,8.94,20.46,17.89,40.91,26.76,61.39,4.31,9.95,7.88,20.18,10.6,30.69.42,1.6.83,3.27.85,4.91.06,4.48-3.4,6.79-7.38,4.76-2.94-1.5-5.73-3.41-8.33-5.46-3.14-2.47-6.1-5.18-8.97-7.96-12.22-11.82-26.1-21.2-41.33-28.67-5.99-2.93-11.97-5.87-17.88-8.96-3.71-1.93-7.2-4.28-9.89-7.54-4.24-5.14-6.92-10.8-3.79-17.48,3.01-6.43,8.82-8.18,15.33-8.38,3.48-.11,6.87.81,10.76,1.53Z"/>
      <path class="cls-2" d="M776.33,507.83c1.14,1.7,2.86,2.06,4.24,2.88,6.41,3.8,11.04,9.1,13.59,16.1,3.53,9.7-.27,18.46-9.75,22.63-6.67,2.93-13.63,2.91-20.63,1.74-5.61-.93-10.96-2.87-16.22-4.99-8.35-3.36-16.65-6.84-25.03-10.13-9.79-3.84-19.87-6.75-30.17-8.93-3.54-.75-6.79-.7-10.16,1.02-3.96,2.02-4.92,1.48-6.98-2.47-.38-.73-.93-1.38-1.28-2.13-1.23-2.63-.77-4.84,1.96-5.72,8.3-2.67,14.65-8.5,21.86-12.93,31.14-19.12,64.47-32.64,100.58-38.86,12.25-2.11,24.55-2.26,36.77.52,5.56,1.26,10.9,3.11,15.79,6.09,3.17,1.93,5.97,4.27,7.79,7.59,2.64,4.79,2.11,9.32-1.64,13.3-2.81,2.98-6.39,4.77-10.13,6.26-8.45,3.35-17.32,4.76-26.29,5.77-12.62,1.42-25.31,1.02-37.97,1.42-2.06.06-4.23-.3-6.35.83Z"/>
      <path class="cls-4" d="M196.72,503.13c-6.1.62-12.19,1.34-18.3,1.83-6.06.49-12.03.03-17.43-3.17-10.03-5.92-11.29-18.32-2.7-26.22,1.99-1.83,4.27-3.17,6.77-4.18,5.83-2.37,11.87-3.13,18.13-2.48,10.91,1.13,21.11,4.66,31.01,9.18,1.96.9,3.91,1.82,5.52,2.57,1.31.09,1.36-.69,1.7-1.23,2.02-3.27,3.62-3.86,6.95-2.03,3.5,1.92,6.92,4.03,10.19,6.31,8.06,5.62,16.37,10.93,23.44,17.81,3.92,3.82,7.96,7.7,8.21,13.8.06,1.42,1.4,2.21,2.22,3.24,2.08,2.6,4.43,5.01,5.78,8.11,1.92,4.4.15,7.97-4.49,9.18-2.3.6-4.64.48-6.96.22-25.47-2.9-48.49,4.1-69.93,17.37-4.53,2.81-8.91,5.86-13.44,8.67-3.69,2.3-7.62,4.12-11.93,4.99-6.87,1.38-12.23-1.87-14.08-8.67-1.22-4.47-.82-8.93.39-13.33,2.45-8.88,7.19-16.45,13.5-23.06,6.16-6.45,13.33-11.55,21.19-15.73,1.46-.78,2.91-1.55,4.37-2.32-.04-.29-.07-.58-.11-.87Z"/>
      <path class="cls-2" d="M230.14,288.84c-1.12-4.76-2.79-9.14-6.27-12.71-6.02-6.17-13.02-10.87-20.63-14.76-5.94-3.04-12.16-5.44-18.32-7.98-5.56-2.29-10.93-4.94-15.59-8.84-5.02-4.21-8.37-9.41-9.69-15.89-1.05-5.13-.17-9.97,2.31-14.49,3.22-5.86,9.12-8.42,15.64-7.03,3.66.78,6.87,2.5,9.89,4.62,3.57,2.51,6.64,5.56,9.45,8.87,8.42,9.91,16.71,19.92,23.49,31.07.58.95.98,2.12,2.36,2.71.95-.9.52-2.11.5-3.15-.08-3.86.27-7.69,1.31-11.39,1.49-5.3,3.65-10.57,10.01-11.06,6.11-.47,9.07,4.24,11.27,9.09,3.51,7.74,4.75,15.92,3.96,24.39-.79,8.58-3.44,16.63-7.42,24.21-1.3,2.48-1.38,4.54-.32,7.05,1.49,3.52,2.63,7.19,3.93,10.79.27.74.23,1.7,1.57,1.99.71-1.91,1.35-3.9,2.2-5.81,1.64-3.71,3.95-5.41,6.63-5.08,2.69.33,4.36,2.51,5.13,6.57.95,5.02.12,9.98-.56,14.92-.5,3.62-1.36,7.2-2.13,10.78-.35,1.62-.64,3.56-2.25,4.29-2.62,1.19-1.99,2.97-1.5,4.98,2.68,11.18,4.98,22.44,6.68,33.81.39,2.64.85,5.29.43,7.95-.32,2.03-2.02,3.45-3.78,3.28-1.89-.18-2.99-1.32-3.29-3.2-.08-.49-.1-.99-.17-1.49-.95-7.11-2.3-14.14-3.88-21.12-1.51-6.66-3.29-13.26-4.73-19.93-.54-2.51-1.86-4.01-3.9-5.42-5.09-3.5-10.37-6.66-15.81-9.57-4.26-2.28-8.5-4.61-12.29-7.64-5.6-4.48-9.96-9.85-11.68-16.97-1.2-4.98-.66-9.62,3.48-13.25,1.69-1.49,3.6-2.22,5.91-2.22,3.96,0,7.57,1.12,10.93,3.08,2.43,1.42,4.76,3.03,7.13,4.56Z"/>
      <path class="cls-1" d="M745.99,450.62c1.51-.31,1.88-.28,2.12-.44,12.86-8.67,26.5-15.96,40.46-22.67,11.55-5.55,23.43-10.27,35.6-14.27,9.31-3.06,18.8-5.42,28.31-7.72,3.39-.82,6.78-1.6,10.13-2.56,1.48-.42,2.93-.61,4.43-.5,1.63.12,3.22,1.49,3.56,3.05.36,1.61-.12,2.96-1.4,4.01-1.32,1.08-2.88,1.59-4.52,1.99-6.93,1.66-13.86,3.33-20.78,5.05-10.48,2.61-20.72,6-30.82,9.81-11.22,4.23-22.08,9.25-32.68,14.85-12.51,6.6-24.82,13.57-36.43,21.68-3,2.09-5.84,4.41-8.72,6.67-.96.76-1.97,1.21-3.2,1.17-1.22-.04-2.32-.35-3.01-1.45-.77-1.24-.76-2.51-.03-3.77.17-.29.34-.61.6-.79,1.96-1.38,1.84-2.85.36-4.54-.57-.65-.41-1.56-.07-2.38.96-2.35,2.52-4.3,4.12-6.21,5.13-6.12,10.23-12.27,15.43-18.33,9.78-11.39,20.25-22.15,31.33-32.25,15.64-14.25,32.29-27.25,50.23-38.53,7.05-4.43,14.38-8.36,21.65-12.4,1.08-.6,2.19-.69,3.38-.61,1.94.13,4.03,2.95,2.54,5.35-.82,1.33-2.06,2.1-3.39,2.85-3.91,2.21-7.79,4.46-11.64,6.78-10.27,6.19-20.03,13.13-29.63,20.29-8.54,6.37-16.65,13.26-24.65,20.31-8.65,7.61-16.76,15.75-24.6,24.15-6.24,6.68-12.03,13.77-18.67,21.43Z"/>
      <path class="cls-2" d="M804.83,237.55c2.03-1.21,3.11-1.98,4.29-2.53,4.51-2.11,8.77-.24,10.33,4.53,1.19,3.64.72,7.28-.37,10.83-1.74,5.68-4.87,10.57-8.96,14.85-3.12,3.26-6.48,6.27-10.25,8.75-2.28,1.5-3.15,3.28-2.24,5.88,1.48.25,2.01-1,2.84-1.71,1.92-1.63,3.95-3.05,6.35-3.89,5.43-1.88,10.47.36,12.67,5.67,1.33,3.2,1.34,6.5.52,9.81-1.88,7.62-6.53,12.98-13.57,16.33-3.03,1.44-6.26,2.27-9.5,3.06-1.35.33-2.62.71-2.85,2.34-.52,3.76-1.48,7.48-1.47,11.34,1.89.21,2.81-1.19,4.04-1.92,2.88-1.71,5.79-3.31,9.21-3.65,7.67-.78,12.8,5.18,10.89,12.63-.89,3.49-2.63,6.54-5.17,9-6.68,6.49-14.13,11.69-23.76,12.66-1.75.18-2.72.93-3.24,2.54-.62,1.9-1.3,3.78-1.99,5.66-6.28,17.04-15.53,32.42-26.35,46.91-2.24,3.01-4.65,3.76-6.72,2.34-2.14-1.47-2.2-3.84-.09-7.03,1.1-1.67,2.3-3.28,3.48-4.89,15.78-21.47,25.7-45.43,30.39-71.61,3.83-21.37,5.65-42.93,6.23-64.63.15-5.43-.78-10.59-2.52-15.68-2.75-8.04-5.57-16.06-7.03-24.47-1.29-7.42-2.17-14.85-.53-22.35.79-3.62,1.94-7.08,4.27-10.03,5.83-7.39,15.21-6.63,19.65,1.66,3.15,5.89,3.7,12.41,4.03,18.92.38,7.52-.32,14.98-1.6,22.4-.31,1.78-.57,3.56-1,6.27Z"/>
      <path class="cls-1" d="M273.75,236.87c1.6-6.78,2.6-13.61,3.66-20.45.99-6.4,1.41-12.86,2.53-19.24.23-1.3.17-2.66.17-3.99.03-5,.04-10,.02-15,0-1.39.29-2.61,1.34-3.62,1.83-1.76,4.83-1.2,5.76,1.16.61,1.55,1.01,3.15.99,4.86-.06,6.33-.08,12.67-.12,19-1.18,4.54-.54,9.27-1.59,13.85-.74,3.22-.84,6.58-1.28,9.87-.73,5.43-1.94,10.77-3.12,16.11-.11.48-.36.93-.55,1.39-1.17,2.74-2.69,3.48-5.9,2.85-.84-.17-1.34.14-1.35.87-.02,1,0,2,0,3,0,5.33.04,10.67-.01,16-.03,3.82,0,7.65-.84,11.43-.32,1.44-.09,2.99-.23,4.49-.31,3.31-.63,6.62-1.09,9.9-.13.94-.69,1.87-1.22,2.7-1.01,1.57-3.37,1.97-4.87.86-1.71-1.26-2.81-3.03-2.37-5.13.45-2.16.33-4.31.54-6.46.3-3.14.62-6.28.91-9.41.29-3.14.37-6.29.69-9.44.53-5.11.69-10.3-.24-15.44-.18-.98-.23-1.98-.31-2.97-1.04-12.89-5.08-24.67-12.97-35.01-.98-1.29-1.45-2.58-1.25-4.15.18-1.4,1.2-2.46,2.58-2.66,1.56-.22,3.02,0,4.12,1.23.88.99,1.75,2,2.53,3.08,5.83,8.06,9.71,16.99,11.99,26.65.23.96.53,1.91.85,2.85.1.29.38.52.62.84Z"/>
      <path class="cls-7" d="M893.68,404.23c-.08,10.7-5.67,16.61-15.89,17.32-1.99.14-3.98.35-5.97.57-8.53.94-14.51-3.64-15.06-12.14-.53-8.13,2.39-15.36,8.8-20.3,4.99-3.84,11.24-5.36,17.46-2.77,6.41,2.67,9.44,8.14,10.52,14.79.16.98.11,2,.13,2.52Z"/>
      <path class="cls-7" d="M859.54,365.45c-10.61-.03-15.93-7.72-15.72-18.4.1-5.3,2.34-10.03,5.86-14.03,4.39-5,9.86-6.01,15.75-2.87,2.94,1.56,5.83,3.29,8.1,5.78,4.05,4.45,6.01,9.55,4.26,15.6-2.12,7.31-11.07,14.11-18.25,13.93Z"/>
      <path class="cls-7" d="M262.24,201.3c0,4.52-.85,8.51-4.09,11.62-4.44,4.27-9.55,6.99-15.77,4.92-6.6-2.2-10.09-7.35-11.14-14.08-.72-4.63.34-8.91,3.41-12.59,1.17-1.4,2.18-2.94,3.41-4.29,4.03-4.39,9.51-4.96,14.34-1.52,1.35.96,2.62,2.04,3.89,3.11,4.06,3.41,6.3,7.65,5.94,12.83Z"/>
      <path class="cls-1" d="M760.84,443.22c-.85-.06-1.4-.4-1.79-.97-.55-.8-.42-1.68.19-2.29.93-.93,1.97-1.78,3.07-2.51,6.66-4.44,13.33-8.85,20.02-13.25,18.41-12.09,34.49-26.73,48.15-44.01.98-1.24,1.88-3.32,3.88-1.96,1.91,1.29.63,3-.27,4.37-.91,1.39-1.94,2.71-3,4-13,15.82-27.88,29.58-45.01,40.85-6.96,4.58-13.91,9.19-20.88,13.76-1.38.91-2.74,1.92-4.36,2.01Z"/>
      <path class="cls-7" d="M284.01,156.23c3.86-.04,7.17,1.21,9.77,4.15,1.66,1.87,3.19,3.83,4.38,6.04,3.04,5.61,1.97,10.53-2.09,15.15-1.85,2.11-4.08,3.92-6.34,5.61-3.2,2.4-6.66,2.67-10.31.79-9.06-4.65-12.26-18.95-5.89-26.87,2.66-3.3,6.22-4.9,10.48-4.88Z"/>
      <path class="cls-1" d="M771.45,390.65c-2.64,11.03-5.66,22.11-11.65,32.11-.34.56-.74,1.12-1.21,1.57-.8.75-1.77.97-2.73.35-.75-.49-1.08-1.32-.84-2.18.27-.95.64-1.9,1.14-2.74,4.94-8.43,7.8-17.65,10.26-27.02.3-1.13.61-2.25.93-3.37.35-1.22,1.02-2.12,2.45-2,1.26.11,1.85,1.23,1.66,3.28Z"/>
      <path class="cls-6" d="M776.23,337.46c-1.02,19.35-4.19,38.41-9.64,57.06-4.69,16.04-10.73,31.57-18.41,46.42-6.01,11.62-12.81,22.69-20.37,33.23-5.91,8.23-12.26,16.14-19.09,23.76-19.9,22.2-42.93,40.41-68.76,55.12-19.19,10.93-39.45,19.49-60.72,25.55-10.43,2.97-20.99,5.39-31.69,7.15-8.87,1.45-17.8,2.66-26.81,2.82-5,.09-9.94.95-14.96.93-7.87-.04-15.67-.38-23.39-1.03-20.57-1.7-40.6-5.56-60.06-11.79h-.01c-11.41-3.64-22.61-8.11-33.61-13.43-2.7-1.3-5.38-2.65-8.06-4.06-15.82-8.33-30.61-18.27-44.25-29.89-22.44-19.11-41.2-41.27-55.55-67.04-8.59-15.43-15.44-31.5-20.46-48.24-2.54-8.42-4.6-17.01-6.19-25.77-2.76-15.13-4.14-30.38-4.05-45.69.01-3.34.1-6.7.26-10.05.93-19.54,4.07-38.77,9.56-57.58,4.77-16.38,10.91-32.23,18.82-47.34,9.23-17.62,20.12-34.16,33.03-49.37,20.05-23.65,43.16-43.32,69.35-58.92,7.84-4.68,15.95-8.99,24.34-12.94,23.82-11.21,48.75-18.95,74.8-23.02,14.2-2.22,28.44-3.48,41.66-3.02,29.22-.64,56.6,3.83,83.19,12.52,1.3.42,2.6.86,3.9,1.31,28.48,9.77,54.52,24,77.96,43.06,23.16,18.86,42.2,41.16,57.15,66.94,14.88,25.66,24.49,53.23,29.29,82.49,2.76,16.85,3.67,33.82,2.78,50.84Z"/>
      <path class="cls-2" d="M776.23,337.46c-1.02,19.35-4.19,38.41-9.64,57.06-4.69,16.04-10.73,31.57-18.41,46.42-6.01,11.62-12.81,22.69-20.37,33.23.21-.93.46-1.85.68-2.77,2.08-9.2.94-17.59-6.19-24.43-5.89-5.64-9.57-12.28-10.3-20.53-.31-3.48-1.11-6.89-2.39-10.2-1.44-3.73-3.69-6.67-7.29-8.52-2.52-1.29-4.98-2.72-7.53-3.95-9.98-4.83-16.56-12.62-20.46-22.89-3.46-9.11-5.23-18.59-6.88-28.13-1-5.74-1.99-11.49-3.04-17.23-.37-1.97-.9-3.9-1.41-5.83-6.55-24.77-24.97-33.15-41.8-35.37-10.57-1.39-20.96.06-31.34,1.66-12.22,1.88-24.44,3.46-36.83,2.5-28.11-2.17-53.42-20.55-60.22-49.58-2.44-10.42-2.33-20.93-.25-31.29,7.14-35.58,22.49-66.85,49.61-91.62,13.39-12.23,28.65-21.78,44.83-29.86,5.67-2.84,11.82-3.93,18.16-3.31,1.3.42,2.6.86,3.9,1.31,28.48,9.77,54.52,24,77.96,43.06,23.16,18.86,42.2,41.16,57.15,66.94,14.88,25.66,24.49,53.23,29.29,82.49,2.76,16.85,3.67,33.82,2.78,50.84Z"/>
      <path class="cls-1" d="M792.13,482.28c7.49-.07,14.98-.11,22.42,1.01.98.15,2,.15,2.95.42,1.01.28,1.82,1.03,1.79,2.14-.04,1.38-1.01,2.12-2.31,2.12-1.99,0-4-.05-5.97-.29-10.79-1.29-21.58-.92-32.39-.27-18.99,1.15-37.74,3.63-55.93,9.49-1.1.35-2.24.64-3.39.76-1.08.11-2-.42-2.22-1.56-.16-.86.21-1.7,1.02-2.1,1.04-.51,2.13-.91,3.24-1.27,15.73-5.15,31.87-8.11,48.36-9.43,7.47-.6,14.94-1,22.43-1Z"/>
      <path class="cls-2" d="M485.39,581.05c-.6,2.79-1.59,5.26-2.99,7.42-20.57-1.7-40.6-5.56-60.06-11.79h-.01c-1.26-1.87-2.47-3.79-3.67-5.7-3.09-4.85-7.22-7.39-13.24-7.19-5.6.17-11.16,0-16.7-.53-2.7-1.3-5.38-2.65-8.06-4.06-15.82-8.33-30.61-18.27-44.25-29.89-22.44-19.11-41.2-41.27-55.55-67.04-8.59-15.43-15.44-31.5-20.46-48.24,2.66-7.19,7.02-13.92,13.08-20.16,2.55-2.62,5.22-5.16,7.94-7.6,4.51-4.02,7.28-8.9,8.74-14.8,3.26-13.28,13.99-29.25,24.82-37.86,6.4-5.08,13.49-8.53,21.55-9.92,4.11-.71,8.19-1.59,12.31-2.2,4.05-.59,7.64-1.94,10.93-4.51,4.33-3.37,8.89-6.46,13.44-9.56,3.73-2.54,7.7-4.66,12.01-6.1,11.4-3.81,22.17-.07,28.75,10.01,4.32,6.63,5.99,14.1,6.33,21.83.27,6.15.05,12.34.05,16.01-.76,10.31-1.29,18.1-.35,25.95,1.34,11.26,5.59,21.19,12.58,30.02,3.32,4.19,6.98,8.08,10.67,11.92,5.21,5.4,10.43,10.78,15.46,16.35,5.15,5.71,9.57,11.97,12.99,18.9,3.05,6.18,5.01,12.67,5.77,19.55.38,3.47,1,6.96,2.01,10.29,4,13.24,4,26.62,1.69,40.09-1.57,9.17-1.24,18.22.87,27.29,1.44,6.15,2.99,12.3,3.8,18.6.56,4.35.49,8.64-.43,12.92Z"/>
      <path class="cls-1" d="M863.8,251.86c-.3,1.03-.62,2.32-1.04,3.57-13.65,40.25-30.9,78.79-54.12,114.53-12.17,18.74-24.13,37.62-38.07,55.12-1.04,1.3-2.1,2.6-3.3,3.74-.91.87-2.07,1.1-3.11.06-.84-.85-.73-1.86-.16-2.74,1-1.53,2.1-3,3.2-4.46,25.25-33.68,48.37-68.7,66.61-106.75,9.37-19.55,17.13-39.79,24.53-60.16.51-1.4,1.02-2.82,1.68-4.16.48-.96,1.37-1.45,2.5-1.04.92.33,1.1,1.15,1.28,2.28Z"/>
      <path class="cls-2" d="M427.78,203.15c-4.91,10.01-12.54,16.2-23.79,17.65-3.14.4-6.25,1.01-9.37,1.52-10.89,1.77-19.61,7.13-26.3,15.87-3.66,4.77-6.77,9.91-9.86,15.05-5.13,8.58-10.19,17.22-15.42,25.74-3.76,6.11-8,11.89-12.93,17.14-11.96,12.75-26.78,20.1-43.82,23.3-3.28.62-6.56,1.16-9.82,1.92-10.24,2.39-18.12,8.15-23.83,16.94-.9,1.39-1.73,2.81-2.49,4.26.01-3.34.1-6.7.26-10.05.93-19.54,4.07-38.77,9.56-57.58,4.77-16.38,10.91-32.23,18.82-47.34,9.23-17.62,20.12-34.16,33.03-49.37,20.05-23.65,43.16-43.32,69.35-58.92,5.75-1.29,11.41-.64,17.02,2.05,1.8.86,3.63,1.69,5.41,2.59,16.45,8.35,26.15,21.73,29.55,39.81,2.58,13.75.79,26.85-5.36,39.42Z"/>
      <path class="cls-1" d="M156.37,299.24c.35.1.88.14,1.26.4.53.37,1,.88,1.41,1.39,15.84,19.55,31.51,39.24,44.21,61.06,4.44,7.63,8.65,15.39,12.95,23.1.57,1.01,1.06,2.08,1.48,3.16.46,1.21.29,2.35-.97,2.98-1.28.64-2.3-.02-2.98-1.05-.92-1.38-1.73-2.85-2.51-4.31-10.03-18.85-21.03-37.1-33.96-54.12-6.65-8.76-13.42-17.42-20.12-26.14-.91-1.18-2.03-2.25-2.38-3.77-.3-1.31.03-2.3,1.62-2.7Z"/>
      <path class="cls-1" d="M224.26,420.89c-.04.7-.31,1.31-.92,1.66-.78.45-1.62.39-2.35-.12-1.31-.9-1.76-2.38-2.43-3.71-3.21-6.4-6.5-12.74-10.48-18.72-6.34-9.53-13.98-17.77-23.57-24.12-1.1-.73-2.12-1.6-3.04-2.54-.43-.45-.48-1.22-.13-1.88.45-.84,1.26-1.27,2.06-.99,1.23.44,2.41,1.09,3.53,1.79,10.29,6.53,18.45,15.21,25.22,25.26,4.29,6.36,7.78,13.18,11.14,20.06.51,1.04,1.11,2.06.98,3.3Z"/>
      <path class="cls-2" d="M485.68,340.56c.82,6.14,1.58,11.47,2.22,16.8,1.18,9.75,4.13,18.94,8.37,27.76,1.99,4.14,3.72,8.4,5.18,12.75,1.27,3.77,2,7.62,1.68,11.61-.62,7.6-6.01,12.76-13.65,13.14-3.9.19-7.55-.74-11.09-2.23-5.01-2.1-9.47-5.09-13.6-8.59-6.44-5.45-11.93-11.76-17.02-18.49-5.08-6.71-6.79-14.36-7.3-22.46-.1-1.57-.05-3.15,0-4.72.17-5.85-.79-11.51-2.93-16.95-3.79-9.65-3.05-18.88,1.87-28.04,7.21-13.43,24.28-14.01,33.6-6.43,4.84,3.94,8.04,8.97,10.01,14.79,1.3,3.85,2.42,7.77,2.66,11.06Z"/>
      <path class="cls-2" d="M434.49,137.01c.15-6.16,1.69-11.03,4.82-15.33,1.27-1.74,2.88-3.24,4.18-4.97,5.83-7.81,13.28-12.92,23.03-14.66,2.9-.52,5.61-2.1,8.44-3.09,4.58-1.59,9.25-2.77,14.17-2.71,2.19.03,4.32.33,6.41.95,9.14,2.73,13.33,10.53,10.19,19.54-3.06,8.79-8.86,14.77-18.34,16.58-1.15.22-2.28.5-3.42.74-4.23.89-7.16,3.43-8.99,7.26-1.29,2.71-2.38,5.51-3.71,8.2-1.8,3.63-4.11,6.88-7.6,9.1-4.39,2.79-9.08,3.66-13.75,1.1-9.26-5.07-14.65-12.84-15.43-22.71Z"/>
      <path class="cls-8" d="M486.43,692.69c-15.13.22-28.76-.8-42.07-4.2-17.88-4.58-16.08-6.11-21.33-18.11-6.96-15.9-20.77-53.8-21.89-56.4-2.14-4.95-12.73-18.82-13.7-20.02-2.41-2.98-4.89-5.91-7.23-8.94-3.27-4.23-6.24-8.67-8.42-13.57-5.07-11.39-2.14-20.93,8.44-27.55.42-.27.86-.51,1.29-.76q7.46-4.26,13.47,1.65c.59.58,1.2,1.16,1.79,1.75,1.43,1.46,2.8,2.18,4.72.54,1.74-1.49,3.42-.74,4.79.83.55.63,1.06,1.29,1.54,1.97,5.66,8,13.16,13.51,22.24,17.16,9.75,3.93,19.67,7.36,29.56,10.9,2.7.97,5.41,1.86,6.53,4.91.68,1.86,2.42,2.2,4,2.61,17.85,4.69,35.97,7.18,54.43,5.95,3.83-.25,5.63.94,7.32,4.18,7.26,13.89,14.78,27.63,22.2,41.44.55,1.03.95,2.15,1.59,3.12,5.33,8.14,3.64,15.79-1.5,23.25-7.63,11.08-18.05,18.58-30.38,23.54-12.45,5.01-25.49,6.33-37.38,5.75Z"/>
      <path class="cls-4" d="M720.32,433.51c1.52-1.12,2.8-2.07,4.08-3.02,8.26-6.15,17.24-10.73,27.45-12.66,5.36-1.01,10.6-.82,15.68,1.39,11.84,5.17,16.04,18.8,9.16,29.72-2.34,3.71-5.49,6.7-8.8,9.5-14.25,12.05-28.18,24.48-42.74,36.17-9.61,7.72-18.67,16.12-28.11,24.04-8.06,6.77-16.68,12.74-26.18,17.37-7.24,3.53-14.82,6.01-22.74,7.4-4.11.72-8.29.98-12.41-.06-1.63-.41-2.55.09-3.09,1.6-.34.94-.64,1.91-1.11,2.78-.89,1.64-2.33,2.35-4.18,2.01-1.65-.3-2.88-1.4-2.95-2.98-.14-3.14-.01-6.3.21-9.43.08-1.18,1.07-2.13,2.14-2.62,2.3-1.06,3.37-3.1,4.56-5.12,12.36-21.04,20.08-43.88,25.89-67.43,5.87-23.79,10.23-47.88,14.11-72.07,2.92-18.26,5.63-36.56,10.98-54.33,1.93-6.4,4.35-12.59,7.54-18.48,1.28-2.35,2.76-4.56,4.62-6.5,6.02-6.26,13.53-7.8,21.45-4.18,6.24,2.85,11.08,7.34,14.5,13.3,1.83,3.2,3.23,6.61,4.07,10.18,2.37,10.1,3.25,20.29,2.62,30.72-1.4,23.21-7.65,45.25-15.26,67.02-.49,1.42-1,2.83-1.47,4.25-.09.28-.01.61-.01,1.41Z"/>
      <path class="cls-4" d="M272.9,425.26c1.31-.7.96-1.84,1.12-2.76.9-5.11,2.21-10.09,4.64-14.71,1.89-3.59,4.32-6.76,7.88-8.85,6.03-3.55,12.11-1.17,14.3,5.5.69,2.1.79,4.26.78,6.42-.05,7.5-.11,14.99-.85,22.47-.6,6.13-.09,12.34-1.26,18.43-.31,1.63-.57,3.29-1.09,4.86-1.49,4.55-4.33,7.44-9.48,7.27-.48-.02-.97.14-1.44.25-.15.03-.26.19-.45.34-.37,1.83.59,3.53.73,5.33.2,2.52-.6,4.27-2.42,4.96-1.99.75-3.77.16-4.76-1.6-1.14-2.03-2.43-2.22-4.51-1.58-2.92.89-5.6-.11-7.9-2.02-1.02-.85-2.03-1.75-2.87-2.76-12.37-14.9-26.18-28.43-39.87-42.08-5.79-5.77-11.46-11.64-16.23-18.31-2.54-3.54-4.63-7.31-6.35-11.31-1.82-4.25-2.34-8.67-1.91-13.22.98-10.42,9.71-17.06,20.04-15.2,5.35.96,10.08,3.34,14.46,6.51,7.38,5.34,13.36,12.02,18.62,19.38,6.42,8.97,11.75,18.58,16.5,28.52.68,1.43,1.05,3.1,2.36,4.16Z"/>
      <path class="cls-4" d="M436.26,419.87c.42-10.55,1.88-21.06,7.11-30.7,2.17-3.99,4.76-7.64,8.55-10.29,8.1-5.67,16.83-3.55,21.44,5.22,2.61,4.97,3.57,10.4,4.03,15.89.49,5.81.92,11.65.86,17.47-.17,16.75,1.78,33.26,4.79,49.68.72,3.93,1.47,7.87,1.45,11.9,0,1.66,0,3.35-.27,4.98-1.28,7.79-6.92,11.46-14.54,9.4-4.65-1.26-8.37-4.02-11.35-7.79-2.62-3.31-4.35-7.11-5.89-10.98-2.28-5.74-4.76-11.36-7.57-16.87-6.02-11.83-8.11-24.6-8.61-37.92Z"/>
      <path class="cls-1" d="M707.68,354.47c-.81,25.71-3.36,51.19-9.99,76.13-5.89,22.14-14.17,43.36-24.5,63.79-3.24,6.4-7.01,12.5-11.19,18.32-.87,1.21-1.63,2.54-3.07,3.21-.64.3-1.27.35-1.91,0-.83-.47-1.17-1.28-.95-2.11.25-.94.68-1.88,1.23-2.68,18.68-27.18,29.74-57.61,37.61-89.31,4.79-19.29,6.69-39.04,7.71-58.87.32-6.16.75-12.3.68-18.47-.01-1.16.08-2.34.25-3.49.18-1.2.65-2.35,2.09-2.38,1.51-.03,1.87,1.12,1.98,2.36.06.66.05,1.33.05,2,0,3.83,0,7.67,0,11.5Z"/>
      <path class="cls-1" d="M319.76,394.68c.82-17.27-.56-32.77-5.94-47.75-.45-1.26-.99-2.5-.93-3.86.07-1.62.79-2.9,2.35-3.51,1.55-.61,2.96-.23,4.12.93,1.09,1.09,1.61,2.5,2.16,3.9,3.75,9.52,5.87,19.41,6.91,29.57,1.43,13.84-.15,27.6-1.08,41.38-.1,1.52-.5,2.98-1.3,4.26-.84,1.34-2.08,2.16-3.76,1.99-1.65-.16-2.72-1.11-3.4-2.58-.73-1.58-.67-3.24-.55-4.91.5-6.97,1.01-13.95,1.4-19.43Z"/>
      <path class="cls-1" d="M719.69,441.67c-.32,1.36-.62,3.36-1.27,5.23-10.79,31.11-27.26,58.51-52.44,80.21-5.96,5.14-12.51,9.42-19.4,13.19-1.54.84-3.2,2.31-4.9.37-1.11-1.27-.27-2.89,2.64-4.5,23.85-13.16,40.67-33.07,54-56.3,7.06-12.31,13.65-24.84,17.05-38.76.08-.32.15-.65.27-.96.45-1.17,1.15-2.13,2.56-1.85,1.49.29,1.53,1.54,1.5,3.37Z"/>
      <path class="cls-1" d="M254.36,508.36c-.1,1.18-.62,1.86-1.42,2.17-1.39.54-2.83.98-4.26,1.39-12.47,3.58-25.04,6.87-36.77,12.67-13.06,6.46-25.33,14.05-35.96,24.1-.48.46-.97.91-1.51,1.3-.73.54-1.57.63-2.31.08-.91-.68-1.12-1.65-.57-2.65,1.06-1.94,2.75-3.33,4.37-4.75,14.45-12.66,30.75-22.17,48.87-28.55,8.01-2.82,16.23-4.97,24.41-7.23,1.13-.31,2.27-.59,3.44-.34,1.09.23,1.75.89,1.71,1.83Z"/>
      <path class="cls-1" d="M460.2,408.77c.11,11.4,2.78,22.37,5.85,33.26,1.49,5.27,3.07,10.52,4.6,15.78.32,1.11.65,2.24.82,3.38.17,1.19.05,2.45-1.31,2.9-1.66.55-2.38-.67-2.98-1.91-.28-.6-.53-1.22-.72-1.86-3.84-12.89-7.99-25.71-9.83-39.1-.72-5.26-1.33-10.56-1.11-15.89.07-1.65.36-3.3.71-4.91.22-1.03.98-1.78,2.14-1.67,1.16.11,1.77.99,1.8,2.04.09,2.66.03,5.32.03,7.97Z"/>
      <path class="cls-1" d="M724.32,512.04c17.29,1.52,32.29,6.45,46.13,14.94.99.61,2,1.2,2.86,1.96.77.69,1.13,1.65.55,2.69-.57,1.02-1.6,1.34-2.56.97-1.54-.59-3.01-1.38-4.44-2.21-9.67-5.68-19.91-9.89-30.92-12.18-4.4-.91-8.81-1.64-13.31-1.85-1.63-.08-3.75-.09-3.57-2.39.16-2.18,2.23-2.08,3.9-2.08.82,0,1.65.18,1.35.15Z"/>
      <path class="cls-1" d="M214.97,416.31c.09,1.4-1.35,2.49-2.71,2.04-1.17-.39-1.9-1.31-2.66-2.19-1.95-2.27-3.94-4.51-5.83-6.83-7.91-9.71-17.64-17.09-28.82-22.64-.89-.44-1.82-.84-2.67-1.36-1.09-.66-1.75-1.62-1.11-2.92.53-1.07,1.59-1.17,2.59-.89,1.11.32,2.2.77,3.24,1.27,10.28,4.98,19.52,11.42,27.24,19.89,3.02,3.32,5.89,6.78,8.81,10.2.86,1.01,1.74,2.03,1.91,3.43Z"/>
      <path class="cls-1" d="M216.67,258.07c-.27,1.47-1.24,1.87-2.57,1.66-1.21-.2-2.06-1.04-2.94-1.8-10.56-9.15-20.96-18.48-32.26-26.74-.4-.29-.79-.62-1.12-.99-.85-.96-1.24-2.01-.27-3.1.8-.9,1.79-.74,2.71-.2.86.5,1.68,1.08,2.48,1.66,11.09,7.97,21.35,16.96,31.69,25.86,1.12.97,2.37,1.9,2.27,3.64Z"/>
      <path class="cls-1" d="M742.67,497.35c7.45-.38,14.53.56,21.44,2.46,2.31.64,5.81.15,6.07,3.84.12,1.8-2.07,2.17-6.96.83-8.25-2.27-16.64-3.06-25.16-2.66-3.48.16-6.95.59-10.42.86-1.32.1-2.65.13-3.98.09-.88-.03-1.62-.49-1.87-1.38-.33-1.18.37-1.94,1.35-2.31.91-.35,1.91-.54,2.89-.65,5.61-.65,11.22-1.3,16.64-1.07Z"/>
      <path class="cls-1" d="M791.89,221.76c-.2-5.8-.41-11.6-.61-17.4-.03-.83-.05-1.66.02-2.48.09-1.08.62-1.94,1.79-2,1.18-.06,1.76.82,2.07,1.81.24.78.38,1.62.44,2.44.87,12.08,1.54,24.17.27,36.27-.18,1.72.3,3.91-2.26,4.35-1.67.28-2.36-.99-2.28-4.6.11-4.97.37-9.94.57-14.91.05-1.15.11-2.31.16-3.46-.06,0-.12,0-.17,0Z"/>
      <path class="cls-1" d="M238.34,261.66c.22,5.57-.62,10.52-1.21,15.47-.36,3.03-1.4,4.21-2.9,3.95-1.46-.25-2.02-1.76-1.66-4.61,1-7.93,2.2-15.85.92-23.88-.05-.33-.09-.66-.06-.99.08-1.06.46-2,1.6-2.24,1.16-.24,1.89.44,2.29,1.46.67,1.72.98,3.53,1.02,5.38.04,2,0,4,0,5.45Z"/>
      <path class="cls-1" d="M205.67,502.69c-1.86.08-3.1-.02-3.43-1.44-.32-1.39.64-2.24,1.82-2.58,2.4-.7,4.84-1.26,7.27-1.82,4.22-.97,8.45-1.91,12.69-2.83,1.13-.25,2.29-.5,3.44-.55,1.22-.05,2.39.32,2.59,1.77.16,1.16-.68,1.79-1.59,2.28-.15.08-.31.12-.47.16-7.64,1.72-15.28,3.43-22.31,5Z"/>
      <path class="cls-1" d="M274.36,432.05c1,.04,1.74.49,1.96,1.34,1.8,6.86,5.77,12.61,9.4,18.53.34.55.58,1.19.73,1.83.2.86-.03,1.68-.77,2.2-.97.69-1.88.32-2.69-.36-.25-.21-.5-.45-.68-.72-3.69-5.7-7.5-11.34-9.43-17.97-.32-1.11-.7-2.23-.26-3.4.31-.84.89-1.37,1.73-1.45Z"/>
      <path class="cls-1" d="M240.01,315.03c.07,1.13-1.17,2.09-2.4,1.87-1.22-.22-2.06-1.05-2.9-1.84-4.35-4.1-8.69-8.22-13.03-12.33-1.02-.97-1.93-2.03-.84-3.42,1.06-1.35,2.42-.99,3.52-.08,2.17,1.8,4.27,3.7,6.33,5.63,2.55,2.38,5.04,4.83,7.54,7.26.83.81,1.63,1.67,1.78,2.91Z"/>
      <path class="cls-1" d="M804.35,327.38c1,.1,1.47.76,1.58,1.64.11.85-.19,1.65-.78,2.29-3.65,3.9-7.5,7.55-12.46,9.77-.6.27-1.24.49-1.89.59-1.2.19-2.42.14-2.91-1.24-.51-1.43.49-2.24,1.58-2.68,4.6-1.85,8.1-5.13,11.52-8.55.93-.93,1.82-1.99,3.35-1.83Z"/>
      <path class="cls-1" d="M810.32,284.83c-.22.44-.53,1.41-1.1,2.19-2.27,3.11-5.19,5.56-8.32,7.76-1.14.8-2.48,1.31-3.51-.07-1.02-1.38-.15-2.55.92-3.42,3.09-2.5,6.16-5.01,8.55-8.25.64-.86,1.72-1.03,2.68-.4.55.36.91.95.77,2.2Z"/>
      <path class="cls-1" d="M800.95,241.42c.85.04,1.49.3,1.75.96.23.59.45,1.32.31,1.9-.87,3.6-2.7,6.76-4.77,9.77-.58.84-1.55,1.27-2.63.72-1.06-.54-1.41-1.58-.97-2.53,1.63-3.44,3.39-6.82,5.17-10.19.19-.36.82-.48,1.14-.65Z"/>
      <path class="cls-7" d="M326.39,334.51c.24,3.48-.09,6.07-1.51,8.46-4.34,7.32-16.88,7.8-22.39.84-5.73-7.25-4.3-16.97,3.27-22.2,7.61-5.27,19.41.27,20.6,9.7.17,1.31.02,2.65.02,3.21Z"/>
      <path class="cls-8" d="M584.27,542.86c.33-1.75-.86-3.08-1.56-4.5-2.67-5.38-5.15-10.84-7.34-16.44-5.66-14.49-5.57-29.26-2.27-44.23,5.17-23.44,13.65-45.64,24.7-66.9,1.15-2.22,2.43-4.38,3.81-6.46,2.68-4.03,6.34-6.79,11.04-8.12,5.42-1.53,10.91.12,14.28,4.65,6.68,8.96,5.41,16.35,4.34,27.43-1.07,11.16-7.86,24.46-10.16,35.38-2.54,12.08-8.85,36.02-5.25,43.43,7.06,14.56,17.93,23,31.54,30.81,1.65.95,3.54,1.8,5.38,1.3,11.06-3.04,8.84-16.37,7.21-20.2-1.11-2.6-10.32-25.61-10.3-34.78.02-8.95,4.47-15.37,11.17-20.9,4.37-3.6,8.99-3.99,14.01-1.78,3.28,1.45,5.86,3.68,8,6.59,4.72,6.38,7.48,13.75,10.71,20.87,4.96,10.93,9.81,21.91,14.51,32.95,3.14,7.37,5.86,14.92,6.74,22.96,1.23,11.14-1.45,21.17-8.86,29.72-1.85,2.14-3.98,4.03-6.03,5.99-3.79,3.62-4.07,4.72-2.01,9.64,2.12,5.08,4.41,10.08,6.45,15.19,2.79,6.96,5.24,14.07,8.2,20.96,1.9,4.42.93,7.71-1.88,11.42-9.17,12.11-21.21,20.14-35.13,25.54-15.89,6.16-32.15,11.13-49.04,13.72-10.4,1.6-20.85,2.26-31.37.93-4.29-.54-8.63-.58-12.93-1.22-2.83-.42-5.54-1.13-8.23-2.04-4.01-1.36-6.31-3.92-6.86-8.29-1.12-8.92-2.43-17.83-3.82-26.72-1.21-7.74-2.51-15.47-4.02-23.15-.96-4.89-2.42-6.02-7.38-6.65-1.48-.19-3-.22-4.49-.19-13.4.33-26.58-1.76-39.78-3.57-5.12-.7-10.21-1.58-15.29-2.5-10.45-1.88-20.2-5.77-29.45-10.83-6.2-3.39-11.36-8.13-15.43-13.99-2.95-4.25-5.77-8.59-8.13-13.19-3.89-7.56-7.6-15.22-11.45-22.8-6.42-12.65-6.3-25.34-.26-38.04,8.32-17.49,17.79-34.34,28.43-50.53.73-1.11,1.5-2.21,2.34-3.25,2.48-3.05,5.43-5.53,9.43-6.12,2.94-.43,4.3-2.08,5.05-4.74,1.09-3.85,2.29-7.67,3.54-11.47,3.74-11.41,7.51-22.81,11.32-34.2.63-1.89,1.38-3.76,2.26-5.55,5.18-10.46,16.54-13.87,26.59-8.03.43.25.87.51,1.26.81,1.45,1.1,2.63,1.09,3.75-.57.92-1.37,2.1-2.58,3.17-3.85,4.43-5.26,11.89-7.11,18.41-5.25,8.56,2.44,11.85,9.09,12.49,17.51,1.26,16.67,1.4,33.42.65,50.12-.72,15.99-4.25,31.92-3.84,47.94.22,8.84,12.14,27.56,15.67,35.86,2.99,7.02,7.44,12.99,12.92,18.22.8.77,1.61,1.76,3.18,1.11Z"/>
      <path class="cls-8" d="M362.68,518.31c1.16-.49,1.48-1.28,1.78-2.04,4.76-12.06,11.91-22.69,19.65-32.97,6.41-8.53,13.3-16.68,20.19-24.81,1.87-2.21,4.11-3.98,6.45-5.64,1.61-1.15,3.47-1.94,5.43-2.21,3.61-.49,6.5.45,8.95,3.15,4.21,4.64,4.07,6.56,4.69,12.68.82,8.03-1.24,15.51-4.48,22.78-4.12,9.24-21.3,34.79-22.77,38.18-1.68,3.88,9.38,28.41,13.66,31.17,5.87,3.79,11.22,10.08,15.94,15.36,6.72,7.51,7.54,16.01,4.24,25.17-1.26,3.49-3.77,5.14-7.61,5.32-6.01.28-11.82,2.01-17.67,3.27-11.11,2.38-22.15,2-33.28.31-16.45-2.49-32-7.83-47.23-14.32-8.28-3.53-16.61-6.94-24.83-10.6-3.33-1.49-6.46-3.46-9.64-5.28-5.35-3.07-10.64-6.23-16-9.28-9.7-5.52-18.15-12.39-24.2-21.94-.71-1.12-1.41-2.33-2.37-3.2-6.85-6.2-11.97-13.85-17.72-20.99-5.96-7.4-12.04-14.7-18.18-21.95-7.67-9.05-15.78-17.71-24-26.26-4.59-4.78-8.69-10.02-12.52-15.46-.86-1.22-1.58-2.55-2.36-3.83-6.57-10.83-5.42-21.26,1.74-31.31,4.08-5.74,10.19-7.92,17.14-6.36,5.35,1.2,9.88,3.9,13.97,7.45,1.01.87,1.93,1.84,2.98,2.66.8.63,1.6.35,2.08-.49.32-.57.49-1.24.64-1.88,2.8-11.99,8.29-22.86,14.17-33.52,4.99-9.04,10.42-17.84,15.72-26.72,2.74-4.59,5.81-8.93,9.76-12.61,2.77-2.58,5.99-4.25,9.58-5.15,8.63-2.15,15.7,2.5,17.42,11.22,1.12,5.69.37,11.29-.58,16.86-1.74,10.22-13.85,36.27-15.4,38.97-2.41,4.22-5.72,10.37-7.89,14.86-1.56,3.22-1.89,6.9-.96,10.35,2.66,9.81,8.62,31.22,9.92,31.07,1.54-.18,3.33-10.88,3.76-12.21,1.49-4.63,21.49-38.48,30.38-50.37,10.5-14.03,21.85-27.34,34.63-39.38,3.43-3.24,7.19-5.94,11.49-7.88,2.61-1.18,5.32-1.72,8.21-1.87,7.77-.42,12.75,4.87,13.88,10.51,1.37,6.86,2.27,13.81,1.18,20.85-.49,3.13-1.13,6.22-2.01,9.27-.36,1.25.44,2.01,1.63,1.65,1.59-.48,3.13-1.16,4.73-1.6,5.31-1.46,9.91-.33,13.48,4.04,4.57,5.58,7.11,12.01,7.74,19.17,1.47,16.79-9.76,34.8-17.99,48.53-5.49,9.17-10.32,18.67-14.14,28.66-1.86,4.86-2.9,9.91-3.82,14.99-.2,1.12-.41,2.32.43,3.62Z"/>
      <g>
        <path class="cls-10" d="M514.21,412.24c-1.26,1.02-2,1.69-2.8,2.25-7.19,5.04-17,1.45-18.99-7.11-1.7-7.28.26-16.59,3.01-23.33.12-.3.32-.59.53-.84.69-.83,1.55-1.32,2.61-.81,1.11.53,1.16,1.52.84,2.55-.4,1.27-.85,2.53-1.3,3.78-1.65,4.66-1.77,11.88-1.49,16.72.17,2.96,1.75,4.95,4.48,6.05,2.86,1.16,5.55.9,8-1.04,1.33-1.05,2.24-2.45,3.09-3.9,2.4-4.09,3.18-10.8,4.06-15.4.19-.98.26-1.99.5-2.96.46-1.86,1.42-2.77,2.55-2.49,1.58.4,2.12,1.73,2.01,3.07-.36,4.14-.58,10.45-1.05,14.58-.17,1.49-.39,2.99-.36,4.48.05,2.36.97,3.28,3.26,3.66,6.92,1.13,14.44-3.66,16.17-10.46.86-3.39,1.68-10.14,1.62-13.67-.06-3.5,0-7,.07-10.5.03-1.19.32-2.46,1.88-2.41,1.44.05,1.81,1.23,2.04,2.42.03.16.07.33.07.49.05,6.65.36,16.61-1.03,23.21-2.03,9.64-9.73,15.83-19.66,15.8-.83,0-1.66-.11-2.49-.23-1.51-.22-2.16.59-2.33,1.92-.25,1.98-.58,3.97-.63,5.96-.39,15.67-1.96,31.25-3.83,46.8-.73,6.12-1.34,12.26-2.4,18.32-1.38,7.85.05,15.25,2.75,22.53,2.96,7.97,6.41,15.75,10.12,23.4,4.29,8.84,8.84,17.57,13.24,26.36.67,1.33,1.27,2.71,1.75,4.12.29.83-.03,1.7-.8,2.19-.97.62-1.95.39-2.7-.42-.56-.6-1.02-1.32-1.4-2.05-8.88-16.99-17.64-34.03-24.5-51.98-2.53-6.61-4.02-13.41-3.46-20.53.24-2.98.69-5.95,1.14-8.92,1.79-11.86,3.02-23.79,3.93-35.75.78-10.13,1.36-20.27,2-30.41.1-1.62.38-3.29-.51-5.47Z"/>
        <path class="cls-10" d="M316.08,522.42c-.76,12.05,3.45,23.55,9.21,34.63,2.23,4.29,4.64,8.48,6.92,12.74.7,1.31,1.32,2.69,1.8,4.1.29.83-.1,1.65-.87,2.15-.8.52-1.64.38-2.29-.23-.6-.56-1.17-1.21-1.57-1.92-5.15-9.15-10.45-18.21-14.02-28.16-5.15-14.31-4.97-28.76-1.56-43.34,3.6-15.37,9.57-29.8,17.54-43.42,9.45-16.12,21.49-36.23,31.92-51.71,1.02-1.52,1.99-3.08,3.08-4.56.58-.79,1.3-1.51,2.06-2.13.54-.44,1.29-.43,1.82.08.32.32.56.83.63,1.28.19,1.25-.51,2.24-1.14,3.22-1.53,2.38-4.47,9.52-6.01,11.9-.63.98-1.28,1.96-1.81,2.99-.56,1.09-.15,1.91.95,2.39,2.41,1.06,4.81,1.12,7.28.15,5.36-2.11,9.96-7.44,12.83-12.3.93-1.57,1.61-3.3,2.48-4.91.39-.72.91-1.39,1.49-1.96.49-.49,1.19-.52,1.86-.28.7.25,1.05.82,1.19,1.49.21,1.03-.19,1.96-.57,2.9-2.4,6.05-6.99,12.57-12.27,16.33-4.7,3.35-9.83,4.67-15.61,2.83-3.45-1.1-3.59-.94-5.61,2.15-7.2,11.03-14.54,21.97-21.16,33.36-7.25,12.47-12.59,25.73-16.19,39.7-1.67,6.48-2.49,13.09-2.4,20.52Z"/>
        <path class="cls-10" d="M472.41,450.39c-.31,1.11-.71,2.56-1.12,4-2.01,7.04-4.47,13.99-5.74,21.21-2.66,15.18-1.97,30.16,2.99,44.88,5.17,15.37,11.88,30.04,19.61,44.26,1.43,2.64,2.88,5.26,4.31,7.89.48.88.96,1.76,1.36,2.67.56,1.28.87,2.59-.51,3.58-.96.69-2.28.23-3.27-1.39-1.65-2.7-3.15-5.49-4.67-8.26-8.42-15.37-15.84-31.17-21.32-47.86-5-15.21-6.19-30.61-2.92-46.31.54-2.58.73-4.86-1.89-6.58-1.1-.72-3.18-5-3.38-6.34-.8-5.46,1.02-10.15,4.32-14.39.1-.13.25-.22.38-.32.71-.53,1.5-.83,2.31-.36,1.04.61,1.16,1.65.66,2.6-1.17,2.21-2.5,4.33-3.14,6.78-.42,1.62-.88,3.24-.02,4.85.14.26,2.01,3.41,2.29,3.45.26.04.72-.14.83-.35.44-.88.85-1.8,1.15-2.74,1-3.18,1.94-6.37,2.93-9.56.35-1.11.7-2.23,1.18-3.29.42-.94,1.13-1.8,2.28-1.56,1.48.31,1.49,1.57,1.4,3.13Z"/>
        <path class="cls-10" d="M457.03,590.25c-3.27-3.73-6.24-7.1-9.19-10.48-.98-1.13-2-2.23-2.86-3.45-.62-.88-.65-1.92.29-2.68.93-.74,1.92-.47,2.72.24.99.88,1.9,1.87,2.82,2.83,5.33,5.55,11.06,10.59,17.7,14.55,10.18,6.08,21.35,9.2,32.9,11.25,8.71,1.55,17.49,2.26,26.33,2.35,2.82.03,5.64.44,8.45.71.83.08,1.61.29,2.27.89.88.81.72,2.53-.41,2.92-.77.27-1.62.4-2.44.4-16.2-.04-32.27-1.3-47.97-5.63-7.9-2.18-15.53-5.06-22.39-9.65-2.03-1.36-3.66-1.56-5.86-.22-14.54,8.87-30.41,14.23-47.07,17.38-1.13.21-2.3.3-3.45.3-.7,0-1.25-.53-1.45-1.2-.26-.88.07-1.63.86-2.14,1.3-.84,2.81-1.01,4.27-1.3,9.82-1.99,19.4-4.8,28.57-8.87,4.41-1.96,8.71-4.17,13.02-6.33,1.17-.58,2.44-1.11,2.87-1.87Z"/>
        <path class="cls-10" d="M259.18,496.3c-.1-3.54.58-6.99,1.37-10.39,1.29-5.53,3.13-10.88,5.44-16.07.47-1.06,1-2.12,1.69-3.04.5-.67,1.34-.99,2.23-.52.84.44,1.16,1.21,1,2.08-.15.81-.46,1.6-.75,2.37-.89,2.34-1.82,4.65-2.71,6.99-5.59,14.73-4.31,29.07,2.42,43.11,3.98,8.3,9.32,15.76,14.55,23.29,1.9,2.74,3.92,5.39,5.77,8.16.96,1.43,2.71,2.88,1.12,4.84-1.04,1.28-2.92.53-4.76-2.06-4.14-5.84-8.21-11.74-12.27-17.64-4.64-6.75-8.67-13.82-11.45-21.57-2.27-6.33-3.46-12.84-3.66-19.55Z"/>
        <path class="cls-10" d="M209.04,452.89c-.3-5.03.35-11.29,2.24-17.39.44-1.42.79-2.9,1.87-4.03.49-.51,1.09-.78,1.78-.61.94.23,1.38.97,1.31,1.85-.08.98-.31,1.96-.6,2.9-2.45,8.09-2.6,16.3-1.93,24.69,1.08,13.48,4.85,26.1,10.78,38.17.73,1.48,1.25,3.08,1.71,4.67.24.81-.04,1.7-.85,2.16-1.02.57-2.01.23-2.66-.61-.71-.9-1.29-1.93-1.8-2.97-5.62-11.6-9.89-23.6-11.27-36.52-.39-3.65-.54-7.29-.58-12.29Z"/>
        <path class="cls-10" d="M361.6,519.8c1.73.01,2.26.59,2.47,1.47.28,1.2-.36,2.27-.63,3.39-1.04,4.37-2.15,8.72-3.09,13.1-3.33,15.52,1.1,28.9,11.32,40.66,1.31,1.51,2.71,2.93,3.98,4.47.62.75,1.09,1.65,1.51,2.55.29.63.1,1.35-.36,1.86-.62.69-1.52.81-2.28.4-.86-.47-1.7-1.07-2.35-1.79-4.24-4.69-8.3-9.5-11.45-15.05-5.79-10.19-6.85-21.07-4.9-32.37.82-4.74,2.14-9.4,3.33-14.07.32-1.27.94-2.48,1.55-3.65.3-.57.91-.96.9-.96Z"/>
        <path class="cls-10" d="M573.34,610.75c-2.49,0-4.99.02-7.48,0-.99-.01-2.01-.03-2.97-.22-1.05-.21-1.83-.86-1.75-2.06.06-.94.73-1.54,1.58-1.68,1.14-.19,2.31-.25,3.47-.24,15.02.16,29.82-1.96,44.58-4.46,2.95-.5,5.89-1.07,8.84-1.56.98-.16,1.98-.31,2.97-.27.86.03,1.58.51,1.8,1.44.22.9-.12,1.62-.82,2.18-1.1.87-2.47.96-3.76,1.21-10.6,2.06-21.25,3.85-32.03,4.74-4.8.4-9.59.94-14.42.92Z"/>
        <path class="cls-10" d="M344.12,386.43c3.45.28,6.75-1.33,9.64-4.18,3.59-3.53,6.52-7.55,9.15-11.81.61-.99,1.16-2.03,1.86-2.95.64-.85,1.58-1.35,2.61-.71.99.61,1,1.67.68,2.67-.2.63-.49,1.24-.81,1.82-3.04,5.6-6.63,10.8-11.45,15.02-5.26,4.6-11.32,6.22-18.11,4.08-8.45-2.67-9.21-9.57-5.96-15.92.57-1.11,1.51-1.85,2.85-1.36,1.37.5,1.55,1.63,1.21,2.88-.31,1.12-.79,2.2-1.07,3.33-.7,2.89.23,4.78,2.89,6.13,1.85.94,3.85.98,6.51,1.01Z"/>
        <path class="cls-10" d="M258.27,380.88c-3.84,0-6.84-.9-9.43-2.88-2.91-2.22-3.94-5.25-3.44-8.82.18-1.25.86-2.23,2.27-2.19,1.15.04,1.68.94,1.99,1.95.1.32.18.64.22.97.23,1.83.43,3.68,2.25,4.75,2.06,1.21,4.32,1.79,6.68,1.58,4.52-.38,8.29-2.24,11-6.02,2.34-3.26,4.1-6.84,5.84-10.42.58-1.19,1.12-2.41,1.8-3.55.53-.89,1.36-1.57,2.48-1.12,1.4.56,1.31,1.74.99,2.94-.09.32-.22.63-.35.93-2.13,4.88-4.35,9.71-7.47,14.06-3.78,5.27-9.07,7.58-14.82,7.81Z"/>
        <path class="cls-10" d="M601.46,416.59c-.4,4.71,2.24,7.17,6.93,6.32,3.74-.68,6.17-3.14,7.97-6.3,1.74-3.07,2.67-6.46,3.7-9.81.34-1.1.75-2.2,1.27-3.23.31-.6.98-.89,1.71-.77.96.16,1.47.8,1.5,1.71.03.82-.03,1.68-.22,2.47-1.03,4.22-2.32,8.37-4.46,12.17-2.41,4.28-5.99,7.05-10.82,8.22-2.04.49-4,.39-5.89-.36-6.68-2.65-7.83-7.13-5.52-13.26.45-1.19,1.4-1.95,2.75-1.55,1.11.33,1.42,1.33,1.38,2.4-.03.66-.2,1.32-.3,1.98Z"/>
        <path class="cls-10" d="M408.58,477.03c-2.91.08-5.34-.4-7.64-1.48-1.52-.72-2.89-1.67-3.91-3.03-.83-1.1-1.31-2.33-1.12-3.73.17-1.24.7-2.32,2.03-2.53,1.14-.19,1.96.56,2.19,1.61.69,3.21,3.23,4.05,5.88,4.61,3.02.63,5.97.47,8.52-1.65,2.61-2.17,4.4-4.97,6.12-7.83.77-1.28,1.32-2.72,2.62-3.6.56-.38,1.22-.54,1.87-.14.61.37,1.03.93.92,1.63-.12.81-.32,1.65-.7,2.36-1.71,3.25-3.67,6.34-6.13,9.09-2.94,3.3-6.48,5.2-10.67,4.69Z"/>
        <path class="cls-10" d="M668.13,465.9c-.01-2.62.96-4.22,2.65-4.81,1.38-.48,3.16.77,2.58,2-1.9,4.02.35,7.1,2.14,10.17,2,3.44,4.41,6.63,6.59,9.97.72,1.1,1.38,2.26,1.88,3.47.34.81,0,1.66-.75,2.18-.77.53-1.58.4-2.29-.16-.39-.3-.74-.67-1.04-1.06-3.75-5.08-7.44-10.2-10.05-16-.89-1.98-1.45-4.06-1.7-5.76Z"/>
        <path class="cls-10" d="M659.97,544.69c-1.34-.02-2.65-.1-3.76-.97-.84-.67-1.29-1.5-.89-2.59.33-.92,1.14-1.31,1.97-1.08,4.28,1.17,7.71-.69,11.13-2.86,1.95-1.24,3.37-1.13,3.86.04.65,1.55-.29,2.56-1.38,3.35-3.26,2.36-6.75,4.17-10.93,4.12Z"/>
        <path class="cls-10" d="M600.06,556.87c-.24.94-.78,1.57-1.72,1.57-.63,0-1.37-.15-1.89-.48-3.07-2-6.11-4.05-9.12-6.15-.52-.36-.89-.97-1.23-1.53-.38-.63-.2-1.29.22-1.86.44-.6,1.09-.76,1.77-.64.48.08.97.27,1.38.54,3.06,2.02,6.11,4.05,9.14,6.12.84.57,1.48,1.36,1.45,2.43Z"/>
        <path class="cls-10" d="M694.86,583.12c.89,0,1.78,1.25,1.57,2.15-.2.86-.69,1.54-1.4,1.97-3.26,1.95-6.53,3.89-9.85,5.74-.93.52-1.96.36-2.56-.71-.46-.81-.34-1.77.3-2.29,3.49-2.8,7.42-4.88,11.44-6.82.14-.07.33-.03.49-.04Z"/>
      </g>
    </g>
  </g>
  <g>
    <path class="cls-3" d="M827.2,54.41c-1.47-1.05-2.99-1.98-4.55-2.8-4.06-2.11-7.5-5.26-9.8-9.22-2.24-3.85-5.47-7.07-9.44-9.2-8.93-4.77-19.62-3.47-27.92,3.4h0c-.87.72-2.04.95-3.11.6-9.81-3.19-19.98-.51-26.91,7.21-6.97,7.76-8.47,19.26-3.73,28.61.56,1.1,1.17,2.15,1.85,3.16,1.21,1.79,1.56,4,1.1,6.11,0,.01,0,.02,0,.04-1.81,8.29-.13,17.36,4.49,24.27,4.55,6.8,11.2,11.19,18.73,12.35,2.93.45,5.88.4,8.77-.13,4.2-.78,8.5-.38,12.64.66,2.46.62,5.04.93,7.71.93,1.73,0,3.5-.13,5.3-.4,9.02-1.33,16.29-7.03,19.8-14.88,1.34-2.99,3.4-5.6,6.09-7.48,5.35-3.74,8.96-9.21,10.32-15.93,2.15-10.65-1.98-20.6-11.33-27.3Z"/>
    <g>
      <path class="cls-9" d="M783.4,98.46c-1.49.34-2.19,1.76-3.31,2.65-6.36,5.09-13.97,3.85-18.46-2.86-3.98-5.95-4.05-16.5,3.51-21.15.54-.33,1.12-.68,1.24-1.51-1.11-1.19-2.79-1.44-4.16-2.26-2.97-1.78-5.53-3.99-7.11-7.12-1.98-3.89-1.31-8.65,1.51-11.79,3.13-3.49,7.45-4.46,11.95-2.66,2.59,1.04,4.78,2.69,6.85,4.53.94.83,1.56,2.1,3.05,2.29,1.33-.7,1.17-2.19,1.67-3.31,1.21-2.69,2.62-5.22,4.92-7.13,3.56-2.95,7.82-3.57,11.28-1.72,3.46,1.85,5.55,6.4,4.99,10.81-.22,1.75-1.07,3.41-.78,5.21,1.2,1.13,2.5.37,3.72.26,5.23-.49,9.98.88,14.2,3.9,4.13,2.96,6.4,6.95,5.36,12.14-1.06,5.23-4.81,7.83-9.78,8.91-.95.21-1.92.27-2.89.37-1.89.19-2.43,1.21-2.07,3.01.25,1.26.38,2.58.31,3.86-.28,5.43-3.9,9.47-9.27,10.27-5.62.83-10.63-.36-14.52-4.83-.62-.71-1.05-1.66-2.2-1.86Z"/>
      <path class="cls-1" d="M796.31,76.83c5,.48,9.11,2.74,12.13,6.89.82,1.12,1.02,2.46-.26,3.45-1.08.83-2.26.45-3.07-.42-2.86-3.06-6.19-5.11-10.43-5.55-1.02-.11-1.85-.74-1.91-1.85-.08-1.34.77-2.05,1.99-2.34.47-.11.96-.11,1.55-.17Z"/>
      <path class="cls-1" d="M785.6,88.71c-.23,1.95.25,3.83.54,5.74.22,1.5.1,3.07-1.79,3.38-1.88.31-2.51-1.22-2.85-2.64-.69-2.84-.81-5.74-.18-8.61.41-1.87,1.76-2.9,2.98-2.46,1.49.53,1.68,1.78,1.5,3.16-.06.48-.13.95-.2,1.43Z"/>
      <path class="cls-1" d="M800.26,65.33c-.1.27-.15.85-.46,1.13-1.76,1.62-3.55,3.22-5.42,4.72-.65.52-1.58.41-2.25-.12-.85-.68-1.03-1.67-.52-2.6,1.27-2.31,3.06-4.14,5.51-5.15,1.62-.66,3.23.36,3.14,2.01Z"/>
      <path class="cls-1" d="M772.11,78.16c-1.44.02-2.55-.31-2.91-1.58-.36-1.3.37-2.19,1.57-2.61,1.67-.58,3.35-1.18,5.08-1.58,1-.23,1.92.31,2.33,1.32.43,1.05-.05,1.9-.89,2.51-1.6,1.17-3.46,1.69-5.18,1.94Z"/>
      <path class="cls-1" d="M783.42,65.79c-.01,1.34-.31,2.43-1.58,2.79-1.27.36-2.17-.28-2.63-1.45-.58-1.48-1.11-2.98-1.57-4.5-.3-1.01.06-1.9,1.03-2.4.98-.51,1.89-.18,2.59.54,1.4,1.43,1.92,3.25,2.16,5.03Z"/>
      <path class="cls-3" d="M791.8,68.74c-5.52-5.34-17.52-2.96-16.18,6.71.58,4.2,3.32,7.97,7.03,9.44,3.6,1.43,7.96.06,10.18-3.33,1.24-1.89,1.68-4.35,1.62-6.64-.07-2.61-1.1-4.68-2.66-6.18Z"/>
    </g>
  </g>
  <path class="cls-5" d="M934.22,524.04c-10.3,0-10.31,16,0,16s10.31-16,0-16Z"/>
  <path class="cls-5" d="M326.72,699.95c-10.3,0-10.31,16,0,16s10.31-16,0-16Z"/>
  <path class="cls-5" d="M357.22,49.66c-10.3,0-10.31,16,0,16s10.31-16,0-16Z"/>
  <path class="cls-3" d="M218.53,623.75c-6.43,0-6.45,10,0,10s6.44-10,0-10Z"/>
  <path class="cls-3" d="M316.87,672c-6.43,0-6.45,10,0,10s6.45-10,0-10Z"/>
  <path class="cls-3" d="M441.08,752.68c-6.43,0-6.45,10,0,10s6.45-10,0-10Z"/>
  <path class="cls-3" d="M470.69,733.27c-6.43,0-6.45,10,0,10s6.44-10,0-10Z"/>
  <path class="cls-3" d="M996.3,338.95c-6.43,0-6.44,10,0,10s6.45-10,0-10Z"/>
</svg>