<?xml version="1.0" encoding="UTF-8"?>
<svg id="Layer_1" xmlns="http://www.w3.org/2000/svg" viewBox="0 0 816.53 1013.66">
  <defs>
    <style>
      .cls-1 {
        fill: #e9fffb;
      }

      .cls-2 {
        fill: #c6956a;
      }

      .cls-3 {
        fill: #ee9e2b;
      }

      .cls-4 {
        fill: #ef6200;
      }

      .cls-5 {
        fill: #68182b;
      }

      .cls-6 {
        fill: #fff7cf;
      }

      .cls-7 {
        fill: #ff801d;
      }

      .cls-8 {
        fill: #fff;
      }

      .cls-9 {
        fill: #fac135;
      }

      .cls-10 {
        fill: #db9f6e;
      }

      .cls-11 {
        fill: #fbe134;
      }

      .cls-12 {
        fill: #facb1a;
      }

      .cls-13 {
        fill: #fbf199;
      }

      .cls-14 {
        fill: #f9c6a0;
      }

      .cls-15 {
        fill: #f3af79;
      }

      .cls-16 {
        fill: #865725;
      }

      .cls-17 {
        fill: #a9cddd;
      }

      .cls-18 {
        fill: #c98450;
      }

      .cls-19 {
        fill: #aa8053;
      }

      .cls-20 {
        fill: #ceffff;
      }
    </style>
  </defs>
  <path class="cls-8" d="M737.84,146.82c-16.52-21.26-40.9-35.34-70.4-41.04-6.7-85.1-89.25-129.88-171.06-82.77-41.05-30.32-100.36-31.47-140.06,1.27-30.8-9.57-64.72-7.01-92.9,9.06-20.72,11.62-38.11,29.83-49.88,51.73-31.67.6-57.42,9.02-79.1,29-22.21,20.88-31.71,48.06-36.22,71.68C27.87,212.21.53,287.41,34.01,353c-38.64,50.94-28.47,129.45,22.23,166.95-10.46,43.02,1.12,84.61,37.56,107.68-35.28,65.13-64.41,140.26-83.6,218.25-4.09,16.83-9.09,34.78-10.2,53.26,2.91,47.89,43.67,55.97,79.66,34.95,22.5-13.41,47.66-31.22,71.38-40.29,6.28,11.12,11.86,23.15,17.68,35.69,14.29,26.08,23.17,64.28,58.11,78.78,24.2,7.95,46.95-7.43,53.72-32.26,19.78-70.45,47.3-150.5,101.53-214.48,15.78-3.94,31.36-12.09,44.44-22.49,17.83,28.16,33.29,61.07,46.88,99.72,10.77,30.02,19.48,61.94,27.91,92.81,8.6,25.87,12.35,73.51,42.35,80.66,58.76,14.1,79.04-78.75,109.38-111.84,21.55,2.68,43.68,6.88,63.8,13.05,10.37,2.67,16.48,6.33,24.09,10.42,18.45,8.14,32.65,2.94,39.47-.88,22.13-12.41,25.77-40.02,19.83-60.97-22.89-86.01-61.32-160.93-105.95-236.59,13.52-19.36,21.2-41.51,22.2-64.07,61.44-34.91,72.8-83.79,51.2-138.08,61.35-54.46,71.47-157.23-7.55-203.13,1.32-26.77-6.4-52.87-22.28-73.31Z"/>
  <g>
    <path class="cls-5" d="M712.06,166.84c-18.2-23.43-48.2-31.5-76.78-31.29.12-1.75.31-3.5.37-5.26.82-21.53-2.56-44.49-14.27-62.99-28.94-47.49-91.66-32.9-128.3-2.83-31.35-38.51-93.67-44.62-126.8-4.25-.75.92-1.15,1.91-1.3,2.89-13.86-7.38-29.15-11.79-45.54-11.78-40.86-.07-73.04,29.88-84.88,67.55-27.3-3.3-56.84-.71-77.75,18.96-19.84,18.66-26.55,46.82-29.22,73.11-34.9,7.17-69,33.07-74.23,70.22-4.14,26.76,5.51,53.6,20.35,75.6-19,18.39-31.36,43.1-30.77,70,.51,23.17,10.11,46.56,27.27,62.38,7.3,6.73,15.91,12.02,25.35,15.03-2.06,5.12-3.96,10.3-5.53,15.6-5.06,17.13-7.3,36.36-.84,53.44,8.64,22.84,29.43,33.81,51.91,37.54-43.05,70.92-74.23,148.85-95.73,228.86-4.64,19.53-10.44,39.09-12.73,59.03.39,26.1,29.31,8.87,40.96.73,27.52-16.68,55-35.73,87.04-42.32,1.09-.22,2.46-.26,3.54-.64,2.99,1.66,4.74,4.63,6.5,7.02,18.28,27.33,29.24,58.96,45.05,87.67,5.49,12.24,24.8,42.56,33.4,16.07,23.87-85.03,55.81-169.24,115.83-235.65,22.22-2.44,43.19-16.52,57.94-34.39,2.5-3.03,4.87-6.14,7.13-9.33,33.32,41.5,56.5,89.91,74.09,139.92,17.27,48.11,28.69,98.17,43.22,147.01,9.97,20.68,30.02-12.63,34.77-20.34,17.88-27.55,30.48-60.4,53.84-83.71,12.23-6.06,27.95-1.46,40.79.14,16.51,2.65,32.92,6.34,48.93,11.18,9.95,2.8,19.66,6.53,28.44,11.98,16.11,7.11,18-12.37,14.54-23.68-12.88-55.37-38.85-107.06-63.31-158.09-15.53-30.68-31.88-61.25-52.11-89.13,22.17-20.61,35.3-50.9,29.24-82.14,62.11-23.53,80.56-68.98,43.7-126.24,40.09-26.37,71.99-78.43,52.51-126.69-8.28-20.35-25.21-35.84-44.93-44.98-3.2-1.48-6.43-2.76-9.68-3.95,7.15-24.63,3.98-51.68-12-72.25Z"/>
    <path class="cls-13" d="M471.16,210.13c-37.65-11.56-77.37-7.46-112.56,10.08-121.19,57.84-189.37,228.19-54.89,311.52,117.79,35.08,254.28-97.44,247.27-213.85-6.27-45.84-39.48-84.99-79.82-107.75ZM474.82,363.38c-4.64,4.25-11.65,8.07-14.79,12.88,3.45,13.16,6.91,26.35,9.43,39.75,2.81,14.46,6.99,32.16.19,46.18-18.9,29.79-58.73-2.09-79.63-14.65-4.52-2.93-10.56-8.96-16.45-6.87-20.77,10.6-39.5,32.17-64.61,31.43-31.98-6.02-12.52-45.99-4.72-65.05,2.59-6.82,9.61-17.44,4.37-24.26-5.85-7.62-13.87-14.03-20.32-21.2-46.23-46.2-1.96-57.44,41.72-61.21,7.08-.91,16.83-.47,21.29-7.09,11.1-16.86,28.81-75.66,57.68-57.66,16.24,13.77,16.77,38.02,25.21,56.2,5.08,5.85,16.08,2.58,23.21,4.05,69.3,1.95,73.04,29.42,17.43,67.51Z"/>
    <path class="cls-10" d="M432.09,304.71c-5.46-2.29-8.06-6.83-9.99-12.15-7.48-16.17-13.98-73.27-37.47-36.6-9,12.73-15.04,27.05-22.14,40.84-7.35,14.26-23.19,13.78-37.19,15.75-13.86,2.44-29,2.88-41.44,10.02-14.6,11.08,24.49,41.33,31.86,50.9,19.02,19.73-15.95,55.81-12.8,80.36,3.61,23.39,56.7-18.92,63.69-22.57,13.4-6.99,23.86,3.02,34.83,9.91,14.45,8.25,28.69,19.09,45.47,21.7,31.92,1.26,2.99-69.82,1.63-86.95,1.44-11.66,14.76-16.96,22.54-24.23,10.51-9.19,24.4-16.77,30.3-29.93,5.3-17.23-60.85-13.52-69.29-17.05ZM386.54,400.06c-16.4,4.18-33.75-4.25-40.3-19.91-12.44-29.83,22.47-66.7,52.91-55.67,41.5,16.07,22.92,66.07-12.61,75.58Z"/>
    <path class="cls-20" d="M355.1,364.02c4.65-29.2,46.65-44.52,56.55-10.23.79,14.31-11.28,27.92-23.57,33.61-15.63,8.08-35.88-6.17-32.98-23.38Z"/>
    <path class="cls-13" d="M569.91,47.87c38.13,2.79,53.93,40.88,54.34,74.57.35,28.56-7.42,56.82-18.37,83.08-24.21-24.13-53.25-43.74-83.43-59.26-21.89-11.11-44.61-21.42-68.74-26.42,28.92-35.01,67.61-73.39,116.2-71.97Z"/>
    <path class="cls-19" d="M353.76,615.44c80-5.41,152.14-55.15,202.89-114.8,72.2-84.59,112.7-204.16,30.74-296.81,99.22,84.61,87.55,221.2,4.35,312.72-58.3,66.79-148.43,110.64-237.99,98.88Z"/>
    <path class="cls-9" d="M494.46,603.57c13.21,19.12,30.9,34.88,52.84,42.98-18,53.51-67.54,68.05-110.59,30.98,11.45-18.93,19.38-39.98,25.18-61.29,11.1-3.58,21.98-7.8,32.57-12.67Z"/>
    <path class="cls-7" d="M193.89,543.29c12.2-14.94,23.62-30.64,41.65-38.62,17.88,17.55,40.34,30.92,64.43,37.82,24.44,7.21,50.41,8.43,75.55,3.75,1.81,17.87,3.49,36.1,10.05,52.85-34.11,7.72-69.83,7.46-103.81-2.42-33.5-9.74-63.81-28.44-87.87-53.37Z"/>
    <path class="cls-9" d="M278.26,607.46c.56,21.37,3.5,45.59,11.51,67.18-63.31,32.89-100.74,2.87-102.97-64.84,18.8-3.23,37.03-9.28,54.5-16.99,1.13.58,2.24,1.2,3.38,1.75,10.85,5.3,22.1,9.56,33.58,12.89Z"/>
    <path class="cls-19" d="M257.67,508.51c-14.18-10.67-26.44-23.9-35.94-39.03-37.97-56.56-25.41-128.22,12.19-181.48,41.09-59.03,112.79-108.9,187.51-95.86-17.79.69-35.47,4.34-52.34,10.92-115.59,44.15-205.77,199.62-111.42,305.45Z"/>
    <path class="cls-9" d="M389.07,543.13c46.06-12.66,87.24-43.56,117.75-79.71.69-.82,1.36-1.66,2.04-2.49,16.3,6.03,32.26,13.5,47.38,22.14-41.99,52.64-98.44,96.66-163.91,114.35-6.75-16.57-8.26-34.87-10.07-52.58,2.28-.52,4.55-1.09,6.8-1.71Z"/>
    <path class="cls-7" d="M513.4,455.3c24.91-31.71,44.05-69.47,48.77-109.74,6-38.3-17.32-37.32,30.76-42.93,8.64-.19,20.82-3.14,28.11.09,6.07,63.34-23.41,125.32-60.53,174.83-15.03-8.64-30.89-16.11-47.1-22.26Z"/>
    <path class="cls-9" d="M593.06,295.73c-11.23,1.13-22.65,2.84-33.43,6.38-10.69-39.97-39.17-73.65-73.29-96.1,8.61-17.22,19.28-33.38,33.67-46.42,13.82,8.66,26.77,18.71,38.55,29.98,26,24.9,47.87,56.1,57.95,90.97,1.36,4.71,2.4,9.51,3.27,14.33-8.9-.58-17.91-.02-26.73.86Z"/>
    <path class="cls-7" d="M481.2,201.4c-.29,2.71-3.92-1.61-5.67-1.92-34.09-19.47-75.1-25.92-113.36-17.23-2.87-16.48-3.31-33.48-1.06-50.07,29.67-7.09,60.65-7.85,90.79-1.05,21.86,4.93,42.7,13.51,61.98,24.79-13.61,12.97-24.82,28.4-32.68,45.49Z"/>
    <path class="cls-9" d="M355.47,183.96c-39.02,10.31-74.92,34.58-103.23,63.59-11.8-9.57-25.33-16.81-39.82-21.44,29.34-32.54,65.31-59.47,104.58-78.29,11.91-5.71,24.28-10.31,36.92-13.79-1.88,16.58-1.41,33.49,1.55,49.93Z"/>
    <path class="cls-7" d="M247.5,252.56c-2.04,2.21-4.03,4.44-5.98,6.7-24.28,28.24-42.72,62.24-50.81,98.74-1.86,8.4-2.98,16.74-3.43,25.02-16.23-4.32-33.25-4.92-49.77-1.98,7.24-55.33,33.84-107.23,69.94-149.25,14.57,4.24,28.25,11.25,40.05,20.77Z"/>
    <path class="cls-9" d="M187.13,390.12c-.45,39.42,15.95,80.29,43.29,109.31-17.53,8.15-29.87,23.75-41.13,38.96-7.68-8.51-14.68-17.67-20.83-27.42-12.29-19.49-21.66-41.16-27.12-63.69-4.54-19.13-6.58-39.29-4.68-59.09,16.73-3.35,34.06-2.71,50.48,1.94Z"/>
    <path class="cls-9" d="M484.09,71.61c-16.07,13.51-30.25,29.43-43.07,45.85-7.24-1.12-14.52-1.83-21.83-2.2-11.31-18.14-27.92-34.83-44.81-46.83,27.09-35.14,83.54-30.83,109.71,3.19Z"/>
    <path class="cls-13" d="M272.45,80.13c25.09-21.61,60.42-21.48,88.6-6.08,17.88,9.77,32.45,24.38,44.13,40.94-19.77.29-39.52,3.29-58.63,9.07-39.6,12.13-75.43,34.47-107.31,60.57-2.65-37.19,3.49-78.62,33.21-104.49Z"/>
    <path class="cls-9" d="M164.91,146.03c17.8-16.74,43.17-18.48,66.49-15.97-4.9,20.78-5.04,42.57-2.74,63.75-6.5,5.85-12.77,11.96-18.8,18.29-22.47-4.63-47.07-6.62-70.49-3.3,2.54-22.67,8.54-46.79,25.55-62.77Z"/>
    <path class="cls-13" d="M64.03,288.47c6.54-64.02,84.5-77.65,136.76-66.46-.9,1.03-1.83,2.03-2.72,3.07-40.51,47.5-69.36,107.12-73.52,169.98-31.14-25.95-63.58-63.25-60.51-106.6Z"/>
    <path class="cls-9" d="M59.45,397.68c4.47-11.99,12.01-22.44,21.02-31.4,12.5,16.33,27.8,30.59,43.86,43.27.25,12.1,2.07,24.1,4.78,35.96-10.77,15.11-20.92,31.07-28.89,47.98-38.59-11.22-53.96-60.46-40.77-95.81Z"/>
    <path class="cls-13" d="M101.58,573.08c-15.58-39.21,10.59-80.63,31.37-113.02,15.21,51.82,49.33,97.84,95.67,125.72-38.66,15.54-101.1,30.31-127.04-12.7Z"/>
    <path class="cls-20" d="M305.5,793.2c-27.7,46.88-45.84,98.62-61.53,150.55-2.07,6.92-4.1,13.84-6.06,20.8-3-3.06-5.33-7.23-8.05-11.71-16.01-28.01-27.52-58.39-43.7-86.3-10.39-19.3-18.21-26.54-40.22-17.65-35.19,10.49-63.98,34.05-96.2,50.59-1.74.74-3.46,1.43-5.49,1.74-.05-.98-.15-2.5.02-3.94,17.17-92.63,50.68-183.65,97.56-265.42,10.8-17.12,6.74-20.97,29.1-20.01,1.47-.12,2.92-.32,4.38-.48,1.3,22.58,5.58,46.48,19.29,64.88,23.53,32.58,68.25,25.18,99.6,8.98,10.29,22.38,30.62,42.82,55.83,46.1-16.39,19.47-31.56,39.94-44.55,61.86Z"/>
    <path class="cls-13" d="M379.54,716.54c-62.13,22.96-90.63-57.06-89.68-106.04,50.79,18.58,106.1,25.2,158.99,9.61-11.15,37.25-30.78,80.68-69.31,96.43Z"/>
    <path class="cls-20" d="M684.21,696.43c29.18,58.64,61.68,119.22,74.24,183.81.48,4.38-1.27,1.95-3.94.59-5.1-2.8-10.65-4.87-16.13-6.79-14.87-5.21-30.31-8.96-45.76-12-43.68-7.34-62.82-15.16-86.7,28.85-13.76,21.86-25.19,45.14-39.51,66.64-5.01,6.4-9.6,17.08-11.42,2.76-24.43-88.72-46.33-181.14-99.73-257.7,44.75,22.37,89.09-8.57,103.03-52.66,29.76,7.07,62.09-.94,86.18-19.46,15.12,20.69,27.73,43.39,39.73,65.96Z"/>
    <path class="cls-13" d="M661.81,594.78c-19.5,33.12-61.1,52.53-98.95,44.44-24.28-5.19-43.86-20.82-57.94-40.73,51.56-26.24,95.66-66.61,126.14-115.83,33.9,25.41,55.26,73.28,30.75,112.12Z"/>
    <path class="cls-9" d="M733.74,473.53c-1.67,29.3-29.84,45.93-54.17,56.22-7.54-22.81-24.08-41.87-42.67-57.02,4.56-8.07,8.77-16.31,12.5-24.78,22.81-5.61,46.21-14.43,67.08-26.99,9.63,15.82,18.21,33.83,17.27,52.58Z"/>
    <path class="cls-13" d="M765.76,287.36c19.64,38.07-2.88,81.14-32.07,106.86-22.47,19.8-50.25,32.49-78.97,40.44,2.98-7.92,5.71-15.93,7.87-24.13,15.04-56,7.22-117.47-25.03-166.1,45.37-6.8,103.84-1.97,128.19,42.93Z"/>
    <path class="cls-9" d="M713.08,235.61c-26.85-7.18-55.05-5.78-82.8-1.74-4.93-6.72-10.2-13.17-15.81-19.33,9.29-21.54,16.59-44.18,19.67-67.46,52.45-2.79,94.6,34.31,78.95,88.53Z"/>
    <path class="cls-15" d="M346.55,124.05c17.88-5.41,36.33-8.28,54.83-8.88-15.57-4.78-32.34-5.19-48.64-2.03-15.22,2.95-29.74,9.23-44.02,15.1-11.8,4.85-22.36,11.76-35.05,14.36-23.09,4.74-24.64-17.96-20.51-33.86.45-1.53.94-3.07,1.47-4.6.67-1.97,1.41-3.92,2.18-5.86-16.2,24.92-19.65,56.94-17.56,86.35,31.88-26.1,67.71-48.44,107.31-60.57Z"/>
    <path class="cls-15" d="M500.65,230.92c2.77,3.87,5.5,7.77,8.06,11.79,8.98,14.1,14.75,30.34,19.25,46.34,8.47,30.12,8.87,59.7-.89,89.46-18.26,55.65-57.2,107.63-111.66,131.43-45.41,19.84-97.96,20.36-137.21-12.77-25.76-21.74-37.15-53.39-41.96-85.83-1.76-11.86-2.83-24.02-2.94-36.19-11.67,57.57,6.4,116.93,70.41,156.59,117.79,35.08,254.28-97.44,247.27-213.85-4.65-33.99-24.13-64.28-50.33-86.96Z"/>
    <path class="cls-15" d="M506.78,128.32c-12.21-3.59-26.28-6.53-39.36-5,19.09,5.55,37.33,13.96,55.03,22.94,30.18,15.52,59.21,35.13,83.43,59.26,10.96-26.27,18.73-54.52,18.37-83.08-.42-33.66-16.19-71.71-54.24-74.56,18.54,9.28,29.21,27.32,34.09,47.76,2.8,11.77,2.8,24.1.77,35.97-1.24,7.24-3.21,14.92-9.64,19.34-6.69,4.6-18.62,2.23-25.84.65-21.54-4.7-41.38-17.04-62.6-23.28Z"/>
    <path class="cls-15" d="M228.61,585.78c-45.1-27.13-78.57-71.46-94.35-121.58-4.03,10.56-.11,24.85,2.93,34.56,7.14,22.82,24.29,39.92,39.95,57.15,5.34,5.87,12.16,14.94,8.05,23.23-2.66,5.35-10.91,6.62-16.09,7.49-8.68,1.45-17.74.81-26.46.08-16.69-1.39-32.02-7.94-41.5-22.19-1.34-2.02-2.5-4.16-3.55-6.37.73,5,2.02,9.99,3.99,14.94,25.94,43.02,88.37,28.24,127.04,12.7Z"/>
    <path class="cls-15" d="M294.31,612.05c10.43,13.7,27.39,19.66,43.79,24.38,9.88,2.85,19.95,4.88,30.14,6.28,12,1.65,24.11-.06,36.05,1.84,30.83,4.91,4.15,37.93-5.87,49.77-8.41,9.95-18.52,17.98-29.3,25.15,3.37-.66,6.83-1.61,10.42-2.94,38.53-15.76,58.17-59.18,69.31-96.43-51.36,15.14-104.98,9.3-154.55-8.06Z"/>
    <path class="cls-15" d="M196.84,226.57c-22.77,14.8-41.6,36.15-55.71,60.23-9.97,17-15.27,37.47-29.3,51.82-17.55,17.96-34.52-3.74-45.69-25.2,7.65,32.69,33.42,60.83,58.41,81.65,4.12-62.21,32.44-121.24,72.3-168.5Z"/>
    <path class="cls-15" d="M773.13,316.4c-6.44,20.74-21.46,41.22-33.95,53.8-10.97,11.06-24.7,24.43-39.84,28.96-17.74,5.31-17.08-21.55-16.68-31.79.36-9.28,1.91-18.52,1.89-27.81-.02-15.77-3.73-32.32-9.45-46.91-5.83-14.85-16.57-27.07-29.83-35.36,25.65,46.34,31.07,102.07,17.32,153.25-2.16,8.19-4.89,16.2-7.87,24.13,28.72-7.95,56.5-20.64,78.97-40.44,21.91-19.31,40.06-48.4,39.44-77.82Z"/>
    <path class="cls-15" d="M662.04,518.87c3.66,28.97.45,58.48-20.85,80.72-18.27,19.08-47.87,26.58-73.44,26.34-14.91-.14-31.33-2.3-45.77-8.18,11.53,10.39,25.21,18.12,40.88,21.47,37.85,8.09,79.45-11.31,98.95-44.44,15.36-24.34,12.7-52.23.23-75.91Z"/>
    <path class="cls-6" d="M146.67,230.33c-27.68,1.59-61.65,12.49-56.9,43.08,2.13,13.74,20.82,4.46,26.59.63,12.97-8.61,24.22-19.6,35.92-29.97,11.46-10.17,10.05-14.64-5.61-13.74Z"/>
    <path class="cls-6" d="M308.11,113.99c10.43-1.2,20.27-8.31,29.44-12.83,7.34-3.62,15.02-5.47,22.81-5.58,7.84-.12,14.44-2.21,3.72-10.19-10.42-7.75-22.7-12.22-40.24-13.62-16.86-1.35-30.16,6.82-33.35,23.91-2.41,12.87,5.5,19.71,17.62,18.32Z"/>
    <path class="cls-6" d="M576.56,79.04c-6.21-15.41-28.33-13.58-40.93-10.25-11.84,3.13-23.36,9.23-33.44,17.04-13.95,10.82-10.98,13.71,5.5,11.96,16.64-1.77,34.28,1.2,50.78,1.08,12.65-.09,23.68-5.93,18.08-19.83Z"/>
    <path class="cls-6" d="M695.64,276.42c4.27,8.21,6.69,17.28,8.27,27.28,1.91,12.02-.68,24.24,1.16,36.32,3.17,20.77,21.23,14.69,31.41,3.19,13.71-15.48,15.84-39.98,5.51-57.75-7.76-13.34-22.23-20.36-37.32-23.85-15.64-3.61-15.83,1.76-9.03,14.81Z"/>
    <path class="cls-6" d="M597.63,547.22c-13.81,16.66-27.94,32.55-45.59,44.43-16.67,11.23-3.14,12.75,3.15,13.4,20.19,2.11,40.61-.56,58.42-11.3,18.18-10.96,30.22-33.86,23.3-54.87-7.39-22.42-31.69-.83-39.29,8.33Z"/>
    <path class="cls-6" d="M321.28,678.42c4.41,8.22,10.65,15.35,18.71,20.63,9.27,6.07,24.66,8.31,33.92.82,9.82-7.94,6.17-18.98-3.94-24.56-12.04-6.65-26.17-5.28-39.16-8.02-9.23-1.95-15.04.86-9.53,11.13Z"/>
    <path class="cls-6" d="M115.83,516.01c-4.23,22.56,4.88,51.62,30.37,49.59,10.28-.82,10.88-10.24,7.92-17.94-2.23-5.81-6.5-10.32-10.92-14.51-6.82-6.47-11.98-12.66-15.58-20.16-2.25-4.7-7.31-20.87-11.79,3.02Z"/>
    <path class="cls-3" d="M441.03,117.45c12.81-16.42,27-32.34,43.07-45.85-6.39-8.31-14.6-14.83-23.74-19.46,3.29,5.26,4.76,11.73,3.38,20.08-1.35,8.15-7.33,14.09-13.21,19.29-9.46,8.37-21.87,14.97-32.61,4.84-7.51-7.08-12.96-16.53-23.09-20.41-4.55-1.74-8.96-2.36-13.34-2.18,14.36,11.39,28,25.89,37.71,41.47,7.31.37,14.59,1.08,21.83,2.2Z"/>
    <path class="cls-3" d="M547.31,646.55c-5.47-2.02-10.67-4.51-15.61-7.42-2.52,16.48-11,31.7-26.16,40.79-14.49,8.69-29.71,1.72-40.17-9.62-8.17-8.86-10.71-19.76-10.73-30.98-4.79,13.27-10.63,26.17-17.92,38.2,43.04,37.07,92.59,22.53,110.59-30.98Z"/>
    <path class="cls-3" d="M228.66,193.81c-2.3-21.18-2.16-42.97,2.74-63.75-10.44-1.12-21.3-1.38-31.7.17,5.32,2.65,9.94,7.08,13.51,12.86,9.64,15.6,2.17,39.68-12.2,49.54-12.11,8.3-30.68,5.71-44.29,11-2.79,1.08-5.39,2.48-7.79,4.13,20.48-1.67,41.5.34,60.93,4.34,6.03-6.33,12.3-12.44,18.8-18.29Z"/>
    <path class="cls-3" d="M169.54,386.73c7.3,8.03,10.13,19.91,11.97,30.19,3.15,17.6,7.78,32.67,16.6,48.21,3.85,6.78,7.44,13.58,9.98,20.98,3.73,10.85.55,18.98-4.88,28.37-2.97,5.13-5.64,10.16-7.39,15.33,9.59-12.24,20.37-23.78,34.61-30.39-27.34-29.01-43.74-69.88-43.29-109.31-5.77-1.63-11.66-2.74-17.59-3.38Z"/>
    <path class="cls-3" d="M658.56,148.76c9.86,4.6,19.09,10.23,27.19,18.16,6.92,6.78,12.19,15.39,15.49,24.47,5.3,14.57-6.56,23.86-19.36,27.32-11.22,3.02-32.63,5.16-44.84,14.27,25.56-3.28,51.37-3.97,76.05,2.63,13.13-45.46-14.38-78.87-54.52-86.84Z"/>
    <path class="cls-3" d="M311.64,190.08c-18.01,11.99-33.89,27.41-54.71,34.57-12.14,4.18-26.04.89-37.92,3.91,11.99,4.59,23.24,10.9,33.23,19,28.3-29.01,64.21-53.28,103.23-63.59-.86-4.76-1.44-9.56-1.89-14.37-14.94,4.79-29.21,12.02-41.93,20.49Z"/>
    <path class="cls-3" d="M530.72,470.02c.98,2.2,1.84,4.5,2.45,6.99,3.73,15.48-6.17,27.1-16.18,37.33-17.51,17.9-38.44,32.07-59.56,45.31-14.59,9.15-30.59,18.75-48.06,20.5-12.87,1.29-20.78-6.25-24.91-17.83-.17-.47-.31-.93-.47-1.4,1.49,12.48,3.63,24.92,8.35,36.5,65.47-17.69,121.92-61.71,163.91-114.35-8.28-4.73-16.83-9.07-25.53-13.05Z"/>
    <path class="cls-3" d="M129.11,445.51c-2.7-11.86-4.52-23.87-4.78-35.96-14.67-11.57-28.66-24.48-40.5-39.06-.77,16.41,14.15,33.02,20.62,46.45,7.77,16.14,10.38,41.45-6.54,53.06-8.65,5.93-21.27,4.01-30.22-1.28,7.63,11.6,18.53,20.7,32.52,24.77,7.97-16.91,18.12-32.87,28.89-47.98Z"/>
    <path class="cls-3" d="M593.06,295.73c6.7-.68,13.51-1.15,20.3-1.09-5.58-7.51-16.85-11.55-26.07-13.21-12.56-2.26-21.21-5.67-30.29-14.95-8.28-8.46-14.18-19.25-20.44-29.21-8.46-13.46-24.11-37.63-42.19-45.81-2.86,4.74-5.54,9.59-8.02,14.55,34.11,22.46,62.6,56.14,73.29,96.1,10.78-3.54,22.2-5.24,33.43-6.38Z"/>
    <path class="cls-3" d="M699.81,502.25c-16.11,10.61-28.62-6-41.31-13.9-2.87-1.79-5.9-3.21-9-4.34,13.22,13,24.29,28.26,30.07,45.73,24.33-10.28,52.5-26.92,54.17-56.22.7-13.98-3.89-27.54-10.26-40.09,5.37,25.82,1.19,52.44-23.67,68.82Z"/>
    <path class="cls-3" d="M264.63,654.69c-8.67,19.7-35.19,21.17-52.01,12.86-7.89-3.9-13.69-10.51-18.91-17.65,13.73,38.01,47.17,50.14,96.05,24.75-8.01-21.59-10.95-45.82-11.51-67.18-5.01-1.45-9.95-3.11-14.86-4.93,6.46,17.35,7.75,37.34,1.23,52.16Z"/>
    <path class="cls-11" d="M479.71,627.45c-5.75,5.95-10.17,12.91-7.94,21.15,2.32,8.58,12.19,12.93,20.18,13.92,8.91,1.1,17.29-3.22,19.73-12.09,2.06-7.53-5.44-14.97-12.72-21.24-9.42-8.13-8.18-13.18-19.25-1.73Z"/>
    <path class="cls-11" d="M688.22,451.67c-5.4,2.36-10.29,4.76-15.45,6.49-9.13,3.06-13.26,5.51-7.29,15.67,4.01,6.83,10.56,12.75,16.46,13.42,9.83,1.1,16.94-8.03,20.35-16.19,2.46-5.87,6.43-17.78-.47-22.31-3.55-2.33-10.37,1.52-13.6,2.93Z"/>
    <path class="cls-11" d="M206.44,635.85c3.15,7.07,7.85,13.14,15.86,15.42,9.39,2.68,21.47-1.86,25.21-11.22,3.39-8.5,1.33-18.04-5.98-23.74-7.3-5.68-17.7-3.49-26.91.38-10.12,4.25-14.61,4.69-8.17,19.16Z"/>
    <path class="cls-11" d="M86.73,416.95c-2.48-2.98-4.76-6.21-6.8-9.58-4.45-7.38-9.56-14.19-12.12,4.68-.95,7-.38,14.37.68,21.03,1.26,7.92,6.35,22.53,17.2,20.49,9.67-1.81,13.97-12.15,11.52-21.07-1.61-5.85-6.7-11.02-10.47-15.55Z"/>
    <path class="cls-11" d="M196.41,151.63c-7.41-6.08-17.84-1.74-24.09,3.64-5.06,4.35-9.29,10.69-11.97,17.53-4.84,12.39,2.07,14.41,11.06,10.99,2.16-.82,4.42-1.49,6.94-1.9,6.66-1.09,12.6-1.95,18.05-6.1,7.92-6.04,7.19-18.27.01-24.16Z"/>
    <path class="cls-11" d="M443.53,72.24c.18-17.87-20.07-21.87-36.23-18.08-4.95,1.16-12.24,4.26-1.49,10.17,6.45,3.55,11.38,9.43,17.71,13.24,5.65,3.4,19.91,4.48,20.01-5.33Z"/>
    <path class="cls-11" d="M656.74,164.59c-6.02.83-10,4.69-12.11,10.34-2.07,5.55-3.28,11.34-4.85,17.04-.51,1.83-1.15,3.63-1.91,5.38-3.45,7.98-8.4,17.79,4.23,17.03,18.5-1.11,44.88-19.99,39.14-33.21-3.86-8.89-14.09-18.02-24.5-16.58Z"/>
    <path class="cls-11" d="M227.18,210.88c19.94-14.93,40.32-28.8,62.87-40.22,16.11-8.16,33-14.69,50.3-19.87,4.25-1.27,8.43-2.25,12.6-3.11.16-4.56.46-9.12.97-13.65-12.64,3.48-25.01,8.08-36.92,13.79-32.93,15.79-63.49,37.34-89.82,63.06Z"/>
    <path class="cls-11" d="M508.86,460.93c-.68.83-1.35,1.67-2.04,2.49-30.51,36.14-71.68,67.05-117.75,79.71-2.26.62-4.53,1.19-6.8,1.71.22,2.13.43,4.27.65,6.42,20.5-3.34,40.94-15.92,57.91-26.12,23.84-14.35,46.4-32.94,64.99-53.63,2.35-2.61,4.84-5.61,7.34-8.88-1.43-.56-2.85-1.16-4.29-1.69Z"/>
    <path class="cls-11" d="M593.36,231.08c-9.95-15.18-21.86-29.13-34.79-41.52-11.78-11.28-24.73-21.32-38.55-29.98-3.03,2.75-5.86,5.66-8.58,8.66,25.78,15.24,50.64,30.87,72.04,52.61,3.23,3.28,6.56,6.7,9.87,10.23Z"/>
    <path class="cls-11" d="M136.65,388.18c-1.9,19.8.14,39.97,4.68,59.09,4.5,18.57,11.69,36.54,20.95,53.2-4.07-11.72-7.33-23.76-9.55-36.2-4.35-24.3-7.62-52.14-4.44-77.75-3.9.35-7.79.88-11.64,1.65Z"/>
    <path class="cls-18" d="M495.57,313.01c-.31,18.03-25.51,29.57-40.3,40.19-6.9,4.95-14,10.86-16.64,19.23-4.47,14.2,6.31,32.36,10.38,45.46,2.91,9.37,5.81,27.09-6.17,31.4-7.63,2.75-17.89-3.69-24.08-7.32-11.92-7-21.66-17.29-34.83-22.04-13.35-4.81-27.17.59-38.9,6.95-12.38,6.7-27.14,20.86-42.29,22.67-.05,1.46,0,2.88.17,4.27,3.61,23.39,56.7-18.92,63.69-22.57,13.4-6.99,23.86,3.02,34.83,9.91,14.45,8.25,28.69,19.09,45.47,21.7,31.92,1.26,2.99-69.82,1.63-86.95,1.44-11.66,14.76-16.96,22.54-24.23,10.51-9.19,24.4-16.77,30.3-29.93,1.19-3.87-1.24-6.68-5.8-8.76Z"/>
    <path class="cls-18" d="M396.58,318.13c-25.2-8.7-49.11,12.21-56.19,34.91-5.62,18.03,3.94,38.98,21.24,43.92-6.72-3.6-12.27-9.38-15.38-16.81-12.44-29.83,22.47-66.7,52.91-55.67,15.21,5.89,22.33,16.35,23.52,27.69-.33-14.65-11.95-29.16-26.1-34.04Z"/>
    <path class="cls-14" d="M413.97,275.16c1.04,1.32,2.39,3.11,3.97,5.06-6.3-21.77-14.16-54.14-33.31-24.26-9,12.73-15.04,27.05-22.14,40.84-7.35,14.26-23.19,13.78-37.19,15.75-13.86,2.44-29,2.88-41.44,10.02-14.34,10.89,23.07,40.23,31.37,50.33-5.28-12.53-16.13-24.46-21.74-34.54-7.8-14.02,16.08-15.18,22.94-16.36,8.23-1.41,16.48-2.57,24.67-4.2,12.88-2.57,21.34-7.68,28.23-18.95,6.16-10.08,9.67-21.63,15.6-31.87,10.5-18.12,21.94-.9,29.05,8.17Z"/>
    <path class="cls-4" d="M137.51,381.04c6.67-1.19,13.43-1.77,20.18-1.79-5.11-10.03-6.41-20.65-3.38-33.97,3.96-17.46,11.96-34.89,20.12-50.72,11.59-22.46,27.32-41.69,45.73-58.25-4.14-1.74-8.38-3.27-12.7-4.53-36.1,42.02-62.7,93.92-69.94,149.25Z"/>
    <path class="cls-4" d="M621.04,302.72c-4.94-2.19-12.12-1.54-18.94-.83,3.57,8.22,6.27,16.67,6.45,26.42.39,20.04-6.57,41.33-13.02,60.09-6.47,18.81-15.34,36.79-26.26,53.39-8.16,12.41-18.19,20.07-29.88,24.68,7.18,3.45,14.25,7.12,21.12,11.08,37.12-49.52,66.61-111.49,60.53-174.83Z"/>
    <path class="cls-4" d="M385.57,599.08c-3.43-8.75-5.51-17.9-6.98-27.2-9.01,7.85-19.25,14.14-31.64,17.56-21.32,5.88-46.57-.73-67.19-6.89-29.92-8.93-60.9-25.48-75.27-52.2-3.58,4.25-7.07,8.62-10.6,12.95,24.06,24.93,54.38,43.63,87.87,53.37,33.98,9.88,69.7,10.14,103.81,2.42Z"/>
    <path class="cls-4" d="M451.9,131.12c-30.14-6.8-61.13-6.04-90.79,1.05-.71,5.24-1.06,10.53-1.24,15.82,23.17-12.44,54.65-7.49,79.78-4.65,17.04,1.93,34.18,5.32,49.76,12.72,5.84,2.78,10.45,6.36,14.37,10.46,3.2-3.69,6.57-7.24,10.11-10.62-19.29-11.28-40.12-19.86-61.98-24.79Z"/>
    <path class="cls-12" d="M404.28,165.25c-13.21.2-29.5.99-43.7,5.34.4,3.9.91,7.8,1.59,11.65,38.26-8.68,79.28-2.24,113.36,17.23,1.75.31,5.38,4.62,5.67,1.92,1-2.18,2.07-4.34,3.18-6.46-3.92-4.68-8.58-9.01-14.02-12.8-18.92-13.17-43.51-17.23-66.09-16.89Z"/>
    <path class="cls-12" d="M235.53,504.67c-3.77,1.67-7.2,3.74-10.46,6,4.41,4.53,9.35,8.53,13.85,11.92,17.8,13.4,37.41,24.28,58.72,30.91,20.85,6.48,42.44,6.24,63.77,2.59,4.78-.82,9.86-2.36,14.64-4.59-.18-1.76-.36-3.52-.54-5.27-25.15,4.68-51.11,3.46-75.55-3.75-24.09-6.9-46.55-20.26-64.43-37.82Z"/>
    <path class="cls-12" d="M562.17,345.56c-4.72,40.26-23.85,78.03-48.77,109.74,2.65,1.01,5.28,2.1,7.92,3.18,9.17-9.27,15.95-21.05,22.22-32.38,10.7-19.32,19.48-39.45,25.48-60.72,5.21-18.49,8.75-39.84,4.42-58.83-.09-.4-.25-.81-.36-1.21-20.65,3.86-6.02,8.95-10.92,40.22Z"/>
    <path class="cls-12" d="M176.54,380.76c3.61.59,7.2,1.32,10.74,2.27.46-8.28,1.57-16.62,3.43-25.02,8.09-36.5,26.53-70.5,50.81-98.74,1.94-2.26,3.94-4.49,5.98-6.7-1.97-1.59-4.01-3.08-6.07-4.52-5.38,3.59-10.45,7.69-14.94,12.14-30.26,29.93-49.66,77.41-49.94,120.58Z"/>
    <path class="cls-17" d="M678.04,844.87c-20.07-7.95-43.13-14.06-63.01-2.61-21.63,12.45-28.4,39.2-41.46,58.66-7.86,11.71-12.53-7.9-14.57-13.69-5.78-16.45-11.99-32.75-18.36-48.98-17.15-43.66-35.7-87.96-59.87-128.4-8.35-.65-16.92-2.96-25.5-7.26,53.4,76.57,75.31,168.99,99.73,257.7,1.82,14.32,6.41,3.65,11.42-2.76,14.32-21.5,25.75-44.78,39.51-66.64,23.88-44.01,43.02-36.19,86.7-28.85,12.67,2.49,25.3,5.52,37.65,9.38-16.55-10.46-34.12-19.38-52.23-26.55Z"/>
    <path class="cls-17" d="M305.5,793.2c12.99-21.92,28.16-42.38,44.55-61.86-8.53-1.11-16.49-4.22-23.71-8.68-17.01,25.07-31.76,51.71-44.87,79.04-10.46,21.79-19.62,44.19-28.09,66.82-3.78,10.1-13.61,45.64-29.54,38.75-8.89-3.84-13.24-19.86-16.12-27.86-2.81-7.8-5.48-15.38-9.21-22.8-6.03-11.99-15.25-28.94-30.3-30.81-19.11-2.38-34.52,10.02-48.92,20.93-16.63,12.61-32.88,25.77-47.7,40.43,23.98-14.4,47.28-30.2,74.36-38.28,22-8.89,29.83-1.65,40.22,17.65,16.18,27.91,27.68,58.29,43.7,86.3,2.72,4.48,5.05,8.65,8.05,11.71,1.95-6.96,3.98-13.87,6.06-20.8,15.68-51.93,33.83-103.67,61.53-150.55Z"/>
    <path class="cls-17" d="M390.84,372.4c-12.56,9.3-28.15,6.97-35.79-2.06,2.18,14.12,19.37,24.12,33.03,17.06,12.28-5.69,24.35-19.3,23.57-33.61-1.33-4.6-3.25-8.28-5.56-11.18-.03,11.22-4.95,22.17-15.24,29.79Z"/>
    <path class="cls-1" d="M684.21,696.43c-12-22.56-24.6-45.27-39.73-65.96-6.65,5.11-13.95,9.39-21.63,12.8,8.29,8.94,16.19,18.27,23.85,27.81,20.59,25.63,40.61,51.76,58.01,79.68,12.16,19.51,23.03,39.79,33.18,60.42-15.26-39.39-35.14-77.46-53.69-114.75Z"/>
    <path class="cls-1" d="M170.95,611.87c-22.36-.97-18.3,2.89-29.1,20.01-37.14,64.78-65.85,135.39-84.73,207.99,33.69-72.06,73-141.34,121.07-204.1-1.52-8.09-2.39-16.31-2.85-24.37-1.46.16-2.92.36-4.38.48Z"/>
    <path class="cls-16" d="M591.75,516.55c2.13-2.34,4.17-4.72,6.2-7.12-36.47,26.67-75.99,47.68-118.52,64.11-4.52,1.75-9.08,3.42-13.65,5.06-34.28,20.44-72.18,34.14-112.02,36.84,89.56,11.76,179.69-32.1,237.99-98.88Z"/>
    <path class="cls-16" d="M233.92,288c-4.08,5.78-7.85,11.8-11.31,17.97,21.92-23.83,47.77-44.44,75.51-60.77,1.6-.94,3.25-1.77,4.86-2.68,20.09-16.86,42.57-30.47,66.11-39.46,16.87-6.58,34.55-10.23,52.34-10.92-74.73-13.04-146.42,36.83-187.51,95.86Z"/>
    <path class="cls-2" d="M212.67,435.88c-5.82-12.47-10.44-25.86-13.87-39.72.6,25.42,7.68,50.59,22.93,73.31,9.5,15.13,21.76,28.36,35.94,39.03-12.55-14.07-21.8-29.03-28.19-44.47-6.5-8.77-12.15-18.18-16.81-28.15Z"/>
    <path class="cls-2" d="M626.73,270.25c12.01,16.49,21.69,34.12,28.82,52.88-6.9-43.91-28.75-85.7-68.15-119.3,17.62,19.92,29.55,41.09,36.75,62.89.86,1.18,1.73,2.37,2.57,3.53Z"/>
  </g>
</svg>