<?xml version="1.0" encoding="UTF-8"?>
<svg id="Layer_1" xmlns="http://www.w3.org/2000/svg" viewBox="0 0 433.16 402.75">
  <defs>
    <style>
      .cls-1 {
        fill: #1e1316;
      }

      .cls-2 {
        fill: #025246;
      }

      .cls-3 {
        fill: #fff;
      }

      .cls-4 {
        fill: #599133;
      }

      .cls-5 {
        fill: #d45227;
      }

      .cls-6 {
        fill: #bfc8d9;
      }

      .cls-7 {
        fill: #e8b541;
      }

      .cls-8 {
        fill: #fa8ea5;
      }
    </style>
  </defs>
  <path class="cls-3" d="M426.68,172.59c-.03-.06-.06-.12-.08-.18-3.31-8.85-10.46-14.96-20.23-17.25-11.94-2.8-24.09-5.82-35.84-8.73l-7.31-1.81c-2.87-.71-6.56-1.72-9.66-3.22-.86-.42-1.73-.84-2.62-1.28,0,0-.02-.01-.03-.01-3.06-1.5-6.12-3.03-9.17-4.56-7.71-3.85-15.67-7.84-23.84-11.47-2.89-1.29-5.77-2.68-8.82-4.16-3.71-1.8-7.54-3.65-11.56-5.38-2.44-1.05-4.89-2.23-7.5-3.48-1.88-.9-3.75-1.8-5.67-2.68-2.74-1.25-5.48-2.49-8.23-3.72-3.86-1.74-7.72-3.49-11.57-5.25-2.28-1.05-4.56-2.12-6.83-3.2-3.22-1.52-6.55-3.09-9.9-4.6l-.35-.16c-6.26-2.81-10.48-8.65-11.66-15.41-.58-3.31-1.78-6.51-3.59-9.43-2.9-4.69-7.12-8.3-12.12-10.51-.17-.07-.33-.17-.47-.28-3.68-2.9-8.11-4.85-13.11-5.66-.4-.06-.8-.12-1.2-.17-1.23-.15-2.18-1.14-2.24-2.4-.25-5.37-1.17-10.69-2.79-16.25-1.36-4.66-3.37-8.89-5.96-12.56-5.69-8.08-14.29-12.89-23.6-13.22-9.32-.34-18.17,3.87-24.39,11.51-.52.64-1.01,1.28-1.47,1.94-2.41,3.39-7.49,3.23-9.71-.28l-.05-.09c-3.45-5.43-7.04-9.44-11.32-12.6-10.09-7.47-22.51-8.08-33.24-1.62-4.07,2.45-7.5,5.54-10.32,9.24-1.19,1.57-3.49,1.73-4.88.34l-.03-.03c-5.57-5.55-12.62-8.21-19.87-7.48-7.24.73-13.62,4.74-17.97,11.3-2.23,3.36-3.75,7.04-4.53,10.93-.91,4.56-1.2,8.82-.87,13.02.71,9.33,3.68,17.96,8.85,25.81.4,2.54.74,4.75,1.14,7.29-.83,3.06-.99,6.3-.49,9.57.55,3.57-.88,7.15-3.9,9.13l-.32.21c-7.81,5.15-12.65,12.78-13.81,21.51-1.15,3.93-2.27,7.78-3.42,11.7-2.52,5.13-3.57,10.65-3,16.15.16,1.58.46,3.14.89,4.66.98,3.51-.1,7.27-2.75,9.77l-.05.04c-5.97,5.64-9.89,11.69-11.97,18.51-3.06,10-1.25,19.79,4.36,27.15,1.85,2.43,1.96,5.77.21,8.28l-.03.05c-4.07,5.84-6.5,11.62-7.44,17.69-2.31,14.97,7.03,28.78,21.73,32.12,2.43.55,4.91.83,7.46.83.21,0,.41,0,.62,0,4.42-.08,8.71,1.24,12.42,3.63,3.58,2.3,7.66,3.97,12.08,4.91,4.91,1.04,9.98,1.23,15.07.55,1.88-.25,3.57,1.2,3.48,3.1-.4,8.61,1.72,16.7,6.17,23.68,1.61,2.52,2.47,5.43,2.55,8.41.01.53.03,1.05.06,1.58.04.65.08,1.29.14,1.92.45,4.71-27.41,63.88,6.59,74.95,41.93,13.65,84.95,11.23,128.25,8.97,70.07-3.65,101.13-17.39,110.35-22.46,1.56-.86,3.5.05,3.85,1.8.57,2.9,1.3,6.64,1.47,7.88,1.23,8.66,5.87,13.34,9.57,15.76,5.89,3.84,12.67,5.82,19.75,5.82,1.23,0,2.46-.06,3.71-.18,4.47-.41,8.24-1.78,10.98-2.78,13.05-4.74,18.59-13.35,17.44-27.1-.04-.42-.11-1.17-.21-2.06-.1-.93-.33-3.08-.38-3.75,0-.07,0-.15-.01-.22-.04-.74-.16-2.54-.3-4.71-.16-2.46-.35-5.4-.49-7.71-.04-.68-.08-1.31-.11-1.85,0-.28-.02-.54-.04-.79,0-.01,0-.02,0-.03v-.19c-.01-.06-.02-.19-.02-.25,0-.09,0-.18,0-.27-.05-1.28-.04-2.71-.03-4.22.01-1.47.02-3-.02-4.62,0-.04,0-.08,0-.12,0-.31,0-.62-.01-.93,0-.05,0-.1,0-.15-.02-5.23,0-23.06,0-30.68v-3.81c.01-9.83.68-25.84,1.4-30.9.04-.06.09-.12.14-.18,4.16-2.11,7.57-5.2,10.04-9.08,3.57-4.52,7.11-9,10.68-13.52,2.95-2.84,5.57-6.23,7.83-10.13,7.27-12.52,10.84-26.09,10.6-40.33.21-10.86-1.96-20.81-6.47-29.58Z"/>
  <g>
    <path class="cls-5" d="M150.66,188.97c.07-23.23,2.38-46.19,8.39-68.69,1.71-6.39,3.83-12.65,6.59-18.67,1.73-3.77,3.76-7.36,6.27-10.66,1.61-2.11,3.44-4.02,5.65-5.52,5.85-3.97,12.09-3.4,17.1,1.6,3.09,3.08,5.19,6.82,6.93,10.78,3.42,7.77,5.39,15.95,6.79,24.28,3.39,20.16,3.72,40.44,2.34,60.79-1.24,18.19-3.95,36.12-9.31,53.59-1.84,6.01-4.11,11.86-7.09,17.42-.78,1.45-1.52,2.87-3.53,3.08-1.72.18-2.86,1.54-4.09,2.65-1.6,1.44,6.67,1.25,4.97,2.55-5.73,4.37-21.84,5.27-26.3-.37-2.9-3.67-4.87-7.84-6.49-12.21-3.63-9.83-5.45-20.08-6.7-30.43-1.21-10.02-1.6-20.1-1.53-30.19Z"/>
    <path class="cls-2" d="M122.84,178.08c1.36,0,2.7-.15,4,.03,3.44.47,4.8,3.59,2.39,6.05-1.45,1.48-1.95,2.7-1.78,4.68.2,2.34-1.24,4.1-3.13,5.29-1.95,1.23-3.98,2.39-6.09,3.28-15.5,6.48-29.61,15.32-43.04,25.31-7.69,5.72-15.38,11.44-23.6,16.39-5.26,3.16-10.7,5.91-16.76,7.23-3.11.68-6.25.87-9.34.17-7-1.59-11.09-7.75-10-14.86.65-4.18,2.48-7.85,4.87-11.28,3.64-5.21,8.29-9.41,13.32-13.21,15.98-12.06,34.1-19.38,53.44-23.9,11.77-2.75,23.75-4.1,35.73-5.19Z"/>
    <path class="cls-2" d="M148.94,216.29c1.29-1.66,2.56-3.32,3.86-4.97.82-1.03,1.57-2.14,2.53-3.03,1.64-1.52,3.45-1.63,4.93-.51,1.53,1.15,1.92,2.86.92,4.86-.59,1.17-1.4,2.24-2.18,3.3-3.81,5.19-7.48,10.49-11.54,15.49-2.52,3.1-3.72,6.49-4.27,10.31-1.24,8.66-2.77,17.28-5.12,25.72-1.91,6.87-4.45,13.48-8.31,19.52-2.51,3.93-5.49,7.45-9.39,10.08-7.63,5.16-16.39,4.71-23.25-1.46-6.89-6.18-9.67-14.02-8.4-23.19.87-6.31,3.39-12.05,6.54-17.53,9.16-15.93,21.28-29.34,35.06-41.37,4.1-3.58,8.87-6.31,12.6-10.34,1.41-1.52,3.3-1.21,5.01-.13,1.72,1.09,2.62,2.62,1.98,4.61-.85,2.65-1.94,5.23-.98,8.64Z"/>
    <path class="cls-2" d="M119.61,159.37c-.6.97.04,1.46.17,2.06.74,3.35-.49,4.97-3.91,5.21-.33.02-.66,0-.99-.02-18.58-1.5-37.27-2.09-55.58-6.13-4.84-1.07-9.63-2.35-14.12-4.51-2.07-1-4.13-2.12-5.97-3.48-8.31-6.16-9.22-15.43-2.33-23.2,3.52-3.97,8.01-6.32,13.12-7.5,3.06-.71,6.18-1.07,9.34-.98,4.74.12,9.42,1.21,14.26.15,2.68-.58,5.53.62,8.21,1.47,13.06,4.16,25.92,8.9,38.63,13.99,3.47,1.39,6.63,3.6,9.8,5.64,1.66,1.07,2.39,2.84,1.33,4.75-.76,1.37-1,2.39-.25,4.02,1.77,3.84.1,6.64-4.14,7.56-1.28.28-2.62.28-3.94.45-1.28.16-2.56.36-3.64.52Z"/>
    <path class="cls-4" d="M147.96,165.28c-3.72-4.19-7.48-8.34-11.16-12.56-19.56-22.45-34.75-47.43-43.91-75.89-2.74-8.51-4.96-17.15-6.05-26.04-.85-6.98-.6-13.88,1.73-20.58,1.84-5.32,4.98-9.69,9.87-12.64,5.45-3.28,11.12-2.99,16.24.81,3.1,2.3,5.46,5.27,7.51,8.51,3.74,5.89,6.62,12.22,9.02,18.74,4.74,12.88,9.31,25.81,14.02,38.7,5.23,14.32,11.4,28.2,19.61,41.11.87,1.37,1.79,2.71,3.33,3.8-.61-1.76-1.18-3.53-1.84-5.27-6.29-16.58-11.39-33.49-13.94-51.09-1.45-10.02-2.16-20.06-.43-30.13.99-5.76,2.5-11.34,6.28-15.98,6.66-8.19,17.53-7.76,23.61.86,1.73,2.46,2.94,5.18,3.78,8.05,1.21,4.14,1.99,8.34,2.19,12.67.43,9.26-.29,18.52-.11,27.78.04,2.12-.28,4.27.31,6.41,1.58-.03,1.69-1.46,2.26-2.33,2.28-3.55,5.22-6.39,8.81-8.58,3.35-2.04,6.96-3,10.9-2.56,8.24.93,12.99,8.53,10.14,16.29-.98,2.66-2.56,5-4.14,7.32-3.63,5.34-7.04,10.8-9.81,16.65-4.36,9.23-6.92,18.91-7.62,29.09-.18,2.66-.22,5.26.71,7.83.71,1.93.79,3.88-.52,5.68-1.28,1.77-.96,3.82-.84,5.77.59,9.4,1.1,18.82,1.95,28.2.88,9.69-.36,19.06-2.74,28.46-2.03,8.02-5.37,15.03-10.68,21.44-8.23,9.93-15.62,20.51-22.6,31.38-5.74,8.95-10.49,18.36-14.03,28.39-1.7,4.83-3.5,9.64-6.03,14.12-4.82,8.54-12.06,13.94-21.51,16.29-14.26,3.54-24.18-3.99-24.99-18.7-.43-7.8,1.32-15.1,4.55-22.11,2.49-5.42,5.52-10.55,8.95-15.43,12.43-17.69,26.82-33.56,43.89-46.92.73-.57,1.83-.86,2-2.51-1.69.52-3.22.99-4.74,1.47-13.76,4.35-26.86,10.26-39.73,16.72-7.98,4-15.84,8.26-24.11,11.65-6.59,2.7-13.28,5.07-20.39,6.02-3.32.44-6.59.35-9.86-.35-11.32-2.4-17.47-12.37-14.51-23.56,1.35-5.09,4.15-9.33,7.69-13.13,4.79-5.14,10.46-9.14,16.56-12.51,19.62-10.83,40.57-16.71,63.08-16.64,1.81,0,3.62,0,5.46-.23-5.62-1.91-11.48-2.22-17.31-2.42-16.02-.57-31.62,2.11-47,6.35-9.72,2.67-19.42,5.38-29.4,7.06-5.61.95-10.92.21-16.03-1.85-7.65-3.09-10.89-10.39-8.48-18.26,1.45-4.73,4.32-8.53,7.85-11.86,5.99-5.66,13.11-9.46,20.73-12.39,10.64-4.08,21.73-5.71,33.05-5.71,13.6,0,27.06,1.52,40.3,4.7,8.23,1.98,16.14,4.86,23.7,8.67,1.31.66,2.63,1.28,3.95,1.92.16-.22.33-.45.49-.67Z"/>
    <path class="cls-2" d="M144.39,225.59c-1.68,1.03-2.28,2.83-3.24,4.32-2.78,4.3-5.42,8.69-8.87,12.51-3.85,4.27-8.37,7.42-14.06,8.77-11.29,2.67-20.26-4.59-19.95-16.14.1-3.7,1.14-7.16,2.59-10.51,2.79-6.49,7.03-11.91,12.3-16.56,4.85-4.28,10.18-7.87,15.85-10.97,9.87-5.41,20.21-9.74,30.82-13.47,3.09-1.09,5.98-1.92,8.41,1.41.57.79,2.04.94,3.12,1.34,4.22,1.56,6.21,4.73,6.4,9.08.07,1.64-.16,3.29-.34,4.93-.13,1.14-.66,2.29-.58,3.41.4,5.38-2.01,10.26-2.59,15.46-.57,5.08-1.52,10.12-2.44,15.15-.83,4.57-2.19,8.98-4.51,13.04-1.93,3.37-4.43,6.16-8.02,7.83-5.91,2.74-11.65.84-14.71-4.92-1.99-3.75-2.58-7.82-2.26-12.01.24-3.13.78-6.21,1.57-9.26.28-1.06,1.05-2.09.5-3.38Z"/>
    <path class="cls-2" d="M82.38,101.46c-1.43-.45-2.96-.92-4.49-1.42-5.38-1.78-10.37-4.3-14.71-7.99-2.29-1.94-4.31-4.1-5.55-6.89-2.53-5.67-.36-10.13,5.66-11.71.89-.23,1.99.17,2.8-1.09-1.3-1.16-2.64-2.33-3.96-3.53-8.4-7.59-13.92-16.68-14.8-28.23-.23-3,.04-5.95.62-8.87.39-1.95,1.16-3.79,2.27-5.46,3.65-5.5,9.6-6.11,14.29-1.44,1.9,1.89,3.18,4.21,4.32,6.6,2,4.18,3.58,8.54,4.81,13,2.83,10.23,7.08,19.88,11.54,29.48,9.75,20.99,22.15,40.18,38.06,57.06,3.63,3.85,7.12,7.82,10.67,11.74,1,1.1,2.02,2.18,2.61,3.58.65,1.54.38,2.91-.71,4.12-1.12,1.24-2.54,1.46-4.08.99-1.66-.5-2.75-1.78-3.86-3.01-6.51-7.26-13.04-14.49-19.46-21.82-1.57-1.8-3.21-3.09-5.57-3.8-3.64-1.09-7.24-2.26-10.97-3.03-2.76-.57-5.41-1.48-7.88-2.88-1.76-.99-3.24-2.28-4.29-4.02-2.02-3.35-1.59-6.66,1.18-9.43.54-.54,1.63-.59,1.49-1.97Z"/>
    <path class="cls-1" d="M66.05,118.95c22.18,1.28,42.93,6.9,61.17,20.17,1.19.87,2.34,1.84,3.35,2.91.73.76.83,1.82.1,2.71-.72.87-1.72,1.01-2.68.49-1.01-.56-1.95-1.24-2.86-1.94-13.15-10.16-28.49-15.06-44.45-18.4-5.51-1.15-11.12-1.51-16.75-1.47-1.64.01-3.29-.2-4.9-.48-.86-.15-1.41-.88-1.39-1.8.02-.93.63-1.52,1.48-1.75,2.27-.61,4.6-.25,6.93-.43Z"/>
    <path class="cls-1" d="M101.45,99.07c1.21.15,2.25.99,3.36,1.67,9.02,5.59,17.12,12.27,24.07,20.32,1.94,2.24,3.88,4.48,5.77,6.77.73.88,1.39,1.84,1.94,2.84.42.77.24,1.61-.41,2.25-.83.82-1.82.87-2.66.18-1.01-.83-1.9-1.81-2.76-2.8-3.78-4.35-7.4-8.83-11.52-12.89-5.07-5-10.76-9.19-16.68-13.1-1.09-.72-2.34-1.27-2.99-2.5-.33-.61-.32-1.29.07-1.87.38-.57.92-.92,1.81-.87Z"/>
    <path class="cls-6" d="M417.84,202.15c.19-8.03-1.17-15.73-4.96-22.92-.15-.29-.31-.59-.42-.9-1.54-4.67-4.81-7.14-9.59-8.26-14.47-3.4-28.88-7.01-43.32-10.58-4.34-1.07-8.63-2.35-12.65-4.3-.9-.44-1.82-.88-2.72-1.33.35.53.69,1.05,1.04,1.58,2.43,3.74,4.45,7.51,6.02,11.68,1.52,4.02,2.55,8.22,3.4,12.43.79,3.95,1.52,7.96,1.94,11.97.7,6.68.08,13.39-2.51,19.63-2.81,6.79-7.37,12.89-12.14,18.42-3.4,3.94-7.1,7.59-10.72,11.33.26-.03.52-.06.77-.08,1.14-.12,2.26-.09,3.39.01h.01c2.97.27,5.9,1.07,8.9,1.15,1.44.04,2.22,1.16,2.05,2.86-.23,2.29-.54,4.6-1.16,6.82-.49,1.71-.52,3.27.13,4.7.2.47.48.92.84,1.36,1.7,2.12,1.01,4.05-.38,5.87-1.69,2.22-3.45,4.42-5.32,6.51-.43.47-.84.96-1.21,1.46-1.37,1.76-2.4,3.68-2.55,5.92-.26,3.61.26,14.75,1.91,40.47,0,.04,0,.09,0,.14,0,.44.08.9.22,1.33.71,2.24.66,4.56.7,6.88.01,1.32.08,2.64.27,3.95.67,4.77,1.49,9.52,2.12,14.29.17,1.26.33,2.53.46,3.81.16,1.53.37,3.04.59,4.55.93,6.09,2.3,12.1,3.47,18.14.52,2.65,1,5.33,1.38,8,.28,1.94.95,3.9,2.78,5.09,4.16,2.71,8.82,3.69,13.69,3.22,2.43-.22,4.84-1.08,7.16-1.93,6.52-2.37,7.99-4.6,7.42-11.44-.03-.49-.54-4.84-.62-6.26,0-.05-.01-.1-.01-.17-.1-1.8-.67-10.37-.9-14.35-.01-.15-.01-.31-.02-.44-.02-.24-.03-.5-.04-.74-.01-.21-.02-.39-.02-.53-.12-3.04.02-6.09-.06-9.14h0c-.05-1.82.06-3.68-.34-5.42-.56-2.46-.64-4.91-.64-7.39.01-3.97-.03-7.94.02-11.9.02-1.65.05-3.34.41-4.93.49-2.12.55-4.24.55-6.4.01-8.76.08-17.52-.02-26.28-.04-3.57.72-6.88,2.31-10.03.6-1.18,1.23-2.35,1.77-3.55.14-.34.31-.65.49-.96.88-1.55,2.13-2.62,4-3.3,3.62-1.33,5.96-4.03,6.98-7.82.38-1.44,1-2.83,1.25-4.27.37-2.03,1.56-3.14,3.37-3.92,5.37-2.32,9.2-6.51,12.01-11.36,5.83-10.03,8.77-20.96,8.53-32.67Z"/>
    <path class="cls-5" d="M358.33,195.96c-.46,18.38-7.71,32.45-21.02,43.55-.61.51-1.24.98-1.93,1.32h-.01c-1.12-.1-2.24-.13-3.39-.01-3.11.33-6.23.66-9.3,1.22-13.96,2.54-27.89,5.19-41.85,7.75-15.9,2.91-31.78,5.91-47.72,8.59-10.07,1.69-20.22,2.9-30.34,4.32-6.52.91-13.04,1.89-19.57,2.69-2.29.29-4.63.28-6.93.12-3.2-.21-4.2-2.33-2.55-5.19.73-1.29,1.57-2.56,2.59-3.62,5.59-5.83,9.19-12.88,12.28-20.21,4.44-10.55,7.43-21.54,9.54-32.76.7-3.72.92-7.53,1.47-11.27,1.04-6.99,1.15-14,1.06-21.02v-.24c.06-4.04,0-8.09-.19-12.13h0s.01-.03,0-.05c-.02-2.05-.02-4.1.02-6.14.07-3.43-.58-6.89-1.03-10.31-1.78-13.81-5.16-27.23-10.22-40.2-1.38-3.53-3.3-6.85-4.97-10.26-.65-1.34-1.38-2.63-1.47-4.17-.16-2.6,1.36-4.46,3.94-4.8,2.22-.29,4.27.43,6.26,1.23,4.59,1.86,9.17,3.74,13.7,5.74,11.64,5.12,23.26,10.26,34.85,15.48,5.58,2.5,11.07,5.19,16.62,7.74,6.6,3.03,13.23,5.99,19.84,9,4.51,2.06,8.91,4.33,13.47,6.28,6.83,2.94,13.41,6.44,20.19,9.46,11.01,4.9,21.68,10.48,32.48,15.78,4.4,3.94,7.49,9.18,9.69,15.24,3.25,8.95,3.76,18.39,4.47,26.86Z"/>
    <path class="cls-5" d="M378.21,367.7c-6.56,5.73-24.15,7.04-31.8,3.32-1.17-6.04-2.54-12.05-3.47-18.14,2.46,2.39,13.84,3.48,21.09,2.52,4.47-.59,9.44-1.43,13.19-3.94,0,.14.01.32.02.53.01.24.02.5.04.74.01.13.01.29.02.44.22,3.99.8,12.56.9,14.35,0,.07.01.12.01.17Z"/>
    <path class="cls-1" d="M360.15,240.71c5.86,1.13,11.65,1.3,17.39,1.9,3.62.38,7.25.58,10.87.86.98.08,1.98.08,2.85.67,1.16.78,1.07,2.63-.17,3.29-1.07.57-2.25.54-3.39.46-4.12-.28-8.24-.56-12.35-.99-7.89-.82-15.76-1.75-23.64-2.64-1.34-.15-2.58-.57-3.66-1.39-.75-.56-.92-1.32-.69-2.19.2-.74.83-1.17,1.45-1.14,4.94.29,7.88-3.06,10.82-6.11,6.53-6.78,9.91-15.16,11.45-24.3,2.58-15.31-.08-29.59-8.67-42.65-.63-.96-1.37-1.86-1.37-3.12,0-1.43,1.45-2.42,2.76-1.84,1.45.64,2.19,1.97,3.01,3.2,3.71,5.56,6.27,11.62,7.83,18.11,2.61,10.81,2.64,21.61-.16,32.38-2.29,8.82-6.37,16.64-13,23.01-.57.55-1.36.99-1.33,2.48Z"/>
    <path class="cls-1" d="M362.06,194.88c-.57,16.4-7.23,30.88-21.36,41.63-1.3.99-2.6,2.08-4.27,2.44-1.05.23-1.97-.05-2.5-1.08-.44-.85-.18-1.64.41-2.27.56-.6,1.21-1.12,1.89-1.57,22.78-15.13,28.12-47.61,11.33-71.16-.58-.81-1.19-1.59-1.72-2.43-.78-1.24-1.02-2.55.32-3.52,1.14-.82,2.23-.24,3.07.67.78.85,1.51,1.76,2.17,2.7,7.09,10.03,10.55,21.21,10.66,34.6Z"/>
    <path class="cls-5" d="M345.3,256.35c.2.47.48.92.84,1.36,1.7,2.12,1.01,4.05-.38,5.87-1.69,2.22-3.45,4.42-5.32,6.51-.43.47-3.02,3.39-3.11,4.06-.13.91.07.48.91.61,4.96.78,8.26,7.13,9.37,11.32,1.65,6.21,3.13,12.56,4.21,18.9.26,1.53.37,3.09.23,4.64-.13,1.46-.44,2.67-.94,3.66-.23.2-.46.4-.71.59-3.11,2.37-7.9,4.05-11.82,4.21,0,.44,1.01,10.84,1.19,12.15.62,4.4,1.36,8.77,1.97,13.16.11.8.63,1.47,1.36,1.8,3.94,1.77,14.01,3.65,27.09.51,2.17-.52,3.94-1.79,5.72-2.77.76-.42,1.24-1.2,1.24-2.06-.03-6.61.01-32.64.01-34.57.01-8.76.7-33.16,2.29-36.31.6-1.18,1.23-2.35,1.77-3.55.14-.34.31-.65.49-.96-12.81-.58-25.14-2.94-36.4-9.12Z"/>
    <path class="cls-1" d="M170.13,263.29c-.4-.09-.89-.17-1.35-.32-.87-.28-1.37-.94-1.41-1.82-.04-.92.48-1.62,1.37-1.76,2.52-.39,4.67-1.49,6.61-3.11,2.42-2.02,4.44-4.4,6.26-6.95,4.03-5.63,7.63-11.52,11-17.56.64-1.15,1.25-2.32,2-3.4.68-.98,1.62-1.79,2.91-1.15,1.51.75,1.37,2.09.9,3.41-.22.62-.55,1.2-.87,1.77-4.16,7.49-8.62,14.78-13.9,21.55-2.35,3-5.04,5.64-8.33,7.62-1.57.95-3.25,1.58-5.18,1.73Z"/>
    <path class="cls-1" d="M374.51,265.58c-6.08-.58-12.86-1.02-19.41-2.91-1.27-.37-2.54-.74-3.74-1.27-.97-.43-1.51-1.32-1.28-2.42.24-1.17,1.18-1.54,2.24-1.48.82.04,1.66.16,2.43.41,6.98,2.29,14.24,2.8,21.47,3.55,1.71.18,3.91-.35,4.25,2.27.19,1.47-1.21,2.07-4.31,1.98-.33,0-.66-.04-1.65-.11Z"/>
    <path class="cls-1" d="M210.39,162.66c-.26,2.64-.55,5.9-.94,9.15-.12.96-.45,1.91-.83,2.8-.35.82-1.11,1.17-2.02,1.02-.93-.15-1.43-.82-1.53-1.67-.09-.8-.01-1.63.05-2.44.39-4.57,1.29-9.09,1.05-13.71-.02-.32.01-.66.06-.98.12-.9.59-1.56,1.5-1.69,1.13-.16,1.85.46,2.19,1.52.56,1.75.49,3.56.48,5.99Z"/>
    <path class="cls-2" d="M204.43,105.66c4.15-.82,7.07-1.94,10.25-1.91,9.45.06,15.44,6.85,14.18,16.18-.71,5.25-3.02,9.76-6.35,13.77-2.64,3.18-5.4,6.25-8.22,9.27-5.48,5.86-9.64,12.54-12.95,19.82-2.29,5.04-1.75,9.61,1.78,13.84,2.13,2.56,4.66,4.67,7.32,6.65,2.65,1.97,5.33,3.9,7.96,5.91,2.9,2.21,5.57,4.68,7.83,7.55,2.48,3.14,4.42,6.58,5.23,10.56,1.5,7.4-1.42,13.44-8.21,16.8-5.35,2.65-11.06,3.28-16.91,2.65-18.19-1.96-34.59-16.46-38.89-34.22-.95-3.93-1.04-7.89-.39-11.81,1.12-6.7,4.57-11.94,10.5-15.46,2.58-1.53,5.34-2.59,8.2-3.45,4.21-1.26,4.24-1.27,2.66-5.58-1.72-4.69-2.8-9.49-3.02-14.49-.01-.33-.1-.67-.05-.99.98-6.09-.98-11.67-2.8-17.34-3.1-9.68-4.36-19.64-3.84-29.82.25-4.99,1.14-9.85,3.1-14.46,2.73-6.4,7.32-10.88,13.97-13.17,2.73-.94,5.53-1.11,8.32-.66,5.19.83,8.62,3.85,10.32,8.85,1.5,4.43,1.01,8.8-.38,13.14-1.32,4.12-3.32,7.91-5.55,11.59-1.19,1.96-2.36,3.93-4.06,6.78Z"/>
    <path class="cls-1" d="M103.89,43.62c1.3-.3,1.96.01,2.27.57.48.85.8,1.81,1.08,2.75,7.87,26.16,20.83,49.58,38.19,70.6,2.32,2.8,4.77,5.49,7.13,8.26.75.88,1.49,1.78,2.06,2.77.53.93.41,1.96-.51,2.66-.72.55-1.59.51-2.3-.02-.79-.59-1.53-1.26-2.2-1.99-20.53-22.36-35.86-47.78-45.11-76.76-.7-2.19-1.53-4.39-1.56-6.74-.01-1.04.34-1.94.94-2.12Z"/>
    <path class="cls-1" d="M99.54,168.08c-12.43-.17-24.67,1.25-36.75,4.17-8.37,2.03-16.48,4.68-23.88,9.22-.42.26-.86.51-1.32.66-.89.28-1.62-.03-2.13-.79-.39-.6-.34-1.25,0-1.86.95-1.67,2.63-2.47,4.22-3.31,6.59-3.48,13.55-6.01,20.76-7.88,12.19-3.17,24.59-4.72,37.18-4.82,5.11-.04,10.23.04,15.34.11,1.48.02,2.98.02,4.34.76.62.34.97.91.96,1.6-.02.68-.36,1.23-1,1.58-1.22.66-2.55.57-3.87.57-4.62,0-9.24,0-13.85,0Z"/>
    <path class="cls-1" d="M186.43,118.42c2.2-2.87,4.24-5.65,6.85-7.95,2.74-2.42,5.68-4.55,9.07-5.95,1-.42,1.97-.21,2.5.89.42.87.12,1.7-.53,2.23-1.02.83-2.15,1.53-3.27,2.22-4.77,2.93-8.41,6.86-10.94,11.87-2.54,5.02-4.6,10.25-6.74,15.44-.56,1.36-.96,2.83-2.1,3.89-.53.49-1.17.67-1.83.49-.86-.24-1.51-.94-1.43-1.79.1-1.13.41-2.27.82-3.33,1.22-3.07,2.51-6.12,3.84-9.14.56-1.26.85-2.36.08-3.72-.99-1.77-1.02-3.82-.93-5.81.32-6.99,1.34-13.84,4.65-20.12,2-3.8,4.22-7.48,6.39-11.18.41-.7.96-1.35,1.53-1.93.77-.78,1.8-1.02,2.7-.43.96.62.96,1.72.55,2.68-.45,1.06-1.06,2.04-1.64,3.04-1.67,2.85-3.43,5.65-5.03,8.54-3.44,6.2-4.77,12.94-4.53,20.08Z"/>
    <path class="cls-1" d="M165.84,62.92c0-4.13-.08-8.27.04-12.4.05-1.8.45-3.6.81-5.38.21-1.01.83-1.88,2.03-1.76,1.49.15,1.72,1.32,1.76,2.54.01.33-.07.66-.1.98-1.17,12.24-.24,24.43.98,36.61,1.1,11.05,3.64,21.82,5.9,32.66.27,1.29.47,2.6.58,3.91.09,1.06-.33,2.06-1.42,2.34-1.37.35-2.14-.59-2.58-1.74-.3-.77-.51-1.58-.69-2.38-3.58-15.64-6.63-31.36-7.3-47.45-.11-2.64-.02-5.29-.02-7.93,0,0,0,0,0,0Z"/>
    <path class="cls-1" d="M213.55,205.82c-.09,1.19-.9,1.85-1.94,1.79-1.29-.08-2.57-.47-3.83-.84-11.15-3.33-19.8-10.2-26.92-19.18-1.95-2.45-3.79-4.99-5.2-7.8-.51-1.02-1.07-2.07-.8-3.29.15-.68.52-1.2,1.22-1.42.68-.22,1.35-.13,1.82.37.43.46.72,1.07,1.04,1.63,6.9,11.99,16.36,20.95,29.79,25.24,1.25.4,2.46.93,3.64,1.5.77.37,1.25,1.05,1.18,2Z"/>
    <path class="cls-1" d="M155.64,232.88c.08-10.12,1.68-20.04,3.99-29.86.26-1.11.61-2.22,1.09-3.26.35-.77,1.09-1.24,2.02-1.09,1.17.2,1.75,1.08,1.67,2.12-.12,1.63-.44,3.26-.8,4.86-1.11,4.99-2.06,10-2.77,15.08-.9,6.4-.96,12.83-1.13,19.26-.03,1.15-.06,2.31-.29,3.43-.17.85-.86,1.41-1.81,1.35-.94-.05-1.51-.65-1.67-1.52-.18-.97-.27-1.96-.29-2.94-.04-2.47-.01-4.95-.01-7.43Z"/>
    <path class="cls-1" d="M142.83,203.08c-.11.23-.28.9-.68,1.37-.84,1-1.79,1.93-2.73,2.85-8.34,8.18-16.97,16.07-24.37,25.15-.21.25-.44.49-.67.72-.78.77-1.72,1.08-2.64.4-.93-.68-.92-1.77-.45-2.68.52-1.01,1.23-1.95,1.96-2.82,7.65-9.07,16.19-17.29,24.68-25.54.82-.8,1.67-1.58,2.94-1.63,1-.04,2.02.83,1.95,2.18Z"/>
    <path class="cls-1" d="M189.23,149.98c.46-5.65,2.27-10.38,5.26-14.63,4.1-5.83,9.33-10.62,14.52-15.44,1.09-1.01,2.34-2,3.93-.94,1.18.78.86,2.36-.96,4.18-2.33,2.33-4.82,4.49-7.11,6.85-2.17,2.24-4.27,4.57-6.24,6.99-2.97,3.66-4.7,7.89-5.22,12.6-.09.82-.11,1.65-.29,2.44-.21.87-.84,1.45-1.77,1.4-.89-.05-1.55-.6-1.78-1.46-.22-.78-.27-1.6-.34-1.99Z"/>
    <path class="cls-1" d="M82.92,134.19c3.84.28,6.85,1.08,9.82,2.06,7.19,2.38,14.1,5.45,20.9,8.75,2.6,1.26,3.46,2.67,2.66,3.93-.69,1.09-2.02,1.19-4.48.06-5.68-2.6-11.27-5.37-17.14-7.55-3.55-1.32-7.11-2.57-10.89-3.06-.81-.11-1.63-.27-2.39-.55-.83-.29-1.33-.95-1.27-1.88.06-.94.66-1.49,1.54-1.67.63-.13,1.3-.1,1.25-.1Z"/>
    <path class="cls-1" d="M102.11,217.65c-.12,1.06-.65,1.71-1.4,2.08-1.33.65-2.71,1.2-4.08,1.74-8.58,3.38-17.2,6.65-25.22,11.27-.14.08-.29.16-.44.23-1.81.85-2.96.73-3.4-.39-.62-1.58.36-2.48,1.52-3.21,1.25-.79,2.54-1.53,3.85-2.22,7.73-4.08,15.84-7.31,23.96-10.5,1.23-.48,2.45-1.03,3.81-.63.88.26,1.31.9,1.4,1.63Z"/>
    <path class="cls-1" d="M161.96,184.45c.59.02,1.29.5,1.69,1.24.79,1.44,1.5,2.94,2.2,4.44,2.65,5.69,5.06,11.53,9.73,16,.34.33.58.8.79,1.24.31.67.09,1.28-.39,1.8-.49.52-1.1.72-1.79.52-1.34-.39-2.22-1.41-3.13-2.36-2.9-3.02-4.92-6.62-6.71-10.37-1.36-2.83-2.7-5.67-3.96-8.55-.32-.72-.47-1.61-.39-2.39.09-.83.67-1.49,1.96-1.58Z"/>
    <path class="cls-1" d="M115.62,253.38c-4.4-.1-8.06-.92-11.33-3.04-1.25-.81-2.43-1.74-2.85-3.28-.23-.85-.07-1.67.67-2.2.55-.4,1.23-.44,1.86-.09.28.16.57.34.8.56,4.29,4.06,9.41,4.21,14.79,3.18,1.45-.28,2.88-.69,4.34-.88,1.05-.13,2.01.32,2.23,1.47.21,1.1-.45,1.92-1.43,2.33-3.07,1.27-6.32,1.77-9.08,1.95Z"/>
    <path class="cls-1" d="M142.96,228.15c.29-.99.62-2.26,1.05-3.5,1.72-4.99,3.88-9.79,6.24-14.51.22-.44.44-.89.69-1.31.7-1.19,1.53-2.24,3.13-1.7,1.11.37,1.43,1.7.71,3.43-.76,1.82-1.78,3.53-2.56,5.34-1.62,3.78-3.17,7.59-4.72,11.41-.31.76-.46,1.59-.77,2.34-.41.98-1.16,1.73-2.27,1.51-1.43-.28-1.56-1.49-1.5-3Z"/>
    <path class="cls-1" d="M196.53,165.65c.81,0,1.39.52,1.5,1.39.11.91-.43,1.5-1.34,1.57-.9.08-1.57-.38-1.64-1.31-.06-.88.47-1.46,1.48-1.66Z"/>
    <path class="cls-8" d="M125.73,181.6c-2.07-.71-4.04-.35-5.96-.36-4.42-.02-8.38-1.36-12.08-3.73-5.06-3.26-7.17-8.19-7.18-13.85-.02-5.91,3.49-13.14,11.42-15.81,1.85-.63,3.84-.89,5.78-1.22,2.62-.44,2.86-.62,1.47-3.08-2.16-3.82-3.14-8.01-3.68-12.22-.7-5.45.53-10.52,4.93-14.36,3.05-2.65,6.33-3.8,10.44-2.41,3.9,1.32,6.92,3.63,9.5,6.71,1.49,1.78,2.81,3.64,3.84,5.73.84,1.7,1.76,1.63,2.69-.2,1.73-3.41,3.77-6.59,6.65-9.15,4.36-3.88,9.43-6.14,15.31-5.75,8.23.54,13.69,5.17,16.44,12.22.23.6.32,1.28.36,1.93.34,5.5.23,10.91-3.37,15.58-.64.83-.36,1.53.64,1.89,3.29,1.15,6.36,2.68,9.22,4.69,2.7,1.9,4.23,4.54,5.31,7.52,1.49,4.13.75,8.1-1.03,11.93-3.77,8.09-10.23,12.76-18.88,14.35-2.56.47-5.25.49-7.85-.3-1.41-.43-2.86-.76-4.3-1.1-.77-.19-1.45.34-1.23,1,1.18,3.55.79,7.21.61,10.81-.23,4.65-2.6,8.47-5.64,11.82-3.88,4.28-8.86,6.51-14.46,7.94-5.88,1.5-11.01.2-16.16-2.38-4-2.01-6.19-5.31-7.3-9.47-1.06-3.96-.95-3.95-.05-8.19.8-3.76,2.57-7.08,4.56-10.54Z"/>
    <path class="cls-1" d="M178.64,142.54c1.26.06,2.03.31,2.34,1.22.39,1.13-.17,1.89-1.1,2.44-.28.17-.6.29-.92.36-5.69,1.28-11.01,3.46-15.99,6.51-1.03.63-2.27.81-2.98-.55-.54-1.05.01-1.92.84-2.58.64-.51,1.35-.95,2.05-1.38,4.26-2.62,8.85-4.44,13.69-5.64.8-.2,1.61-.3,2.06-.38Z"/>
    <path class="cls-1" d="M148.87,135.29c-.34,4.83-1.16,9.18-2.11,13.5-.1.46-.36.92-.64,1.31-.51.71-1.18,1.11-2.09.8-.69-.24-1.12-.8-1.14-1.46-.02-1.14.04-2.3.25-3.41.91-4.82,2.28-9.58,1.29-14.59-.23-1.18.24-2.39,1.72-2.46,1.14-.06,1.74.84,1.95,1.85.33,1.6.55,3.22.76,4.45Z"/>
    <path class="cls-1" d="M134.12,154.87c.11.99-.9,1.97-1.88,1.69-.76-.22-1.55-.58-2.15-1.09-2.5-2.14-4.97-4.32-7.81-6.04-.4-.24-.75-.64-1.01-1.04-.38-.59-.35-1.28.03-1.86.38-.57,1.01-1.01,1.67-.76,4.55,1.76,8.24,4.66,11.1,8.61.08.11.03.32.05.49Z"/>
    <path class="cls-1" d="M137.8,171.34c1.25-.04,1.86.2,2.2.83.44.81.29,1.63-.36,2.24-.46.44-1.05.8-1.64,1.06-2.86,1.27-5.68,2.6-8.13,4.6-.37.3-.87.51-1.33.6-.68.13-1.33-.13-1.75-.67-.43-.55-.53-1.27-.1-1.83.59-.77,1.24-1.54,2.01-2.13,2.89-2.23,6.14-3.76,9.11-4.69Z"/>
    <path class="cls-1" d="M164.56,178.69c-.11.95-1.52,1.87-2.25,1.31-3.13-2.43-5.53-5.54-7.56-8.9-.45-.74,0-1.65.74-2.14.57-.38,1.31-.34,1.84.12,2.87,2.49,5.28,5.38,7.14,8.7.14.26.07.63.09.92Z"/>
    <path class="cls-3" d="M163.85,160.85c.03,7.67-7.72,14.18-17.08,14.36-8.75.17-17.45-6.83-17.58-14.14-.13-7.5,8.77-14.43,18.41-14.33,8.53.09,16.21,6.76,16.24,14.1Z"/>
    <path class="cls-7" d="M38.62,120.47c-.35-5.72,2.13-10.6,7.16-13.91,8.73-5.75,18.88-1.89,22.26,5.78,2.15,4.88,3.55,9.95,4.3,15.16.67,4.65-1.78,8.46-6.31,10.73-13.51,6.78-27.34-1.97-27.42-17.76Z"/>
    <path class="cls-7" d="M90.33,101.83c.1-6.51,3.32-13.94,11.67-15.46,4.3-.78,7.85.46,10.5,3.91,3.33,4.33,4.44,9.1,2.61,14.41-1.21,3.51-3.22,6.53-5.77,9.12-3.9,3.95-9.06,3.97-13.31.31-3.87-3.33-5.61-7.62-5.69-12.29Z"/>
  </g>
  <g>
    <g>
      <path class="cls-1" d="M197.07,279.81c.3,1.35-.78,2.56-2.42,2.69-2.8.22-5.78.65-7.16,1.01-.19,1.67-.51,5.37-.76,9.57l4.61-.16c1.65-.06,3.16,1,3.37,2.36.21,1.36-.96,2.5-2.61,2.56l-5.62.2c-.21,5.32-.22,10.51.32,12.78.56.24,2.34.62,6.02.39,1.62-.1,3.19.91,3.46,2.26.27,1.36-.85,2.54-2.49,2.64-.43.03-.85.05-1.26.06-8.41.29-10.94-2.23-11.55-4.45-1.65-5.96.33-28.9.7-30.36.28-1.14.7-2.86,11.88-3.75,1.62-.12,3.21.86,3.5,2.21Z"/>
      <path class="cls-1" d="M191.27,317.2c-8.08,0-10.6-2.8-11.27-5.22-1.76-6.34.35-29.52.69-30.88.48-1.95,1.77-3.64,12.79-4.52,2.15-.15,4.17,1.15,4.58,3.01h0c.19.87,0,1.74-.52,2.46-.62.84-1.64,1.37-2.81,1.46-2.25.18-4.78.51-6.3.82-.17,1.64-.4,4.43-.6,7.67l3.49-.12c2.19-.08,4.12,1.34,4.42,3.22.13.86-.1,1.72-.67,2.4-.67.81-1.73,1.3-2.91,1.34l-4.67.16c-.18,5.25-.11,9.01.22,10.99.7.15,2.23.35,5.07.17,2.2-.12,4.16,1.22,4.53,3.08.17.87-.03,1.74-.58,2.44-.64.83-1.68,1.34-2.85,1.42-.44.03-.87.05-1.28.06-.45.02-.88.02-1.3.02ZM193.83,278.6c-.06,0-.13,0-.19,0-10.44.83-10.81,2.33-10.96,2.97-.35,1.46-2.31,24.06-.7,29.85.72,2.6,4.45,3.91,10.53,3.7.4-.01.8-.04,1.23-.06.59-.04,1.08-.26,1.36-.63.18-.24.25-.51.19-.8-.17-.84-1.28-1.51-2.4-1.44-4.33.27-6.05-.29-6.48-.47-.3-.13-.52-.39-.6-.7-.49-2.07-.61-6.47-.35-13.05.02-.53.45-.96.98-.98l5.62-.2c.6-.02,1.11-.24,1.41-.6.19-.23.27-.5.22-.79-.13-.85-1.21-1.51-2.33-1.49l-4.61.16c-.3.02-.56-.1-.77-.31-.2-.21-.3-.49-.29-.77.26-4.3.57-8,.76-9.62.05-.42.35-.77.76-.87,1.47-.38,4.55-.81,7.33-1.04.58-.05,1.07-.28,1.33-.64.18-.24.24-.51.17-.81h0c-.17-.79-1.19-1.42-2.24-1.42Z"/>
    </g>
    <g>
      <path class="cls-1" d="M221.04,314.51c-1.12.09-2.3,0-3.51-.34-3.6-1-6.51-3.27-8.43-6.57-4.28-7.37-3.08-19.26-.33-24.54,2.4-4.62,5.93-6.02,8.47-6.39,2.98-.43,6.2.4,8.62,2.22,1.26.95,1.42,2.51.34,3.49-1.08.97-2.97,1-4.24.05-.96-.72-2.2-1.06-3.31-.9-1.67.24-3.2,1.56-4.32,3.71-2.2,4.24-3.26,14.58.18,20.49,1.17,2.01,2.68,3.25,4.61,3.78,2.74.76,6.95-3.24,8.92-6.19.77-1.16,2.59-1.52,4.06-.81,1.47.71,2.03,2.22,1.26,3.39-.62.94-5.58,8.06-12.31,8.61Z"/>
      <path class="cls-1" d="M220.23,315.56c-1,0-2-.14-2.97-.41-3.86-1.07-6.98-3.5-9.04-7.04-4.46-7.67-3.21-20.03-.36-25.52,2.6-5.01,6.46-6.53,9.23-6.93,3.23-.46,6.74.44,9.38,2.41.88.66,1.42,1.61,1.46,2.6.04.93-.33,1.8-1.05,2.45-1.45,1.31-3.88,1.36-5.54.11-.74-.56-1.72-.82-2.55-.7-1.34.19-2.6,1.32-3.56,3.17-2.13,4.09-3,14.08.15,19.51,1.03,1.77,2.34,2.85,4,3.31,1.9.54,5.68-2.62,7.8-5.77,1.07-1.59,3.42-2.1,5.35-1.16,1.04.51,1.8,1.37,2.07,2.36.24.87.09,1.76-.41,2.5-.94,1.41-6,8.49-13.08,9.06h0c-.3.02-.59.04-.89.04ZM221.04,314.51h0,0ZM218.8,277.58c-.48,0-.95.03-1.42.1-2.3.33-5.5,1.61-7.71,5.85-2.64,5.07-3.8,16.49.31,23.56,1.78,3.06,4.49,5.17,7.82,6.1,1.04.29,2.1.39,3.15.3h0c6.27-.51,11.02-7.37,11.55-8.15.17-.26.22-.54.14-.84-.12-.43-.48-.82-.99-1.06-1.01-.49-2.27-.28-2.77.46-2.05,3.06-6.59,7.56-10.04,6.61-2.2-.61-3.91-2-5.22-4.25-3.66-6.3-2.56-16.93-.2-21.47,1.27-2.45,3.08-3.96,5.08-4.25,1.37-.19,2.9.21,4.07,1.09.87.65,2.22.66,2.94,0,.26-.24.39-.53.38-.84-.02-.38-.25-.77-.65-1.07-1.83-1.37-4.16-2.13-6.44-2.13Z"/>
    </g>
    <g>
      <path class="cls-1" d="M268.94,291.98c.16,7.31-2.43,13.54-6.92,16.68-1.62,1.13-3.45,1.84-5.41,2.1-1.28.18-2.61.16-3.98-.04-9.97-1.48-14.05-13.39-13.75-21.37.36-9.95,4.6-15.22,12.98-16.11,2.98-.32,6.38.7,9.3,2.8,2.82,2.02,7.58,6.78,7.78,15.94ZM257.35,279.7c-1.83-1.32-3.51-1.67-4.47-1.57-.2.02-.42.05-.66.08-2.52.34-7,1.68-7.36,11.5-.25,6.84,3.44,15.38,8.58,16.14,1.73.26,3.24-.08,4.6-1.03,3.11-2.17,5.04-7.26,4.92-12.97-.12-5.24-2.16-9.67-5.61-12.14Z"/>
      <path class="cls-1" d="M254.79,311.9c-.76,0-1.53-.06-2.31-.17-10.59-1.57-14.93-14.06-14.62-22.42.38-10.4,5.05-16.15,13.89-17.09,3.23-.35,6.88.74,10.01,2.99,2.97,2.13,7.99,7.15,8.2,16.75.17,7.65-2.58,14.21-7.36,17.54-1.75,1.22-3.72,1.99-5.85,2.28-.64.09-1.29.13-1.96.13ZM252.95,274.19c-.34,0-.67.02-.99.05-7.89.84-11.73,5.65-12.07,15.14-.28,7.6,3.54,18.94,12.88,20.33,1.27.19,2.51.2,3.69.04,1.81-.25,3.48-.9,4.96-1.93,4.22-2.94,6.64-8.85,6.49-15.82h0c-.19-8.71-4.69-13.22-7.35-15.13-2.4-1.72-5.12-2.67-7.61-2.67ZM254.53,306.96c-.4,0-.82-.03-1.25-.09-5.74-.85-9.72-9.78-9.45-17.19.28-7.67,2.98-11.75,8.24-12.47.25-.03.49-.06.7-.08,1.49-.16,3.42.5,5.17,1.76h0c3.71,2.66,5.91,7.38,6.03,12.95.13,6.04-1.97,11.47-5.35,13.83-1.25.87-2.6,1.3-4.09,1.3ZM253.21,279.14c-.08,0-.16,0-.23.01-.19.02-.41.04-.64.08-1.67.23-6.13.84-6.48,10.52-.23,6.29,3.16,14.42,7.71,15.1,1.48.22,2.71-.05,3.87-.86,2.84-1.98,4.6-6.74,4.48-12.11-.11-4.92-2-9.05-5.18-11.34h0c-1.45-1.04-2.76-1.4-3.54-1.4Z"/>
    </g>
  </g>
  <g>
    <g>
      <path class="cls-1" d="M124.29,363.76c-.2,2.19-.41,4.53-.61,7.03-.11,1.34-1.55,2.18-3.21,1.9-1.66-.29-2.92-1.6-2.81-2.94.21-2.51.42-4.85.61-7.05.17-1.85.32-3.61.46-5.28-4.34-.49-10.25-1.23-13.35-1.62-2.74,7.03-4.63,13.61-4.65,13.68-.31,1.09-1.54,1.71-2.91,1.56-.23-.02-.47-.07-.7-.14-1.63-.49-2.65-1.92-2.29-3.2.1-.33,2.36-8.2,5.62-16.15,6.28-15.34,10.57-17.21,13.95-17.03,3.12.17,5.61,1.11,7.41,2.77,4.48,4.14,3.82,11.6,2.49,26.47ZM119.08,352.55c.38-6.32.18-10.72-1.54-12.3-.2-.19-.74-.68-2.58-.79-.38.12-3.1,1.29-7.67,11.68,3.36.42,8.2,1.02,11.78,1.42Z"/>
      <path class="cls-1" d="M121.1,373.75c-.27,0-.54-.02-.82-.07-2.2-.38-3.81-2.15-3.66-4.03.2-2.43.41-4.7.6-6.84l.06-.71c.12-1.31.23-2.57.33-3.79-4.16-.48-9.22-1.11-11.59-1.41-2.58,6.74-4.32,12.79-4.34,12.85-.45,1.56-2.11,2.5-4,2.3-.3-.03-.59-.09-.88-.18-2.16-.65-3.49-2.65-2.97-4.45.24-.85,2.47-8.47,5.66-16.26,6.52-15.93,11.2-17.86,14.95-17.66,3.36.19,6.06,1.21,8.04,3.04,4.85,4.48,4.17,12.11,2.81,27.31h0v.15c-.21,2.14-.41,4.43-.61,6.86-.07.83-.49,1.58-1.17,2.11-.66.51-1.51.78-2.42.78ZM105.37,354.77s.09,0,.13,0c1.91.24,8.51,1.07,13.34,1.62.55.06.95.55.9,1.1-.13,1.52-.27,3.12-.42,4.79l-.06.71c-.19,2.13-.39,4.41-.59,6.83-.06.7.74,1.63,1.97,1.85.63.11,1.25,0,1.64-.31.23-.18.36-.4.38-.67.2-2.44.41-4.73.6-6.88v-.15c1.32-14.53,1.97-21.83-2.15-25.63-1.62-1.5-3.9-2.34-6.77-2.5-2.85-.17-6.88,1.57-12.95,16.39-3.15,7.69-5.34,15.22-5.58,16.05-.21.73.52,1.61,1.6,1.93.17.05.35.09.52.11.89.1,1.65-.25,1.82-.83.02-.06,1.94-6.72,4.68-13.77.15-.4.53-.65.95-.65ZM124.29,363.76h.01-.01ZM119.08,353.57s-.08,0-.11,0c-3.58-.4-8.39-.99-11.8-1.42-.32-.04-.6-.23-.76-.51-.16-.28-.18-.62-.05-.91,4.46-10.13,7.3-11.94,8.31-12.24.12-.03.24-.05.36-.04,1.99.12,2.78.67,3.21,1.06,2.07,1.91,2.24,6.63,1.86,13.11-.02.28-.15.54-.36.72-.19.16-.42.24-.66.24ZM108.79,350.29c2.88.36,6.4.79,9.33,1.12.22-4.32.2-9.07-1.27-10.42-.34-.31-1.07-.45-1.7-.51-.52.3-2.77,1.99-6.35,9.8Z"/>
    </g>
    <g>
      <path class="cls-1" d="M148.86,375.69c-1.14-.06-2.31-.31-3.48-.8-3.48-1.46-6.11-4.07-7.6-7.55-3.33-7.77-.54-19.22,2.92-24.01,3.03-4.19,6.76-5.08,9.36-5.09,3.05-.01,6.18,1.23,8.37,3.33,1.14,1.1,1.09,2.64-.12,3.45-1.21.81-3.12.57-4.27-.53-.87-.83-2.08-1.33-3.21-1.32-1.71,0-3.43,1.09-4.84,3.04-2.78,3.84-5.21,13.8-2.54,20.03.91,2.12,2.26,3.53,4.14,4.32,2.65,1.11,7.41-2.23,9.79-4.84.93-1.03,2.81-1.13,4.19-.24,1.38.89,1.75,2.45.82,3.48-.75.83-6.68,7.12-13.52,6.74Z"/>
      <path class="cls-1" d="M149.46,376.73c-.22,0-.44,0-.66-.02-1.31-.07-2.6-.37-3.82-.88-3.73-1.57-6.55-4.36-8.15-8.09-3.47-8.1-.57-20.03,3.03-25.01,3.28-4.54,7.35-5.5,10.18-5.52h.06c3.29,0,6.66,1.35,9.02,3.61.8.77,1.21,1.78,1.13,2.76-.08.92-.57,1.73-1.39,2.27-1.61,1.07-4.05.79-5.54-.64-.67-.64-1.62-1.04-2.48-1.04h-.02c-1.38,0-2.8.94-4.02,2.62-2.68,3.7-4.87,13.32-2.43,19.03.8,1.86,1.97,3.1,3.59,3.78,1.85.78,6.09-1.78,8.64-4.59,1.28-1.4,3.69-1.58,5.5-.41.99.64,1.63,1.59,1.77,2.62.12.88-.15,1.73-.75,2.4-1.1,1.21-6.78,7.09-13.67,7.1ZM150.1,339.25h-.05c-2.36.01-5.76.83-8.54,4.67-3.32,4.59-5.99,15.57-2.8,23.01,1.38,3.23,3.83,5.66,7.06,7.01,1.01.42,2.07.67,3.14.73h0c6.38.34,12.08-5.72,12.71-6.41.2-.22.28-.48.24-.76-.06-.43-.37-.86-.86-1.17-.94-.61-2.29-.58-2.88.07-2.47,2.71-7.62,6.49-10.94,5.09-2.13-.89-3.66-2.48-4.68-4.86-2.85-6.66-.34-16.9,2.65-21.03,1.6-2.22,3.61-3.45,5.66-3.46h.03c1.39,0,2.84.6,3.89,1.61.8.77,2.17.96,3,.41.29-.2.46-.46.49-.75.03-.37-.15-.77-.51-1.11-1.99-1.91-4.84-3.05-7.61-3.05Z"/>
    </g>
    <g>
      <path class="cls-1" d="M192.57,340.08c.16,1.36-1.05,2.46-2.71,2.46-.98,0-3.89.11-7.25.26l-1,31.73c-.04,1.25-1.22,2.16-2.72,2.15-.12,0-.25,0-.37-.02-1.66-.17-2.98-1.4-2.94-2.75l.97-30.83c-2.5.12-4.78.23-6.26.31-.07,0-.14,0-.2,0-1.57,0-3-1.01-3.26-2.31-.27-1.36.84-2.53,2.48-2.61.69-.04,17.01-.87,19.95-.87,1.66,0,3.13,1.11,3.29,2.47Z"/>
      <path class="cls-1" d="M178.91,377.7c-.16,0-.32,0-.49-.02-2.22-.23-3.91-1.9-3.85-3.8l.94-29.73c-2.06.1-3.9.19-5.15.26-.1,0-.19,0-.27,0-2.06,0-3.89-1.35-4.25-3.13-.17-.87.03-1.74.58-2.45.64-.82,1.68-1.32,2.85-1.38.69-.03,16.83-.87,19.96-.87h.05c2.19,0,4.08,1.49,4.3,3.37h0c.1.87-.17,1.71-.75,2.37-.7.78-1.77,1.23-2.96,1.23-.02,0-.04,0-.06,0-.82,0-2.9.07-6.2.22l-.97,30.79c-.06,1.8-1.66,3.14-3.72,3.14ZM176.56,342.06c.27,0,.52.1.72.29.2.2.31.48.3.76l-.97,30.83c-.02.81.9,1.59,2.02,1.71.09.01.17.02.28.01.94,0,1.67-.5,1.69-1.17l1-31.73c.02-.53.44-.96.97-.99,3.96-.18,6.38-.26,7.3-.26h0c.59,0,1.13-.2,1.43-.55.2-.22.28-.48.25-.77h0c-.1-.83-1.16-1.57-2.28-1.57h-.05c-3.08,0-19.68.86-19.85.86-.58.03-1.07.25-1.35.6-.18.24-.25.5-.19.8.16.82,1.18,1.49,2.26,1.49h.15c1.47-.08,3.76-.2,6.26-.31.02,0,.03,0,.05,0Z"/>
    </g>
    <g>
      <path class="cls-1" d="M202.94,376.35c-.12,0-.24,0-.37,0-1.66-.1-3.02-1.28-3.03-2.64l-.31-30.15c-.01-1.36,1.32-2.38,2.98-2.28,1.66.1,3.02,1.28,3.03,2.64l.31,30.15c.01,1.26-1.13,2.22-2.61,2.28Z"/>
      <path class="cls-1" d="M202.8,377.37c-.1,0-.2,0-.3-.01-2.21-.13-3.96-1.73-3.98-3.65l-.31-30.15c0-.85.34-1.66.98-2.26.77-.73,1.9-1.12,3.09-1.04,2.22.13,3.97,1.74,3.99,3.65l.31,30.15c.02,1.81-1.53,3.23-3.59,3.31h0c-.06,0-.12,0-.18,0ZM201.98,342.3c-.56,0-1.07.18-1.4.49-.23.22-.35.48-.34.76l.31,30.15c0,.82.96,1.57,2.07,1.63.1,0,.18,0,.27,0h0c.94-.04,1.64-.58,1.63-1.25l-.31-30.14c0-.82-.96-1.57-2.07-1.63-.05,0-.11,0-.16,0Z"/>
    </g>
    <g>
      <path class="cls-1" d="M231.83,374.55c-.14.01-.28.02-.43.01-1.28-.03-2.45-.73-2.9-1.75l-13.91-31.43c-.58-1.3.21-2.69,1.76-3.08,1.54-.4,3.28.34,3.85,1.64l10.82,24.44,8.83-23.44c.48-1.28,2.16-1.93,3.74-1.45,1.58.47,2.48,1.9,1.99,3.17l-11.42,30.29c-.33.88-1.25,1.49-2.35,1.6Z"/>
      <path class="cls-1" d="M231.49,375.59s-.08,0-.12,0c-1.67-.04-3.2-.99-3.8-2.36l-13.91-31.43c-.38-.86-.37-1.79.03-2.61.44-.91,1.32-1.59,2.41-1.87,2.05-.52,4.26.45,5.04,2.22l9.81,22.17,7.96-21.11c.68-1.8,2.86-2.71,4.99-2.07,1.13.34,2.04,1.08,2.51,2.03.39.8.44,1.68.14,2.48l-11.42,30.29c-.47,1.24-1.69,2.11-3.2,2.25,0,0,0,0,0,0-.14.01-.29.02-.43.02ZM231.83,374.55h0,0ZM217.21,339.22c-.2,0-.4.02-.6.07-.51.13-.9.42-1.08.79-.14.28-.14.59,0,.89l13.91,31.43c.29.65,1.11,1.12,1.99,1.14.1,0,.21,0,.31,0h0c.72-.07,1.3-.44,1.49-.94l11.42-30.29c.13-.35.04-.66-.06-.86-.22-.45-.68-.8-1.27-.98-1.06-.32-2.2.06-2.49.84l-8.83,23.44c-.15.39-.51.65-.93.66-.45-.02-.8-.23-.96-.61l-10.82-24.44c-.3-.68-1.18-1.14-2.07-1.14Z"/>
    </g>
    <g>
      <path class="cls-1" d="M262.4,370.95c-.12.02-.24.03-.36.03-1.64.08-3.1-.97-3.25-2.34l-3.44-30.34c-.15-1.37,1.05-2.53,2.69-2.61,1.64-.08,3.1.97,3.25,2.34l3.44,30.34c.14,1.26-.87,2.36-2.32,2.58Z"/>
      <path class="cls-1" d="M261.85,372.01c-2.1,0-3.87-1.39-4.08-3.25l-3.44-30.34c-.1-.86.17-1.72.75-2.4.68-.8,1.74-1.3,2.91-1.35,2.17-.1,4.09,1.32,4.31,3.24l3.44,30.34c.21,1.8-1.16,3.39-3.18,3.7-.15.02-.31.04-.48.05-.08,0-.15,0-.23,0ZM258.2,336.71s-.08,0-.12,0c-.6.03-1.13.26-1.45.63-.15.18-.32.46-.27.85l3.44,30.33c.09.83,1.08,1.47,2.19,1.43.09,0,.18-.01.26-.02h0c.91-.14,1.54-.76,1.46-1.45l-3.44-30.34c-.09-.8-1.02-1.43-2.07-1.43Z"/>
    </g>
    <g>
      <path class="cls-1" d="M292.4,327.58c.41,1.34-.56,2.67-2.15,2.98-.94.18-3.71.85-6.91,1.63l4.89,32.1c.19,1.26-.78,2.4-2.21,2.68-.12.02-.24.04-.36.05-1.63.14-3.11-.85-3.32-2.21l-4.75-31.19c-2.38.59-4.54,1.14-5.95,1.5-.06.02-.13.03-.19.04-1.5.29-3.07-.45-3.55-1.71-.51-1.31.34-2.7,1.9-3.1.66-.17,16.17-4.1,18.99-4.64,1.59-.31,3.21.53,3.61,1.87Z"/>
      <path class="cls-1" d="M285.36,368.06c-1.99,0-3.76-1.32-4.03-3.09l-4.58-30.08c-1.94.49-3.67.92-4.86,1.22-.09.02-.17.04-.26.06-2.01.39-4.03-.62-4.69-2.34-.33-.85-.28-1.77.14-2.58.47-.91,1.37-1.6,2.47-1.87.16-.04,16.14-4.09,19.05-4.66,2.12-.41,4.22.72,4.78,2.57.26.86.15,1.76-.32,2.54-.54.89-1.48,1.52-2.61,1.74-.74.14-2.74.61-5.95,1.4l4.75,31.18c.27,1.8-1.03,3.45-3.03,3.84-.15.03-.31.05-.47.07-.13.01-.26.02-.39.02ZM277.59,332.61c.2,0,.4.06.56.17.24.16.4.41.44.7l4.75,31.19c.13.83,1.14,1.44,2.23,1.35.09,0,.18-.02.26-.04.9-.17,1.5-.83,1.39-1.53l-4.89-32.1c-.08-.52.25-1.02.77-1.14,3.83-.94,6.11-1.48,6.96-1.64.55-.11,1.01-.4,1.25-.79.12-.2.23-.51.12-.9h0c-.25-.84-1.37-1.36-2.44-1.16-2.37.46-14.47,3.5-18.94,4.63-.53.13-.95.44-1.16.83-.1.2-.2.52-.05.91.3.79,1.38,1.27,2.41,1.08l.14-.03c1.4-.36,3.57-.9,5.95-1.5.08-.02.16-.03.25-.03Z"/>
    </g>
    <g>
      <path class="cls-1" d="M324.17,321.75l-7.57,18.57,4.36,16.55c.34,1.29-.56,2.57-2.04,2.93-.07.02-.13.03-.21.04-1.59.29-3.17-.56-3.53-1.91l-4.38-16.62-14.17-13.8c-1.07-1.05-.94-2.62.28-3.53,1.23-.9,3.1-.79,4.17.26l11.31,11.02,6.18-15.16c.53-1.3,2.21-1.99,3.76-1.53,1.54.46,2.36,1.88,1.83,3.18Z"/>
      <path class="cls-1" d="M318.06,360.92c-1.82,0-3.43-1.09-3.86-2.73l-4.31-16.35-13.97-13.61c-.73-.71-1.1-1.63-1.03-2.6.07-.97.58-1.87,1.42-2.48,1.64-1.2,4.05-1.05,5.49.35l10.22,9.96,5.61-13.76c.74-1.8,2.93-2.73,4.99-2.13,1.08.32,1.96,1.04,2.41,1.96.4.82.43,1.74.08,2.58t0,0l-7.45,18.25,4.27,16.22c.22.83.09,1.69-.35,2.44-.5.85-1.39,1.48-2.43,1.74-.1.02-.18.04-.27.06-.28.05-.56.08-.83.08ZM298.86,324.39c-.47,0-.95.14-1.33.41-.36.26-.57.61-.59.98-.02.35.12.71.42.99l14.17,13.8c.13.13.23.29.27.47l4.38,16.62c.22.83,1.3,1.36,2.36,1.16l.16-.03c.5-.12.93-.42,1.15-.8.11-.19.23-.5.13-.88l-4.36-16.55c-.06-.21-.04-.44.04-.65l7.57-18.57c.16-.39.07-.72-.03-.93-.2-.41-.61-.74-1.14-.89-1.04-.31-2.19.13-2.52.94l-6.18,15.16c-.13.31-.4.54-.74.61-.33.07-.68-.03-.92-.27l-11.31-11.02c-.39-.38-.96-.58-1.53-.58ZM324.17,321.75h0,0Z"/>
    </g>
  </g>
</svg>