<?xml version="1.0" encoding="UTF-8"?>
<svg id="Layer_1" xmlns="http://www.w3.org/2000/svg" viewBox="0 0 512.36 495.64">
  <defs>
    <style>
      .cls-1 {
        fill: #fff;
        fill-rule: evenodd;
      }
    </style>
  </defs>
  <path class="cls-1" d="M82.67,464.92s-9.31-45.74,37.95-57.13l-2.15-3.45s13.7-5.14,32.97,14.97c0,0-23.61-6.71-43.83,7.85,0,0,26.81-10.77,48.64-.13,0,0-14.88,5.14-13.48,16.34l-3.86-3.91s-4.94,14-16.37,21.34c-11.43,7.34-28.98-5.08-39.86,4.12h0Z"/>
  <path class="cls-1" d="M149.75,357.2s4.19,5.28,11.01,5.56c6.82.28,18.23,4.83,20.95,21.59,1.88,11.58,9.29,18.44,9.29,18.44,0,0-24.38-3.4-37.1-23.28,0,0,2.94,19.76,29.77,27.84,0,0-20.76,10.45-34.4-11.29-13.64-21.73.47-38.86.47-38.86h0Z"/>
  <path class="cls-1" d="M70.91,285.98s-2.27,4.44-.37,9.12c1.9,4.67,2.34,13.75-8.1,20.72-7.21,4.82-9.56,11.9-9.56,11.9,0,0-5.19-17.45,4.29-32.1,0,0-12.39,8.03-9.6,28.57,0,0-13.39-10.77-2.95-26.61,10.44-15.84,26.3-11.6,26.3-11.6h0Z"/>
  <path class="cls-1" d="M19.63,230.74s.96,4.19,4.8,6.23c3.84,2.04,9.15,7.79,6.11,18.17-2.1,7.17.27,13.15.27,13.15,0,0-13.08-8.66-14.92-23.58,0,0-3.74,12.16,9.46,24.19,0,0-14.81.3-16.67-15.95-1.86-16.24,10.96-22.21,10.96-22.21h0Z"/>
  <path class="cls-1" d="M9.7,349.43s3.18,5.74,9.68,7.1c6.5,1.36,16.72,7.55,16.65,24.06-.05,11.41,5.96,19.18,5.96,19.18,0,0-22.85-7.16-31.87-28.27,0,0-.34,19.43,24.12,31.47,0,0-21.59,6.7-31.2-16.33-9.61-23.03,6.67-37.22,6.67-37.22h0Z"/>
  <path class="cls-1" d="M32.59,162.99C67.5,53.91,171.29,0,272.2,0l.96.02c117.09,6.02,239.19,87.12,239.19,245.7,0,56.09-15.27,102.64-40.18,139.4l7.5,7.5c40.19,37.83,14.13,91.53-25.32,101.35-16.81,4.18-36.37,1.06-54.28-15.41l-18.16-16.34c-34.23,16.48-72.03,24.84-109.3,24.89-20.21.84-40.54-.64-60.41-4.43,1.39-6.87-1.2-12.91-6.15-14.96-30.5,19.77-61.36-4.54-61.36-4.54,14.58-6.29,10.77-29.99,23.44-38.26,20.61-13.45,39.51-12.1,49.2-9.99-33.92-34.39-5.21-73.98-5.21-73.98,7.29,15.39,32.52,10.55,41.33,24.19,8.81,13.64,7.26,31.31,7.26,31.31l6.13-2.34c-5.83,9.5,2.46,19.98,5.53,23.35.36.35.71.72,1.06,1.1,1.48,1.62,4.15,4.62,7.86,5.41.61.13-15.22-18.2-5.23-37.52l-6.26,1.07s.66-6.12-.82-14c60.99-1.63,124.86-44.71,124.86-127.79s-66.41-127.84-128.46-127.84c-48.6,0-100.62,27.68-119.04,82.93,0,.02-.02.04-.03.06-7.78,24.07-30.39,41.51-57.04,41.51-33.08,0-59.94-26.86-59.94-59.93,0-6.81,1.14-13.36,3.24-19.46h0ZM232.61,477.73s4.48-7.16,10.14-9.41c5.62-2.24,13.45-4.74,13.68-19.79.16-10.4,6.49-16.12,6.49-16.12,0,0-20.95,6.13-29.55,25.21,0,0,.03-17.71,22.54-28.26,0,0-19.56-6.49-28.73,14.34-9.17,20.82,5.42,34.04,5.42,34.04h0ZM228.95,428.33s-2.48,3.03-7.37,7.01c-3.54,2.88-8.25,6.25-14.02,9.33-7.93,4.23-17.59,7.91-28.63,8.8,8.36-1.59,15.27-4.51,21.06-7.86,5.87-3.4,10.26-7.23,13.61-10.49,4.28-4.17,6.51-7.36,6.51-7.36,1.25-1.6,4.24-2.77,6.68-2.61,2.44.16,3.41,1.59,2.17,3.19h0ZM257.42,421.55s-3.64-1.58-8.5-5.19c-3.52-2.61-7.67-6.2-11.52-10.85-5.3-6.4-10.05-14.55-11.62-24.67,2.26,7.44,5.99,13.2,10.16,17.81,4.24,4.67,8.9,7.84,12.85,10.18,5.05,2.99,8.87,4.29,8.87,4.29,1.92.78,3.43,3.29,3.36,5.62-.07,2.33-1.68,3.58-3.6,2.81h0Z"/>
</svg>