<?xml version="1.0" encoding="UTF-8"?>
<svg xmlns="http://www.w3.org/2000/svg" xmlns:xlink="http://www.w3.org/1999/xlink" viewBox="0 0 779.83 1067.04">
  <defs>
    <style>
      .cls-1 {
        fill: none;
      }

      .cls-2 {
        fill: #233b39;
      }

      .cls-3 {
        fill: url(#Degradado_sin_nombre_3);
      }

      .cls-4 {
        clip-path: url(#clippath);
      }
    </style>
    <clipPath id="clippath">
      <rect class="cls-1" x="-10.79" y="378.91" width="800" height="500" transform="translate(-239.7 1018.12) rotate(-90)"/>
    </clipPath>
    <linearGradient id="Degradado_sin_nombre_3" data-name="Degradado sin nombre 3" x1="771.05" y1="722.03" x2="1040.66" y2="417.68" gradientTransform="translate(1444.91 575.91) rotate(169.11)" gradientUnits="userSpaceOnUse">
      <stop offset="0" stop-color="#a5845a"/>
      <stop offset="0" stop-color="#a38257"/>
      <stop offset=".11" stop-color="#957643"/>
      <stop offset=".21" stop-color="#8d6f37"/>
      <stop offset=".3" stop-color="#8b6d34"/>
      <stop offset=".37" stop-color="#957841"/>
      <stop offset=".5" stop-color="#b29763"/>
      <stop offset=".68" stop-color="#e1ca9a"/>
      <stop offset=".68" stop-color="#e3cc9d"/>
      <stop offset=".76" stop-color="#d7be90"/>
      <stop offset=".91" stop-color="#ba9c70"/>
      <stop offset="1" stop-color="#a5845a"/>
    </linearGradient>
  </defs>
  <g id="BACKGROUND">
    <rect class="cls-2" x="-10.79" y="378.91" width="800" height="500" transform="translate(-239.7 1018.12) rotate(-90)"/>
  </g>
  <g id="OBJECTS">
    <g class="cls-4">
      <path class="cls-3" d="M522.34,44.79c-.18-.02-.43-.12-.51-.04-.43.41-.82.86-1.2,1.31-3.51,4.08-7.46,7.64-12.13,10.36-3.56,2.08-7.35,3.6-11.36,4.51-2.57.59-5.17,1.04-7.77,1.47-5.16.85-9.93,2.66-14.25,5.59-3.06,2.07-6.02,4.28-9.04,6.41-1.56,1.1-3.14,2.19-4.75,3.21-3.16,2-6.59,3.32-10.29,3.91-2.34.37-4.69.71-7.05.99-5.13.61-10.12,1.79-14.97,3.55-1.98.72-3.95,1.49-5.95,2.17-3.75,1.26-7.51,2.47-11.27,3.7-.36.12-.74.19-1.15.3-.1-.68.43-.86.73-1.14,2.2-2.02,4.07-4.31,5.74-6.77,1.12-1.65,1.92-3.42,2.49-5.35.98-3.31,1.4-6.71,1.82-10.11.45-3.66,1.68-7.04,3.81-10.07,3.11-4.42,7.36-7.1,12.61-8.21,1.41-.3,2.86-.47,4.3-.6,3.79-.33,7.37-1.32,10.8-2.99,1.77-.87,3.63-1.59,5.5-2.21,3.51-1.17,7.12-1.3,10.74-.61,2.29.44,4.39,1.39,6.43,2.49,2.73,1.48,5.25,3.29,7.75,5.11,1.97,1.44,3.92,2.91,5.93,4.28,1.19.81,2.48,1.5,3.75,2.18,1.84.99,3.75,1.06,5.75.47,5.92-1.76,11.15-4.73,15.72-8.86,3.84-3.47,7.06-7.46,9.96-11.73.6-.88.99-1.84,1.27-2.87,2.68-9.68,3.71-19.54,3.48-29.56-.03-1.19-.04-2.37-.05-3.56,0-.4-.01-.79.02-1.19.04-.58.38-.96.8-.94.43.01.76.36.85.94.06.39.09.79.09,1.18,0,3.43.05,6.86-.02,10.28-.18,9.1-1.82,17.97-4.53,26.63-1.6,5.12-3.95,9.92-6.63,14.55-1.35,2.34-2.81,4.62-4.25,6.9-.53.84-.97,1.71-1.26,2.67-.66,2.21-1.32,4.41-1.69,6.7-.87,5.4,0,10.51,2.34,15.39,1.75,3.65,4.04,6.95,6.67,10.02,1.54,1.8,3.17,3.54,4.77,5.29,2.09,2.29,4.13,4.63,5.91,7.17,1.82,2.6,3.43,5.33,4.6,8.29,1.65,4.16,2.55,8.46,2.17,12.95-.26,3.04-1.08,5.97-2.18,8.81-.81,2.09-1.66,4.18-2.69,6.16-2.9,5.55-3.83,11.46-3.54,17.62.22,4.68.65,9.34,1.43,13.96.77,4.57,1.02,9.17.6,13.79-.15,1.64-.34,3.28-.66,4.9-.78,3.95-1.29,7.94-1.68,11.94-.25,2.56-.69,5.09-1.04,7.64-.19,1.44-.36,2.88-.54,4.32-.03.24-.11.47-.17.71-.56-.21-.45-.69-.55-1.03-1.66-6.24-4.24-12.06-7.76-17.47-1.47-2.27-2.93-4.55-4.38-6.83-1.68-2.62-3.09-5.37-4.22-8.27-3.14-8.03-3.44-16.18-1.12-24.45.36-1.27.7-2.54,1.07-3.81.29-1.02.15-1.97-.42-2.84-.65-.99-1.32-1.97-2.02-2.93-1.69-2.28-3.43-4.52-5.11-6.8-1.76-2.4-3.26-4.95-4.52-7.66-2.54-5.47-3.43-11.19-2.62-17.16.41-3.05,1.53-5.87,2.98-8.55,1-1.85,2.17-3.61,3.31-5.38,1.04-1.61,2.15-3.16,3.21-4.75,2.06-3.07,3.24-6.44,3.77-10.1.49-3.4.95-6.79.87-10.23-.01-.52,0-1.06-.09-1.57-.71-3.61-.56-7.21.13-10.81.04-.19.04-.39.08-.77-.29.15-.55.2-.66.35-3.17,4.21-6.42,8.37-9.22,12.85-2.22,3.54-3.84,7.35-5.1,11.32-.8,2.51-1.69,5-2.69,7.44-1.11,2.7-2.68,5.14-4.57,7.37-2.51,2.97-5.05,5.92-7.6,8.85-1.82,2.09-3.69,4.13-5.55,6.19-1.97,2.17-3.49,4.58-4.48,7.38-1.45,4.07-2.53,8.18-2.48,12.54.04,3.34.66,6.55,1.99,9.62,1.24,2.86,2.87,5.49,4.74,7.98,2.02,2.69,4.08,5.35,6.07,8.06,2.4,3.26,4.26,6.81,5.72,10.59,1.81,4.69,2.48,9.57,2.31,14.55-.14,4.15-.37,8.3-.7,12.44-.39,4.94-.35,9.88-.22,14.82.09,3.49.05,6.98.06,10.48,0,.1-.11.2-.24.42-.25-.45-.5-.82-.69-1.23-1.69-3.65-3.46-7.27-5.02-10.98-1.63-3.88-3.78-7.38-6.68-10.44-1.5-1.58-2.91-3.23-4.32-4.89-2.72-3.2-4.09-6.91-4-11.1.1-4.51-.42-8.94-1.13-13.38-.5-3.13-.7-6.29-.51-9.46.23-3.73,1.35-7.25,2.79-10.67.49-1.15,1.01-2.29,1.58-3.57-1.15-2.34-2.26-4.8-2.86-7.45-.58-2.6-.68-5.22-.59-7.86.1-2.71.7-5.33,1.39-7.94-.58-.12-.71.26-.88.49-6.14,8.29-11.49,17.04-15.37,26.65-1.75,4.34-3.42,8.71-5.53,12.9-1.54,3.06-1.51,3.08-1.14,6.43.55,4.99,2.28,9.47,5.76,13.18,1.49,1.59,3.02,3.14,4.52,4.71,1.73,1.81,3.54,3.55,5.17,5.46,6.29,7.36,9.17,15.93,8.63,25.58-.22,3.88-.73,7.74-1.19,11.6-.48,4.06-1.27,8.08-1.39,12.18-.16,5.51.35,10.93,1.92,16.23,1,3.35,2,6.7,3.01,10.04,1.87,6.16,2.64,12.5,2.96,18.9.13,2.56-.42,7.25-.96,9.21-.46.08-.49-.31-.6-.58-.49-1.15-.95-2.32-1.44-3.47-2.07-4.91-5.31-8.93-9.46-12.23-2.64-2.09-5.16-4.3-7.48-6.75-.68-.72-1.35-1.44-2.01-2.18-2.54-2.86-4.36-6.11-5.33-9.82-.05-.19-.12-.38-.16-.57-1-4.56-3.21-8.47-6.33-11.92-2.08-2.3-4.08-4.67-6.04-7.07-3.17-3.87-5.54-8.17-6.97-12.99-1.51-5.09-1.41-10.13.13-15.19,1.06-3.49,2.59-6.77,4.11-10.06,2.02-4.37,4.13-8.7,6.04-13.11,1.91-4.42,3.48-8.99,4.38-13.74.37-1.94.48-3.92.68-5.88.04-.37-.08-.75-.16-1.39-.36.43-.57.65-.73.9-2.77,4.43-6,8.52-9.54,12.35-4.43,4.81-8.45,9.95-12.47,15.09-1.42,1.81-2.67,3.76-3.95,5.68-.36.54-.69,1.14-.86,1.76-1.07,3.83-1.76,7.71-1.63,11.71.06,1.79.29,3.55.87,5.25,1.27,3.71,3.01,7.18,5.59,10.17,1.25,1.45,2.54,2.86,3.79,4.31.94,1.1,1.85,2.23,2.76,3.37,4.32,5.44,6.9,11.66,8.15,18.45.76,4.14.59,8.29-.3,12.38-.58,2.64-1.36,5.23-2.13,7.82-1.33,4.49-2.69,8.98-3.47,13.61-.97,5.74-1.13,11.54-.82,17.35.06,1.18.07,2.37.07,3.56,0,.25-.12.5-.21.9-.31-.22-.58-.35-.78-.56-1.07-1.17-2.14-2.33-3.17-3.53-2.29-2.64-4.54-5.32-6.83-7.95-2.13-2.44-4.1-4.99-5.94-7.65-3.45-4.99-5.4-10.52-6.1-16.53-.67-5.68-.44-11.32.61-16.93,1.03-5.52,2.42-10.94,4.26-16.26,1.12-3.24,2.18-6.5,3.21-9.77.56-1.76,1.03-3.54,1.18-5.4.13-1.48.01-2.93-.57-4.27-1.74-3.98-2.18-8.12-1.73-12.39.05-.52.06-1.04.09-1.71-.6.28-.78.75-.99,1.18-1.91,3.77-3.57,7.65-4.95,11.64-.52,1.49-1.02,2.99-1.52,4.5-.42,1.27-.54,2.58-.44,3.91.2,2.56.43,5.12.6,7.68.29,4.15.31,8.3.13,12.45-.23,5.42-1.81,10.36-5.13,14.7-.92,1.2-1.78,2.45-2.69,3.67-.92,1.22-1.66,2.53-2.18,3.97-1.19,3.29-2.31,6.6-2.82,10.08-.44,3-.98,5.99-1.26,9.01-.51,5.51.03,10.92,1.92,16.17,1.32,3.67,2.85,7.24,4.85,10.6,2.02,3.4,4.06,6.8,6.08,10.2,2.27,3.8,4.28,7.73,5.87,11.87.93,2.4,1.7,4.85,2.23,7.38.72,3.4.8,6.81.19,10.22-.43,2.4-.92,4.79-1.44,7.18-.45,2.06-.94,4.12-1.49,6.15-1.36,5.04-2.36,10.15-2.79,15.36-.04.45-.13.9-.23,1.53-.4-.32-.72-.51-.97-.77-3.28-3.43-6.58-6.85-9.82-10.32-2.48-2.66-4.73-5.5-6.54-8.67-2.85-4.97-4.44-10.28-4.07-16.06.16-2.51.63-4.96,1.41-7.36,1.72-5.3,4.25-10.21,6.94-15.06.92-1.67,1.74-3.4,2.51-5.15.37-.83.59-1.75.75-2.65.27-1.46.05-2.78-.76-4.14-2.36-3.92-3.95-8.19-5.25-12.57-.73-2.48-1.05-5.03-1.24-7.6-.05-.64-.08-1.28-.13-2.29-.57.83-.62,1.47-.75,2.06-.66,2.85-1.79,5.52-3.25,8.04-1.96,3.37-4.72,5.99-7.91,8.19-2.78,1.92-5.75,3.5-8.81,4.89-2.88,1.31-5.77,2.62-8.68,3.85-7.77,3.29-14.46,8.12-20.36,14.11-1.02,1.03-2.07,2.03-3.12,3.04-.13.12-.32.18-.67.38.08-.39.08-.63.17-.83.76-1.75,1.5-3.52,2.31-5.25,2.49-5.3,4.16-10.84,4.71-16.67.19-2.02.09-4.08.01-6.12-.13-3.42-.45-6.84-.23-10.27.2-3.11.67-6.17,1.64-9.13.43-1.3,1.01-2.59,1.7-3.77,1.97-3.36,4.93-5.42,8.74-6.26,1.94-.43,3.92-.5,5.9-.53,1.19-.02,2.37.02,3.56-.02,1.52-.05,3.02-.26,4.45-.84,1.18-.48,2.25-1.11,3.11-2.05,1.4-1.54,1.89-3.3,1.23-5.3-.27-.81-.66-1.58-.97-2.38-.64-1.66-1.36-3.3-1.86-5-.77-2.67-.64-5.35.43-7.94.72-1.75,1.94-3.13,3.37-4.33,1.98-1.67,4.19-2.99,6.57-4,2.3-.98,4.65-1.87,7-2.73,3.45-1.27,6.49-3.19,9.3-5.54,2.41-2.02,3.94-4.6,4.92-7.51.42-1.23.56-2.57.71-3.88.28-2.45,1-4.78,1.81-7.07,1.45-4.1,2.93-8.2,4.95-12.07,1.95-3.74,3.84-7.51,5.93-11.18,2.46-4.31,5.64-8.12,8.89-11.84,3.21-3.67,6.51-7.27,9.73-10.93,3.01-3.43,5.7-7.09,8-11.03.32-.55.59-1.13,1.08-2.07-.7.43-1.06.59-1.35.84-2.96,2.49-6.42,3.86-10.16,4.63-3.36.7-6.72,1.34-10.08,2.02-1.1.22-2.19.48-3.28.75-3.28.83-6.08,2.49-8.49,4.85-2.28,2.23-4.14,4.79-5.56,7.65-1.79,3.6-3.66,7.16-5.72,10.61-1.69,2.84-3.06,5.85-3.98,9.03-1.12,3.89-1.62,7.87-1.6,11.92.01,2.57.13,5.15,0,7.71-.34,6.6-3.24,11.89-8.63,15.71-1.77,1.25-3.73,2.24-5.66,3.23-2,1.02-4.07,1.88-6.11,2.81-3.93,1.78-7.64,3.9-10.74,6.96-.27.27-.62.47-.88.67-.51-.14-.44-.52-.5-.82-.51-2.57-.22-5.13.12-7.68.31-2.35.7-4.7,1.24-7.01,1.68-7.16,5.37-13.12,10.96-17.91,3.16-2.71,6.64-5,10.05-7.36,1.79-1.24,3.57-2.5,5.29-3.83,1.96-1.51,3.53-3.36,4.57-5.63.17-.38.21-.81.4-1.57-.7.5-1.12.78-1.53,1.09-1.76,1.3-3.65,2.37-5.65,3.24-3.46,1.51-7.07,2.06-10.82,1.77-2.43-.19-4.86-.41-7.29-.61-3.63-.3-7.25-.15-10.84.37-4.86.7-9.25,2.62-13.3,5.33-2.03,1.36-3.96,2.85-5.93,4.3-2.02,1.49-4,3.03-6.03,4.49-3.53,2.54-7.5,4.1-11.67,5.24-.43.12-.88.2-1.32.29-.25-.44.13-.51.29-.6,7.61-4.08,12.71-10.55,16.95-17.82,1.83-3.14,3.14-6.53,4.49-9.9,1.53-3.8,3.23-7.51,5.56-10.9,1.76-2.57,3.8-4.89,6.32-6.76,2.7-2.01,5.67-3.37,9.04-3.72,2.88-.3,5.78-.44,8.67-.7,2.23-.2,4.47-.38,6.68-.7,3.3-.48,6.37-1.64,9.21-3.41.56-.35,1.13-.68,1.69-1.03,5.65-3.55,11.62-3.95,17.84-1.84,1.25.42,2.46.95,3.69,1.42,1.3.5,2.6.99,4.03.78.58-.08,1.19-.14,1.73-.36,2.09-.84,4.27-1.36,6.47-1.79,2.65-.52,5.29-1.12,7.95-1.57,5.54-.94,10.06-3.82,14.18-7.42,1.85-1.62,3.3-3.56,4.21-5.9,1.07-2.77,2.24-5.49,3.37-8.24,3.21-7.85,7.41-15.15,12.26-22.09,5.22-7.47,10.85-14.6,17.1-21.24.98-1.04,1.97-2.07,2.86-3.25-.25-.08-.39-.17-.47-.14-2.49,1.06-4.97,2.12-7.45,3.21-.78.35-1.52.79-2.27,1.2-2.52,1.39-4.67,3.22-6.35,5.56-1.15,1.6-2.25,3.25-3.28,4.93-2.06,3.38-4.14,6.74-6.49,9.92-1.89,2.55-3.92,4.97-6.2,7.17-2.97,2.87-6.35,5.13-10.13,6.81-4.51,2-9.2,2.7-14.1,2.18-3.08-.33-6.16-.7-9.25-.86-6.08-.33-12.11.31-18.11,1.26-4.24.67-8.42,1.61-12.52,2.85-3.54,1.07-7.13,1.9-10.76,2.61-1.27.25-2.54.52-3.88.56.45-.24.91-.47,1.35-.72,1.21-.68,2.43-1.33,3.61-2.06,4.43-2.74,7.73-6.51,10.18-11.09,1.46-2.73,2.94-5.45,4.49-8.13,1.32-2.29,2.92-4.38,4.8-6.26,3.94-3.95,8.66-5.91,14.26-5.67,2.11.09,4.21.24,6.32.33,1.65.07,3.29,0,4.91-.37,1.96-.44,3.53-1.41,4.52-3.22.41-.75.83-1.5,1.31-2.21.77-1.14,1.55-2.29,2.42-3.37,2.07-2.57,4.8-4.07,8.03-4.69,3.54-.68,7.08-.59,10.61.12,3.05.61,5.97,1.63,8.92,2.59,2.44.8,4.94,1.42,7.43,2.06,1.37.35,2.74.33,4.06-.3.65-.31,1.34-.57,1.96-.93,2.69-1.56,5.52-2.81,8.38-4.02,1.94-.82,3.82-1.78,5.7-2.74,1.43-.73,2.53-1.85,3.48-3.16,2.28-3.13,3.96-6.55,4.97-10.27,1.62-5.98,4.18-11.51,7.69-16.61.26-.37.48-.76.72-1.15-.38-.38-.65-.08-.9.04-1.56.7-3.13,1.4-4.68,2.14-1.07.51-2.12,1.06-3.15,1.65-1.75,1.01-3.14,2.39-4.15,4.14-.99,1.71-1.93,3.45-2.92,5.16-1.22,2.12-2.65,4.09-4.33,5.88-2.03,2.15-4.4,3.78-7.19,4.77-1.37.49-2.74.95-4.14,1.32-4.21,1.1-8.43,2.15-12.66,3.19-1.85.46-3.74.77-5.65.83-.28-.43.07-.63.28-.83,2.27-2.1,3.79-4.69,5-7.51.62-1.45,1.38-2.85,2.2-4.2,1.66-2.72,4.08-4.45,7.24-5.06,1.42-.28,2.85-.55,4.28-.74,2.81-.38,5.35-1.37,7.63-3.05.48-.35.98-.66,1.47-1.01,2.18-1.53,4.53-2.74,7.14-3.29,3.98-.83,7.6-2.56,11.28-4.19,4.1-1.81,7.39-4.53,9.89-8.24,4.19-6.24,8.21-12.59,11.96-19.1.62-1.08,1.14-2.23,1.7-3.35,0-.06,0-.11,0-.16,0,.06-.01.11-.02.17ZM419.63,280.34c-.25-.21-.46-.08-.69.07-1.32.86-2.64,1.71-3.97,2.56-.67.42-1.36.8-2.01,1.24-1.77,1.22-3.11,2.81-4.06,4.74-.6,1.23-.71,2.44-.29,3.8,1.13,3.69,2.83,7.08,5.06,10.2.18.25.42.46.86.93-.03-.61-.03-.91-.07-1.21-.17-1.37-.43-2.73-.53-4.1-.19-2.84.02-5.66.86-8.39,1.1-3.54,2.71-6.83,4.86-9.86-.02-.05-.04-.09-.05-.14,0-.03.03-.07.04-.11,0,.09-.01.17-.02.26ZM486.02,220.98c0,.14,0,.28.01.43.04-.04.11-.09.11-.11-.05-.1-.11-.2-.17-.29-.01-.32.02-.66-.05-.97-.69-3.23-.99-6.51-1.06-9.81-.03-1.25-.13-2.5-.21-3.75-.22-3.51-.96-6.91-2.33-10.16-1.2-2.85-2.43-5.7-3.66-8.54-.12-.27-.34-.5-.6-.88-.26.42-.5.67-.58.96-.21.76-.43,1.53-.48,2.31-.15,1.94.31,3.79,1.02,5.59.63,1.59,1.29,3.18,1.81,4.81.92,2.87,1.26,5.79.47,8.76-.07.25-.05.51-.07.8,1.98,2.6,3.36,5.51,4.54,8.53.24.61.46,1.24.74,1.83.09.2.34.33.52.49ZM472.63,298.05c0,.15.01.3.02.45.05-.03.11-.05.16-.08-.08-.12-.16-.23-.23-.35.34-.68-.04-1.29-.21-1.9-1.08-3.9-2.81-7.52-4.89-10.97-1.66-2.76-3.44-5.46-5.19-8.17-1.42-2.22-2.79-4.47-3.86-6.89-.09-.2-.28-.36-.44-.56-.18.19-.31.27-.33.37-.39,1.93-.85,3.86-1.12,5.81-.22,1.57.03,3.15.45,4.69.33,1.23.91,2.32,1.91,3.16,1.46,1.22,2.89,2.49,4.37,3.69,3.52,2.84,6.56,6.08,8.7,10.11.14.26.43.43.65.64ZM472.89,293.63c0,.11,0,.22-.01.33.07-.04.14-.08.21-.11-.08-.06-.16-.13-.24-.19.41-.62.17-1.28.11-1.92-.47-5.06-1.27-10.06-2.82-14.92-.54-1.69-1.02-3.41-1.55-5.11-.21-.69-.43-1.39-.72-2.05-1.75-3.92-3.77-7.69-6.27-11.19-1.27-1.77-2.73-3.39-4.34-4.85-.22-.2-.46-.49-.91-.25-.04.21-.13.46-.13.71-.07,2.04,0,4.08.33,6.1.85,5.13,2.59,9.93,5.36,14.35,1.4,2.23,2.86,4.43,4.28,6.65,2.39,3.72,4.58,7.55,6.17,11.7.11.28.36.51.55.76ZM393.87,268.09c-2.61.33-4.76.59-6.9.88-.72.1-1.44.21-2.14.39-4.87,1.26-8.38,4.28-10.84,8.59-.61,1.07-.87,2.16-.11,3.34.42.65.7,1.42.92,2.18.23.81.44,1.67.44,2.51,0,2.49-1.2,4.4-3.15,5.86-2.07,1.56-4.47,2.2-7.02,2.35-1.18.07-2.37.03-3.55.04-2.04.03-4.08.05-6.09.48-3.48.75-6.11,2.68-7.87,5.77-.92,1.61-1.57,3.34-1.96,5.15-.66,3.03-.99,6.11-1.02,9.22,0,.33.15.66.29,1.2.37-.68.64-1.13.86-1.6,1-2.19,2.45-4.05,4.14-5.73,3.32-3.31,7.33-5.32,11.89-6.26,1.55-.32,3.11-.55,4.67-.83,2.16-.38,4.23-1.05,6.14-2.12,2.84-1.58,4.81-3.83,5.33-7.18.22-1.43.57-2.85.95-4.24,1.58-5.74,4.48-10.65,9.09-14.5,1.46-1.23,2.88-2.51,4.3-3.79.48-.43.9-.93,1.63-1.7ZM441.28,254.69c-.1-.52-.14-.84-.21-1.16-1.08-4.76-.71-9.44.96-13.99.86-2.34,1.88-4.64,2.97-6.88,1.47-3.02,3.11-5.95,4.62-8.94.99-1.94,1.72-3.99,2.1-6.15.39-2.19.26-4.32-.62-6.39-.49-1.15-.92-2.33-1.38-3.49-.11-.28-.14-.66-.67-.65-.09.29-.22.58-.28.89-.7,3.51-2.37,6.54-4.71,9.21-1.43,1.63-2.9,3.23-4.41,4.8-2.24,2.33-4.34,4.77-6.1,7.49-1.29,2.01-2.32,4.12-2.83,6.48-.39,1.8-.32,3.52.57,5.18.31.58.56,1.19.85,1.78,2.23,4.39,5.37,8.1,8.71,11.67.04.04.12.04.43.15ZM507.64,146.01c.11-.36.2-.55.21-.74.23-3.18.99-6.23,1.93-9.26,1.76-5.68,4.79-10.52,9.36-14.36.5-.42.95-.88,1.46-1.36-1.26-3.95-2.5-7.83-3.74-11.71-.02-.06-.07-.11-.13-.14-.05-.04-.12-.05-.28-.1-.33.19-.74.4-1.12.64-4.42,2.83-8.25,6.35-11.51,10.44-1.72,2.16-3.28,4.44-4.47,6.97-.54,1.15-.63,2.23-.35,3.43.43,1.87,1,3.68,1.76,5.44,1.61,3.72,3.82,7.06,6.26,10.27.11.15.29.24.61.49ZM439.21,136.04c-.9-.11-1.35-.24-1.79-.2-1.31.11-2.62.24-3.92.44-1.43.22-2.84.58-4.27.79-3.85.55-7.62.32-11.22-1.31-1.32-.6-2.65-1.18-3.91-1.89-2.84-1.59-5.9-2.24-9.11-2.15-2.98.08-5.89.61-8.63,1.84-1.05.47-1.91,1.12-2.49,2.15-1.44,2.58-2.92,5.15-4.38,7.72-.09.15-.09.35-.13.5.17.11.28.24.38.23,2.71-.23,5.38.1,8.04.59.43.08.93.04,1.35-.08,3.76-1.12,7.62-1.4,11.51-1.53,3.48-.12,6.97-.25,10.45-.4,6.23-.28,11.8-2.5,16.99-5.81.27-.17.5-.39,1.12-.88ZM367.77,328.28c.35-.05.56-.03.73-.11,3.83-1.78,7.52-3.81,10.76-6.56,2.88-2.44,4.95-5.44,6.4-8.89.23-.54.39-1.13.47-1.71.42-3.17.34-6.31-.71-9.36-.54-1.55-1.08-3.11-1.66-4.65-1.69-4.55-2.12-9.21-1.24-13.99.05-.25.29-.58-.15-.87-.26.42-.53.78-.72,1.19-1.08,2.27-1.85,4.65-2.35,7.11-.51,2.52-.99,5.04-1.49,7.56-1.08,5.37-3.04,10.36-6.56,14.63-1.04,1.26-1.42,2.6-1.3,4.19.1,1.38.09,2.76.08,4.14-.02,2.14-.48,4.18-1.59,6.04-.23.38-.41.79-.66,1.28ZM429.73,236.01c.25-.58.35-.75.4-.94.66-2.59,1.93-4.88,3.44-7.06,1.73-2.49,3.72-4.78,5.85-6.93,1.95-1.96,3.82-4,5.45-6.24,1.66-2.27,2.75-4.79,3.24-7.56.25-1.42.44-2.87-.03-4.3-1.11-3.33-1.6-6.78-2.02-10.25-.27-2.22-.53-4.44-.8-6.66-.04-.3,0-.68-.54-.76-.08.3-.16.61-.22.91-1.13,5.23-2.79,10.29-5,15.17-2.2,4.86-4.49,9.67-6.73,14.51-1.49,3.23-2.81,6.53-3.5,10.05-.58,3.01-.59,6.02.09,9.01.05.24.16.46.38,1.05ZM511.52,176.77c.1-.31.23-.6.29-.9.23-1.18.64-2.29,1.24-3.32,1.55-2.68,3.08-5.37,4.7-8,1.28-2.08,2.46-4.21,3.32-6.5.82-2.16,1.56-4.34,2.27-6.53.42-1.31.81-2.65,1.03-4.01.59-3.66.66-7.34.21-11.03-.52-4.33-1.62-8.54-2.89-12.7-.06-.21-.25-.39-.43-.64-.25.3-.45.48-.58.7-1.44,2.41-2.42,4.99-2.68,7.78-.2,2.1-.3,4.21-.31,6.31-.03,5.87-1.05,11.54-3.32,16.96-1.12,2.68-2.04,5.43-2.68,8.26-.94,4.14-1.17,8.34-.67,12.57.04.37-.01.79.51,1.05ZM455.07,222.62c-.16.43-.24.55-.24.67.13,4.17-.22,8.3-.87,12.41-.6,3.79-1.42,7.52-2.84,11.1-.94,2.39-1.97,4.75-2.93,7.13-1.03,2.55-1.42,5.21-1.18,7.95.06.65.22,1.3.42,1.92.6,1.88,1.34,3.73,1.84,5.63,1.06,4.07,3.14,7.52,6.03,10.52.16.16.37.27.78.56-.05-.57-.05-.89-.11-1.19-.32-1.7-.36-3.41-.03-5.11.28-1.42.55-2.85.91-4.25.41-1.58.37-3.06-.14-4.64-1.43-4.45-1.94-9.02-1.28-13.67.4-2.81.96-5.59,1.39-8.39.27-1.76.53-3.52.62-5.3.27-4.93-.66-9.71-1.97-14.43-.07-.24-.21-.46-.42-.91ZM372.37,309.14c-1.56.43-2.88.84-4.22,1.15-1.22.28-2.46.43-3.7.64-3.58.61-7.09,1.49-10.39,3.07-3.4,1.63-6.17,4-8.34,7.09-.55.79-.83,1.59-.76,2.58.09,1.31.07,2.63.01,3.95-.17,3.64-.98,7.17-1.97,10.67-.08.28-.13.56-.26,1.1.37-.3.57-.39.65-.54,2.06-3.7,5.04-6.54,8.37-9.09,2.51-1.92,4.94-3.95,7.35-6,4.28-3.64,8.2-7.62,11.64-12.07.55-.72,1.16-1.42,1.62-2.54ZM447.62,80.08c.11.06.22.19.32.18,3.02-.36,5.99-.94,8.79-2.18.53-.24,1.08-.52,1.51-.91,1.84-1.66,3.27-3.58,4.06-5.98.68-2.06,1.46-4.1,2.31-6.1,1.03-2.45,2.38-4.7,4.41-6.48.17-.15.26-.39.44-.67-.45-.11-.76-.23-1.08-.26-2.16-.21-4.32-.46-6.49-.58-1.64-.09-3.29.01-4.93.02-1.05,0-1.94.42-2.67,1.11-.57.54-1.12,1.13-1.55,1.78-1.15,1.73-1.81,3.66-2.07,5.71-.16,1.24-.26,2.49-.38,3.74-.33,3.56-.86,7.07-2.65,10.26-.05.09,0,.25,0,.37ZM445.96,260.78c.12-.69.19-1.13.26-1.56.19-1.17.27-2.37.61-3.5.49-1.64,1.1-3.25,1.78-4.81,1.45-3.33,2.75-6.7,3.59-10.25,1.02-4.31,1.59-8.69,1.81-13.11.17-3.36.03-6.72-.61-10.04-.07-.36-.04-.8-.61-.93-.08.24-.19.47-.23.72-.5,3.03-1.69,5.81-3.1,8.51-1.28,2.45-2.61,4.88-3.87,7.34-1.41,2.76-2.65,5.61-3.46,8.61-1.24,4.57-1.2,9.11.25,13.64.66,2.07,2.08,3.59,3.57,5.38ZM418.97,126.33c1.74,1.15,3.46,2.23,5.41,2.87,2.8.93,5.65,1.17,8.57.71,1.43-.23,2.86-.44,4.3-.56,2.72-.24,5.23.32,7.39,2.11.08.07.25.02.38.03,1.88-1.36,5.79-4.95,6.55-6.03-.48-.5-.91-1.09-1.47-1.53-1.39-1.1-2.76-2.25-4.27-3.17-4.43-2.71-9.21-3.31-14.24-2.06-1.54.38-2.85.99-3.41,2.62-.04.12-.14.23-.2.34-1.3,2.35-3.3,3.7-5.91,4.19-1.03.19-2.06.33-3.1.49ZM408.89,186.15c-.34-.07-.53-.16-.7-.13-3.37.68-6.64,1.68-9.76,3.15-.91.43-1.42,1.06-1.74,2-1.48,4.29-3.8,8.11-6.91,11.41-1.31,1.39-2.73,2.67-4.14,3.96-1.89,1.74-3.83,3.43-5.7,5.19-1.2,1.13-2.24,2.42-2.92,3.95-.13.29-.37.57-.1.94.16.04.35.12.53.12.46,0,.92-.01,1.38-.05,3.08-.22,5.91-1.28,8.6-2.73,3.92-2.11,6.93-5.2,9.45-8.82,1.96-2.82,3.55-5.86,5.03-8.95,1.66-3.47,3.72-6.67,6.45-9.4.16-.16.29-.37.52-.65ZM402.22,248.95c-.44.62-.68,1-.95,1.34-.61.77-1.18,1.6-1.88,2.28-2.72,2.63-5.78,4.78-9.29,6.25-1.46.61-2.95,1.12-4.42,1.71-1.71.68-3.43,1.35-5.1,2.12-1.98.92-3.81,2.09-5.47,3.51-2.49,2.12-3.6,4.83-3.37,8.05.08,1.1.41,2.19.67,3.27.06.25.32.46.54.75.18-.3.29-.46.39-.63.14-.22.27-.45.41-.68,3.06-5.04,7.45-8.06,13.34-8.79.85-.11,1.7-.18,2.55-.3,1.04-.14,2.08-.3,3.12-.48,1.76-.32,3.2-1.14,4.15-2.72.27-.45.6-.87.9-1.3,2.69-3.9,3.76-8.37,4.53-12.94.06-.36-.05-.75-.1-1.45ZM403.59,251.35c-.13-.1-.18-.16-.23-.16-.05,0-.14.06-.15.11-.14.71-.28,1.42-.41,2.13-1.13,5.93-3.84,11.03-8.1,15.29-1.63,1.63-3.31,3.2-5.06,4.7-1.03.89-1.75,1.92-2.32,3.13-1.01,2.13-1.3,4.4-1.44,6.71-.28,4.56.66,8.9,2.35,13.1.03.08.19.11.29.16.05-.03.13-.06.14-.1.14-.5.29-1.01.4-1.52.82-3.82,2.03-7.5,3.91-10.93,1.42-2.59,2.9-5.16,4.66-7.55,1.05-1.43,2.03-2.92,2.98-4.42,1.65-2.6,2.59-5.46,2.86-8.53.03-.39.08-.79.13-1.18.41-3.67.31-7.34,0-10.95ZM444.07,132.18c-.4-.34-.7-.69-1.07-.91-1.7-1.02-3.57-1.33-5.52-1.16-1.51.13-3.01.36-4.5.59-3.9.6-7.6,0-11.14-1.72-1.6-.78-3.2-1.54-4.83-2.26-.59-.26-1.24-.51-1.87-.56-1.77-.14-3.55-.21-5.32-.25-5.15-.11-9.3,2.02-12.74,5.72-.16.17-.27.38-.6.87.84-.23,1.32-.35,1.8-.49,1.9-.58,3.84-.94,5.82-1.05,3.62-.2,7.08.36,10.29,2.17.92.52,1.86.99,2.82,1.42,2.04.94,4.14,1.66,6.41,1.88,2.73.26,5.39-.04,8.04-.59,2.84-.59,5.67-1.22,8.53-.38,1.39-1.02,2.8-1.86,3.89-3.27ZM381.1,198.2c-2.72.43-5.19.83-7.66,1.19-1.76.26-3.52.49-5.29.67-1.21.12-2.14.67-2.8,1.63-.66.98-1.32,1.98-1.8,3.05-.81,1.8-1.47,3.67-2.2,5.5-.76,1.91-1.74,3.69-3.19,5.18-.19.19-.57.35-.37.79,2.31-.08,4.6-.25,6.89-.23,2.36.03,4.72.24,7.11.37.14-.27.29-.49.37-.73.95-2.92,2.52-5.49,4.42-7.88.9-1.13,1.73-2.33,2.51-3.54.89-1.39,1.59-2.89,1.92-4.52.09-.43.06-.89.09-1.47ZM533.65,140.55c.2-.25.36-.37.43-.53.73-1.91,1.44-3.82,2.17-5.73.88-2.33.73-4.66,0-6.98-1.09-3.41-3-6.3-5.76-8.57-1.21-1-2.56-1.84-3.9-2.68-2.45-1.54-4.93-3.04-7.16-4.91-.12-.1-.33-.09-.6-.16.01.9.34,1.61.58,2.34,1.77,5.24,3.5,10.5,4.82,15.88.19.77.58,1.26,1.24,1.67,3.47,2.23,6.11,5.17,7.73,9,.09.21.27.39.46.66ZM466.55,239.13c.08-.19.19-.34.21-.5.34-2.88.72-5.75,1-8.63.28-2.82.33-5.65.08-8.48-.1-1.07-.42-2.05-.93-2.99-1.09-1.98-2.49-3.73-4.19-5.21-1.54-1.34-3.12-2.63-4.74-3.87-3.25-2.49-6.28-5.21-8.77-8.49-.12-.16-.23-.51-.69-.24.11.47.18.98.34,1.45,1.04,2.91,2.1,5.82,3.18,8.72.8,2.16,1.68,4.29,2.45,6.46.32.9.75,1.64,1.47,2.27,2.1,1.84,3.77,4.03,5.24,6.39,2.22,3.55,3.82,7.36,4.7,11.46.12.55.02,1.2.63,1.65ZM461.63,55.86c-.72-1.1-1.63-1.63-2.55-2.12-2.42-1.29-5.03-1.92-7.75-2.11-2.18-.16-4.33.09-6.49.35-1.77.21-3.53.35-5.31.27-.71-.03-1.45.05-2.15.23-4.58,1.17-8.27,3.64-10.92,7.59-.13.2-.2.43-.39.85.84-.11,1.47-.18,2.1-.28,2.31-.35,4.45.08,6.42,1.34.94.6,1.84,1.27,2.76,1.9.32.22.63.44.93.65,1.74-1.31,3.37-2.63,5.1-3.82,1.74-1.19,3.67-2.06,5.65-2.8,1.98-.74,4-1.35,6.1-1.58,2.08-.23,4.17-.31,6.5-.47ZM429.55,292.19c.1-.17.25-.32.3-.5,1.07-3.6,2.12-7.2,3.2-10.79.6-1.97.45-3.88-.22-5.81-.77-2.21-1.94-4.18-3.45-5.94-1.15-1.35-2.36-2.65-3.54-3.99-1.74-1.98-3.52-3.92-4.84-6.22-.08-.14-.27-.22-.58-.47.03.81.05,1.46.08,2.1.21,4.53.48,9.07.59,13.6.05,1.94.6,3.63,1.67,5.17.83,1.19,1.72,2.33,2.65,3.44,1.99,2.38,3.29,5.06,3.7,8.16.06.42-.07.94.44,1.25ZM512.84,87.51c-.14,0-.27,0-.41,0-.09.65-.18,1.29-.26,1.94-.65,4.83-2,9.4-4.92,13.4-.93,1.28-1.84,2.57-2.69,3.91-1.17,1.83-2.36,3.66-3.37,5.57-2.04,3.86-3,8-2.81,12.39.01.32.19.63.33,1.06.78-1.3,1.43-2.45,2.15-3.55,3.66-5.59,8.36-10.16,13.93-13.84.59-.39,1.28-.68,1.72-1.3-.66-3.26-1.33-6.48-1.97-9.71-.65-3.28-.94-6.62-1.68-9.88ZM520.96,162.99c-.61,2.21-.83,4.29-.83,6.4,0,5.58.97,11,2.83,16.26.86,2.42,1.78,4.82,2.67,7.23,1.21,3.28,2.26,6.6,2.71,10.09.03.25.2.48.36.84.45-2.79.85-5.39,1.28-7.99.58-3.51,1.19-7.01,1.16-10.59,0-1.34-.21-2.6-.61-3.88-.89-2.86-2.38-5.42-3.97-7.93-2.04-3.23-4.01-6.5-5.24-10.16-.02-.05-.09-.07-.36-.29ZM376.81,297.72c-.7.09-.71.07-.99.35-1.57,1.57-3.47,2.63-5.56,3.31-1.37.45-2.79.8-4.2,1.11-1.41.31-2.86.47-4.28.77-4.5.95-8.4,3.01-11.66,6.3-2.42,2.45-3.97,5.39-5.21,8.55-.29.75-.27,1.51.08,2.45.39-.43.7-.74.97-1.08,2.59-3.2,5.8-5.54,9.64-7.01,2.66-1.02,5.39-1.74,8.19-2.21,1.56-.26,3.13-.49,4.67-.85,1.08-.25,2.14-.64,3.19-1.04,1.37-.52,2.26-1.55,2.83-2.88,1.06-2.5,1.85-5.07,2.33-7.76ZM410.57,370.34c.18-.54.27-.72.3-.91.58-3.61.57-7.21-.27-10.79-.7-2.96-1.72-5.81-2.9-8.6-2.16-5.12-5.07-9.83-7.95-14.55-.08-.13-.28-.18-.57-.36.02.67.05,1.18.06,1.69.04,2.3.11,4.6.12,6.91.01,3.22,0,6.45-.04,9.67-.02,1.57.37,3.02,1.21,4.31.68,1.04,1.44,2.05,2.28,2.96,1.29,1.41,2.68,2.72,4.03,4.07,1.36,1.37,2.49,2.89,3.21,4.7.09.22.25.41.55.89ZM456.16,220.91c-.11.07-.23.13-.34.2.18.63.36,1.26.55,1.88,1.01,3.35,1.64,6.78,1.99,10.26.39,3.9-.02,7.76-.79,11.59-.23,1.15-.66,2.28-.56,3.51.78.72,1.56,1.42,2.31,2.15,2.19,2.14,3.88,4.64,5.34,7.32.19.35.32.81.91,1.03,0-.42,0-.67-.02-.92-.33-4.01-.38-8.03.22-12.02.36-2.4.11-4.72-.39-7.05-.25-1.16-.5-2.32-.82-3.46-1.39-4.89-3.78-9.25-7.07-13.12-.41-.49-.89-.92-1.34-1.38ZM419.41,87.52c.93-.03,1.5-.33,2.09-.54,3.73-1.3,7.43-2.69,11.19-3.89,1.5-.48,2.8-1.16,3.85-2.28.89-.96,1.73-1.98,2.48-3.06,1.32-1.9,2.28-4,3.14-6.14,1.71-4.23,3.76-8.27,6.65-11.83.14-.18.39-.37.01-.68-.33.12-.7.24-1.06.4-4.01,1.72-7.43,4.25-10.21,7.59-1.72,2.07-3.38,4.22-4.86,6.47-2.92,4.45-6.44,8.32-10.6,11.62-.67.53-1.34,1.06-2,1.61-.18.15-.33.34-.68.73ZM526.07,136.66c-.14.05-.27.1-.41.14.03.51.06,1.02.1,1.53.36,5.13-.22,10.13-1.96,14.98-.58,1.61-1.07,3.26-1.71,4.85-.54,1.36-.54,2.7-.18,4.07.17.64.36,1.27.58,1.89.74,2.06,1.74,3.98,2.86,5.85,1.62,2.72,3.21,5.45,4.81,8.18.07.12.23.19.59.49-.16-1.13-.27-1.96-.41-2.79-.75-4.56-1.2-9.14-1.43-13.75-.19-3.77-.06-7.52.86-11.19.43-1.71.45-3.37.17-5.08-.43-2.64-1.33-5.1-2.68-7.39-.36-.61-.8-1.17-1.2-1.76ZM465.38,119.01c-5.93,2.16-12.85,6.69-15.77,10.06.03.22.05.48.08.73.64,4.78-1.01,8.65-4.65,11.73-1.67,1.41-3.5,2.58-5.48,3.49-1.2.55-2.42,1.05-3.63,1.55-1.65.68-3.22,1.51-4.6,2.66-.17.14-.28.37-.56.74.54.02.85.07,1.15.05,2.91-.26,5.68-1.06,8.34-2.26,4.14-1.87,7.69-4.55,10.79-7.86,2.62-2.8,4.93-5.83,7.01-9.04,2.47-3.8,4.88-7.65,7.32-11.48.03-.05,0-.12.01-.37ZM408.09,271.28c1.83-1.5,3.93-2.28,5.98-3.18.78-.34,1.56-.72,2.27-1.2.81-.55,1.58-1.18,2.31-1.85.77-.7,1.03-1.57.97-2.66-.25-4.87-.6-9.73-1.31-14.55-.31-2.08-.86-4.12-1.32-6.17-.06-.28-.25-.53-.53-1.08-.2.53-.3.74-.37.97-1.19,3.77-2.34,7.54-3.56,11.3-1.46,4.51-2.89,9.03-3.89,13.68-.33,1.53-.61,3.07-.54,4.74ZM407.77,288.86c.29-.2.36-.22.4-.27.12-.15.26-.3.34-.48,1.23-2.44,3.16-4.17,5.5-5.5.86-.49,1.73-.96,2.58-1.45.97-.57,1.84-1.27,2.53-2.17.71-.92,1.12-1.93,1.07-3.1-.12-3.15-.25-6.3-.39-9.46-.01-.28.14-.67-.29-.81-.15.05-.3.06-.38.14-1.69,1.63-3.72,2.69-5.86,3.57-.91.38-1.8.81-2.66,1.28-2.19,1.19-3.38,2.98-3.48,5.55-.14,3.56-.14,7.1.3,10.63.08.64.22,1.28.36,2.06ZM389.2,193.5c-2.46-.5-4.05-1.69-5.66-2.83-1.18-.84-2.39-1.62-3.75-2.17-.64-.26-1.25-.34-1.92-.2-3.04.65-6.13.78-9.21.97-2.36.14-4.72.35-7.08.58-1.51.15-2.98.54-4.38,1.14-.26.11-.65.16-.57.67.64.08,1.28.19,1.93.24,2.41.17,4.64.95,6.77,2.02,1.35.68,2.64,1.48,3.95,2.23.85.49,1.68,1.04,2.55,1.5,1.01.53,2.06.73,3.24.54,2.61-.41,5.2-.85,7.69-1.72,1.8-.63,3.54-1.41,5.3-2.14.27-.11.5-.36,1.13-.83ZM425.75,317.09c-3.48-11.79-5.12-23.52-5.52-35.72-.42.41-.69.59-.83.84-.86,1.55-1.76,3.09-2.51,4.69-2.6,5.55-2.81,11.29-1.29,17.16.45,1.75,1.23,3.29,2.47,4.65,2.35,2.58,4.6,5.25,6.9,7.87.11.12.28.18.79.5ZM340.85,223.16c.46-.27.8-.45,1.12-.66,3.86-2.58,7.97-4.6,12.53-5.62.44-.1.89-.27,1.26-.53,1.3-.91,2.52-1.94,3.31-3.34.64-1.14,1.23-2.32,1.73-3.53,1.16-2.79,2.02-5.71,3.85-8.18.06-.08.01-.23.02-.48-.31.03-.62.02-.91.08-3.86.87-7.3,2.57-10.26,5.23-1.87,1.68-3.57,3.52-5.02,5.55-2.6,3.63-5.1,7.34-7.64,11.01-.03.04,0,.12.02.47ZM390.85,220.02c-.12-.06-.23-.13-.35-.19-.92.72-1.82,1.48-2.78,2.16-2.85,2.02-5.77,3.95-8.59,6.01-2.08,1.51-4.13,3.08-6.06,4.76-3.12,2.71-5.56,5.98-7.33,9.72-.15.32-.18.69-.28,1.07,1.87-.3,3.62-.56,5.37-.85,1.19-.2,2.28-.62,3.19-1.46,2.66-2.47,5.37-4.88,7.98-7.39,3.46-3.33,6.1-7.25,8.09-11.61.32-.71.51-1.47.77-2.21ZM342.85,342.53c.51-.39,1.04-.76,1.54-1.17,4.17-3.48,8.74-6.32,13.71-8.52,2.11-.93,4.21-1.88,6.32-2.8.67-.29,1.31-.61,1.8-1.18,1.3-1.53,2.3-3.2,2.73-5.18.56-2.61.3-5.22.13-8.04-.42.34-.7.5-.91.73-4.8,5.38-10.34,9.93-15.99,14.37-.93.73-1.85,1.48-2.75,2.25-3,2.57-5,5.87-6.57,9.56ZM520.96,121.82c-.17-.11-.23-.18-.27-.17-.18.05-.39.07-.52.18-2.05,1.67-3.89,3.54-5.43,5.71-1.57,2.22-2.81,4.62-3.71,7.17-1.26,3.61-2.21,7.3-2.54,11.14-.1,1.15.12,2.07.91,2.88.23.24.41.51.62.77,1.22,1.48,2.35,3.01,3.2,4.74.04.08.22.09.48.19.39-.81.58-1.7.9-2.54,1.28-3.35,1.93-6.84,2.1-10.41.12-2.43.18-4.87.27-7.3.16-4.09,1.13-7.94,3.43-11.39.21-.31.37-.65.55-.97ZM490,60.5c.02-.09.03-.18.05-.28-.31-.08-.62-.19-.94-.23-5.63-.61-11.27-1.2-16.9-1.83-.71-.08-1.29.1-1.86.47-1.47.96-2.56,2.28-3.46,3.75-1.17,1.92-2.05,3.98-2.81,6.09-.8,2.23-1.47,4.52-2.75,6.54-.04.06.06.2.12.41.31-.17.6-.3.86-.48,1.46-1.02,2.9-2.06,4.35-3.09,2.42-1.72,4.81-3.48,7.26-5.15,4.43-3,9.28-4.98,14.56-5.9.51-.09,1.01-.2,1.52-.31ZM381.22,235.89c-.34.24-.66.42-.93.66-1.85,1.68-3.67,3.4-5.53,5.07-5.25,4.74-8.83,10.57-11.29,17.14-.08.22-.28.48.14.73.17-.09.39-.2.61-.32,1.93-1.12,3.84-2.3,5.81-3.35,1.57-.83,3.21-1.54,4.84-2.24.88-.38,1.56-.93,2.14-1.68,1.84-2.34,2.94-4.96,3.12-7.95.16-2.56.37-5.12,1.22-7.58.03-.09-.06-.22-.13-.48ZM407.24,384.52c.15-.3.32-.51.37-.74.79-3.33,1.59-6.65,2.33-9.99.12-.56.06-1.18-.03-1.76-.34-2.28-1.37-4.25-2.92-5.92-1.16-1.25-2.39-2.45-3.59-3.66-1.2-1.21-2.42-2.42-3.34-3.87-.08-.13-.29-.17-.57-.33,0,.57-.03,1.02,0,1.47.31,4,.69,7.99.92,11.99.19,3.24,1.36,5.97,3.63,8.29,1.15,1.18,2.11,2.52,2.74,4.07.06.15.24.25.45.47ZM375.68,216.64c.18-.3.34-.51.44-.75.88-2.11,2.29-3.85,3.95-5.38,1.99-1.83,4.02-3.62,6.05-5.41,4.02-3.54,7.2-7.68,9.28-12.64.19-.45.3-.94.55-1.75-1.08.49-1.74,1.02-2.45,1.47-.72.46-1.44.94-2.16,1.39-.73.45-1.46.9-2.21,1.32-.75.41-1.52.8-2.3,1.14-.78.35-1.6.62-2.39.95-.78.33-1.67.39-2.42.98-.06,2.07-.72,4-1.79,5.76-.96,1.57-2.01,3.09-3.11,4.57-1.23,1.64-2.4,3.31-3.3,5.15-.43.88-.82,1.77-1.03,2.71q1.26.51,2.9.47ZM446.88,188.45c-.1.05-.21.1-.31.15.25,2.08.55,4.15.75,6.24.15,1.63.77,3.04,1.67,4.38,1.88,2.82,4.19,5.25,6.78,7.41,1.46,1.23,2.99,2.37,4.49,3.55,2.18,1.72,4.27,3.51,5.96,5.74.09.12.28.16.55.31.07-.89-.26-1.54-.48-2.21-1.62-4.82-4.26-9.05-7.71-12.76-1.57-1.69-3.22-3.3-4.85-4.93-2.33-2.33-4.61-4.71-6.42-7.49-.1-.16-.27-.27-.41-.4ZM516.03,97.69l-.32.22c.05.38.07.77.15,1.15.47,2.26,1.03,4.5,1.4,6.77.32,1.93,1.29,3.43,2.7,4.69.64.57,1.3,1.13,2.01,1.59,2.09,1.37,4.2,2.72,6.32,4.05,3.87,2.42,6.71,5.69,8.37,9.96.12.3.27.58.57,1.21.07-.68.16-.99.13-1.28-.17-1.44-.35-2.87-.56-4.31-.51-3.51-2.43-6.21-4.97-8.54-.68-.62-1.44-1.15-2.18-1.7-.64-.47-1.3-.9-1.95-1.35-3.02-2.08-5.57-4.62-7.65-7.64-.79-1.14-1.65-2.23-2.52-3.3-.45-.55-1-1.02-1.51-1.53ZM368,198.97c-.07-.22-.08-.4-.16-.45-1.2-.7-2.45-1.24-3.87-1.36-2.22-.2-4.33.24-6.4.97-1.8.64-3.56,1.4-5.38,1.99-1.5.49-3.03,1.02-4.58,1.17-1.18.11-1.8.6-2.25,1.55-.09.18-.18.35-.27.53-1.84,3.43-3.21,7.08-4.67,10.68-.11.28-.15.6-.25,1.01.65.02.99-.3,1.32-.59,1.07-.98,2.11-1.99,3.16-2.99,1.2-1.14,2.47-2.22,4.05-2.77.98-.34,1.72-.91,2.4-1.65,3.62-3.9,8.07-6.3,13.27-7.35.9-.18,1.81-.33,2.72-.5.3-.06.6-.16.91-.24ZM403.93,393.83c.04-.05.11-.11.1-.14-.07-.32-.12-.64-.23-.95-.98-2.66-1.67-5.4-2.26-8.17-1.25-5.86-2.09-11.78-2.62-17.74-.05-.55-.15-1.09-.23-1.67-.25.11-.42.13-.48.22-.98,1.63-2.01,3.24-2.9,4.92-.64,1.21-1.08,2.51-1.24,3.92-.4,3.55.18,6.94,1.43,10.25.43,1.12,1.05,2.11,1.89,2.97,1.98,2.02,3.94,4.06,5.91,6.08.16.17.3.45.63.31ZM433.32,140.68c.11,2.06-.96,3.48-2.17,4.81-1.3,1.43-2.9,2.47-4.61,3.37-.38.2-.74.46-1.44.91,1.16.11,1.94.14,2.7.27.92.15,1.63-.06,2.32-.73,1.73-1.67,3.81-2.8,6.04-3.69,1.04-.41,2.08-.85,3.09-1.32,2.29-1.07,4.37-2.44,6.2-4.19,2.02-1.94,3.23-4.31,3.55-7.1.12-1.01.2-2.05-.27-3.17-2.51,2.06-4.86,4.05-7.28,5.95-2.44,1.92-5.14,3.45-8.12,4.89ZM398.12,351.4c-2.07,1.24-4.04,2.42-6,3.6-.34.2-.69.4-.98.67-.92.84-1.84,1.68-2.7,2.59-.6.63-.91,1.43-1.07,2.29-.66,3.62-.58,7.2.37,10.76.06.23.23.44.44.83.33-.77.62-1.35.84-1.95.45-1.19,1.12-2.25,2.03-3.12.9-.86,1.88-1.65,2.85-2.43.77-.61,1.59-1.17,2.39-1.75,1.59-1.13,2.23-2.7,2.16-4.61-.07-1.91-.09-3.82-.16-5.72-.01-.37-.11-.73-.18-1.17ZM520.58,181.92c-.86.24-1.22.91-1.6,1.49-1.16,1.79-1.9,3.74-2.26,5.85-.22,1.29-.02,2.41.73,3.54,1.87,2.79,3.65,5.64,5.43,8.48,1.65,2.63,3.07,5.37,4.06,8.32.11.34.32.65.52,1.06.11-.25.21-.37.21-.48.09-4.9-.42-9.72-2.08-14.38-.35-.99-.7-1.99-1.05-2.98-1.21-3.41-2.41-6.82-3.62-10.23-.08-.23-.22-.43-.35-.67ZM453.31,57.89c-1.13-.01-1.67.49-2.24.9-1.41,1.02-2.43,2.4-3.39,3.83-1.95,2.91-3.49,6.04-4.8,9.28-1.39,3.44-3.04,6.72-5.69,9.41-.08.08-.1.22-.16.38.19.05.38.15.54.13,2.54-.39,5.07-.82,7.61-1.17.73-.1,1.23-.4,1.58-1.01.23-.4.47-.79.67-1.2.97-1.97,1.48-4.08,1.74-6.25.22-1.83.43-3.66.59-5.5.28-3.16,1.26-6.05,3.54-8.78ZM401.76,186.52c-1.65-1.07-3.21-2.15-4.85-3.11-.9-.53-1.89-.9-2.88-1.24-1.03-.36-2.07-.28-3.05.27-1.03.58-2.09,1.11-3.1,1.73-2.08,1.27-4.2,2.45-6.53,3.24-.23.08-.43.24-.73.4,2,1.33,3.88,2.61,5.79,3.85.49.32,1.05.55,1.59.78,1.43.61,2.71.55,4.06-.44,2.92-2.14,6.04-3.98,9.47-5.23.05-.02.09-.09.24-.24ZM519.72,163.49c-.46.34-.59.4-.66.49-2.26,3.17-4.19,6.55-5.85,10.06-1.1,2.31-1.1,4.85-.97,7.37.02.32.13.65.26.95.85,2.07,1.7,4.14,2.57,6.2.12.28.33.51.61.94.61-1.75,1.09-3.3,1.69-4.79.64-1.6,1.71-2.94,3.08-4.01-1.19-5.65-1.82-11.26-.72-17.21ZM474.59,57.42c.48-.87.19-1.64,0-2.39-.68-2.87-2.11-5.38-3.75-7.79-.52-.76-1.17-1.17-2.06-1.35-3.3-.66-6.55-.45-9.76.54-.27.08-.5.27-.95.53,2.06.9,3.65,2.03,4.89,3.62,1.29,1.65,1.71,3.68,2.5,5.71,3.03.42,6.07.86,9.13,1.14ZM477.59,185.47c-.5.28-.69.34-.83.47-2.06,1.89-3.7,4.11-4.92,6.61-.6,1.23-1.11,2.52-1.24,3.93-.08.83,0,1.58.43,2.27.58.95,1.11,1.96,1.82,2.81,1.99,2.36,4.06,4.66,6.12,6.97.11.13.34.15.53.23.44-.67.5-1.4.46-2.11-.06-1.24-.08-2.52-.37-3.72-.43-1.78-1.08-3.52-1.66-5.26-.4-1.18-.93-2.33-1.27-3.52-.74-2.61-.76-5.19.6-7.66.12-.22.16-.49.33-1.02ZM386.49,246.02c.19-.13.33-.18.4-.27,2.39-2.93,3.95-6.22,4.22-10.03.09-1.25.11-2.5.13-3.75.02-2.77.01-5.53.03-8.3,0-.56.06-1.12.1-1.77-.2.18-.33.24-.39.35-.2.34-.39.69-.56,1.05-1.41,3.08-3.21,5.91-5.43,8.45-.97,1.11-1.26,2.29-.99,3.64.23,1.16.53,2.31.93,3.42.77,2.19,1.43,4.38,1.32,6.74,0,.11.11.23.24.48ZM486.76,183.11c.21-1.07-.1-1.67-.28-2.28-1.53-5.03-4.02-9.56-7.18-13.74-2.14-2.83-4.27-5.68-6.41-8.51-.13-.17-.34-.27-.68-.53-.06,3.06.28,5.86.7,8.64.09.56.39,1.11.67,1.63.92,1.69,2.1,3.19,3.5,4.5,1.39,1.3,2.8,2.58,4.24,3.84,1.79,1.57,3.37,3.32,4.66,5.32.17.27.37.53.78,1.13ZM457.55,121.57c-.26-.33-.43-.61-.66-.82-1.87-1.7-3.98-3.01-6.33-3.94-2.47-.98-5.05-1.5-7.67-1.82-3.66-.45-7.22.06-10.71,1.17-.93.29-1.51.9-1.79,2,.7-.15,1.26-.27,1.83-.39,3.28-.7,6.54-.72,9.75.35,3.56,1.19,6.62,3.19,9.29,5.81.37.36.73.73,1.15,1.14,1.72-1.17,3.39-2.31,5.14-3.5ZM432.79,264.08c-.1-.43-.19-.86-.31-1.28-1.3-4.48-3.31-8.62-6.21-12.27-2.5-3.14-5.17-6.15-7.78-9.21-.06-.07-.22-.07-.48-.15.08.43.14.79.21,1.16.37,1.87.84,3.73,1.11,5.62.57,3.92,2.34,7.08,5.53,9.45.63.47,1.27.94,1.9,1.41,2.12,1.57,4.21,3.17,6.03,5.28ZM437.63,65.26c-.83-.94-1.8-1.5-2.7-2.15-2.52-1.86-5.28-2.15-8.27-1.46-1.11.26-1.74.85-2.06,1.87-.36,1.13-.79,2.25-1,3.41-.4,2.2-.66,4.42-.97,6.64-.01.08.14.19.27.38.31-.19.65-.37.94-.6.82-.66,1.61-1.36,2.43-2.02,2.71-2.17,5.64-3.91,9.13-4.44,1.03-.16,1.69-.61,2.21-1.62ZM411.06,148.79c.39.15.5.24.61.23,3.49-.1,6.96.07,10.43.4.56.05,1.18-.06,1.72-.24,2.48-.8,4.64-2.15,6.51-3.97.81-.79,1.47-1.69,1.92-2.72.14-.32.12-.71.21-1.29-1.16.25-2.03.71-2.95.97-.95.27-1.89.56-2.85.77-.96.21-1.94.37-2.91.5s-1.96.22-2.94.29c-.98.07-1.97.11-2.95.16-.98.05-1.96.1-3.05.15-.75,1.86-2.01,3.34-3.74,4.72ZM417.04,87.34c.33-.06.47-.05.58-.11.29-.15.58-.31.85-.51,4.45-3.32,8.68-6.88,11.85-11.52,1.53-2.23,3.12-4.41,4.68-6.62.13-.19.18-.44.27-.67-.24-.06-.37-.13-.48-.11-.39.08-.77.17-1.15.29-2.43.76-4.57,2.04-6.56,3.59-1.56,1.21-3.09,2.47-4.65,3.72-1.89,6.31-1.43,5.84-5.4,11.94ZM465.53,117.28c-1.83-.45-3.36-.82-4.88-1.21-.96-.24-1.92-.48-2.85-.79-1.94-.63-3.85-1.35-5.8-1.94-4.33-1.31-8.73-1.88-13.24-1.06-1.7.31-3.32.84-4.76,1.81-.25.17-.46.4-.96.86,9.68-2.01,18.19-.5,25.42,6.02,2.24-.86,5.8-2.69,7.09-3.7ZM474.15,170.74c-.12.07-.25.13-.37.2.06.37.07.75.17,1.1.65,2.14,1.35,4.28,1.98,6.43.31,1.06.93,1.84,1.79,2.51,4.14,3.21,7.34,7.18,9.39,12.03.11.27.32.49.72,1.11.05-1.27.06-2.12.11-2.96.2-3.1-.84-5.83-2.42-8.41-1.04-1.7-2.27-3.24-3.73-4.59-2.61-2.4-5.44-4.59-7.65-7.42ZM477.53,182.05c-.08.78.31,1.33.56,1.9,1.64,3.81,3.3,7.61,4.94,11.42,1.6,3.73,2.46,7.63,2.67,11.68.07,1.38.11,2.76.2,4.14.11,1.71.24,3.41.4,5.11.06.64.23,1.26.36,1.89.25-.52.3-1.04.28-1.54-.14-3.88,0-7.76.27-11.63.17-2.36.35-4.72.49-7.09.03-.58.02-1.2-.16-1.74-1.88-5.47-4.87-10.19-9.41-13.85-.14-.11-.32-.16-.59-.28ZM533.17,113.16c.08-.04.17-.09.25-.13-.17-.35-.29-.73-.51-1.05-1.13-1.7-2.18-3.47-3.45-5.05-1.9-2.36-3.91-4.63-5.96-6.86-3.17-3.45-6.18-7.02-8.57-11.08-.14-.23-.22-.62-.66-.51,0,1.02.73,6.55.99,7.2.12.29.31.59.55.78,2.14,1.71,3.71,3.9,5.26,6.12,1.37,1.95,2.93,3.74,4.82,5.2,2.39,1.84,4.84,3.59,7.26,5.38ZM489.94,58.82c-.09-.14-.13-.28-.23-.35-3.41-2.46-6.82-4.95-10.26-7.37-2.15-1.52-4.37-2.94-6.82-3.95-.2-.09-.43-.11-.91-.23.73,1.32,1.38,2.38,1.92,3.49.54,1.13,1.04,2.28,1.4,3.47.36,1.17.52,2.41.75,3.57.76.19,12.73,1.59,13.61,1.58.18,0,.35-.14.54-.21ZM347.09,200.52c1.36.04,2.43-.3,3.48-.66,1.43-.49,2.84-1.07,4.27-1.57,1.62-.56,3.23-1.15,4.89-1.58,3.3-.86,6.4-.33,9.24,1.6.91.62.93.6,2.23.09-.06-.11-.09-.27-.18-.33-1.58-.95-3.14-1.93-4.76-2.82-3.35-1.86-6.92-2.9-10.79-2.68-.88.05-1.65.27-2.37.82-2.32,1.79-4.24,3.95-5.83,6.4-.1.15-.1.36-.19.72ZM398.05,336.47c-.26.43-.39.63-.5.83-1.53,2.91-3,5.85-4.59,8.73-1.69,3.06-2.99,6.3-4.24,9.55-.1.25-.36.59.2.93,1.52-1.52,3.4-2.58,5.3-3.63.8-.45,1.58-.96,2.31-1.5.47-.35.91-.77,1.25-1.24.26-.35.47-.82.47-1.25.04-3.75.04-7.5.04-11.24,0-.31-.12-.62-.24-1.18ZM477.12,184.39c-.9-2.39-1.76-4.67-2.63-6.93-.06-.15-.26-.24-.44-.41-1.82,1.17-3.4,2.51-4.47,4.39-.33.59-.53,1.18-.43,1.87.42,2.8.41,5.63.42,8.46,0,.9-.1,1.84.38,2.81.97-1.12,1.09-2.58,1.89-3.69.81-1.12,1.52-2.31,2.39-3.38.86-1.07,1.87-2.02,2.9-3.11ZM474,175.97c-.19-.69-.33-1.26-.5-1.82-.84-2.78-1.44-5.61-1.74-8.5-.19-1.9-.34-3.8-.53-5.69-.04-.35-.18-.69-.33-1.27-3.49,7.18-3.58,14.39-2.03,22.02.9-.95,1.61-1.79,2.42-2.52.82-.75,1.72-1.41,2.72-2.2ZM426.71,315.35c.01-.32.04-.64.04-.95.04-3.29.06-6.59.5-9.86.38-2.89-.22-5.64-1.1-8.35-.77-2.33-1.9-4.49-3.53-6.35-.18-.21-.35-.56-.76-.41-.25,4.79,2.83,22.1,4.86,25.93ZM433.95,275.14c.2-2.55.18-4.63-.19-6.7-.03-.19-.12-.38-.21-.55-1.23-2.57-2.69-4.98-5.02-6.73-1.31-.99-2.61-1.99-3.93-2.97-1.44-1.07-2.72-2.28-3.7-3.78-.13-.21-.29-.4-.45-.61-.41.36-.26.69-.19.99.5,2.29,1.56,4.33,3.05,6.12,1.8,2.17,3.68,4.29,5.55,6.4,1.85,2.08,3.5,4.27,4.48,6.91.06.17.21.31.62.92ZM398.34,362.26c-.74.6-1.28,1.06-1.84,1.48-.63.48-1.29.92-1.92,1.39-.58.43-1.2.83-1.73,1.31-.68.62-1.36,1.26-1.92,1.98-1.1,1.43-1.77,3.06-1.96,4.89-.1.95.02,1.82.42,2.68,1.1,2.34,2.42,4.53,3.98,6.59.14.19.27.49.69.25-.12-.55-.23-1.12-.36-1.68-.37-1.61-.54-3.25-.54-4.9,0-2.35.47-4.58,1.63-6.64.68-1.21,1.42-2.38,2.08-3.59.51-.92.95-1.87,1.4-2.83.09-.2.04-.46.08-.94ZM427.77,299.01c.26-.49.37-.64.43-.82.71-2.2.45-4.43.2-6.66-.34-3.03-1.49-5.71-3.44-8.06-1.05-1.27-2.01-2.6-3.03-3.9-.1-.13-.29-.2-.49-.32-.08.24-.18.43-.18.61.05,2.17.15,4.34.18,6.51,0,.87.36,1.48.95,2.07,2.49,2.48,3.99,5.53,4.93,8.88.12.44.24.88.46,1.69ZM475.84,92.73c-3.2,1.08-6.01,1.97-8.77,3-1.1.41-2.17.99-3.11,1.68-1.96,1.43-3.84,2.98-5.74,4.5-.23.19-.55.37-.41.84.16.02.35.09.51.05,3.69-.97,7.37-1.93,11.05-2.94.55-.15,1.09-.47,1.53-.83,1.74-1.43,3.18-3.13,4.39-5.02.17-.26.25-.58.55-1.26ZM385.97,277.09c-.43.4-.74.57-.85.82-.51,1.14-1.08,2.26-1.4,3.46-1.22,4.55-1.2,9.1.21,13.61.35,1.13.75,2.24,1.16,3.35.84,2.28,1.65,4.58,1.97,7.01.02.17.13.33.3.73.19-.77.37-1.31.45-1.85.15-1.04.23-2.09.37-3.13.15-1.13.03-2.22-.34-3.3-.58-1.68-1.18-3.35-1.67-5.05-1.41-4.84-1.51-9.71-.31-14.61.06-.23.05-.49.11-1.04ZM330.35,230.35c.09.09.19.18.28.27.7-.48,1.42-.93,2.1-1.44,3.95-2.94,7.09-6.62,9.81-10.69,1.75-2.62,3.59-5.18,5.38-7.78.15-.22.22-.48.33-.73-.89.32-1.61.78-2.25,1.33-.7.59-1.34,1.26-2,1.9-1.27,1.24-2.53,2.5-4.16,3.28-.58.27-.87.76-1.13,1.31-2.07,4.21-4.66,8.07-7.69,11.65-.24.28-.44.6-.66.91ZM385.61,153.33c.56-.14,1.12-.27,1.68-.41,2.69-.65,5.36-1.4,8.08-1.91,4.11-.77,7.49-2.81,10.49-5.6.22-.21.38-.48.56-.71-.42-.4-.84-.26-1.2-.22-3.1.34-6.09,1.09-8.96,2.32-3.85,1.64-7.28,3.98-10.64,6.54ZM378.41,251.7c1.74-.59,3.95-1.87,5.47-3,.98-.73,1.43-1.67,1.54-2.85.13-1.47-.02-2.9-.43-4.3-.61-2.08-1.26-4.15-1.9-6.21-.01-.04-.1-.06-.21-.12-.12.1-.33.2-.38.34-.35,1.06-.78,2.11-.98,3.2-.28,1.55-.47,3.13-.56,4.7-.15,2.62-.84,5.05-2.19,7.3-.15.25-.21.55-.36.93ZM464.41,56.03c-.18-.65-.3-1.22-.5-1.76-.27-.74-.53-1.5-.92-2.18-1.14-2.01-2.82-3.45-4.97-4.31-.95-.38-1.88-.47-2.85.05-1.1.59-2.26,1.07-3.4,1.58-.89.39-1.81.75-3.12,1.29,1.21.05,1.98.07,2.75.12,2.38.17,4.68.73,6.88,1.63,1.59.65,3.02,1.61,4.15,2.93.46.53.96.9,1.96.64ZM371.72,243.44c-2.3.19-4.11.35-5.84,1.04-.86.34-1.39.87-1.67,1.78-.88,2.84-1.49,5.74-1.87,8.69-.2,1.55-.52,3.1-.35,4.9,1.41-2.97,2.65-5.79,4.07-8.53,1.42-2.75,3.34-5.19,5.66-7.87ZM472.75,98.73c.4-.07.65-.08.87-.16,2.6-.88,4.87-2.29,6.79-4.26,2.56-2.62,4.41-5.72,6.06-8.96.07-.14.01-.34.02-.76-.58.52-1.01.89-1.44,1.28-1.89,1.74-3.76,3.52-5.95,4.88-1.28.79-2.14,1.79-2.88,3.09-.94,1.64-2.19,3.11-3.47,4.89ZM395,181.4c1.15.66,2.07,1.15,2.94,1.71.94.59,1.85,1.24,2.78,1.87.16.11.33.21.51.29,1.29.58,2.57.88,4,.42,1.18-.38,2.43-.57,3.64-.87.36-.09.71-.24,1.15-.39-3.83-2.38-11.39-4.37-15.03-3.03ZM524.93,131.8c.14,1.43.21,2.79,1.34,3.92.73.73,1.3,1.65,1.82,2.56,1.3,2.23,2.16,4.64,2.59,7.19.05.32.08.65.57.68.4-.88.74-1.81,1.24-2.65.64-1.09.5-2.1.05-3.18-1.49-3.57-3.95-6.32-7.1-8.49-.09-.06-.25-.01-.5-.02ZM401.88,378.78c-.48.4-.29.81-.22,1.17.56,2.7,1.09,5.41,1.73,8.1.4,1.66.98,3.27,1.5,4.9.09.3.17.65.64.65.34-1.8.65-3.61,1.05-5.39.21-.94.14-1.81-.12-2.71-.78-2.77-2.7-4.72-4.58-6.71ZM401.69,149.61c.05.09.1.18.16.27,2.15-.21,4.31-.41,6.46-.65.44-.05.9-.22,1.29-.44,1.51-.86,2.75-2.03,3.7-3.49.21-.32.42-.68.1-1.21-1.81,0-3.69-.04-5.39.24-.79.8-1.41,1.49-2.09,2.11-.63.58-1.3,1.11-1.99,1.62-.73.54-1.49,1.04-2.24,1.56ZM472.95,92.56c3.14-.84,6.34-2.7,7.71-4.55-.43-.3-.86-.59-1.27-.89-.72-.52-1.4-.53-2.21-.1-1.52.82-3.18,1.28-4.88,1.56-.84.14-1.69.26-2.54.42-.3.06-.59.21-.89.33,1.41,1.12,2.74,2.17,4.07,3.23ZM382.7,152.94c.07.1.14.2.2.31.51-.27,1.03-.53,1.54-.82.51-.29,1.02-.6,1.52-.91.45-.27.89-.56,1.34-.84.5-.32.99-.65,1.49-.96.5-.32,1-.63,1.51-.94.51-.31,1.01-.61,1.53-.9.46-.26.92-.51,1.39-.75.53-.27,1.08-.49,1.59-.78.49-.27,1.1-.35,1.48-.83-.14-.13-.22-.27-.32-.29-2.08-.44-4.17-.46-6.27-.23-.79.08-1.32.44-1.71,1.13-1.06,1.9-2.35,3.64-3.83,5.24-.48.53-.97,1.05-1.46,1.57ZM466.16,264.06c.07-1.44-.18-2.15-2.07-5.63-1.82-3.37-3.94-6.5-7.12-8.9-.48.76-.51,1.46-.5,2.3,1.9,1.73,3.85,3.51,5.36,5.67,1.48,2.14,2.87,4.34,4.33,6.56ZM467.63,94.29c-.11-.23-.12-.32-.16-.34-.17-.1-.34-.21-.52-.25-1.63-.37-3.24-.32-4.87.07-.84.2-1.38.66-1.74,1.44-.71,1.55-1.47,3.07-2.2,4.61-.09.2-.11.43-.25,1.01,1.24-1,2.17-1.8,3.16-2.54,1.05-.78,2.11-1.56,3.23-2.24,1.05-.64,2.19-1.15,3.37-1.75ZM471.89,92.97c-1.27-1.66-2.81-2.68-4.67-3.24-.24-.07-.53-.06-.78,0-1.76.44-3.24,1.31-4.25,2.86.11.11.16.19.21.19.19.02.38.05.57.03,1.98-.23,3.94-.23,5.76.75.43.23.88.21,1.33.05.55-.2,1.11-.38,1.82-.63ZM487.65,81.74c-2.75.32-5.95,2.03-8.29,4.24.11.15.18.36.33.46.6.38,1.22.73,1.91,1.15,2.22-1.77,4.14-3.79,6.05-5.84Z"/>
    </g>
  </g>
</svg>