<?xml version="1.0" encoding="UTF-8"?>
<svg xmlns="http://www.w3.org/2000/svg" version="1.1" viewBox="0 0 512 512">
  <defs>
    <style>
      .cls-1 {
        fill: #789b60;
      }

      .cls-2 {
        fill: #203010;
      }
    </style>
  </defs>
  <!-- Generator: Adobe Illustrator 28.7.3, SVG Export Plug-In . SVG Version: 1.2.0 Build 164)  -->
  <g>
    <g id="Layer_1">
      <path class="cls-2" d="M181.5,60.7c16.9-27.1,46.6-43.5,78.4-43.5s61.6,16.4,78.4,43.5l37.2,59.5,26-15.1c8.1-4.7,18.2-4.1,25.7,1.6s10.7,15.3,8.3,24.4l-22.6,84.3c-3.3,12.3-16,19.7-28.4,16.4l-84.3-22.6c-9.1-2.4-15.7-10-17-19.3-1.3-9.3,3.3-18.4,11.4-23.1l27.4-15.8-36.2-57.8c-5.6-9-15.4-14.5-26-14.5s-20.5,5.5-26,14.5l-16.9,27c-8.9,14.3-27.6,18.8-42.1,10.1-14.8-8.9-19.5-28.2-10.3-42.8l16.9-27ZM427.3,260.3c14.5-8.7,33.2-4.1,42.1,10.1l23.5,37.7c9.1,14.6,13.9,31.3,14.1,48.4.3,51.2-41.2,93-92.4,93h-92.9c0,0,0,30.8,0,30.8,0,9.4-5.6,17.8-14.3,21.4s-18.6,1.6-25.3-5l-61.7-61.7c-9.1-9.1-9.1-23.7,0-32.7l61.7-61.7c6.7-6.7,16.6-8.6,25.3-5s14.3,12.1,14.3,21.4v30.9h92.8c17,0,30.8-13.9,30.7-30.9,0-5.7-1.6-11.3-4.6-16.1l-23.5-37.7c-9.2-14.7-4.5-34,10.3-42.8h0ZM75.6,230.3l-27.9-16.1c-8.1-4.7-12.6-13.8-11.4-23.1s7.9-16.9,17-19.3l84.3-22.6c12.3-3.3,25.1,4.1,28.4,16.4l22.6,84.2c2.4,9.1-.9,18.6-8.3,24.4s-17.6,6.4-25.7,1.6l-25.6-14.8-49.7,79.5c-3,4.8-4.6,10.4-4.6,16.1,0,17,13.7,30.9,30.7,30.9h31.1c17.1,0,30.9,13.8,30.9,30.9s-13.8,30.9-30.9,30.9h-31.1c-51.2,0-92.7-41.7-92.4-93,0-17.2,4.9-33.9,14.1-48.4,0,0,48.5-77.7,48.5-77.7Z"/>
      <path class="cls-1" d="M188.2,72.2c15.5-24.9,42.9-40,72.2-40s56.6,15.1,72.2,40l34.3,54.8,24-13.8c7.5-4.3,16.8-3.7,23.6,1.5,6.8,5.2,9.9,14.1,7.6,22.5l-20.8,77.6c-3,11.4-14.7,18.1-26.1,15.1l-77.6-20.8c-8.3-2.2-14.5-9.2-15.6-17.8s3-17,10.5-21.2l25.2-14.6-33.3-53.2c-5.1-8.3-14.2-13.3-24-13.3s-18.8,5.1-24,13.3l-15.5,24.9c-8.2,13.1-25.4,17.3-38.7,9.3-13.6-8.2-17.9-25.9-9.5-39.4l15.5-24.9ZM414.4,255.7c13.3-8,30.5-3.8,38.7,9.3l21.7,34.7c8.3,13.4,12.8,28.8,13,44.6.3,47.1-37.9,85.6-85,85.6h-85.5c0,0,0,28.3,0,28.3,0,8.6-5.1,16.4-13.1,19.7-8,3.3-17.1,1.5-23.3-4.6l-56.8-56.8c-8.3-8.3-8.3-21.8,0-30.1l56.8-56.8c6.1-6.1,15.3-7.9,23.3-4.6,8,3.3,13.1,11.1,13.1,19.7v28.4h85.4c15.6,0,28.3-12.8,28.2-28.4,0-5.2-1.5-10.4-4.3-14.8l-21.7-34.7c-8.4-13.5-4.2-31.2,9.5-39.4h0ZM90.8,228.2l-25.7-14.8c-7.5-4.3-11.6-12.7-10.5-21.2s7.3-15.5,15.6-17.8l77.6-20.8c11.4-3,23.1,3.7,26.1,15.1l20.8,77.5c2.2,8.3-.8,17.1-7.6,22.5s-16.2,5.9-23.6,1.5l-23.5-13.6-45.7,73.1c-2.8,4.4-4.3,9.6-4.3,14.8,0,15.6,12.6,28.4,28.2,28.4h28.6c15.7,0,28.4,12.7,28.4,28.4s-12.7,28.4-28.4,28.4h-28.6c-47.1,0-85.3-38.3-85-85.6,0-15.8,4.5-31.2,13-44.6,0,0,44.7-71.5,44.7-71.5Z"/>
    </g>
  </g>
</svg>