<?xml version="1.0" encoding="UTF-8"?>
<svg id="Layer_1" xmlns="http://www.w3.org/2000/svg" viewBox="0 0 435.4 498.02">
  <defs>
    <style>
      .cls-1 {
        fill: #fff;
        fill-rule: evenodd;
      }
    </style>
  </defs>
  <path class="cls-1" d="M74.34,350.93c-.19.13-.36.28-.52.47-43.59,50.93-4.07,94.63-4.07,94.63.98,1.09,2.67,1.18,3.76.2,1.09-.98,1.18-2.67.2-3.76,0,0-13.16-14.7-14.77-36.72,3.91-8.93,20.45-10.33,20.45-10.33l-3.87-3.26c32.01-4.72,38.46-24.79,39.63-39.86,1.17-15.08,9.31-15.17,9.31-15.17,0,0-30.51-21.18-62.84,1.22-32.33,22.4-11.74,59.99-11.74,59.99-5.31-27.64,22.11-45.89,24.46-47.4h0ZM74.5,350.83h0,0s0,0,0,0h0Z"/>
  <path class="cls-1" d="M79.99,469.51s-8-45.99,39.57-56.01l-2.05-3.51s13.84-4.75,32.53,15.91c0,0-23.41-7.39-44.04,6.59,0,0,27.11-10,48.62,1.26,0,0-15.02,4.71-13.95,15.95l-3.75-4.01s-5.34,13.85-16.98,20.86c-11.64,7.01-28.82-5.91-39.96,2.97h0Z"/>
  <path class="cls-1" d="M150.13,363.76s4.04,5.4,10.85,5.88c6.81.48,18.08,5.35,20.33,22.18,1.55,11.63,8.75,18.7,8.75,18.7,0,0-24.27-4.1-36.41-24.34,0,0,2.37,19.83,28.96,28.68,0,0-21.05,9.84-34.06-12.27-13.01-22.11,1.59-38.84,1.59-38.84h0Z"/>
  <path class="cls-1" d="M270.97,427.51c.35.36.69.74,1.03,1.14,1.44,1.67,4.02,4.73,7.7,5.63.6.15-14.7-18.63-4.15-37.65l-6.28.89s.84-6.18-.44-14.18c2.54-.28,5.03-.64,7.48-1.09,20.83-3.82,37.62-15.07,40.93-39.09-2.23-14.97-15.96-22.58-32.89-29.68-24.48-10.26-56.2-17.23-87.07-26.86-41.81-13.05-81.71-31.19-105.09-63.89-16.36-22.88-25.31-52.86-20.84-93.85,6.55-55.24,43.28-92.83,91.97-112.67,69.34-28.26,162.95-19.07,218.91,23.92l.37.29c18.3,14.8,24.59,32.55,23.97,48.57-1.52,39.12-46.21,70.49-85.7,42.33-24.2-15.25-66.54-25.67-99.06-19.38-16.85,3.26-31.11,11.33-34.77,28.72-2.48,15.98,7.76,24.72,22.22,31.94,21.96,10.96,52.77,17.88,83.89,26.89,72.73,21.05,144.63,53.53,142.19,146.12-2.45,88.74-66.88,135.21-143.84,148.49-27.45,4.74-56.4,5.09-84.29,1.7,4.31-8.6,2.05-17.23-3.97-19.92-31.05,18.89-61.21-6.3-61.21-6.3,14.75-5.87,11.63-29.67,24.53-37.57,20.99-12.85,39.84-10.96,49.46-8.57-32.92-35.35-3.09-74.1-3.09-74.1,6.84,15.59,32.21,11.48,40.62,25.37,8.42,13.88,6.36,31.51,6.36,31.51l6.2-2.16c-6.1,9.33,1.89,20.04,4.86,23.5h0ZM229.5,486.62s4.69-7.03,10.41-9.12c5.68-2.08,13.58-4.35,14.24-19.39.46-10.39,6.95-15.92,6.95-15.92,0,0-21.12,5.52-30.26,24.35,0,0,.54-17.7,23.34-27.6,0,0-19.37-7.05-29.13,13.51-9.76,20.55,4.44,34.18,4.44,34.18h0ZM227.26,437.14s-2.57,2.96-7.57,6.79c-3.62,2.78-8.43,6.01-14.28,8.92-8.05,4-17.81,7.4-28.87,7.97,8.4-1.35,15.39-4.07,21.27-7.25,5.97-3.23,10.46-6.93,13.9-10.09,4.4-4.04,6.72-7.17,6.72-7.17,1.29-1.56,4.32-2.65,6.75-2.42,2.44.23,3.36,1.68,2.07,3.25h0ZM255.92,431.17s-3.6-1.69-8.35-5.43c-3.45-2.71-7.48-6.42-11.2-11.18-5.11-6.54-9.62-14.83-10.91-24.99,2.05,7.5,5.6,13.37,9.65,18.09,4.1,4.79,8.67,8.09,12.55,10.55,4.96,3.13,8.74,4.55,8.74,4.55,1.9.83,3.33,3.39,3.2,5.71-.13,2.32-1.78,3.53-3.68,2.71h0Z"/>
  <path class="cls-1" d="M73.37,290.31s-2.4,4.38-.63,9.1c1.77,4.73,1.94,13.81-8.69,20.48-7.35,4.61-9.9,11.62-9.9,11.62,0,0-4.68-17.59,5.21-31.96,0,0-12.62,7.67-10.42,28.28,0,0-13.08-11.15-2.19-26.68,10.89-15.53,26.62-10.84,26.62-10.84h0Z"/>
  <path class="cls-1" d="M23.7,233.61s.84,4.22,4.62,6.36c3.78,2.15,8.92,8.05,5.58,18.34-2.31,7.11-.11,13.16-.11,13.16,0,0-12.82-9.03-14.24-24,0,0-4.09,12.05,8.76,24.45,0,0-14.81-.13-16.21-16.42-1.4-16.29,11.59-21.89,11.59-21.89h0Z"/>
  <path class="cls-1" d="M10.37,351.97s3.01,5.83,9.47,7.37,16.5,8.03,15.95,24.53c-.37,11.4,5.41,19.35,5.41,19.35,0,0-22.63-7.82-31.04-29.18,0,0-.9,19.41,23.2,32.15,0,0-21.78,6.08-30.72-17.22-8.95-23.3,7.74-37.01,7.74-37.01h0Z"/>
</svg>