<?xml version="1.0" encoding="UTF-8"?>
<svg id="Layer_1" xmlns="http://www.w3.org/2000/svg" viewBox="0 0 171.26 166.15">
  <defs>
    <style>
      .cls-1 {
        fill: #fff;
      }

      .cls-2 {
        fill: #8aaceb;
      }
    </style>
  </defs>
  <path class="cls-1" d="M169.52,74.67c-5.32-17.01-20.77-30.65-38.24-34.94-1.33-.33-1.85-1.92-.97-2.96l.02-.02c4.02-4.7,5.84-10.51,5.12-16.36-.71-5.86-3.88-11.07-8.92-14.67-4.74-3.39-9.67-4.23-12.32-4.68-13.72-2.33-26.57-.32-37.33,1.96-11.05,2.34-22.43,6.59-34.79,12.99-13.09,6.78-23.9,16.71-32.16,29.52C4.86,53.41-.28,63.19.01,75.94c-.12,4.41.51,9.05,1.83,13.47,3.2,10.74,10.3,19.18,19.97,23.79,4.93,2.35,10.29,3.53,15.66,3.53,4.74,0,9.49-.92,13.96-2.77,1.27-.52,2.5-1.08,3.71-1.66,6.25-3.05,13.61,1.21,14.24,8.14v.06c.95,10.44,4.68,20.15,11.08,28.86,5.41,7.36,12.79,12.68,21.34,15.39,2.98.95,6,1.4,8.98,1.4,9.64,0,18.79-4.8,24.38-13.3,4.41-6.7,5.46-13.71,5.87-19.09.08-1.04.06-2.08-.05-3.13-.31-2.94-.66-6.26-1.47-9.8-.48-2.11,1.09-4.12,3.25-4.12h0c5.3,0,10.58-1.42,15.15-4.21,8.14-4.98,13.13-13.78,13.34-23.53.09-4.07-.04-8.95-1.71-14.31Z"/>
  <g>
    <path class="cls-2" d="M16.36,75.97c-.31-8.36,3.18-15.19,7.32-21.62,6.55-10.17,15.09-18.23,25.93-23.85,9.79-5.07,19.89-9.23,30.66-11.51,10.28-2.18,20.65-3.63,31.2-1.84,1.97.34,3.91.68,5.56,1.86,2.61,1.87,2.96,4.68.88,7.12-.69.8-1.51,1.53-2.38,2.12-12.92,8.77-22.85,20.46-32.03,32.93-7.42,10.07-15.28,19.79-24.26,28.54-4.09,3.99-8.76,6.94-14.06,9.13-10.78,4.46-23.74-.93-27.68-14.12-.88-2.96-1.26-5.97-1.14-8.76Z"/>
    <path class="cls-2" d="M124.71,132.44c-.31,4.11-.97,8-3.23,11.43-3.29,5-9.07,7.1-14.76,5.3-5.39-1.71-9.79-4.98-13.11-9.5-4.5-6.12-7.26-12.94-7.97-20.66-1.41-15.55,1.41-30.39,6.94-44.82.92-2.41,1.94-4.84,3.7-6.8,1.11-1.23,2.23-2.75,4.18-2.17,1.92.57,2.2,2.31,2.39,4.05.23,2.12.48,4.25.79,6.36,1.73,11.96,5.49,23.15,12.37,33.17,2.17,3.16,3.9,6.55,5.58,9.98,2.14,4.35,2.62,9.05,3.11,13.67Z"/>
    <path class="cls-2" d="M120.07,54.66c14.81.12,29.51,10.98,33.85,24.88.93,2.99,1.04,6,.97,9.06-.22,9.78-10.19,14.17-17.78,10.51-3.96-1.91-6.86-5.07-8.6-9.14-1.38-3.23-2.57-6.54-3.71-9.86-1.75-5.08-4.14-9.85-6.83-14.47-1.16-1.99-2.57-3.78-4.2-5.41-1.02-1.02-1.69-2.22-1.16-3.71.55-1.57,1.94-1.81,3.34-1.86,1.37-.05,2.74-.01,4.1-.01Z"/>
  </g>
</svg>