<?xml version="1.0" encoding="UTF-8"?>
<svg id="Layer_1" xmlns="http://www.w3.org/2000/svg" viewBox="0 0 953.88 1897.68">
  <defs>
    <style>
      .cls-1 {
        fill: #87d670;
      }

      .cls-1, .cls-2, .cls-3, .cls-4, .cls-5, .cls-6, .cls-7, .cls-8, .cls-9, .cls-10, .cls-11, .cls-12 {
        fill-rule: evenodd;
      }

      .cls-2 {
        fill: #1c6e4d;
      }

      .cls-3 {
        fill: #003838;
      }

      .cls-4 {
        fill: #ebe8de;
      }

      .cls-5 {
        fill: #f5b508;
      }

      .cls-6 {
        fill: #f93;
      }

      .cls-7 {
        fill: #36a161;
      }

      .cls-8 {
        fill: #4ac269;
      }

      .cls-13 {
        fill: #0cf;
      }

      .cls-14 {
        fill: none;
        stroke: #ebe8de;
        stroke-linecap: round;
        stroke-linejoin: round;
        stroke-width: 1.92px;
      }

      .cls-15 {
        fill: #0d3d14;
      }

      .cls-9 {
        fill: #54ab47;
      }

      .cls-10 {
        fill: #6bc952;
      }

      .cls-11 {
        fill: #0a4f3d;
      }

      .cls-12 {
        fill: #2e8f57;
      }
    </style>
  </defs>
  <rect class="cls-15" width="953.88" height="1897.68"/>
  <rect class="cls-13" width="953.88" height="1897.68"/>
  <path class="cls-6" d="M632.19,1085.61c118.05,0,213.74,95.7,213.74,213.74s-95.7,213.75-213.74,213.75-213.75-95.7-213.75-213.75,95.7-213.74,213.75-213.74"/>
  <path class="cls-6" d="M173.17,431.25c70.21,0,127.13,56.92,127.13,127.13s-56.92,127.13-127.13,127.13-127.13-56.92-127.13-127.13,56.92-127.13,127.13-127.13"/>
  <path class="cls-6" d="M717.31,32.25c118.05,0,213.74,95.7,213.74,213.74s-95.7,213.74-213.74,213.74-213.74-95.7-213.74-213.74,95.7-213.74,213.74-213.74"/>
  <path class="cls-11" d="M0,999.12c32.91,51.41,56.87,125.24,57.98,279.37v619.19H0v-898.56Z"/>
  <path class="cls-11" d="M12.33,1897.68l.67-185.24c.6-116.01.61-185.75,47.52-288.48,85.69-187.65,221.72-203.29,329.51-206.12l16.17-.35,17.3-.31c6.29,1.43,6.43,12.27.27,16.86l-1.91,1.43c-103.49,60.01-215.33,187.3-215.17,397.67l.19,264.55H12.33Z"/>
  <path class="cls-3" d="M416.52,1218.19c-156.79,20.41-314.64,184.24-314.52,414.94l.15,264.55H12.33l.67-185.24c.6-116.01.61-185.75,47.52-288.48,67.59-148,174.76-203.02,311.43-205.05,14.13-.21,29.82-1.6,44.57-.72"/>
  <path class="cls-11" d="M130.81,1897.68l.05-14.54c.38-72.84.38-116.62,29.84-181.12,53.8-117.81,139.2-127.63,206.88-129.41l10.15-.22,10.86-.2c3.95.9,4.04,7.7.17,10.58l-1.2.9c-64.98,37.68-135.19,117.59-135.09,249.67l.05,64.34h-121.71Z"/>
  <path class="cls-3" d="M384.21,1572.83c-98.44,12.81-197.54,115.67-197.46,260.51l.04,64.34h-55.97l.05-14.54c.38-72.84.38-116.62,29.84-181.12,42.43-92.92,109.72-127.46,195.52-128.74,8.87-.13,18.72-1,27.98-.45"/>
  <path class="cls-3" d="M871.06,1897.68v-831.72c-67.03,61.96-124.87,125.53-126.85,349.08v482.64h126.85Z"/>
  <path class="cls-11" d="M871.06,1897.68v-831.72c31.16,28.8,60.32,57.96,82.82,103.36v728.36h-82.82Z"/>
  <path class="cls-11" d="M939.51,1897.68l.11-24.47c.47-74.21.67-130.48,14.26-187.44v211.91h-14.37Z"/>
  <path class="cls-3" d="M953.88,1897.68h-14.37l.11-24.47c.47-74.21.67-130.48,14.26-187.44v211.91Z"/>
  <path class="cls-11" d="M632.16,1758.28c-6.12-150.88-95.15-267.31-189.98-320.28l2.04,459.68h187.82l.13-139.4Z"/>
  <path class="cls-3" d="M530.52,1897.68l.21-315.43c5.07-71.42-43.32-120.67-88.56-144.26l2.04,459.68h86.31Z"/>
  <path class="cls-11" d="M757.2,1605.62c-4.09-116.4-63.56-206.23-126.9-247.1l1.03,539.15h125.78l.09-292.06Z"/>
  <path class="cls-3" d="M689.34,1897.68l.12-427.86c3.39-55.1-28.94-93.09-59.16-111.29l1.03,539.15h58Z"/>
  <path class="cls-12" d="M898.67,1333.85l-85.81-68.76c41.17-95.59,90.95-118.76,141.02-135.77v109.26c-31.65,12.19-55.21,30.89-55.21,95.28"/>
  <path class="cls-2" d="M645.3,1897.68c10.14-4.97,20.58-9.48,31.28-13.47l277.31-70.03v83.51h-308.59Z"/>
  <path class="cls-2" d="M447.41,1897.68c20.26-62.98,50.66-111.59,86.22-139.17l187.76-98.44c34.2-16.59,67.99-38.06,70.77-117.18l8.78-250.09c3.66-104.15,96.75-146.4,145.76-158.93,23.57-6.03-36.93,22.07-38.48,92.57l-9.3,421.76c-3.84,173.96-166.62,222.81-243.5,249.48h-208Z"/>
  <path class="cls-12" d="M571.71,1897.68c66.1-129.93,213.74-157.83,330.42-211.96,20.08-9.32,37.16-19.29,51.75-29.71v142.7c-30.17,22.72-69.24,43.68-119.84,62.97-33.05,12.6-61.85,24.56-87.04,36h-175.3Z"/>
  <path class="cls-12" d="M11.16,1897.68c23.6-59.48,64.24-107.03,112.96-134.47l224.79-91.07c40.95-15.58,78.75-56.29,91.35-117.86,10.36-50.63,4.15-104.83,20.45-162.84,22.68-80.73,69.44-119.57,128.11-133.43,28.23-6.67,44-9.93,6.95,21.53-38.26,32.5-62.31,72.32-73.64,137.09-10.14,57.96-4.75,105.5-10.03,158.78-7.11,71.84-33.45,138.84-81.96,187.22-29.75,29.67-64.19,49.41-98.07,63.96l-98.59,42.19c-22.13,8.59-40.26,18.16-55.15,28.89H11.16Z"/>
  <path class="cls-2" d="M0,1716.62c17.9-20.04,38.49-36.17,60.84-47.58l217.31-74.98c39.58-12.64,76.13-50.95,88.31-112.3,10.01-50.45,4.01-105.78,19.77-163.24,21.93-79.97,67.13-115.7,123.85-125.24,27.29-4.59,42.53-6.69,6.72,22.33-36.99,29.97-60.23,68.43-71.19,133.12-9.81,57.89-4.6,106.41-9.7,159.93-6.87,72.16-32.34,137.96-79.23,183.22-52.08,50.27-133.09,71.35-190.12,92.39-69.13,22.64-98.14,58.6-110.25,113.42H0v-181.06Z"/>
  <path class="cls-2" d="M0,1538.84l89.25-63.93c21.68-14.37,43.1-32.96,44.86-101.48l5.56-216.59c2.32-90.2,61.33-126.79,92.4-137.64,14.94-5.22-23.41,19.12-24.39,80.17l-5.9,365.26c-2.84,176.09-143.34,204.16-173.65,226.55-11.19,7.61-20.46,16.54-28.13,26.95v-179.3Z"/>
  <path class="cls-12" d="M0,1666.8c44.21-100.71,133-124.78,203.82-169.66,96.77-61.33,84.31-155.46,95.44-202.4,1.08,159.19,16.74,273.89-138.6,354.79C52.81,1705.7,15.82,1747.21,0,1788.04v-121.24Z"/>
  <path class="cls-8" d="M666.13,1851.22l-65-52.75c47.88-112.58,111.14-94.21,166.95-128.83,55.41-34.37,47.73-64.08,59.69-91.98.69,88.08,10.73,152.23-88.82,189.72-37.8,14.23-72.81,14.68-72.81,83.84"/>
  <path class="cls-7" d="M928.51,1897.68c7.82-7.4,16.31-13.82,25.38-19.35v19.35h-25.38Z"/>
  <path class="cls-7" d="M589.39,1897.68l2.7-77.95c2.77-79.89,73.29-112.3,110.41-121.91,17.86-4.62-27.97,16.93-29.15,71.01l-2.81,128.85h-81.16Z"/>
  <path class="cls-1" d="M87.83,1424.63h0c.53,0,.97,1.99.97,4.42l-.57,460.36h-1.94l.57-460.36c0-2.43.44-4.42.98-4.42"/>
  <path class="cls-4" d="M82.67,1441.02c-.78-5.37.3-13.24,3.17-19.45.76-1.65,1.23-2.13,1.7-2.12.47,0,.93.51,1.65,2.14,2.93,6.67,3.95,15.27,2.83,20.6-.77,3.62-2.79,5.05-4.69,4.93-2.11-.13-4.09-2.23-4.65-6.1"/>
  <path class="cls-4" d="M82.67,1397.89c-.78,5.38.3,13.24,3.17,19.45.76,1.65,1.23,2.13,1.7,2.12.47,0,.93-.51,1.65-2.14,2.93-6.67,3.95-15.27,2.83-20.6-.77-3.62-2.79-5.05-4.69-4.93-2.11.14-4.09,2.23-4.65,6.1"/>
  <path class="cls-4" d="M72.53,1435.75c2.01-5.04,6.88-11.31,12.46-15.26,1.49-1.05,2.13-1.22,2.53-.98.4.24.55.9.35,2.68-.8,7.24-4.21,15.2-7.85,19.25-2.47,2.75-4.94,2.97-6.52,1.92-1.76-1.17-2.43-3.97-.98-7.61"/>
  <path class="cls-4" d="M94.1,1398.4c-3.36,4.26-6.36,11.62-6.98,18.42-.17,1.81,0,2.46.41,2.68.41.23,1.06.03,2.5-1.03,5.87-4.31,11.06-11.25,12.75-16.43,1.15-3.52.1-5.77-1.6-6.61-1.9-.94-4.65-.12-7.08,2.96"/>
  <path class="cls-4" d="M66.38,1426.11c4.26-3.36,11.62-6.36,18.42-6.98,1.81-.17,2.46,0,2.68.42.23.41.03,1.06-1.03,2.5-4.31,5.87-11.25,11.06-16.43,12.75-3.52,1.15-5.77.1-6.61-1.6-.94-1.9-.12-4.65,2.96-7.08"/>
  <path class="cls-4" d="M103.74,1404.55c-5.05,2.01-11.31,6.88-15.26,12.46-1.05,1.49-1.22,2.13-.98,2.53.24.4.9.55,2.68.36,7.24-.8,15.2-4.21,19.25-7.85,2.75-2.47,2.97-4.94,1.92-6.52-1.17-1.76-3.97-2.43-7.61-.98"/>
  <path class="cls-4" d="M65.88,1414.69c5.37-.78,13.24.3,19.45,3.17,1.65.76,2.13,1.24,2.12,1.7,0,.47-.51.93-2.14,1.65-6.67,2.93-15.27,3.95-20.6,2.83-3.62-.77-5.05-2.79-4.93-4.69.13-2.11,2.23-4.09,6.1-4.65"/>
  <path class="cls-4" d="M109.01,1414.69c-5.37-.78-13.24.3-19.45,3.17-1.65.76-2.13,1.24-2.12,1.7,0,.47.51.93,2.14,1.65,6.67,2.93,15.27,3.95,20.6,2.83,3.62-.77,5.05-2.79,4.93-4.69-.13-2.11-2.23-4.09-6.1-4.65"/>
  <path class="cls-4" d="M71.15,1404.55c5.04,2.01,11.31,6.88,15.26,12.46,1.05,1.49,1.22,2.13.98,2.53-.24.4-.9.55-2.68.36-7.24-.8-15.2-4.21-19.25-7.85-2.75-2.47-2.97-4.94-1.92-6.52,1.17-1.76,3.97-2.43,7.61-.98"/>
  <path class="cls-4" d="M108.51,1426.11c-4.26-3.36-11.62-6.36-18.42-6.98-1.81-.17-2.46,0-2.68.41-.23.41-.03,1.06,1.03,2.5,4.31,5.87,11.25,11.06,16.43,12.75,3.52,1.15,5.77.1,6.61-1.6.94-1.9.12-4.65-2.96-7.08"/>
  <path class="cls-4" d="M80.79,1398.4c3.36,4.26,6.36,11.62,6.98,18.43.17,1.81,0,2.46-.41,2.68-.41.23-1.06.03-2.5-1.03-5.87-4.31-11.06-11.25-12.75-16.43-1.15-3.52-.1-5.77,1.6-6.61,1.89-.94,4.65-.12,7.08,2.96"/>
  <path class="cls-4" d="M102.36,1435.75c-2.01-5.05-6.88-11.31-12.46-15.26-1.49-1.05-2.13-1.22-2.53-.98-.4.24-.55.9-.36,2.68.8,7.24,4.21,15.2,7.85,19.25,2.47,2.75,4.94,2.97,6.52,1.92,1.76-1.17,2.43-3.97.98-7.61"/>
  <path class="cls-5" d="M87.44,1407.85c6.41,0,11.61,5.2,11.61,11.61s-5.2,11.61-11.61,11.61-11.61-5.2-11.61-11.61,5.2-11.61,11.61-11.61"/>
  <path class="cls-14" d="M87.01,1411.43c.23-.02.46-.03.69-.03,4.29,0,7.77,3.48,7.77,7.77"/>
  <path class="cls-14" d="M86.45,1423.5c-.09,0-.19.01-.28.01-1.73,0-3.14-1.4-3.14-3.14"/>
  <path class="cls-10" d="M68.23,1463.78c-6.97,0-8.77-6.27-8.43-10.56.59,1.29,1.43,1.89,3.86,1.98l7.88.08c3.6.03,5.76.03,8.95,2.08,5.82,3.76,6.3,9.72,6.39,14.44v.71s.02.76.02.76c-.04.28-.38.28-.52.01l-.04-.08c-1.86-4.54-5.81-9.45-12.33-9.43h-5.77Z"/>
  <path class="cls-9" d="M86.86,1472.96c-.63-6.87-5.71-13.8-12.87-13.78h-6.24c-6.51.52-8.19-4.1-7.96-6.14.61,1.35,1.73,1.82,3.73,2.17l8.01.08c3.6.03,5.76.03,8.95,2.08,4.59,2.96,6.3,7.66,6.36,13.65,0,.62.05,1.31.02,1.95"/>
  <path class="cls-10" d="M107.12,1481.84c7.56,0,9.51-6.79,9.14-11.44-.64,1.4-1.55,2.05-4.18,2.14l-8.54.08c-3.9.03-6.24.03-9.7,2.26-6.31,4.07-6.83,10.53-6.93,15.65v.77s-.02.82-.02.82c.05.3.41.31.57.01l.05-.09c2.02-4.92,6.29-10.24,13.37-10.22h6.25Z"/>
  <path class="cls-9" d="M86.93,1491.79c.69-7.45,6.19-14.96,13.95-14.94h6.76c7.06.57,8.88-4.44,8.63-6.66-.66,1.47-1.87,1.98-4.04,2.35l-8.68.08c-3.9.03-6.24.03-9.7,2.26-4.97,3.21-6.82,8.3-6.89,14.79,0,.67-.05,1.42-.02,2.12"/>
  <path class="cls-10" d="M63.91,1501.43c-8.58,0-10.8-7.71-10.38-13,.73,1.59,1.76,2.32,4.75,2.43l9.71.09c4.43.03,7.09.03,11.01,2.56,7.16,4.62,7.76,11.96,7.87,17.78v.87s.03.93.03.93c-.05.34-.47.35-.64.01l-.06-.1c-2.29-5.58-7.15-11.63-15.18-11.61l-7.1.02Z"/>
  <path class="cls-9" d="M86.86,1512.74c-.78-8.46-7.04-16.99-15.84-16.97l-7.68.02c-8.02.63-10.08-5.06-9.8-7.58.75,1.67,2.13,2.24,4.59,2.67l9.86.09c4.43.03,7.09.03,11.01,2.56,5.65,3.65,7.75,9.43,7.83,16.8,0,.76.06,1.61.03,2.41"/>
  <path class="cls-1" d="M179.82,1500.04h0c.46,0,.83,1.7.82,3.77l-.48,385.6h-1.66l.48-385.6c0-2.07.38-3.77.83-3.77"/>
  <path class="cls-4" d="M175.43,1514.02c-.67-4.58.26-11.29,2.7-16.58.65-1.41,1.05-1.81,1.45-1.81.4,0,.79.43,1.4,1.83,2.5,5.69,3.37,13.02,2.41,17.56-.65,3.09-2.38,4.3-4,4.2-1.8-.12-3.48-1.9-3.96-5.2"/>
  <path class="cls-4" d="M175.43,1477.25c-.67,4.58.26,11.29,2.7,16.58.65,1.41,1.05,1.81,1.45,1.81.4,0,.79-.43,1.4-1.83,2.5-5.69,3.37-13.02,2.41-17.56-.65-3.09-2.38-4.3-4-4.2-1.8.12-3.48,1.9-3.96,5.2"/>
  <path class="cls-4" d="M166.78,1509.52c1.71-4.3,5.87-9.64,10.63-13.01,1.27-.9,1.82-1.04,2.16-.84.34.21.47.77.3,2.28-.68,6.17-3.59,12.96-6.69,16.41-2.11,2.35-4.21,2.54-5.56,1.64-1.5-1-2.07-3.38-.83-6.49"/>
  <path class="cls-4" d="M185.16,1477.68c-2.87,3.63-5.42,9.9-5.95,15.71-.14,1.55,0,2.1.35,2.29.35.19.9.02,2.13-.88,5-3.68,9.43-9.59,10.87-14,.98-3,.09-4.92-1.36-5.64-1.62-.8-3.97-.1-6.03,2.52"/>
  <path class="cls-4" d="M161.54,1501.31c3.63-2.87,9.9-5.42,15.71-5.95,1.55-.14,2.1,0,2.29.35.19.35.02.9-.88,2.13-3.68,5-9.59,9.43-14,10.87-3,.98-4.92.09-5.64-1.36-.8-1.62-.1-3.97,2.52-6.03"/>
  <path class="cls-4" d="M193.38,1482.92c-4.3,1.71-9.65,5.87-13.01,10.63-.9,1.27-1.04,1.82-.84,2.16.21.34.77.47,2.28.3,6.17-.68,12.96-3.59,16.41-6.69,2.35-2.11,2.54-4.21,1.64-5.56-1-1.5-3.39-2.07-6.49-.83"/>
  <path class="cls-4" d="M161.11,1491.57c4.58-.67,11.29.26,16.58,2.7,1.41.65,1.81,1.05,1.81,1.45,0,.4-.43.79-1.83,1.4-5.69,2.5-13.02,3.37-17.56,2.41-3.09-.65-4.3-2.38-4.2-4,.11-1.8,1.9-3.48,5.2-3.96"/>
  <path class="cls-4" d="M197.88,1491.57c-4.58-.67-11.29.26-16.58,2.7-1.41.65-1.81,1.05-1.81,1.45,0,.4.43.79,1.83,1.4,5.69,2.5,13.02,3.37,17.56,2.41,3.09-.65,4.3-2.38,4.2-4-.12-1.8-1.9-3.48-5.2-3.96"/>
  <path class="cls-4" d="M165.61,1482.92c4.3,1.71,9.64,5.87,13.01,10.63.9,1.27,1.04,1.82.84,2.16-.21.34-.77.47-2.28.3-6.17-.68-12.96-3.59-16.41-6.69-2.35-2.11-2.54-4.21-1.64-5.56,1-1.5,3.39-2.07,6.49-.83"/>
  <path class="cls-4" d="M197.45,1501.31c-3.63-2.87-9.9-5.42-15.71-5.95-1.55-.14-2.1,0-2.29.35-.19.35-.02.9.88,2.13,3.68,5,9.59,9.43,14,10.87,3,.98,4.92.09,5.64-1.36.8-1.62.1-3.97-2.52-6.03"/>
  <path class="cls-4" d="M173.82,1477.68c2.87,3.63,5.42,9.9,5.95,15.71.14,1.55,0,2.1-.35,2.29-.35.19-.9.02-2.13-.88-5-3.68-9.43-9.59-10.87-14-.98-3-.09-4.92,1.36-5.64,1.62-.8,3.97-.1,6.04,2.52"/>
  <path class="cls-4" d="M192.21,1509.52c-1.71-4.3-5.87-9.65-10.63-13.01-1.27-.9-1.82-1.04-2.16-.84-.34.21-.47.77-.3,2.28.68,6.17,3.59,12.96,6.69,16.41,2.11,2.35,4.21,2.53,5.56,1.64,1.5-1,2.07-3.38.83-6.49"/>
  <path class="cls-5" d="M179.49,1485.74c5.46,0,9.9,4.43,9.9,9.9s-4.43,9.9-9.9,9.9-9.9-4.43-9.9-9.9,4.43-9.9,9.9-9.9"/>
  <path class="cls-14" d="M179.12,1488.79c.2-.02.39-.03.59-.03,3.66,0,6.63,2.97,6.63,6.63"/>
  <path class="cls-14" d="M178.64,1499.08c-.08,0-.16,0-.24,0-1.48,0-2.67-1.2-2.67-2.67"/>
  <path class="cls-10" d="M163.11,1533.42c-5.94,0-7.48-5.34-7.19-9,.5,1.1,1.22,1.61,3.29,1.69l6.72.06c3.07.02,4.91.02,7.63,1.78,4.96,3.2,5.37,8.28,5.45,12.31v.6s.02.65.02.65c-.04.23-.32.24-.45,0l-.04-.07c-1.59-3.87-4.95-8.05-10.51-8.04h-4.92Z"/>
  <path class="cls-9" d="M179,1541.25c-.54-5.86-4.87-11.76-10.97-11.75h-5.32c-5.55.45-6.98-3.49-6.79-5.24.52,1.16,1.47,1.55,3.18,1.85l6.83.07c3.07.02,4.91.02,7.63,1.78,3.91,2.53,5.37,6.53,5.42,11.64,0,.53.04,1.11.02,1.66"/>
  <path class="cls-10" d="M196.27,1548.82c6.44,0,8.1-5.79,7.79-9.75-.54,1.19-1.32,1.74-3.56,1.83l-7.28.07c-3.32.03-5.32.03-8.27,1.92-5.38,3.47-5.83,8.98-5.91,13.34v.66s-.02.7-.02.7c.04.25.35.26.48.01l.04-.08c1.72-4.19,5.37-8.73,11.39-8.71h5.33Z"/>
  <path class="cls-9" d="M179.05,1557.3c.58-6.35,5.28-12.75,11.89-12.74h5.76c6.02.48,7.57-3.79,7.36-5.68-.56,1.25-1.6,1.68-3.45,2l-7.4.07c-3.32.03-5.32.03-8.27,1.92-4.24,2.74-5.82,7.08-5.88,12.61,0,.57-.05,1.21-.02,1.81"/>
  <path class="cls-10" d="M159.43,1565.52c-7.32,0-9.2-6.58-8.85-11.08.62,1.35,1.5,1.98,4.05,2.08l8.27.08c3.78.03,6.04.03,9.39,2.19,6.11,3.94,6.62,10.2,6.71,15.16v.74s.02.79.02.79c-.05.29-.4.3-.55.01l-.05-.09c-1.95-4.76-6.1-9.91-12.94-9.9h-6.05Z"/>
  <path class="cls-9" d="M178.99,1575.16c-.66-7.21-6-14.48-13.5-14.47h-6.55c-6.84.55-8.6-4.3-8.36-6.45.64,1.42,1.81,1.91,3.91,2.27l8.41.08c3.78.03,6.04.03,9.39,2.19,4.82,3.11,6.61,8.04,6.67,14.33,0,.65.05,1.37.02,2.05"/>
  <path class="cls-1" d="M502.17,1571.07h0c.38,0,.69,1.42.69,3.16l-.39,315.18h-1.39l.39-315.18c0-1.74.32-3.16.7-3.16"/>
  <path class="cls-4" d="M498.49,1582.77c-.56-3.84.22-9.45,2.26-13.88.54-1.18.88-1.52,1.21-1.51.33,0,.66.36,1.17,1.53,2.09,4.76,2.82,10.9,2.02,14.7-.55,2.58-1.99,3.6-3.35,3.51-1.51-.1-2.92-1.59-3.32-4.35"/>
  <path class="cls-4" d="M498.49,1551.99c-.56,3.84.22,9.45,2.26,13.88.54,1.18.88,1.52,1.21,1.51.33,0,.66-.36,1.17-1.53,2.09-4.76,2.82-10.9,2.02-14.7-.55-2.58-1.99-3.6-3.35-3.52-1.51.1-2.92,1.59-3.32,4.35"/>
  <path class="cls-4" d="M491.25,1579.01c1.43-3.6,4.91-8.07,8.9-10.89,1.06-.75,1.52-.87,1.81-.7.29.17.39.64.25,1.91-.57,5.17-3,10.85-5.6,13.74-1.76,1.96-3.53,2.12-4.66,1.37-1.26-.84-1.73-2.83-.7-5.43"/>
  <path class="cls-4" d="M506.64,1552.35c-2.4,3.04-4.54,8.29-4.98,13.15-.12,1.29,0,1.75.3,1.92.29.16.75.02,1.78-.74,4.19-3.08,7.89-8.03,9.1-11.72.82-2.51.07-4.12-1.14-4.72-1.35-.67-3.32-.08-5.05,2.11"/>
  <path class="cls-4" d="M486.87,1572.13c3.04-2.4,8.29-4.54,13.15-4.98,1.29-.12,1.75,0,1.92.3.16.29.02.75-.74,1.78-3.08,4.19-8.03,7.89-11.72,9.1-2.51.82-4.12.08-4.72-1.14-.67-1.35-.08-3.32,2.11-5.05"/>
  <path class="cls-4" d="M513.52,1556.74c-3.6,1.43-8.07,4.91-10.89,8.89-.75,1.06-.87,1.52-.7,1.81.17.29.64.39,1.91.25,5.17-.57,10.85-3,13.74-5.6,1.96-1.76,2.12-3.53,1.37-4.66-.84-1.26-2.83-1.73-5.43-.7"/>
  <path class="cls-4" d="M486.51,1563.98c3.83-.56,9.45.22,13.88,2.26,1.18.54,1.52.88,1.51,1.21,0,.33-.36.66-1.53,1.17-4.76,2.09-10.9,2.82-14.7,2.02-2.58-.55-3.6-1.99-3.52-3.35.1-1.51,1.59-2.92,4.35-3.32"/>
  <path class="cls-4" d="M517.28,1563.98c-3.83-.56-9.45.22-13.88,2.26-1.18.54-1.52.88-1.51,1.21,0,.33.36.66,1.53,1.17,4.76,2.09,10.9,2.82,14.7,2.02,2.58-.55,3.6-1.99,3.52-3.35-.1-1.51-1.59-2.92-4.35-3.32"/>
  <path class="cls-4" d="M490.27,1556.74c3.6,1.43,8.07,4.91,10.89,8.89.75,1.06.87,1.52.7,1.81-.17.29-.64.39-1.91.25-5.17-.57-10.85-3-13.74-5.6-1.96-1.76-2.12-3.53-1.37-4.66.84-1.26,2.83-1.73,5.43-.7"/>
  <path class="cls-4" d="M516.92,1572.13c-3.04-2.4-8.29-4.54-13.15-4.98-1.29-.12-1.75,0-1.92.3-.16.29-.02.75.74,1.78,3.08,4.19,8.03,7.89,11.72,9.1,2.51.82,4.12.08,4.72-1.14.67-1.35.08-3.32-2.11-5.05"/>
  <path class="cls-4" d="M497.15,1552.35c2.4,3.04,4.54,8.29,4.98,13.15.12,1.29,0,1.75-.3,1.92-.29.16-.75.02-1.78-.74-4.19-3.08-7.89-8.03-9.1-11.72-.82-2.51-.07-4.12,1.14-4.72,1.35-.67,3.32-.08,5.05,2.11"/>
  <path class="cls-4" d="M512.54,1579.01c-1.43-3.6-4.91-8.07-8.9-10.89-1.06-.75-1.52-.87-1.81-.7-.29.17-.39.64-.25,1.91.57,5.17,3,10.85,5.6,13.74,1.76,1.96,3.53,2.12,4.66,1.37,1.26-.84,1.73-2.83.7-5.43"/>
  <path class="cls-5" d="M501.89,1559.1c4.57,0,8.28,3.71,8.28,8.28s-3.71,8.28-8.28,8.28-8.28-3.71-8.28-8.28,3.71-8.28,8.28-8.28"/>
  <path class="cls-14" d="M501.59,1561.66c.16-.01.33-.02.49-.02,3.06,0,5.55,2.48,5.55,5.55"/>
  <path class="cls-14" d="M501.18,1570.27c-.07,0-.13,0-.2,0-1.24,0-2.24-1-2.24-2.24"/>
  <path class="cls-10" d="M488.18,1599.01c-4.98,0-6.26-4.47-6.02-7.53.42.92,1.02,1.35,2.75,1.41l5.62.05c2.57.02,4.11.02,6.38,1.49,4.15,2.68,4.5,6.93,4.56,10.3v.51s.01.54.01.54c-.03.2-.27.2-.37,0l-.03-.06c-1.33-3.24-4.14-6.74-8.8-6.73h-4.11Z"/>
  <path class="cls-9" d="M501.48,1605.56c-.45-4.9-4.08-9.85-9.18-9.84h-4.45c-4.65.37-5.84-2.92-5.68-4.38.44.97,1.23,1.3,2.66,1.54l5.72.05c2.57.02,4.11.02,6.38,1.49,3.28,2.11,4.49,5.46,4.54,9.74,0,.44.04.93.02,1.39"/>
  <path class="cls-10" d="M515.94,1611.9c5.39,0,6.78-4.85,6.52-8.17-.46,1-1.11,1.46-2.98,1.53l-6.1.06c-2.78.02-4.45.02-6.92,1.61-4.5,2.91-4.88,7.52-4.94,11.17v.55s-.02.59-.02.59c.03.21.29.22.4,0l.03-.06c1.44-3.51,4.49-7.31,9.54-7.29h4.46Z"/>
  <path class="cls-9" d="M501.53,1619c.49-5.32,4.42-10.67,9.95-10.66h4.82c5.04.4,6.33-3.17,6.16-4.75-.47,1.05-1.34,1.41-2.88,1.67l-6.2.06c-2.78.02-4.45.02-6.92,1.61-3.55,2.29-4.87,5.92-4.92,10.56,0,.48-.04,1.01-.02,1.51"/>
  <path class="cls-10" d="M485.1,1625.88c-6.13,0-7.7-5.5-7.41-9.27.52,1.13,1.26,1.66,3.39,1.74l6.93.07c3.16.02,5.06.02,7.86,1.83,5.11,3.3,5.54,8.54,5.62,12.69v.62s.02.67.02.67c-.04.24-.33.25-.46.01l-.04-.07c-1.63-3.98-5.1-8.3-10.83-8.29h-5.07Z"/>
  <path class="cls-9" d="M501.47,1633.95c-.56-6.04-5.02-12.12-11.3-12.11h-5.48c-5.72.46-7.19-3.6-7-5.4.54,1.19,1.52,1.6,3.28,1.9l7.04.07c3.16.02,5.06.02,7.86,1.83,4.03,2.6,5.53,6.73,5.59,11.99,0,.54.04,1.15.02,1.72"/>
  <path class="cls-1" d="M579.58,1449.74h0c.51,0,.92,1.89.92,4.21l-.54,435.47h-1.85l.54-435.47c0-2.31.42-4.21.93-4.21"/>
  <path class="cls-4" d="M574.68,1465.33c-.74-5.11.29-12.59,3.01-18.49.72-1.57,1.17-2.02,1.62-2.01.44,0,.88.48,1.57,2.04,2.78,6.34,3.76,14.52,2.69,19.59-.73,3.44-2.66,4.8-4.46,4.68-2.01-.13-3.89-2.12-4.42-5.8"/>
  <path class="cls-4" d="M574.68,1424.31c-.74,5.11.29,12.59,3.01,18.49.72,1.57,1.17,2.02,1.62,2.01.44,0,.88-.48,1.57-2.04,2.78-6.34,3.76-14.52,2.69-19.59-.73-3.44-2.66-4.8-4.46-4.68-2.01.13-3.89,2.12-4.42,5.8"/>
  <path class="cls-4" d="M565.03,1460.31c1.91-4.8,6.55-10.76,11.85-14.51,1.41-1,2.03-1.16,2.41-.94.38.23.52.86.34,2.55-.76,6.89-4,14.45-7.47,18.31-2.35,2.62-4.7,2.83-6.2,1.83-1.67-1.11-2.31-3.78-.93-7.24"/>
  <path class="cls-4" d="M585.54,1424.79c-3.2,4.05-6.04,11.05-6.64,17.52-.16,1.72,0,2.34.39,2.55.39.21,1.01.02,2.37-.98,5.58-4.1,10.52-10.7,12.12-15.62,1.09-3.34.1-5.49-1.52-6.29-1.8-.89-4.42-.11-6.73,2.81"/>
  <path class="cls-4" d="M559.19,1451.15c4.05-3.2,11.05-6.04,17.52-6.64,1.72-.16,2.34,0,2.55.39.21.39.02,1.01-.98,2.38-4.1,5.58-10.69,10.51-15.62,12.12-3.34,1.09-5.48.1-6.29-1.52-.89-1.8-.11-4.42,2.81-6.73"/>
  <path class="cls-4" d="M594.7,1430.64c-4.8,1.91-10.76,6.54-14.51,11.85-1,1.41-1.16,2.03-.93,2.41.23.38.86.53,2.55.34,6.89-.76,14.45-4,18.31-7.47,2.62-2.35,2.83-4.7,1.83-6.2-1.11-1.67-3.78-2.31-7.24-.93"/>
  <path class="cls-4" d="M558.71,1440.28c5.11-.74,12.59.29,18.49,3.01,1.57.72,2.02,1.17,2.01,1.62,0,.44-.48.88-2.04,1.57-6.34,2.78-14.52,3.76-19.59,2.69-3.44-.73-4.8-2.66-4.68-4.46.13-2.01,2.12-3.89,5.8-4.42"/>
  <path class="cls-4" d="M599.72,1440.28c-5.11-.74-12.59.29-18.49,3.01-1.57.72-2.02,1.17-2.01,1.62,0,.44.48.88,2.04,1.57,6.34,2.78,14.52,3.76,19.59,2.69,3.44-.73,4.8-2.66,4.68-4.46-.13-2.01-2.12-3.89-5.8-4.42"/>
  <path class="cls-4" d="M563.72,1430.64c4.8,1.91,10.76,6.55,14.51,11.85,1,1.42,1.16,2.03.94,2.41-.23.38-.86.52-2.55.34-6.89-.76-14.45-4-18.31-7.47-2.62-2.35-2.83-4.7-1.83-6.2,1.11-1.67,3.78-2.31,7.24-.93"/>
  <path class="cls-4" d="M599.24,1451.15c-4.05-3.2-11.05-6.04-17.52-6.64-1.72-.16-2.34,0-2.55.39-.21.39-.02,1.01.98,2.38,4.1,5.58,10.69,10.51,15.62,12.12,3.34,1.09,5.48.1,6.29-1.52.89-1.8.11-4.42-2.81-6.73"/>
  <path class="cls-4" d="M572.89,1424.79c3.2,4.05,6.04,11.05,6.64,17.52.16,1.72,0,2.34-.39,2.55-.39.21-1.01.02-2.37-.98-5.58-4.1-10.52-10.7-12.12-15.62-1.09-3.34-.1-5.49,1.52-6.29,1.8-.89,4.42-.11,6.73,2.81"/>
  <path class="cls-4" d="M593.39,1460.31c-1.91-4.8-6.55-10.76-11.85-14.51-1.41-1-2.03-1.16-2.41-.94-.38.23-.52.86-.34,2.55.76,6.88,4,14.45,7.47,18.31,2.35,2.62,4.7,2.83,6.2,1.83,1.67-1.11,2.31-3.78.93-7.24"/>
  <path class="cls-5" d="M579.21,1433.78c6.1,0,11.04,4.94,11.04,11.04s-4.94,11.04-11.04,11.04-11.04-4.94-11.04-11.04,4.94-11.04,11.04-11.04"/>
  <path class="cls-14" d="M578.8,1437.19c.22-.02.44-.03.66-.03,4.08,0,7.39,3.31,7.39,7.39"/>
  <path class="cls-14" d="M578.27,1448.66c-.09,0-.18.01-.26.01-1.65,0-2.98-1.33-2.98-2.98"/>
  <path class="cls-10" d="M560.94,1486.96c-6.63,0-8.34-5.96-8.02-10.04.56,1.23,1.36,1.8,3.67,1.88l7.5.07c3.42.03,5.48.03,8.51,1.98,5.53,3.57,5.99,9.24,6.08,13.73v.67s.02.72.02.72c-.04.26-.36.27-.5.01l-.04-.08c-1.77-4.31-5.52-8.98-11.73-8.97h-5.48Z"/>
  <path class="cls-9" d="M578.66,1495.69c-.6-6.53-5.43-13.12-12.23-13.11h-5.93c-6.19.5-7.79-3.89-7.57-5.84.58,1.29,1.64,1.73,3.55,2.06l7.62.07c3.42.03,5.48.03,8.51,1.98,4.36,2.82,5.99,7.28,6.05,12.98,0,.59.05,1.24.02,1.86"/>
  <path class="cls-10" d="M597.93,1504.14c7.19,0,9.04-6.46,8.69-10.88-.61,1.33-1.48,1.94-3.97,2.04l-8.13.08c-3.71.03-5.94.03-9.22,2.15-6,3.87-6.5,10.02-6.59,14.88v.73s-.02.78-.02.78c.05.28.39.29.54.01l.05-.09c1.92-4.67,5.99-9.73,12.71-9.72h5.94Z"/>
  <path class="cls-9" d="M578.72,1513.6c.65-7.08,5.89-14.22,13.26-14.21h6.43c6.71.54,8.44-4.22,8.21-6.33-.63,1.4-1.78,1.88-3.84,2.23l-8.26.08c-3.71.03-5.94.03-9.22,2.15-4.73,3.05-6.49,7.89-6.55,14.07,0,.64-.05,1.35-.02,2.01"/>
  <path class="cls-10" d="M556.84,1522.77c-8.16,0-10.27-7.34-9.87-12.36.69,1.51,1.68,2.21,4.51,2.31l9.23.09c4.21.03,6.74.03,10.47,2.44,6.81,4.4,7.38,11.38,7.48,16.91v.83s.02.89.02.89c-.05.32-.45.33-.61.01l-.05-.1c-2.18-5.31-6.8-11.06-14.44-11.04l-6.75.02Z"/>
  <path class="cls-9" d="M578.65,1533.52c-.74-8.04-6.69-16.16-15.06-16.14l-7.3.02c-7.63.6-9.59-4.81-9.32-7.21.72,1.58,2.02,2.13,4.37,2.53l9.38.09c4.21.03,6.74.03,10.47,2.44,5.37,3.47,7.37,8.97,7.44,15.98,0,.73.06,1.53.03,2.29"/>
  <path class="cls-1" d="M656.74,1747.21h0c.38,0,.69,1.42.69,3.16l-.17,139.04h-1.39l.17-139.04c0-1.74.32-3.16.7-3.16"/>
  <path class="cls-4" d="M653.06,1758.91c-.56-3.83.22-9.45,2.26-13.88.54-1.18.88-1.52,1.21-1.51.33,0,.66.36,1.17,1.53,2.09,4.76,2.82,10.9,2.02,14.7-.55,2.58-1.99,3.6-3.35,3.52-1.51-.1-2.92-1.59-3.32-4.35"/>
  <path class="cls-4" d="M653.06,1728.13c-.56,3.83.22,9.45,2.26,13.88.54,1.18.88,1.52,1.21,1.51.33,0,.66-.36,1.17-1.53,2.09-4.76,2.82-10.9,2.02-14.7-.55-2.58-1.99-3.6-3.35-3.52-1.51.1-2.92,1.59-3.32,4.35"/>
  <path class="cls-4" d="M645.83,1755.15c1.43-3.6,4.91-8.07,8.9-10.89,1.06-.75,1.52-.87,1.81-.7.29.17.39.64.25,1.91-.57,5.17-3,10.85-5.6,13.74-1.76,1.96-3.53,2.12-4.66,1.37-1.26-.84-1.73-2.83-.7-5.43"/>
  <path class="cls-4" d="M661.21,1728.49c-2.4,3.04-4.54,8.29-4.98,13.15-.12,1.29,0,1.75.3,1.91.29.16.75.02,1.78-.74,4.19-3.08,7.89-8.03,9.1-11.72.82-2.51.07-4.12-1.14-4.72-1.35-.67-3.32-.08-5.05,2.11"/>
  <path class="cls-4" d="M641.44,1748.27c3.04-2.4,8.29-4.54,13.15-4.98,1.29-.12,1.76,0,1.92.29.16.29.02.75-.74,1.78-3.08,4.19-8.03,7.89-11.72,9.1-2.51.82-4.12.07-4.72-1.14-.67-1.35-.08-3.32,2.11-5.05"/>
  <path class="cls-4" d="M668.09,1732.88c-3.6,1.43-8.07,4.91-10.89,8.89-.75,1.06-.87,1.52-.7,1.81.17.29.64.39,1.91.25,5.17-.57,10.85-3,13.74-5.6,1.96-1.76,2.12-3.53,1.37-4.66-.84-1.26-2.83-1.73-5.43-.7"/>
  <path class="cls-4" d="M641.08,1740.12c3.83-.56,9.45.22,13.88,2.26,1.18.54,1.52.88,1.51,1.21s-.36.66-1.53,1.17c-4.76,2.09-10.9,2.82-14.7,2.02-2.58-.55-3.6-1.99-3.52-3.35.1-1.51,1.59-2.92,4.35-3.32"/>
  <path class="cls-4" d="M671.86,1740.12c-3.83-.56-9.45.22-13.88,2.26-1.18.54-1.52.88-1.51,1.21s.36.66,1.53,1.17c4.76,2.09,10.9,2.82,14.7,2.02,2.58-.55,3.6-1.99,3.52-3.35-.1-1.51-1.59-2.92-4.35-3.32"/>
  <path class="cls-4" d="M644.84,1732.88c3.6,1.43,8.07,4.91,10.89,8.9.75,1.06.87,1.52.7,1.81-.17.29-.64.39-1.91.25-5.17-.57-10.85-3-13.74-5.6-1.96-1.76-2.12-3.53-1.37-4.66.84-1.26,2.83-1.73,5.43-.7"/>
  <path class="cls-4" d="M671.5,1748.27c-3.04-2.4-8.29-4.54-13.15-4.98-1.29-.12-1.75,0-1.92.29-.16.29-.02.75.74,1.78,3.08,4.19,8.03,7.89,11.72,9.1,2.51.82,4.12.07,4.72-1.14.67-1.35.08-3.32-2.11-5.05"/>
  <path class="cls-4" d="M651.72,1728.49c2.4,3.04,4.54,8.29,4.98,13.15.12,1.29,0,1.75-.29,1.91-.29.16-.75.02-1.78-.74-4.19-3.08-7.89-8.03-9.1-11.72-.82-2.51-.07-4.12,1.14-4.72,1.35-.67,3.32-.08,5.05,2.11"/>
  <path class="cls-4" d="M667.11,1755.15c-1.43-3.6-4.91-8.07-8.9-10.89-1.06-.75-1.52-.87-1.81-.7-.29.17-.39.64-.25,1.91.57,5.17,3,10.85,5.6,13.74,1.76,1.96,3.53,2.12,4.66,1.37,1.26-.84,1.73-2.83.7-5.43"/>
  <path class="cls-5" d="M656.47,1735.24c4.57,0,8.28,3.71,8.28,8.28s-3.71,8.28-8.28,8.28-8.28-3.71-8.28-8.28,3.71-8.28,8.28-8.28"/>
  <path class="cls-14" d="M656.16,1737.8c.16-.01.33-.02.49-.02,3.06,0,5.55,2.48,5.55,5.55"/>
  <path class="cls-14" d="M655.76,1746.41c-.07,0-.13,0-.2,0-1.24,0-2.24-1-2.24-2.24"/>
  <path class="cls-10" d="M642.76,1775.15c-4.98,0-6.26-4.47-6.02-7.53.42.92,1.02,1.35,2.75,1.41l5.62.05c2.57.02,4.11.02,6.38,1.49,4.15,2.68,4.5,6.93,4.56,10.31v.51s.01.54.01.54c-.03.2-.27.2-.37,0l-.03-.06c-1.33-3.24-4.14-6.74-8.8-6.73h-4.11Z"/>
  <path class="cls-9" d="M656.05,1781.7c-.45-4.9-4.08-9.85-9.18-9.84h-4.45c-4.65.37-5.84-2.92-5.68-4.38.44.97,1.23,1.3,2.66,1.55l5.72.05c2.57.02,4.11.02,6.38,1.49,3.28,2.11,4.49,5.47,4.54,9.74,0,.44.04.93.02,1.39"/>
  <path class="cls-10" d="M670.51,1788.04c5.39,0,6.78-4.85,6.52-8.16-.46,1-1.11,1.46-2.98,1.53l-6.1.06c-2.78.02-4.45.02-6.92,1.61-4.5,2.91-4.88,7.52-4.94,11.17v.55s-.02.59-.02.59c.03.21.29.22.4,0l.03-.06c1.44-3.51,4.49-7.31,9.54-7.29h4.46Z"/>
  <path class="cls-9" d="M656.1,1795.14c.49-5.32,4.42-10.67,9.95-10.66h4.82c5.04.4,6.33-3.17,6.16-4.75-.47,1.05-1.34,1.41-2.88,1.67l-6.19.06c-2.78.02-4.45.02-6.92,1.61-3.55,2.29-4.87,5.92-4.92,10.56,0,.48-.04,1.01-.02,1.51"/>
  <path class="cls-10" d="M639.68,1802.02c-6.12,0-7.7-5.5-7.41-9.27.52,1.13,1.26,1.66,3.39,1.74l6.93.07c3.16.02,5.06.02,7.86,1.83,5.11,3.3,5.54,8.54,5.62,12.69v.62s.02.67.02.67c-.04.24-.33.25-.46,0l-.04-.07c-1.63-3.98-5.1-8.3-10.83-8.29h-5.07Z"/>
  <path class="cls-9" d="M656.05,1810.09c-.56-6.04-5.02-12.12-11.3-12.11h-5.48c-5.72.46-7.19-3.6-7-5.4.54,1.19,1.52,1.6,3.28,1.9l7.04.07c3.16.02,5.06.02,7.86,1.83,4.03,2.6,5.53,6.73,5.59,11.99,0,.54.04,1.15.02,1.72"/>
  <path class="cls-1" d="M734.15,1625.88h0c.51,0,.92,1.89.92,4.21l-.32,259.33h-1.85l.32-259.33c0-2.31.42-4.21.93-4.21"/>
  <path class="cls-4" d="M729.25,1641.47c-.74-5.11.29-12.59,3.01-18.49.72-1.57,1.17-2.02,1.62-2.01.45,0,.88.48,1.57,2.04,2.78,6.34,3.76,14.52,2.69,19.59-.73,3.44-2.66,4.8-4.46,4.69-2.01-.13-3.89-2.12-4.42-5.8"/>
  <path class="cls-4" d="M729.25,1600.46c-.74,5.11.29,12.59,3.01,18.49.72,1.57,1.17,2.02,1.62,2.01.45,0,.88-.48,1.57-2.04,2.78-6.34,3.76-14.52,2.69-19.59-.73-3.44-2.66-4.8-4.46-4.68-2.01.13-3.89,2.12-4.42,5.8"/>
  <path class="cls-4" d="M719.6,1636.45c1.91-4.8,6.54-10.76,11.85-14.51,1.41-1,2.03-1.16,2.41-.93.38.23.52.86.34,2.55-.76,6.89-4,14.45-7.47,18.31-2.35,2.62-4.7,2.83-6.2,1.83-1.67-1.11-2.31-3.78-.93-7.24"/>
  <path class="cls-4" d="M740.11,1600.93c-3.2,4.05-6.04,11.05-6.64,17.52-.16,1.72,0,2.34.39,2.55.39.21,1.01.03,2.37-.98,5.58-4.1,10.51-10.69,12.12-15.62,1.09-3.34.1-5.48-1.52-6.29-1.8-.89-4.42-.11-6.73,2.81"/>
  <path class="cls-4" d="M713.76,1627.29c4.05-3.2,11.05-6.04,17.52-6.64,1.72-.16,2.34,0,2.55.39.21.39.02,1-.98,2.37-4.1,5.58-10.69,10.51-15.62,12.12-3.35,1.09-5.48.1-6.29-1.52-.89-1.8-.11-4.42,2.81-6.73"/>
  <path class="cls-4" d="M749.28,1606.78c-4.8,1.91-10.76,6.55-14.51,11.85-1,1.41-1.16,2.03-.94,2.41.23.38.86.53,2.55.34,6.89-.76,14.45-4,18.31-7.47,2.62-2.35,2.83-4.7,1.83-6.2-1.11-1.67-3.78-2.31-7.24-.93"/>
  <path class="cls-4" d="M713.28,1616.42c5.11-.74,12.59.29,18.49,3.01,1.57.72,2.02,1.17,2.01,1.62,0,.44-.48.88-2.04,1.57-6.34,2.78-14.52,3.76-19.59,2.69-3.44-.73-4.8-2.66-4.68-4.46.13-2.01,2.12-3.89,5.8-4.42"/>
  <path class="cls-4" d="M754.29,1616.42c-5.11-.74-12.59.29-18.49,3.01-1.57.72-2.02,1.17-2.01,1.62,0,.44.48.88,2.04,1.57,6.34,2.78,14.52,3.76,19.59,2.69,3.44-.73,4.8-2.66,4.69-4.46-.13-2.01-2.12-3.89-5.8-4.42"/>
  <path class="cls-4" d="M718.29,1606.78c4.8,1.91,10.76,6.55,14.51,11.85,1,1.41,1.16,2.03.94,2.41-.23.38-.86.53-2.55.34-6.89-.76-14.45-4-18.31-7.47-2.62-2.35-2.83-4.7-1.83-6.2,1.11-1.67,3.78-2.31,7.24-.93"/>
  <path class="cls-4" d="M753.81,1627.29c-4.05-3.2-11.05-6.04-17.52-6.64-1.72-.16-2.34,0-2.55.39-.22.39-.03,1.01.98,2.38,4.1,5.58,10.69,10.51,15.62,12.12,3.35,1.09,5.49.1,6.29-1.52.89-1.8.11-4.42-2.81-6.73"/>
  <path class="cls-4" d="M727.46,1600.93c3.2,4.05,6.04,11.05,6.64,17.52.16,1.72,0,2.34-.39,2.55-.39.21-1.01.02-2.37-.98-5.58-4.1-10.51-10.69-12.12-15.62-1.09-3.34-.1-5.48,1.52-6.29,1.8-.89,4.42-.11,6.73,2.81"/>
  <path class="cls-4" d="M747.97,1636.45c-1.91-4.8-6.55-10.76-11.85-14.51-1.41-1-2.03-1.16-2.41-.93-.38.23-.52.86-.34,2.55.76,6.89,4,14.45,7.47,18.31,2.35,2.62,4.7,2.83,6.2,1.83,1.67-1.11,2.31-3.78.93-7.24"/>
  <path class="cls-5" d="M733.79,1609.92c6.1,0,11.04,4.94,11.04,11.04s-4.94,11.04-11.04,11.04-11.04-4.94-11.04-11.04,4.94-11.04,11.04-11.04"/>
  <path class="cls-14" d="M733.37,1613.33c.22-.02.44-.03.66-.03,4.08,0,7.39,3.31,7.39,7.39"/>
  <path class="cls-14" d="M732.84,1624.8c-.09,0-.18.01-.26.01-1.65,0-2.98-1.34-2.98-2.98"/>
  <path class="cls-10" d="M715.51,1663.1c-6.63,0-8.34-5.96-8.02-10.04.56,1.23,1.36,1.79,3.67,1.88l7.5.07c3.42.02,5.48.02,8.51,1.98,5.53,3.57,5.99,9.24,6.08,13.73v.67s.02.72.02.72c-.04.26-.36.27-.5.01l-.04-.08c-1.77-4.31-5.52-8.98-11.72-8.97h-5.48Z"/>
  <path class="cls-9" d="M733.23,1671.83c-.6-6.54-5.43-13.12-12.23-13.11h-5.93c-6.19.5-7.79-3.89-7.57-5.84.58,1.29,1.64,1.73,3.54,2.06l7.62.07c3.42.02,5.48.02,8.51,1.98,4.36,2.82,5.99,7.28,6.05,12.98,0,.59.05,1.24.02,1.86"/>
  <path class="cls-10" d="M752.5,1680.28c7.19,0,9.04-6.46,8.69-10.88-.61,1.33-1.48,1.94-3.97,2.04l-8.12.08c-3.71.03-5.94.03-9.22,2.15-6,3.87-6.5,10.02-6.59,14.89v.73s-.02.78-.02.78c.05.28.39.29.54.01l.05-.09c1.92-4.67,5.99-9.74,12.71-9.72h5.94Z"/>
  <path class="cls-9" d="M733.29,1689.74c.65-7.08,5.89-14.22,13.26-14.21h6.43c6.71.54,8.44-4.22,8.21-6.33-.63,1.4-1.78,1.88-3.84,2.23l-8.25.08c-3.71.03-5.94.03-9.22,2.15-4.73,3.05-6.49,7.89-6.55,14.07,0,.64-.05,1.35-.02,2.01"/>
  <path class="cls-10" d="M711.41,1698.91c-8.16,0-10.27-7.34-9.87-12.36.69,1.51,1.68,2.21,4.51,2.31l9.23.09c4.21.03,6.74.03,10.47,2.44,6.81,4.4,7.38,11.38,7.48,16.91v.83s.02.89.02.89c-.05.32-.45.33-.61.01l-.05-.1c-2.18-5.31-6.8-11.06-14.44-11.04l-6.75.02Z"/>
  <path class="cls-9" d="M733.22,1709.66c-.74-8.04-6.69-16.16-15.06-16.14h-7.3c-7.63.61-9.59-4.79-9.32-7.19.71,1.59,2.02,2.13,4.37,2.54l9.38.09c4.21.03,6.74.03,10.47,2.44,5.37,3.47,7.37,8.97,7.44,15.98,0,.73.06,1.53.03,2.29"/>
  <path class="cls-1" d="M286.56,1698.27h0c.43,0,.78,1.61.78,3.58l-.23,187.56h-1.57l.23-187.56c0-1.97.36-3.58.79-3.58"/>
  <path class="cls-4" d="M282.39,1711.54c-.63-4.35.25-10.71,2.56-15.74.62-1.34,1-1.72,1.38-1.71.38,0,.75.41,1.33,1.73,2.37,5.4,3.2,12.36,2.29,16.67-.62,2.93-2.26,4.09-3.79,3.99-1.71-.11-3.31-1.8-3.76-4.94"/>
  <path class="cls-4" d="M282.39,1676.64c-.63,4.35.25,10.71,2.56,15.74.62,1.34,1,1.72,1.38,1.71.38,0,.75-.41,1.33-1.73,2.37-5.4,3.2-12.36,2.29-16.67-.62-2.93-2.26-4.08-3.79-3.99-1.71.11-3.31,1.8-3.76,4.94"/>
  <path class="cls-4" d="M274.18,1707.27c1.63-4.08,5.57-9.16,10.09-12.35,1.2-.85,1.73-.99,2.05-.8.32.2.45.73.29,2.17-.65,5.86-3.41,12.3-6.35,15.58-2,2.23-4,2.41-5.28,1.56-1.42-.95-1.96-3.21-.79-6.16"/>
  <path class="cls-4" d="M291.63,1677.04c-2.72,3.45-5.14,9.4-5.65,14.91-.13,1.47,0,1.99.33,2.17.33.18.86.02,2.02-.83,4.75-3.49,8.95-9.1,10.32-13.29.93-2.85.08-4.67-1.29-5.35-1.53-.76-3.77-.09-5.73,2.39"/>
  <path class="cls-4" d="M269.2,1699.47c3.45-2.72,9.4-5.14,14.91-5.65,1.47-.13,1.99,0,2.17.33.18.33.02.86-.83,2.02-3.49,4.75-9.1,8.95-13.29,10.32-2.85.93-4.67.08-5.35-1.29-.76-1.53-.09-3.76,2.4-5.73"/>
  <path class="cls-4" d="M299.43,1682.02c-4.08,1.63-9.16,5.57-12.35,10.09-.85,1.2-.99,1.73-.8,2.05.2.32.73.45,2.17.29,5.86-.65,12.3-3.41,15.58-6.35,2.23-2,2.41-4,1.56-5.28-.95-1.42-3.21-1.96-6.16-.79"/>
  <path class="cls-4" d="M268.8,1690.23c4.35-.63,10.71.25,15.74,2.56,1.34.62,1.72,1,1.71,1.38,0,.38-.41.75-1.73,1.33-5.4,2.37-12.36,3.2-16.67,2.29-2.93-.62-4.08-2.26-3.99-3.8.11-1.71,1.8-3.31,4.94-3.76"/>
  <path class="cls-4" d="M303.7,1690.23c-4.35-.63-10.71.25-15.74,2.56-1.34.62-1.72,1-1.71,1.38,0,.38.41.75,1.73,1.33,5.4,2.37,12.36,3.2,16.67,2.29,2.93-.62,4.08-2.26,3.99-3.8-.11-1.71-1.8-3.31-4.94-3.76"/>
  <path class="cls-4" d="M273.06,1682.02c4.08,1.63,9.16,5.57,12.35,10.09.85,1.2.99,1.73.8,2.05-.2.32-.73.45-2.17.29-5.86-.65-12.3-3.41-15.58-6.35-2.23-2-2.41-4-1.56-5.28.95-1.42,3.21-1.96,6.16-.79"/>
  <path class="cls-4" d="M303.29,1699.47c-3.45-2.72-9.4-5.14-14.91-5.65-1.47-.13-1.99,0-2.17.33-.18.33-.02.86.83,2.02,3.49,4.75,9.1,8.95,13.29,10.32,2.85.93,4.67.08,5.35-1.29.76-1.53.09-3.76-2.4-5.73"/>
  <path class="cls-4" d="M280.87,1677.04c2.72,3.45,5.14,9.4,5.65,14.91.14,1.47,0,1.99-.34,2.17-.33.18-.86.02-2.02-.83-4.75-3.49-8.95-9.1-10.32-13.29-.93-2.85-.08-4.67,1.29-5.35,1.53-.76,3.77-.09,5.73,2.39"/>
  <path class="cls-4" d="M298.32,1707.27c-1.63-4.08-5.57-9.16-10.09-12.35-1.2-.85-1.73-.99-2.05-.8-.32.2-.45.73-.29,2.17.65,5.86,3.41,12.3,6.35,15.58,2,2.23,4,2.41,5.28,1.56,1.42-.95,1.96-3.21.79-6.16"/>
  <path class="cls-5" d="M286.25,1684.69c5.19,0,9.39,4.21,9.39,9.39s-4.21,9.39-9.39,9.39-9.39-4.21-9.39-9.39,4.21-9.39,9.39-9.39"/>
  <path class="cls-14" d="M285.9,1687.59c.19-.02.37-.03.56-.03,3.48,0,6.29,2.82,6.29,6.29"/>
  <path class="cls-14" d="M285.44,1697.36c-.07,0-.15.01-.23.01-1.4,0-2.54-1.14-2.54-2.54"/>
  <path class="cls-10" d="M270.7,1729.96c-5.64,0-7.1-5.07-6.82-8.54.48,1.04,1.16,1.53,3.12,1.6l6.38.06c2.91.02,4.66.02,7.24,1.69,4.71,3.04,5.1,7.86,5.17,11.69v.57s.02.61.02.61c-.04.22-.31.23-.42,0l-.04-.07c-1.51-3.67-4.7-7.64-9.98-7.63h-4.67Z"/>
  <path class="cls-9" d="M285.78,1737.39c-.51-5.56-4.62-11.17-10.41-11.16h-5.05c-5.27.42-6.63-3.31-6.44-4.97.49,1.1,1.4,1.47,3.02,1.75l6.48.06c2.91.02,4.66.02,7.24,1.69,3.71,2.4,5.09,6.2,5.15,11.05,0,.5.04,1.06.02,1.58"/>
  <path class="cls-10" d="M302.18,1744.57c6.12,0,7.69-5.5,7.4-9.26-.52,1.13-1.26,1.66-3.38,1.73l-6.92.07c-3.16.02-5.05.02-7.85,1.83-5.1,3.29-5.53,8.52-5.61,12.67v.62s-.02.67-.02.67c.04.24.33.25.46.01l.04-.07c1.63-3.98,5.09-8.29,10.82-8.27h5.06Z"/>
  <path class="cls-9" d="M285.83,1752.63c.56-6.03,5.01-12.11,11.29-12.09h5.47c5.71.46,7.18-3.59,6.98-5.39-.54,1.19-1.51,1.6-3.27,1.9l-7.03.07c-3.16.02-5.05.02-7.85,1.83-4.03,2.6-5.52,6.72-5.58,11.97,0,.54-.04,1.15-.02,1.71"/>
  <path class="cls-10" d="M267.21,1760.43c-6.95,0-8.74-6.24-8.4-10.52.59,1.29,1.43,1.88,3.84,1.97l7.86.08c3.59.03,5.74.03,8.91,2.08,5.8,3.74,6.28,9.68,6.37,14.39v.71s.02.76.02.76c-.04.27-.38.28-.52.01l-.04-.08c-1.85-4.52-5.79-9.41-12.29-9.4h-5.75Z"/>
  <path class="cls-9" d="M285.77,1769.58c-.63-6.85-5.69-13.75-12.82-13.74h-6.21c-6.49.52-8.16-4.08-7.93-6.12.61,1.35,1.72,1.82,3.71,2.16l7.98.08c3.59.03,5.74.03,8.91,2.08,4.57,2.95,6.27,7.63,6.34,13.6,0,.62.05,1.3.02,1.95"/>
  <path class="cls-1" d="M825.01,1491.3h0c.48,0,.88,1.8.87,3.99l-.49,394.12h-1.75l.49-394.12c0-2.2.4-3.99.88-3.99"/>
  <path class="cls-4" d="M820.36,1506.11c-.71-4.85.27-11.96,2.86-17.56.69-1.49,1.11-1.92,1.54-1.91.42,0,.84.46,1.49,1.94,2.64,6.02,3.57,13.79,2.55,18.6-.69,3.27-2.52,4.56-4.23,4.45-1.91-.12-3.69-2.01-4.2-5.51"/>
  <path class="cls-4" d="M820.36,1467.16c-.71,4.85.27,11.96,2.86,17.56.69,1.49,1.11,1.92,1.54,1.91.42,0,.84-.46,1.49-1.93,2.64-6.02,3.57-13.79,2.55-18.6-.69-3.27-2.52-4.56-4.23-4.45-1.91.12-3.69,2.01-4.2,5.51"/>
  <path class="cls-4" d="M811.2,1501.34c1.81-4.56,6.22-10.22,11.26-13.78,1.34-.95,1.93-1.11,2.29-.89.36.22.5.82.32,2.42-.72,6.54-3.8,13.72-7.09,17.38-2.23,2.49-4.46,2.69-5.89,1.74-1.59-1.06-2.19-3.59-.88-6.87"/>
  <path class="cls-4" d="M830.67,1467.61c-3.04,3.85-5.74,10.49-6.31,16.64-.15,1.64,0,2.22.37,2.42.37.21.95.02,2.26-.93,5.3-3.89,9.98-10.16,11.51-14.83,1.04-3.18.09-5.21-1.44-5.97-1.71-.85-4.2-.1-6.39,2.67"/>
  <path class="cls-4" d="M805.64,1492.64c3.85-3.04,10.49-5.74,16.64-6.3,1.64-.15,2.22,0,2.42.37.2.37.02.96-.93,2.25-3.9,5.3-10.16,9.99-14.83,11.51-3.18,1.04-5.21.09-5.97-1.44-.85-1.71-.1-4.2,2.67-6.39"/>
  <path class="cls-4" d="M839.37,1473.16c-4.56,1.81-10.22,6.22-13.78,11.26-.95,1.34-1.1,1.93-.89,2.29.22.36.82.5,2.42.32,6.54-.72,13.73-3.8,17.38-7.09,2.49-2.23,2.68-4.46,1.74-5.89-1.06-1.59-3.59-2.19-6.87-.88"/>
  <path class="cls-4" d="M805.19,1482.32c4.85-.71,11.96.28,17.56,2.86,1.49.69,1.92,1.12,1.91,1.54,0,.42-.46.84-1.93,1.49-6.02,2.64-13.79,3.57-18.6,2.55-3.27-.69-4.56-2.52-4.45-4.23.12-1.91,2.01-3.69,5.51-4.2"/>
  <path class="cls-4" d="M844.14,1482.32c-4.85-.71-11.96.28-17.56,2.86-1.49.69-1.92,1.12-1.91,1.54s.46.84,1.93,1.49c6.02,2.64,13.79,3.57,18.6,2.55,3.27-.69,4.56-2.52,4.45-4.23-.12-1.91-2.01-3.69-5.51-4.2"/>
  <path class="cls-4" d="M809.95,1473.16c4.56,1.81,10.22,6.21,13.78,11.26.95,1.34,1.11,1.93.89,2.29-.22.36-.82.5-2.42.32-6.54-.72-13.73-3.8-17.39-7.09-2.49-2.23-2.69-4.46-1.74-5.89,1.06-1.59,3.59-2.19,6.87-.88"/>
  <path class="cls-4" d="M843.68,1492.64c-3.85-3.04-10.49-5.74-16.64-6.3-1.64-.15-2.22,0-2.42.37-.2.37-.02.96.93,2.25,3.89,5.3,10.16,9.99,14.83,11.51,3.18,1.04,5.21.09,5.97-1.44.85-1.71.1-4.2-2.67-6.39"/>
  <path class="cls-4" d="M818.66,1467.61c3.04,3.85,5.74,10.49,6.3,16.64.15,1.64,0,2.22-.37,2.42-.37.2-.96.02-2.25-.93-5.3-3.89-9.99-10.16-11.51-14.83-1.04-3.18-.09-5.21,1.44-5.97,1.71-.85,4.2-.1,6.39,2.67"/>
  <path class="cls-4" d="M838.13,1501.34c-1.82-4.56-6.22-10.22-11.26-13.78-1.34-.95-1.93-1.11-2.29-.89-.36.22-.5.82-.32,2.42.72,6.54,3.8,13.73,7.09,17.39,2.23,2.49,4.46,2.69,5.89,1.73,1.59-1.06,2.19-3.59.88-6.87"/>
  <path class="cls-5" d="M824.66,1476.15c5.79,0,10.48,4.69,10.48,10.48s-4.69,10.48-10.48,10.48-10.48-4.69-10.48-10.48,4.69-10.48,10.48-10.48"/>
  <path class="cls-14" d="M824.27,1479.39c.21-.02.42-.03.62-.03,3.88,0,7.02,3.14,7.02,7.02"/>
  <path class="cls-14" d="M823.76,1490.28c-.08,0-.17.01-.25.01-1.56,0-2.83-1.27-2.83-2.83"/>
  <path class="cls-10" d="M807.31,1526.65c-6.3,0-7.92-5.66-7.61-9.53.53,1.17,1.29,1.7,3.48,1.79l7.12.07c3.25.02,5.2.02,8.08,1.88,5.25,3.39,5.69,8.78,5.77,13.04v.64s.02.69.02.69c-.04.25-.34.25-.47.01l-.04-.08c-1.68-4.1-5.24-8.53-11.14-8.52h-5.21Z"/>
  <path class="cls-9" d="M824.14,1534.94c-.57-6.21-5.16-12.46-11.62-12.45h-5.63c-5.88.47-7.39-3.7-7.19-5.55.55,1.22,1.56,1.65,3.37,1.96l7.23.07c3.25.02,5.2.02,8.08,1.88,4.14,2.67,5.68,6.92,5.74,12.33,0,.56.04,1.18.02,1.76"/>
  <path class="cls-10" d="M842.43,1542.96c6.82,0,8.58-6.13,8.25-10.33-.58,1.26-1.4,1.85-3.77,1.93l-7.72.07c-3.52.03-5.64.03-8.75,2.04-5.7,3.68-6.17,9.51-6.26,14.13v.69s-.02.74-.02.74c.04.27.37.28.51.01l.04-.08c1.82-4.44,5.68-9.24,12.07-9.23h5.64Z"/>
  <path class="cls-9" d="M824.2,1551.95c.62-6.73,5.59-13.51,12.59-13.49h6.1c6.38.51,8.02-4.01,7.79-6.01-.6,1.33-1.69,1.78-3.65,2.12l-7.84.08c-3.52.03-5.64.03-8.75,2.04-4.49,2.9-6.16,7.5-6.22,13.36,0,.61-.05,1.28-.02,1.91"/>
  <path class="cls-10" d="M803.41,1560.66c-7.75,0-9.75-6.97-9.37-11.74.66,1.44,1.59,2.1,4.29,2.2l8.76.08c4,.03,6.4.03,9.95,2.32,6.47,4.18,7.01,10.8,7.11,16.06v.79s.02.84.02.84c-.05.31-.42.31-.58.01l-.05-.09c-2.07-5.04-6.46-10.5-13.71-10.49l-6.41.02Z"/>
  <path class="cls-9" d="M824.13,1570.86c-.7-7.64-6.35-15.34-14.3-15.33l-6.93.02c-7.24.57-9.1-4.57-8.85-6.84.68,1.5,1.92,2.03,4.15,2.41l8.91.09c4,.03,6.4.03,9.95,2.32,5.1,3.29,7,8.52,7.07,15.17,0,.69.05,1.45.02,2.17"/>
  <path class="cls-1" d="M908.08,1559.4h0c.41,0,.75,1.53.74,3.41l-.4,326.61h-1.49l.4-326.61c0-1.87.34-3.41.75-3.41"/>
  <path class="cls-4" d="M904.11,1572.02c-.6-4.14.23-10.19,2.44-14.97.59-1.27.95-1.64,1.31-1.63.36,0,.71.39,1.27,1.65,2.25,5.14,3.04,11.75,2.18,15.86-.59,2.79-2.15,3.89-3.61,3.79-1.62-.1-3.15-1.71-3.58-4.7"/>
  <path class="cls-4" d="M904.11,1538.82c-.6,4.14.23,10.19,2.44,14.97.59,1.27.95,1.64,1.31,1.63.36,0,.71-.39,1.27-1.65,2.25-5.13,3.04-11.75,2.18-15.86-.59-2.79-2.15-3.89-3.61-3.79-1.62.1-3.15,1.71-3.58,4.7"/>
  <path class="cls-4" d="M896.3,1567.96c1.55-3.88,5.3-8.71,9.6-11.75,1.14-.81,1.64-.94,1.95-.76.31.19.42.7.27,2.06-.62,5.57-3.24,11.7-6.04,14.82-1.9,2.12-3.81,2.29-5.02,1.48-1.35-.9-1.87-3.06-.75-5.86"/>
  <path class="cls-4" d="M912.9,1539.21c-2.59,3.28-4.89,8.94-5.38,14.18-.13,1.4,0,1.89.32,2.07.32.17.81.02,1.92-.79,4.52-3.32,8.51-8.66,9.81-12.64.88-2.71.08-4.44-1.23-5.09-1.46-.72-3.58-.09-5.45,2.28"/>
  <path class="cls-4" d="M891.57,1560.54c3.28-2.59,8.94-4.89,14.18-5.37,1.4-.13,1.89,0,2.07.32.17.32.02.81-.79,1.92-3.32,4.52-8.66,8.51-12.64,9.81-2.71.88-4.44.08-5.09-1.23-.72-1.46-.09-3.58,2.28-5.45"/>
  <path class="cls-4" d="M920.33,1543.94c-3.88,1.55-8.71,5.3-11.75,9.6-.81,1.14-.94,1.64-.76,1.95.19.31.7.42,2.06.27,5.57-.62,11.7-3.24,14.82-6.04,2.12-1.9,2.29-3.81,1.48-5.02-.9-1.36-3.06-1.87-5.86-.75"/>
  <path class="cls-4" d="M891.18,1551.75c4.14-.6,10.19.23,14.97,2.44,1.27.59,1.64.95,1.63,1.31,0,.36-.39.71-1.65,1.27-5.14,2.25-11.75,3.04-15.86,2.18-2.79-.59-3.89-2.15-3.79-3.61.1-1.62,1.71-3.15,4.7-3.58"/>
  <path class="cls-4" d="M924.39,1551.75c-4.14-.6-10.19.23-14.97,2.44-1.27.59-1.64.95-1.63,1.31s.39.71,1.65,1.27c5.14,2.25,11.75,3.04,15.86,2.18,2.79-.59,3.89-2.15,3.79-3.61-.1-1.62-1.71-3.15-4.7-3.58"/>
  <path class="cls-4" d="M895.24,1543.94c3.88,1.55,8.71,5.3,11.75,9.6.81,1.14.94,1.64.76,1.95-.19.31-.7.42-2.06.27-5.57-.62-11.7-3.24-14.82-6.04-2.12-1.9-2.29-3.81-1.48-5.02.9-1.35,3.06-1.87,5.86-.75"/>
  <path class="cls-4" d="M924,1560.54c-3.28-2.59-8.94-4.89-14.18-5.37-1.4-.13-1.89,0-2.07.32-.17.32-.02.81.79,1.92,3.32,4.52,8.66,8.51,12.64,9.81,2.71.88,4.44.08,5.09-1.23.72-1.46.09-3.58-2.28-5.45"/>
  <path class="cls-4" d="M902.66,1539.21c2.59,3.28,4.89,8.95,5.38,14.18.13,1.4,0,1.89-.32,2.07-.32.17-.81.02-1.92-.79-4.52-3.32-8.51-8.66-9.81-12.64-.88-2.71-.08-4.44,1.23-5.09,1.46-.72,3.58-.09,5.45,2.28"/>
  <path class="cls-4" d="M919.26,1567.96c-1.55-3.88-5.3-8.71-9.6-11.75-1.14-.81-1.64-.94-1.95-.76-.31.19-.42.69-.27,2.06.62,5.57,3.24,11.7,6.04,14.82,1.9,2.12,3.81,2.29,5.02,1.48,1.35-.9,1.87-3.06.75-5.86"/>
  <path class="cls-5" d="M907.78,1546.49c4.93,0,8.94,4,8.94,8.94s-4,8.94-8.94,8.94-8.94-4-8.94-8.94,4-8.94,8.94-8.94"/>
  <path class="cls-14" d="M907.45,1549.24c.18-.02.35-.02.53-.02,3.31,0,5.99,2.68,5.99,5.99"/>
  <path class="cls-14" d="M907.02,1558.53c-.07,0-.14,0-.21,0-1.33,0-2.41-1.08-2.41-2.42"/>
  <path class="cls-10" d="M892.99,1589.54c-5.37,0-6.75-4.82-6.49-8.13.45.99,1.1,1.45,2.97,1.52l6.07.06c2.77.02,4.43.02,6.89,1.6,4.48,2.89,4.85,7.48,4.92,11.12v.55s.02.58.02.58c-.03.21-.29.22-.4,0l-.03-.06c-1.43-3.49-4.47-7.27-9.49-7.26h-4.44Z"/>
  <path class="cls-9" d="M907.34,1596.61c-.49-5.29-4.4-10.62-9.91-10.61h-4.8c-5.01.4-6.3-3.15-6.13-4.73.47,1.04,1.33,1.4,2.87,1.67l6.17.06c2.77.02,4.43.02,6.89,1.6,3.53,2.28,4.85,5.9,4.89,10.51,0,.48.04,1.01.02,1.5"/>
  <path class="cls-10" d="M922.93,1603.44c5.82,0,7.32-5.23,7.04-8.81-.49,1.08-1.19,1.57-3.22,1.65l-6.58.06c-3,.02-4.81.02-7.46,1.74-4.86,3.13-5.26,8.11-5.33,12.05v.59s-.02.63-.02.63c.04.23.32.23.44,0l.04-.07c1.55-3.78,4.85-7.88,10.29-7.87h4.81Z"/>
  <path class="cls-9" d="M907.39,1611.1c.53-5.73,4.77-11.51,10.74-11.5h5.2c5.44.44,6.83-3.42,6.64-5.13-.51,1.13-1.44,1.52-3.11,1.81l-6.68.06c-3,.02-4.81.02-7.46,1.74-3.83,2.47-5.25,6.39-5.31,11.39,0,.52-.04,1.09-.02,1.63"/>
  <path class="cls-10" d="M889.67,1618.53c-6.61,0-8.31-5.94-7.99-10,.56,1.22,1.36,1.79,3.65,1.87l7.47.07c3.41.02,5.46.02,8.48,1.97,5.51,3.56,5.97,9.21,6.06,13.69v.67s.02.72.02.72c-.04.26-.36.27-.5.01l-.04-.08c-1.76-4.3-5.5-8.95-11.69-8.94h-5.47Z"/>
  <path class="cls-9" d="M907.33,1627.23c-.6-6.51-5.42-13.08-12.2-13.07h-5.91c-6.17.5-7.76-3.88-7.55-5.82.58,1.28,1.64,1.73,3.53,2.05l7.59.07c3.41.02,5.46.02,8.48,1.97,4.35,2.81,5.97,7.26,6.03,12.94,0,.59.05,1.24.02,1.85"/>
  <path class="cls-11" d="M829.69,273.36c4.13,121.95,60.89,217.7,124.2,266.44V12.21c-.82-4-1.71-8.07-2.67-12.21h-121.32l-.21,273.36Z"/>
  <path class="cls-3" d="M898.93,0c2.37,17.48,3.62,34.67,3.61,51.41l-.21,373.09c-3.19,53.84,23.14,93.01,51.55,115.47V12.21c-.82-4-1.71-8.07-2.67-12.21h-52.28Z"/>
  <path class="cls-11" d="M740.11,404.43c2.93,99.95,45.53,177.08,90.9,212.17l-.98-612.9-.02-3.7h-89.8l-.11,404.43Z"/>
  <path class="cls-3" d="M788.77,0l-.12,521.04c-2.43,47.31,20.73,79.94,42.38,95.56l-.98-612.9-.02-3.7h-41.26Z"/>
  <path class="cls-3" d="M341.66,0v816.7c46.24-53.57,86.14-108.53,87.5-301.81V0h-87.5Z"/>
  <path class="cls-11" d="M341.66,0v816.7c-46.24-53.57-86.14-108.53-87.5-301.81V0h87.5Z"/>
  <path class="cls-11" d="M294.79,0l-.42,118.76c-.54,105.9-.54,169.56-42.48,263.34C186.23,528.91,87.53,560.38,0,568.01v-68.63c66.24-64.87,121.33-165.63,121.23-308.22l-.14-191.16h173.69Z"/>
  <path class="cls-3" d="M0,551.4c115.11-49.19,214.9-183.12,214.81-360.24l-.1-191.16h80.08l-.42,118.76c-.54,105.9-.54,169.56-42.48,263.34C195.91,507.28,109.55,559.58,0,568.07v-16.67Z"/>
  <path class="cls-11" d="M188.63,0c-1.02,46.16-5.23,81.17-26.29,128.27C120.07,222.8,55.97,241.16,0,245.33v-39.41C43.43,165.38,80.37,100.91,80.31,8.4V0s108.32,0,108.32,0Z"/>
  <path class="cls-3" d="M0,236.29C74.02,206.92,139.12,121.74,139.06,8.4V0s49.57,0,49.57,0c-1.02,46.16-5.23,81.17-26.29,128.27C126.48,208.45,70.77,241.01,0,245.32v-9.02Z"/>
  <path class="cls-11" d="M506.47,218.13c4.22,130.44,65.64,231.12,131.06,276.91l-1.41-397.87c-.18-36.54-.29-66.35-3.39-97.17h-126.1l-.16,218.13Z"/>
  <path class="cls-3" d="M576.63,0l-.2,370.32c-3.5,61.75,29.88,104.33,61.09,124.72l-1.41-397.87c-.18-36.54-.29-66.35-3.39-97.17h-56.1Z"/>
  <path class="cls-11" d="M420.21,350.11c2.82,100.64,43.85,178.31,87.54,213.64L506.89,0h-86.59l-.09,350.11Z"/>
  <path class="cls-3" d="M467.04,0l-.11,467.53c-2.34,47.64,19.96,80.49,40.81,96.22L506.89,0h-39.84Z"/>
  <path class="cls-2" d="M213.95,0c-16.01,33.26-35.6,59.48-57.35,76.71L0,160.56V0h213.95Z"/>
  <path class="cls-12" d="M88.94,0C63.85,28.82,33.17,50.3,0,68.08V0h88.94Z"/>
  <path class="cls-12" d="M125.75,593.48l48.62,54.36c-35.82,116.02-83.14,97.1-124.89,132.78-41.45,35.42-35.71,66.04-44.65,94.8-.52-90.77-8.02-156.89,66.45-195.53,28.28-14.67,54.47-15.13,54.47-86.41"/>
  <path class="cls-12" d="M270.17,0c-20.25,30.83-46.08,55.71-75.12,72.41L0,153.11V18.7c3.05-1.44,6.1-2.82,9.14-4.15L42.43,0h227.73Z"/>
  <path class="cls-2" d="M361.59,0c-15.71,73.67-57.39,130.96-109.98,158.38L57.35,226.83c-21.56,7.03-42.12,22.77-57.35,46.66V126.04c46.28-37.77,110.6-55.32,157.09-72.83,38.06-12.73,62.51-30.07,78.21-53.2h126.29Z"/>
  <path class="cls-2" d="M396.5,0v12.33c-1.32,114.82-27.97,206.54-63.9,245.43l-106.39,77.83c-19.38,13.12-38.53,30.09-40.1,92.64l-4.97,197.71c-2.07,82.34-54.83,115.74-82.6,125.65-13.36,4.77,20.92-17.45,21.81-73.19l5.27-333.43c2.54-160.74,128.13-186.37,155.22-206.8,37.74-26.21,51.06-69.6,55.71-138.16h59.95Z"/>
  <path class="cls-12" d="M330.52,0c5.81,237.23-116.72,257.05-206.73,315.3-86.5,55.98-75.37,141.91-85.31,184.76-.97-145.31-14.96-250.01,123.89-323.87C301.06,102.43,308.67,56.37,317.42,0h13.1Z"/>
  <path class="cls-12" d="M703.86,161.55l-62.1,58.9c45.74,125.71,106.17,105.2,159.5,143.86,52.94,38.38,45.6,71.55,57.02,102.71.66-98.35,10.25-169.99-84.86-211.85-36.11-15.89-69.56-16.39-69.56-93.62"/>
  <path class="cls-2" d="M905.94,0c2.01,12.15,4.75,24.43,8.66,36.81,9.51,30.04,22.85,53.76,39.28,72.15V0h-47.95Z"/>
  <path class="cls-2" d="M627.3,0l5.83,196.71c2.65,89.21,70.02,125.4,105.48,136.13,17.06,5.16-26.72-18.91-27.85-79.3L706.04,0h-78.74Z"/>
  <path class="cls-12" d="M805.74,0c4.04,23.43,5.25,44.57,9.57,60.33.16-20.88.62-40.98.87-60.33h-10.44Z"/>
  <path class="cls-12" d="M464.67,120.79l-39.37,37.34c29,79.69,67.31,66.69,101.11,91.19,33.56,24.33,28.91,45.36,36.15,65.11.42-62.35,6.5-107.76-53.79-134.29-22.89-10.08-44.1-10.39-44.1-59.35"/>
  <path class="cls-12" d="M653.52,0c16.88,47.9,50.03,71.19,91.35,79.65,20.43,4.18,31.84,6.23,5.03-13.5-22.88-16.84-38.73-36.81-48.18-66.15h-48.21Z"/>
  <path class="cls-2" d="M590.46,0c1.28,13.63,3.33,27.57,7.81,41.71,15.87,50.14,48.58,72.54,89.63,78.52,19.75,2.88,30.78,4.19,4.86-14-26.77-18.79-43.59-42.9-51.52-83.46-1.53-7.84-2.56-15.4-3.26-22.78h-47.52Z"/>
  <path class="cls-2" d="M415.43,0c.17,2.32.3,4.75.37,7.29l4.03,135.79c1.68,56.55,44.38,79.49,66.87,86.3,10.81,3.27-16.94-11.98-17.65-50.27L465.71,0h-50.28Z"/>
  <path class="cls-12" d="M525.08,0c6.44,21.97,6.41,42.64,10.24,56.62.16-19.97.73-38.83.66-56.62h-10.9Z"/>
  <path class="cls-11" d="M632.27,1125.33c14.36,0,26,11.64,26,26s-11.64,26-26,26-26-11.64-26-26,11.64-26,26-26"/>
  <path class="cls-11" d="M216.07,624.82c8.86,0,16.04,7.18,16.04,16.04s-7.18,16.04-16.04,16.04-16.04-7.18-16.04-16.04,7.18-16.04,16.04-16.04"/>
  <path class="cls-11" d="M687.32,374.57c8.86,0,16.04,7.18,16.04,16.04s-7.18,16.04-16.04,16.04-16.04-7.18-16.04-16.04,7.18-16.04,16.04-16.04"/>
</svg>