<?xml version="1.0" encoding="UTF-8"?>
<svg xmlns="http://www.w3.org/2000/svg" version="1.1" viewBox="0 0 512 512">
  <defs>
    <style>
      .cls-1 {
        fill: #ef813e;
      }
    </style>
  </defs>
  <!-- Generator: Adobe Illustrator 28.7.3, SVG Export Plug-In . SVG Version: 1.2.0 Build 164)  -->
  <g>
    <g id="Layer_1">
      <path class="cls-1" d="M399,384.2c-22.1-38.4-63.6-64.2-111-64.2h-64c-47.4,0-88.9,25.8-111,64.2,35.2,39.2,86.2,63.8,143,63.8s107.8-24.7,143-63.8ZM0,256C0,114.6,114.6,0,256,0s256,114.6,256,256-114.6,256-256,256S0,397.4,0,256ZM256,272c39.8,0,72-32.2,72-72s-32.2-72-72-72-72,32.2-72,72,32.2,72,72,72Z"/>
    </g>
  </g>
</svg>