<?xml version="1.0" encoding="UTF-8"?>
<svg id="Layer_1" xmlns="http://www.w3.org/2000/svg" viewBox="0 0 453.49 607.62">
  <defs>
    <style>
      .cls-1 {
        fill: #fff;
        fill-rule: evenodd;
      }
    </style>
  </defs>
  <path class="cls-1" d="M355.44,107.78c.21-.09.43-.16.67-.2,66.22-10.46,82.75,46.09,82.75,46.09.42,1.41-.39,2.89-1.8,3.31-1.41.42-2.89-.39-3.31-1.8,0,0-5.63-18.91-23.55-31.81-9.66-1.34-19.51,12.01-19.51,12.01l-.75-5c-20.79,24.8-41.26,19.78-54.72,12.88-13.46-6.9-17.8-.02-17.8-.02,0,0-2.06-37.08,33.95-52.89,36.01-15.81,57.25,21.42,57.25,21.42-20.77-19-50.68-5.2-53.19-3.98h0ZM355.27,107.86h0,0s0,0,0,0h0Z"/>
  <path class="cls-1" d="M453.49,174.69s-34.99-30.9-68.44,4.38l-1.92-3.58s-11.29,9.3-3.48,36.04c0,0,5.97-23.81,28.68-34.07,0,0-22.71,17.86-24.39,42.08,0,0,11.88-10.33,20.89-3.53l-1.46-5.29s14.6,2.71,26.66-3.54c12.06-6.24,10.06-27.65,23.46-32.48h0Z"/>
  <path class="cls-1" d="M326.67,179.06s2.49,6.27-.67,12.32c-3.16,6.05-4.91,18.21,8.25,28.93,9.09,7.41,11.35,17.25,11.35,17.25,0,0,9.22-22.82-1.66-43.77,0,0,15.65,12.4,9.27,39.7,0,0,19.42-12.78,7.39-35.44-12.03-22.67-33.91-18.99-33.91-18.99h0Z"/>
  <path class="cls-1" d="M394.34,283c-.81,6.18,4.64,12.26,13.31,13.62l-121.67,266.71c-10.15,26.94-31.38,42.52-53.27,44.13-21.67,1.6-46.34-9.9-62.56-43.21-.02-.04-.04-.09-.06-.14,0,0-163.28-342.02-163.17-341.79-27.79-56.29,34.13-104.4,79.99-83.62,11.28,5.11,21.81,14.24,29.52,28.79.21.39.4.79.58,1.19l55.04,124.31s.03.07.04.1l53.76,123.41,52.77-123.3,1.61-3.63c6.49,5.85,12.79,8.63,12.79,8.63l-4.05,4.89c21.73.98,29.72,23.84,29.91,23.26,1.17-3.61-.09-7.41-.76-9.51-.16-.5-.3-.99-.43-1.47-1.39-4.34-6.33-16.76-17.47-16.44l5.09-4.15s-16.09-7.48-23.51-21.92c-7.42-14.44,9.37-33.9-.33-47.89,0,0,48.63-5.12,61.51,41.44,3.01-9.45,11.27-26.5,33.21-37.65,13.49-6.85,32.13,8.28,44.85-1.22,0,0,5.67,38.88-26.69,55.44h0ZM389.76,311.02s-8.44.31-13.22,4.09c-4.75,3.75-10.82,9.29-23.98,1.98-9.09-5.05-17.2-2.42-17.2-2.42,0,0,15.76-15.1,36.59-13.02,0,0-15.36-8.81-35.74,5.42,0,0,4.14-20.19,26.76-17.74,22.62,2.45,26.79,21.69,26.79,21.69h0ZM328.69,304.48s.45-3.95-.25-9.96c-.51-4.36-1.55-9.74-3.65-15.4-2.9-7.79-7.59-15.96-15.58-22.38,5.32,5.67,8.46,11.78,10.36,17.69,1.93,6,2.35,11.63,2.41,16.22.07,5.87-.71,9.83-.71,9.83-.29,2.05,1.14,4.61,3.19,5.72,2.05,1.1,3.94.33,4.23-1.72h0ZM348.78,283.19s3.86-.64,9.75-2.89c4.27-1.63,9.53-4.03,15.08-7.5,7.62-4.76,15.63-11.3,21.91-20.42-5.55,6.45-11.53,10.98-17.32,14.32-5.88,3.39-11.38,5.28-15.88,6.56-5.75,1.63-9.62,1.97-9.62,1.97-2.01.28-4.52,2.29-5.59,4.48-1.08,2.19-.33,3.75,1.68,3.47h0Z"/>
  <path class="cls-1" d="M304.3,75.2s4.98.25,8.08,4.23c3.1,3.98,10.75,8.89,22,3.32,7.77-3.85,15.09-2.35,15.09-2.35,0,0-12.53-13.2-29.96-12.3,0,0,13.15-6.73,29.55,5.93,0,0-2.65-16.98-21.58-15.84-18.94,1.14-23.17,17-23.17,17h0Z"/>
  <path class="cls-1" d="M282.02,3.19s3.15,2.92,3,7.27c-.15,4.34,2.18,11.82,12.7,14.36,7.26,1.76,11.27,6.79,11.27,6.79,0,0-.98-15.65-12.99-24.7,0,0,12.41,2.83,16.24,20.27,0,0,7.65-12.68-5.5-22.41-13.15-9.72-24.71-1.59-24.71-1.59h0Z"/>
  <path class="cls-1" d="M389.83,53.82s3.39,5.62,1.32,11.93c-2.07,6.31-1.8,18.26,12.54,26.44,9.91,5.65,13.65,14.74,13.65,14.74,0,0,5.19-23.37-8.6-41.73,0,0,17,9.4,15.24,36.61,0,0,16.58-15.37,1.42-35.19-15.16-19.82-35.58-12.79-35.58-12.79h0Z"/>
</svg>